G04*
G04 #@! TF.GenerationSoftware,Altium Limited,CircuitStudio,1.5.2 (1.5.2.30)*
G04*
G04 Layer_Color=8388736*
%FSLAX25Y25*%
%MOIN*%
G70*
G01*
G75*
%ADD51R,0.10630X0.05512*%
%ADD52R,0.02362X0.04331*%
%ADD53R,0.05906X0.04331*%
%ADD54C,0.12000*%
%ADD55C,0.11937*%
%ADD56R,0.04331X0.03937*%
%ADD57R,0.03543X0.05906*%
%ADD58R,0.05906X0.03543*%
%ADD59R,0.03150X0.04331*%
%ADD60R,0.20472X0.20472*%
%ADD61R,0.08661X0.04331*%
%ADD62R,0.04331X0.08661*%
%ADD63R,0.03937X0.05512*%
%ADD64R,0.05118X0.01575*%
%ADD65R,0.01575X0.05118*%
%ADD66R,0.08268X0.05118*%
%ADD67R,0.05118X0.02362*%
%ADD68R,0.09409X0.07087*%
%ADD69R,0.03937X0.04331*%
%ADD70R,0.04331X0.02362*%
%ADD71R,0.03937X0.02756*%
%ADD72R,0.10236X0.13780*%
%ADD73R,0.04331X0.03150*%
%ADD74R,0.17598X0.20079*%
%ADD75R,0.03189X0.02402*%
%ADD76R,0.04331X0.05906*%
%ADD77R,0.08661X0.22441*%
%ADD78O,0.08661X0.07087*%
%ADD79R,0.08661X0.07087*%
%ADD80O,0.07087X0.08661*%
%ADD81R,0.07087X0.08661*%
%ADD82O,0.08661X0.16535*%
%ADD83O,0.16535X0.08661*%
%ADD84C,0.02756*%
%ADD85C,0.03150*%
%ADD86C,0.13386*%
D51*
X163386Y164961D02*
D03*
X495669Y141339D02*
D03*
X59842Y64173D02*
D03*
X498032Y359842D02*
D03*
X18110Y355512D02*
D03*
D52*
X498425Y322441D02*
D03*
X503150D02*
D03*
X33268Y125591D02*
D03*
X28543D02*
D03*
X39370D02*
D03*
X44094D02*
D03*
X54724D02*
D03*
X50000D02*
D03*
X265551Y171850D02*
D03*
X260827D02*
D03*
X265551Y180118D02*
D03*
X260827D02*
D03*
X259646Y242520D02*
D03*
X264370D02*
D03*
X259646Y250984D02*
D03*
X264370D02*
D03*
X169291Y194488D02*
D03*
X164567D02*
D03*
X169291Y231890D02*
D03*
X164567D02*
D03*
X200787Y154528D02*
D03*
X205512D02*
D03*
X173031Y274409D02*
D03*
X168307D02*
D03*
X173031Y284252D02*
D03*
X168307D02*
D03*
X509449Y329921D02*
D03*
X514173D02*
D03*
X509449Y338779D02*
D03*
X514173D02*
D03*
D53*
X127559Y344685D02*
D03*
Y337205D02*
D03*
X51575Y345866D02*
D03*
Y338386D02*
D03*
X94488Y344685D02*
D03*
Y337205D02*
D03*
X106693Y344685D02*
D03*
Y337205D02*
D03*
X235827Y207283D02*
D03*
Y199803D02*
D03*
D54*
X364567Y337402D02*
D03*
X78347Y77559D02*
D03*
X547244Y31890D02*
D03*
D55*
X12992Y333465D02*
D03*
D56*
X296850Y302756D02*
D03*
X304724Y306496D02*
D03*
Y299016D02*
D03*
X319685Y292913D02*
D03*
X327559Y296654D02*
D03*
Y289173D02*
D03*
D57*
X54724Y104528D02*
D03*
X62205D02*
D03*
X224803Y368504D02*
D03*
X232283D02*
D03*
X212795Y154527D02*
D03*
X220276D02*
D03*
X263779Y260630D02*
D03*
X256299D02*
D03*
X198031Y274213D02*
D03*
X205512D02*
D03*
X198031Y284252D02*
D03*
X205512D02*
D03*
X300197Y114567D02*
D03*
X307677D02*
D03*
X216732Y172047D02*
D03*
X209252D02*
D03*
D58*
X151378Y222638D02*
D03*
Y230118D02*
D03*
X447638Y87402D02*
D03*
Y94882D02*
D03*
X501181Y87402D02*
D03*
Y94882D02*
D03*
X437205Y87402D02*
D03*
Y94882D02*
D03*
X490748Y87402D02*
D03*
Y94882D02*
D03*
X341929Y87402D02*
D03*
Y94882D02*
D03*
X394685Y87598D02*
D03*
Y95079D02*
D03*
X331496Y87402D02*
D03*
Y94882D02*
D03*
X384252Y87598D02*
D03*
Y95079D02*
D03*
X235630Y87402D02*
D03*
Y94882D02*
D03*
X288583Y87402D02*
D03*
Y94882D02*
D03*
X225197Y87402D02*
D03*
Y94882D02*
D03*
X278150Y87402D02*
D03*
Y94882D02*
D03*
X129724Y87402D02*
D03*
Y94882D02*
D03*
X182480Y87402D02*
D03*
Y94882D02*
D03*
X119291Y87402D02*
D03*
Y94882D02*
D03*
X172047Y87402D02*
D03*
Y94882D02*
D03*
X523228Y122638D02*
D03*
Y115157D02*
D03*
X94488Y357677D02*
D03*
Y365158D02*
D03*
X106693Y357677D02*
D03*
Y365158D02*
D03*
X51181Y42126D02*
D03*
Y34646D02*
D03*
X71063Y42126D02*
D03*
Y34646D02*
D03*
X81102Y42126D02*
D03*
Y34646D02*
D03*
X356299Y274213D02*
D03*
Y266732D02*
D03*
X366732Y274213D02*
D03*
Y266732D02*
D03*
X117717Y38976D02*
D03*
Y46457D02*
D03*
X127756Y38976D02*
D03*
Y46457D02*
D03*
X180512Y38976D02*
D03*
Y46457D02*
D03*
X233661Y38976D02*
D03*
Y46457D02*
D03*
X286614Y38976D02*
D03*
Y46457D02*
D03*
X340158Y38976D02*
D03*
Y46457D02*
D03*
X393110Y38976D02*
D03*
Y46457D02*
D03*
X446063Y38976D02*
D03*
Y46457D02*
D03*
X499606Y38976D02*
D03*
Y46457D02*
D03*
X170472Y38976D02*
D03*
Y46457D02*
D03*
X223622Y38976D02*
D03*
Y46457D02*
D03*
X276575Y38976D02*
D03*
Y46457D02*
D03*
X330118Y38976D02*
D03*
Y46457D02*
D03*
X383071Y38976D02*
D03*
Y46457D02*
D03*
X436024Y38976D02*
D03*
Y46457D02*
D03*
X489567Y38976D02*
D03*
Y46457D02*
D03*
X108858Y79724D02*
D03*
Y72244D02*
D03*
X161811Y79724D02*
D03*
Y72244D02*
D03*
X214764Y79724D02*
D03*
Y72244D02*
D03*
X267913Y79724D02*
D03*
Y72244D02*
D03*
X321260Y79724D02*
D03*
Y72244D02*
D03*
X374016Y79724D02*
D03*
Y72244D02*
D03*
X426968Y79724D02*
D03*
Y72244D02*
D03*
X480512Y79724D02*
D03*
Y72244D02*
D03*
X522047Y73228D02*
D03*
Y80709D02*
D03*
Y57677D02*
D03*
Y65158D02*
D03*
X501378Y338189D02*
D03*
Y330709D02*
D03*
X431102Y235827D02*
D03*
Y243307D02*
D03*
X338976Y306299D02*
D03*
Y313779D02*
D03*
X327559Y306496D02*
D03*
Y313976D02*
D03*
X96063Y244291D02*
D03*
Y236811D02*
D03*
X343701Y337205D02*
D03*
Y344685D02*
D03*
X333858Y353346D02*
D03*
Y360827D02*
D03*
X324016Y337205D02*
D03*
Y344685D02*
D03*
X313779Y353346D02*
D03*
Y360827D02*
D03*
X283858Y337205D02*
D03*
Y344685D02*
D03*
X273622Y353346D02*
D03*
Y360827D02*
D03*
X293701Y353346D02*
D03*
Y360827D02*
D03*
X303937Y337205D02*
D03*
Y344685D02*
D03*
D59*
X129724Y244291D02*
D03*
X135630D02*
D03*
X432677Y108661D02*
D03*
X438583D02*
D03*
X486221D02*
D03*
X492126D02*
D03*
X326969D02*
D03*
X332874D02*
D03*
X220669Y108465D02*
D03*
X226575D02*
D03*
X273622Y108661D02*
D03*
X279528D02*
D03*
X114764D02*
D03*
X120669D02*
D03*
X167520D02*
D03*
X173425D02*
D03*
X379724D02*
D03*
X385630D02*
D03*
D60*
X488189Y279921D02*
D03*
D61*
X448779Y268484D02*
D03*
Y263484D02*
D03*
X448740Y258484D02*
D03*
X448779Y253484D02*
D03*
Y273484D02*
D03*
Y278484D02*
D03*
Y283484D02*
D03*
Y288484D02*
D03*
Y293484D02*
D03*
Y298484D02*
D03*
D62*
X452716Y242520D02*
D03*
X457717D02*
D03*
X462716D02*
D03*
X467717D02*
D03*
X472717D02*
D03*
X477716D02*
D03*
X482717D02*
D03*
X487716D02*
D03*
X492717D02*
D03*
X497717D02*
D03*
X502716D02*
D03*
X507717D02*
D03*
X512716D02*
D03*
X517717D02*
D03*
X452716Y309449D02*
D03*
X457717D02*
D03*
X462716D02*
D03*
X467717D02*
D03*
X472717D02*
D03*
X477716D02*
D03*
X482717D02*
D03*
X487716D02*
D03*
X492717D02*
D03*
X497717D02*
D03*
X502716D02*
D03*
X507717D02*
D03*
X512716D02*
D03*
X517717D02*
D03*
D63*
X489685Y55118D02*
D03*
X499685D02*
D03*
X489685Y78740D02*
D03*
X499685D02*
D03*
X446142D02*
D03*
X436142D02*
D03*
X446142Y55118D02*
D03*
X436142D02*
D03*
X383189D02*
D03*
X393189D02*
D03*
X383189Y78740D02*
D03*
X393189D02*
D03*
X340433D02*
D03*
X330433D02*
D03*
X340433Y55118D02*
D03*
X330433D02*
D03*
X277087D02*
D03*
X287087D02*
D03*
X277087Y78740D02*
D03*
X287087D02*
D03*
X233937D02*
D03*
X223937D02*
D03*
X233937Y55118D02*
D03*
X223937D02*
D03*
X170984D02*
D03*
X180984D02*
D03*
X170984Y78740D02*
D03*
X180984D02*
D03*
X128228D02*
D03*
X118228D02*
D03*
X128228Y55118D02*
D03*
X118228D02*
D03*
D64*
X253346Y226181D02*
D03*
Y224213D02*
D03*
Y222244D02*
D03*
Y220276D02*
D03*
Y218307D02*
D03*
Y216338D02*
D03*
Y214370D02*
D03*
Y212402D02*
D03*
Y210433D02*
D03*
Y208465D02*
D03*
Y206496D02*
D03*
Y204527D02*
D03*
Y202559D02*
D03*
Y200591D02*
D03*
Y198622D02*
D03*
Y196653D02*
D03*
X300984D02*
D03*
Y198622D02*
D03*
Y200591D02*
D03*
Y202559D02*
D03*
Y204527D02*
D03*
Y206496D02*
D03*
Y208465D02*
D03*
Y210433D02*
D03*
Y212402D02*
D03*
Y214370D02*
D03*
Y216338D02*
D03*
Y218307D02*
D03*
Y220276D02*
D03*
Y222244D02*
D03*
Y224213D02*
D03*
Y226181D02*
D03*
D65*
X262402Y187598D02*
D03*
X264370D02*
D03*
X266339D02*
D03*
X268307D02*
D03*
X270276D02*
D03*
X272244D02*
D03*
X274213D02*
D03*
X276181D02*
D03*
X278150D02*
D03*
X280118D02*
D03*
X282087D02*
D03*
X284055D02*
D03*
X286024D02*
D03*
X287992D02*
D03*
X289961D02*
D03*
X291929D02*
D03*
Y235236D02*
D03*
X289961D02*
D03*
X287992D02*
D03*
X286024D02*
D03*
X284055D02*
D03*
X282087D02*
D03*
X280118D02*
D03*
X278150D02*
D03*
X276181D02*
D03*
X274213D02*
D03*
X272244D02*
D03*
X270276D02*
D03*
X268307D02*
D03*
X266339D02*
D03*
X264370D02*
D03*
X262402D02*
D03*
D66*
X183858Y284252D02*
D03*
Y274409D02*
D03*
D67*
X324803Y274429D02*
D03*
Y269429D02*
D03*
Y264429D02*
D03*
Y259429D02*
D03*
X344488Y274429D02*
D03*
Y269429D02*
D03*
Y264429D02*
D03*
Y259429D02*
D03*
D68*
X149035Y146260D02*
D03*
X185216D02*
D03*
D69*
X420276Y87992D02*
D03*
X427756D02*
D03*
X424016Y95866D02*
D03*
X473819Y87992D02*
D03*
X481299D02*
D03*
X477559Y95866D02*
D03*
X314567Y87992D02*
D03*
X322047D02*
D03*
X318307Y95866D02*
D03*
X367323Y88189D02*
D03*
X374803D02*
D03*
X371063Y96063D02*
D03*
X208071Y87992D02*
D03*
X215551D02*
D03*
X211811Y95866D02*
D03*
X261221Y87992D02*
D03*
X268701D02*
D03*
X264961Y95866D02*
D03*
X102165Y87992D02*
D03*
X109646D02*
D03*
X105905Y95866D02*
D03*
X154921Y87992D02*
D03*
X162402D02*
D03*
X158661Y95866D02*
D03*
X110433Y303937D02*
D03*
X117913D02*
D03*
X114173Y311811D02*
D03*
X41535Y87992D02*
D03*
X34055D02*
D03*
X37795Y80118D02*
D03*
D70*
X100787Y305906D02*
D03*
Y310630D02*
D03*
X309449Y226181D02*
D03*
Y221457D02*
D03*
X317913Y226181D02*
D03*
Y221457D02*
D03*
X245472Y201181D02*
D03*
Y205906D02*
D03*
D71*
X95276Y288878D02*
D03*
Y293799D02*
D03*
D72*
X111024Y278346D02*
D03*
X137008D02*
D03*
D73*
X91339Y304134D02*
D03*
Y310039D02*
D03*
X94488Y386417D02*
D03*
Y380512D02*
D03*
X106693Y386417D02*
D03*
Y380512D02*
D03*
X109646Y54134D02*
D03*
Y60039D02*
D03*
X162598Y54134D02*
D03*
Y60039D02*
D03*
X215551Y54134D02*
D03*
Y60039D02*
D03*
X268701Y54134D02*
D03*
Y60039D02*
D03*
X322047Y54134D02*
D03*
Y60039D02*
D03*
X374803Y54134D02*
D03*
Y60039D02*
D03*
X427756Y54134D02*
D03*
Y60039D02*
D03*
X481299Y54134D02*
D03*
Y60039D02*
D03*
D74*
X147854Y304744D02*
D03*
D75*
X133248Y297224D02*
D03*
Y312224D02*
D03*
Y307224D02*
D03*
Y302224D02*
D03*
D76*
X517913Y320276D02*
D03*
X510433D02*
D03*
D77*
X184646Y194095D02*
D03*
Y231496D02*
D03*
D78*
X147559Y362992D02*
D03*
X137559D02*
D03*
X61575D02*
D03*
X71575D02*
D03*
X68504Y248583D02*
D03*
X49606D02*
D03*
X535039Y73937D02*
D03*
Y63937D02*
D03*
Y53937D02*
D03*
Y123937D02*
D03*
Y113937D02*
D03*
Y103937D02*
D03*
X25591Y43189D02*
D03*
Y53189D02*
D03*
D79*
X127559Y362992D02*
D03*
X51575D02*
D03*
X68504Y238583D02*
D03*
X49606D02*
D03*
X535039Y83937D02*
D03*
Y133937D02*
D03*
X25591Y63189D02*
D03*
D80*
X111929Y222778D02*
D03*
X104055D02*
D03*
X96181D02*
D03*
X88307D02*
D03*
X80433D02*
D03*
X72559D02*
D03*
X64685D02*
D03*
X56811D02*
D03*
X48937D02*
D03*
X41063D02*
D03*
X111929Y136163D02*
D03*
X104055D02*
D03*
X96181D02*
D03*
X88307D02*
D03*
X80433D02*
D03*
X72559D02*
D03*
X64685D02*
D03*
X56811D02*
D03*
X48937D02*
D03*
X81142Y22047D02*
D03*
X71142D02*
D03*
X61142D02*
D03*
X51142D02*
D03*
X441535Y22047D02*
D03*
X453346D02*
D03*
X494882D02*
D03*
X506693D02*
D03*
X335236D02*
D03*
X347047D02*
D03*
X388386D02*
D03*
X400197D02*
D03*
X228937D02*
D03*
X240748D02*
D03*
X282087D02*
D03*
X293898D02*
D03*
X175787D02*
D03*
X187598D02*
D03*
X122835D02*
D03*
X134646D02*
D03*
X452795Y138779D02*
D03*
X308583Y127559D02*
D03*
X298583D02*
D03*
X396614Y137008D02*
D03*
X406614D02*
D03*
X416614D02*
D03*
X396614Y147953D02*
D03*
X406614D02*
D03*
X416614D02*
D03*
X363779Y381102D02*
D03*
X353780D02*
D03*
X343779D02*
D03*
X333780D02*
D03*
X323780D02*
D03*
X313779D02*
D03*
X303780D02*
D03*
X293779D02*
D03*
X283780D02*
D03*
X273780D02*
D03*
X263779D02*
D03*
X253780D02*
D03*
X243779D02*
D03*
X233780D02*
D03*
X223780D02*
D03*
D81*
X41063Y136163D02*
D03*
X41142Y22047D02*
D03*
X429724Y22047D02*
D03*
X483071D02*
D03*
X323425D02*
D03*
X376575D02*
D03*
X217126D02*
D03*
X270276D02*
D03*
X163976D02*
D03*
X111024D02*
D03*
X462795Y138779D02*
D03*
X288583Y127559D02*
D03*
X386614Y137008D02*
D03*
Y147953D02*
D03*
X213779Y381102D02*
D03*
D82*
X79134Y281102D02*
D03*
X55512D02*
D03*
D83*
X67323Y262598D02*
D03*
D84*
X261417Y214173D02*
D03*
X284646Y216535D02*
D03*
X348031Y202756D02*
D03*
X294094Y203150D02*
D03*
X50787Y318110D02*
D03*
X327559Y283465D02*
D03*
X312598Y281102D02*
D03*
X294094Y291732D02*
D03*
X313779Y292913D02*
D03*
X506299Y219094D02*
D03*
X251378Y181693D02*
D03*
X492717Y196653D02*
D03*
X286811Y195472D02*
D03*
X142126Y144095D02*
D03*
X291142Y206693D02*
D03*
X310039Y216535D02*
D03*
X261417Y221260D02*
D03*
X267913D02*
D03*
X293110Y218898D02*
D03*
X153543Y207087D02*
D03*
X288386Y210433D02*
D03*
X281890Y207677D02*
D03*
X475000Y212205D02*
D03*
X229134Y170079D02*
D03*
X502756Y191535D02*
D03*
X261614Y159646D02*
D03*
X264961Y120866D02*
D03*
X223937Y125315D02*
D03*
X252953Y127362D02*
D03*
X330433Y126496D02*
D03*
X489685Y67047D02*
D03*
X436142D02*
D03*
X383189D02*
D03*
X330433D02*
D03*
X277087D02*
D03*
X223937D02*
D03*
X170984D02*
D03*
X118228D02*
D03*
X465551Y126575D02*
D03*
X415059Y125689D02*
D03*
X357283Y126378D02*
D03*
X209055Y131102D02*
D03*
X204921D02*
D03*
X269882Y224213D02*
D03*
X270276Y228346D02*
D03*
X336417Y264370D02*
D03*
X338386Y259449D02*
D03*
X253346Y192323D02*
D03*
X260827Y198228D02*
D03*
X502756Y233071D02*
D03*
X484055Y192323D02*
D03*
X504528Y103937D02*
D03*
X512598Y139567D02*
D03*
X510433Y294291D02*
D03*
X512598Y199409D02*
D03*
X134449Y103937D02*
D03*
X452165D02*
D03*
X399606D02*
D03*
X346850D02*
D03*
X293504D02*
D03*
X240354D02*
D03*
X187402D02*
D03*
X248031Y176378D02*
D03*
X311811Y274606D02*
D03*
X256299D02*
D03*
X71063Y57480D02*
D03*
X53347Y52953D02*
D03*
X153543Y203543D02*
D03*
X60630Y166339D02*
D03*
X235827Y160433D02*
D03*
X197638Y137795D02*
D03*
X86811Y51968D02*
D03*
X294783Y160531D02*
D03*
X286024Y163976D02*
D03*
X235827Y229528D02*
D03*
X266732Y255709D02*
D03*
X225984Y198031D02*
D03*
X315354Y313976D02*
D03*
X314764Y320276D02*
D03*
X358071Y154528D02*
D03*
X51575Y87992D02*
D03*
X265551Y164764D02*
D03*
X280118Y163386D02*
D03*
X294094Y176378D02*
D03*
X297441Y173228D02*
D03*
X301575Y189764D02*
D03*
X283071Y179331D02*
D03*
X238189Y255512D02*
D03*
X332677Y220079D02*
D03*
X304331Y186614D02*
D03*
X307874Y184252D02*
D03*
X305906Y176772D02*
D03*
X308661Y173228D02*
D03*
X359842Y189764D02*
D03*
X398031Y188583D02*
D03*
X390945Y186614D02*
D03*
X387795Y176772D02*
D03*
X377953Y172835D02*
D03*
X436614Y177165D02*
D03*
Y137008D02*
D03*
X425984Y154331D02*
D03*
X340158Y138189D02*
D03*
X373228D02*
D03*
X271260Y135039D02*
D03*
X306693Y103937D02*
D03*
X288583Y114567D02*
D03*
X223622Y287008D02*
D03*
X277165Y165354D02*
D03*
X291732Y308661D02*
D03*
X343701Y322835D02*
D03*
D85*
X118110Y324016D02*
D03*
X43701Y330709D02*
D03*
X118110D02*
D03*
X114961Y297224D02*
D03*
X93307Y299213D02*
D03*
D86*
X17717Y375984D02*
D03*
Y17717D02*
D03*
X536614D02*
D03*
Y375984D02*
D03*
X550394Y164567D02*
D03*
X184252D02*
D03*
M02*
