G04*
G04 #@! TF.GenerationSoftware,Altium Limited,CircuitStudio,1.5.2 (1.5.2.30)*
G04*
G04 Layer_Color=8421504*
%FSLAX25Y25*%
%MOIN*%
G70*
G01*
G75*
%ADD10R,0.09843X0.04724*%
%ADD11R,0.01575X0.03543*%
%ADD12R,0.05118X0.03543*%
%ADD15R,0.03543X0.03150*%
%ADD16R,0.02756X0.05118*%
%ADD17R,0.05118X0.02756*%
%ADD18R,0.02362X0.03543*%
%ADD19R,0.19685X0.19685*%
%ADD20R,0.07874X0.03543*%
%ADD21R,0.03543X0.07874*%
%ADD22R,0.03150X0.04724*%
%ADD23R,0.04724X0.01181*%
%ADD24R,0.01181X0.04724*%
%ADD25R,0.07480X0.04331*%
%ADD26R,0.04331X0.01575*%
%ADD27R,0.08622X0.06299*%
%ADD28R,0.03150X0.03543*%
%ADD29R,0.03543X0.01575*%
%ADD30R,0.03150X0.01969*%
%ADD31R,0.09449X0.12992*%
%ADD32R,0.03543X0.02362*%
%ADD33R,0.16811X0.19291*%
%ADD34R,0.02402X0.01614*%
%ADD35R,0.03543X0.05118*%
%ADD36R,0.07874X0.21654*%
D10*
X163386Y164961D02*
D03*
X495669Y141339D02*
D03*
X59842Y64173D02*
D03*
X498032Y359842D02*
D03*
X18110Y355512D02*
D03*
D11*
X498425Y322441D02*
D03*
X503150D02*
D03*
X33268Y125591D02*
D03*
X28543D02*
D03*
X39370D02*
D03*
X44094D02*
D03*
X54724D02*
D03*
X50000D02*
D03*
X265551Y171850D02*
D03*
X260827D02*
D03*
X265551Y180118D02*
D03*
X260827D02*
D03*
X259646Y242520D02*
D03*
X264370D02*
D03*
X259646Y250984D02*
D03*
X264370D02*
D03*
X169291Y194488D02*
D03*
X164567D02*
D03*
X169291Y231890D02*
D03*
X164567D02*
D03*
X200787Y154528D02*
D03*
X205512D02*
D03*
X173031Y274409D02*
D03*
X168307D02*
D03*
X173031Y284252D02*
D03*
X168307D02*
D03*
X509449Y329921D02*
D03*
X514173D02*
D03*
X509449Y338779D02*
D03*
X514173D02*
D03*
D12*
X127559Y344685D02*
D03*
Y337205D02*
D03*
X51575Y345866D02*
D03*
Y338386D02*
D03*
X94488Y344685D02*
D03*
Y337205D02*
D03*
X106693Y344685D02*
D03*
Y337205D02*
D03*
X235827Y207283D02*
D03*
Y199803D02*
D03*
D15*
X296850Y302756D02*
D03*
X304724Y306496D02*
D03*
Y299016D02*
D03*
X319685Y292913D02*
D03*
X327559Y296654D02*
D03*
Y289173D02*
D03*
D16*
X54724Y104528D02*
D03*
X62205D02*
D03*
X224803Y368504D02*
D03*
X232283D02*
D03*
X212795Y154527D02*
D03*
X220276D02*
D03*
X263779Y260630D02*
D03*
X256299D02*
D03*
X198031Y274213D02*
D03*
X205512D02*
D03*
X198031Y284252D02*
D03*
X205512D02*
D03*
X300197Y114567D02*
D03*
X307677D02*
D03*
X216732Y172047D02*
D03*
X209252D02*
D03*
D17*
X151378Y222638D02*
D03*
Y230118D02*
D03*
X447638Y87402D02*
D03*
Y94882D02*
D03*
X501181Y87402D02*
D03*
Y94882D02*
D03*
X437205Y87402D02*
D03*
Y94882D02*
D03*
X490748Y87402D02*
D03*
Y94882D02*
D03*
X341929Y87402D02*
D03*
Y94882D02*
D03*
X394685Y87598D02*
D03*
Y95079D02*
D03*
X331496Y87402D02*
D03*
Y94882D02*
D03*
X384252Y87598D02*
D03*
Y95079D02*
D03*
X235630Y87402D02*
D03*
Y94882D02*
D03*
X288583Y87402D02*
D03*
Y94882D02*
D03*
X225197Y87402D02*
D03*
Y94882D02*
D03*
X278150Y87402D02*
D03*
Y94882D02*
D03*
X129724Y87402D02*
D03*
Y94882D02*
D03*
X182480Y87402D02*
D03*
Y94882D02*
D03*
X119291Y87402D02*
D03*
Y94882D02*
D03*
X172047Y87402D02*
D03*
Y94882D02*
D03*
X523228Y122638D02*
D03*
Y115157D02*
D03*
X94488Y357677D02*
D03*
Y365158D02*
D03*
X106693Y357677D02*
D03*
Y365158D02*
D03*
X51181Y42126D02*
D03*
Y34646D02*
D03*
X71063Y42126D02*
D03*
Y34646D02*
D03*
X81102Y42126D02*
D03*
Y34646D02*
D03*
X356299Y274213D02*
D03*
Y266732D02*
D03*
X366732Y274213D02*
D03*
Y266732D02*
D03*
X117717Y38976D02*
D03*
Y46457D02*
D03*
X127756Y38976D02*
D03*
Y46457D02*
D03*
X180512Y38976D02*
D03*
Y46457D02*
D03*
X233661Y38976D02*
D03*
Y46457D02*
D03*
X286614Y38976D02*
D03*
Y46457D02*
D03*
X340158Y38976D02*
D03*
Y46457D02*
D03*
X393110Y38976D02*
D03*
Y46457D02*
D03*
X446063Y38976D02*
D03*
Y46457D02*
D03*
X499606Y38976D02*
D03*
Y46457D02*
D03*
X170472Y38976D02*
D03*
Y46457D02*
D03*
X223622Y38976D02*
D03*
Y46457D02*
D03*
X276575Y38976D02*
D03*
Y46457D02*
D03*
X330118Y38976D02*
D03*
Y46457D02*
D03*
X383071Y38976D02*
D03*
Y46457D02*
D03*
X436024Y38976D02*
D03*
Y46457D02*
D03*
X489567Y38976D02*
D03*
Y46457D02*
D03*
X108858Y79724D02*
D03*
Y72244D02*
D03*
X161811Y79724D02*
D03*
Y72244D02*
D03*
X214764Y79724D02*
D03*
Y72244D02*
D03*
X267913Y79724D02*
D03*
Y72244D02*
D03*
X321260Y79724D02*
D03*
Y72244D02*
D03*
X374016Y79724D02*
D03*
Y72244D02*
D03*
X426968Y79724D02*
D03*
Y72244D02*
D03*
X480512Y79724D02*
D03*
Y72244D02*
D03*
X522047Y73228D02*
D03*
Y80709D02*
D03*
Y57677D02*
D03*
Y65158D02*
D03*
X501378Y338189D02*
D03*
Y330709D02*
D03*
X431102Y235827D02*
D03*
Y243307D02*
D03*
X338976Y306299D02*
D03*
Y313779D02*
D03*
X327559Y306496D02*
D03*
Y313976D02*
D03*
X96063Y244291D02*
D03*
Y236811D02*
D03*
X343701Y337205D02*
D03*
Y344685D02*
D03*
X333858Y353346D02*
D03*
Y360827D02*
D03*
X324016Y337205D02*
D03*
Y344685D02*
D03*
X313779Y353346D02*
D03*
Y360827D02*
D03*
X283858Y337205D02*
D03*
Y344685D02*
D03*
X273622Y353346D02*
D03*
Y360827D02*
D03*
X293701Y353346D02*
D03*
Y360827D02*
D03*
X303937Y337205D02*
D03*
Y344685D02*
D03*
D18*
X129724Y244291D02*
D03*
X135630D02*
D03*
X432677Y108661D02*
D03*
X438583D02*
D03*
X486221D02*
D03*
X492126D02*
D03*
X326969D02*
D03*
X332874D02*
D03*
X220669Y108465D02*
D03*
X226575D02*
D03*
X273622Y108661D02*
D03*
X279528D02*
D03*
X114764D02*
D03*
X120669D02*
D03*
X167520D02*
D03*
X173425D02*
D03*
X379724D02*
D03*
X385630D02*
D03*
D19*
X488189Y279921D02*
D03*
D20*
X448779Y268484D02*
D03*
Y263484D02*
D03*
X448740Y258484D02*
D03*
X448779Y253484D02*
D03*
Y273484D02*
D03*
Y278484D02*
D03*
Y283484D02*
D03*
Y288484D02*
D03*
Y293484D02*
D03*
Y298484D02*
D03*
D21*
X452716Y242520D02*
D03*
X457717D02*
D03*
X462716D02*
D03*
X467717D02*
D03*
X472717D02*
D03*
X477716D02*
D03*
X482717D02*
D03*
X487716D02*
D03*
X492717D02*
D03*
X497717D02*
D03*
X502716D02*
D03*
X507717D02*
D03*
X512716D02*
D03*
X517717D02*
D03*
X452716Y309449D02*
D03*
X457717D02*
D03*
X462716D02*
D03*
X467717D02*
D03*
X472717D02*
D03*
X477716D02*
D03*
X482717D02*
D03*
X487716D02*
D03*
X492717D02*
D03*
X497717D02*
D03*
X502716D02*
D03*
X507717D02*
D03*
X512716D02*
D03*
X517717D02*
D03*
D22*
X489685Y55118D02*
D03*
X499685D02*
D03*
X489685Y78740D02*
D03*
X499685D02*
D03*
X446142D02*
D03*
X436142D02*
D03*
X446142Y55118D02*
D03*
X436142D02*
D03*
X383189D02*
D03*
X393189D02*
D03*
X383189Y78740D02*
D03*
X393189D02*
D03*
X340433D02*
D03*
X330433D02*
D03*
X340433Y55118D02*
D03*
X330433D02*
D03*
X277087D02*
D03*
X287087D02*
D03*
X277087Y78740D02*
D03*
X287087D02*
D03*
X233937D02*
D03*
X223937D02*
D03*
X233937Y55118D02*
D03*
X223937D02*
D03*
X170984D02*
D03*
X180984D02*
D03*
X170984Y78740D02*
D03*
X180984D02*
D03*
X128228D02*
D03*
X118228D02*
D03*
X128228Y55118D02*
D03*
X118228D02*
D03*
D23*
X253346Y226181D02*
D03*
Y224213D02*
D03*
Y222244D02*
D03*
Y220276D02*
D03*
Y218307D02*
D03*
Y216338D02*
D03*
Y214370D02*
D03*
Y212402D02*
D03*
Y210433D02*
D03*
Y208465D02*
D03*
Y206496D02*
D03*
Y204527D02*
D03*
Y202559D02*
D03*
Y200591D02*
D03*
Y198622D02*
D03*
Y196653D02*
D03*
X300984D02*
D03*
Y198622D02*
D03*
Y200591D02*
D03*
Y202559D02*
D03*
Y204527D02*
D03*
Y206496D02*
D03*
Y208465D02*
D03*
Y210433D02*
D03*
Y212402D02*
D03*
Y214370D02*
D03*
Y216338D02*
D03*
Y218307D02*
D03*
Y220276D02*
D03*
Y222244D02*
D03*
Y224213D02*
D03*
Y226181D02*
D03*
D24*
X262402Y187598D02*
D03*
X264370D02*
D03*
X266339D02*
D03*
X268307D02*
D03*
X270276D02*
D03*
X272244D02*
D03*
X274213D02*
D03*
X276181D02*
D03*
X278150D02*
D03*
X280118D02*
D03*
X282087D02*
D03*
X284055D02*
D03*
X286024D02*
D03*
X287992D02*
D03*
X289961D02*
D03*
X291929D02*
D03*
Y235236D02*
D03*
X289961D02*
D03*
X287992D02*
D03*
X286024D02*
D03*
X284055D02*
D03*
X282087D02*
D03*
X280118D02*
D03*
X278150D02*
D03*
X276181D02*
D03*
X274213D02*
D03*
X272244D02*
D03*
X270276D02*
D03*
X268307D02*
D03*
X266339D02*
D03*
X264370D02*
D03*
X262402D02*
D03*
D25*
X183858Y284252D02*
D03*
Y274409D02*
D03*
D26*
X324803Y274429D02*
D03*
Y269429D02*
D03*
Y264429D02*
D03*
Y259429D02*
D03*
X344488Y274429D02*
D03*
Y269429D02*
D03*
Y264429D02*
D03*
Y259429D02*
D03*
D27*
X149035Y146260D02*
D03*
X185216D02*
D03*
D28*
X420276Y87992D02*
D03*
X427756D02*
D03*
X424016Y95866D02*
D03*
X473819Y87992D02*
D03*
X481299D02*
D03*
X477559Y95866D02*
D03*
X314567Y87992D02*
D03*
X322047D02*
D03*
X318307Y95866D02*
D03*
X367323Y88189D02*
D03*
X374803D02*
D03*
X371063Y96063D02*
D03*
X208071Y87992D02*
D03*
X215551D02*
D03*
X211811Y95866D02*
D03*
X261221Y87992D02*
D03*
X268701D02*
D03*
X264961Y95866D02*
D03*
X102165Y87992D02*
D03*
X109646D02*
D03*
X105905Y95866D02*
D03*
X154921Y87992D02*
D03*
X162402D02*
D03*
X158661Y95866D02*
D03*
X110433Y303937D02*
D03*
X117913D02*
D03*
X114173Y311811D02*
D03*
X41535Y87992D02*
D03*
X34055D02*
D03*
X37795Y80118D02*
D03*
D29*
X100787Y305906D02*
D03*
Y310630D02*
D03*
X309449Y226181D02*
D03*
Y221457D02*
D03*
X317913Y226181D02*
D03*
Y221457D02*
D03*
X245472Y201181D02*
D03*
Y205906D02*
D03*
D30*
X95276Y288878D02*
D03*
Y293799D02*
D03*
D31*
X111024Y278346D02*
D03*
X137008D02*
D03*
D32*
X91339Y304134D02*
D03*
Y310039D02*
D03*
X94488Y386417D02*
D03*
Y380512D02*
D03*
X106693Y386417D02*
D03*
Y380512D02*
D03*
X109646Y54134D02*
D03*
Y60039D02*
D03*
X162598Y54134D02*
D03*
Y60039D02*
D03*
X215551Y54134D02*
D03*
Y60039D02*
D03*
X268701Y54134D02*
D03*
Y60039D02*
D03*
X322047Y54134D02*
D03*
Y60039D02*
D03*
X374803Y54134D02*
D03*
Y60039D02*
D03*
X427756Y54134D02*
D03*
Y60039D02*
D03*
X481299Y54134D02*
D03*
Y60039D02*
D03*
D33*
X147854Y304744D02*
D03*
D34*
X133248Y297224D02*
D03*
Y312224D02*
D03*
Y307224D02*
D03*
Y302224D02*
D03*
D35*
X517913Y320276D02*
D03*
X510433D02*
D03*
D36*
X184646Y194095D02*
D03*
Y231496D02*
D03*
M02*
