G04*
G04 #@! TF.GenerationSoftware,Altium Limited,CircuitStudio,1.5.2 (30)*
G04*
G04 Layer_Physical_Order=3*
G04 Layer_Color=32768*
%FSLAX25Y25*%
%MOIN*%
G70*
G01*
G75*
%ADD38C,0.01181*%
%ADD39O,0.07874X0.06299*%
%ADD40R,0.07874X0.06299*%
%ADD41O,0.06299X0.07874*%
%ADD42R,0.06299X0.07874*%
%ADD43O,0.07874X0.15748*%
%ADD44O,0.15748X0.07874*%
%ADD45C,0.01969*%
%ADD46C,0.02362*%
%ADD47C,0.12598*%
G36*
X550394Y393701D02*
Y393701D01*
X550881Y393671D01*
X551421Y393600D01*
X552379Y393203D01*
X553202Y392572D01*
X553833Y391749D01*
X554229Y390792D01*
X554365Y389764D01*
X554360Y335079D01*
X554331Y335055D01*
X525984Y335055D01*
X525677Y334994D01*
X525417Y334820D01*
X525243Y334559D01*
X525181Y334252D01*
Y218110D01*
X525243Y217803D01*
X525417Y217543D01*
X525677Y217369D01*
X525984Y217307D01*
X553850Y217307D01*
X554349Y216815D01*
X554345Y170976D01*
X553917Y170719D01*
X553119Y171146D01*
X551783Y171551D01*
X550394Y171688D01*
X549005Y171551D01*
X547669Y171146D01*
X546438Y170488D01*
X545359Y169602D01*
X544473Y168523D01*
X543815Y167292D01*
X543410Y165956D01*
X543273Y164567D01*
X543410Y163178D01*
X543815Y161842D01*
X544473Y160611D01*
X545359Y159532D01*
X546438Y158646D01*
X547669Y157988D01*
X549005Y157583D01*
X550394Y157446D01*
X551783Y157583D01*
X553119Y157988D01*
X553915Y158414D01*
X554344Y158157D01*
X554331Y3937D01*
X554331D01*
X554360Y3903D01*
X554229Y2909D01*
X553833Y1952D01*
X553202Y1129D01*
X552379Y498D01*
X551421Y101D01*
X550394Y-34D01*
X550394D01*
X3937Y0D01*
Y0D01*
X3449Y30D01*
X2909Y101D01*
X1952Y498D01*
X1129Y1129D01*
X498Y1952D01*
X101Y2909D01*
X-30Y3903D01*
X0Y3937D01*
X0D01*
Y69937D01*
X67Y69950D01*
X458Y70211D01*
X719Y70602D01*
X810Y71063D01*
Y147228D01*
X10055D01*
Y193698D01*
X10555Y193850D01*
X10566Y193833D01*
X10956Y193572D01*
X11417Y193481D01*
X11787Y193554D01*
X11878Y193572D01*
X12269Y193833D01*
X12530Y194224D01*
X12622Y194685D01*
Y194685D01*
X12530Y195146D01*
X12269Y195537D01*
X11878Y195798D01*
X11417Y195889D01*
X10956Y195798D01*
X10800Y195693D01*
X10566Y195537D01*
X10566Y195537D01*
X10555Y195521D01*
X10055Y195672D01*
Y214783D01*
X810D01*
Y255496D01*
X24409D01*
X24717Y255557D01*
X24977Y255732D01*
X25151Y255992D01*
X25212Y256299D01*
Y300787D01*
X25151Y301095D01*
X24977Y301355D01*
X24717Y301529D01*
X24409Y301590D01*
X236D01*
X67Y301703D01*
X0Y301716D01*
Y389764D01*
X0D01*
X-30Y389797D01*
X101Y390792D01*
X498Y391749D01*
X1129Y392572D01*
X1952Y393203D01*
X2909Y393599D01*
X3937Y393735D01*
X3937D01*
X550394Y393701D01*
D02*
G37*
%LPC*%
G36*
X396614Y141766D02*
X395586Y141631D01*
X394629Y141234D01*
X393806Y140603D01*
X393175Y139781D01*
X392778Y138823D01*
X392643Y137795D01*
Y136221D01*
X392778Y135193D01*
X393175Y134235D01*
X393806Y133413D01*
X394629Y132782D01*
X395586Y132385D01*
X396614Y132249D01*
X397642Y132385D01*
X398600Y132782D01*
X399422Y133413D01*
X400053Y134235D01*
X400450Y135193D01*
X400585Y136221D01*
Y137795D01*
X400450Y138823D01*
X400053Y139781D01*
X399422Y140603D01*
X398600Y141234D01*
X397642Y141631D01*
X396614Y141766D01*
D02*
G37*
G36*
X116115Y135663D02*
X112429D01*
Y131256D01*
X113012Y131333D01*
X114022Y131751D01*
X114889Y132416D01*
X115554Y133283D01*
X115972Y134293D01*
X116115Y135376D01*
Y135663D01*
D02*
G37*
G36*
X416614Y141766D02*
X415586Y141631D01*
X414629Y141234D01*
X413806Y140603D01*
X413175Y139781D01*
X412779Y138823D01*
X412643Y137795D01*
Y136221D01*
X412779Y135193D01*
X413175Y134235D01*
X413806Y133413D01*
X414629Y132782D01*
X415586Y132385D01*
X416614Y132249D01*
X417642Y132385D01*
X418600Y132782D01*
X419422Y133413D01*
X420053Y134235D01*
X420450Y135193D01*
X420585Y136221D01*
Y137795D01*
X420450Y138823D01*
X420053Y139781D01*
X419422Y140603D01*
X418600Y141234D01*
X417642Y141631D01*
X416614Y141766D01*
D02*
G37*
G36*
X406614D02*
X405586Y141631D01*
X404629Y141234D01*
X403806Y140603D01*
X403175Y139781D01*
X402778Y138823D01*
X402643Y137795D01*
Y136221D01*
X402778Y135193D01*
X403175Y134235D01*
X403806Y133413D01*
X404629Y132782D01*
X405586Y132385D01*
X406614Y132249D01*
X407642Y132385D01*
X408600Y132782D01*
X409422Y133413D01*
X410053Y134235D01*
X410450Y135193D01*
X410585Y136221D01*
Y137795D01*
X410450Y138823D01*
X410053Y139781D01*
X409422Y140603D01*
X408600Y141234D01*
X407642Y141631D01*
X406614Y141766D01*
D02*
G37*
G36*
X534539Y133437D02*
X530102D01*
Y129787D01*
X534539D01*
Y133437D01*
D02*
G37*
G36*
X209055Y132909D02*
X208364Y132771D01*
X207778Y132380D01*
X207386Y131794D01*
X207249Y131102D01*
X207386Y130411D01*
X207778Y129825D01*
X208364Y129434D01*
X209055Y129296D01*
X209746Y129434D01*
X210332Y129825D01*
X210724Y130411D01*
X210861Y131102D01*
X210724Y131794D01*
X210332Y132380D01*
X209746Y132771D01*
X209055Y132909D01*
D02*
G37*
G36*
X235827Y231334D02*
X235136Y231196D01*
X234549Y230805D01*
X234158Y230219D01*
X234020Y229528D01*
X234158Y228836D01*
X234422Y228441D01*
Y161519D01*
X234158Y161124D01*
X234020Y160433D01*
X234158Y159742D01*
X234549Y159156D01*
X235136Y158764D01*
X235601Y158671D01*
X238949Y155324D01*
Y105342D01*
X188488D01*
X188093Y105606D01*
X187402Y105743D01*
X186710Y105606D01*
X186315Y105342D01*
X135535D01*
X135140Y105606D01*
X134449Y105743D01*
X133758Y105606D01*
X133363Y105342D01*
X56693D01*
X56155Y105235D01*
X55699Y104930D01*
X43009Y92240D01*
X42547Y92431D01*
Y131439D01*
X45000D01*
Y133286D01*
X45498Y133390D01*
X46129Y132568D01*
X46951Y131937D01*
X47909Y131540D01*
X48937Y131405D01*
X49965Y131540D01*
X50923Y131937D01*
X51745Y132568D01*
X52376Y133390D01*
X52603Y133940D01*
X53145D01*
X53372Y133390D01*
X54003Y132568D01*
X54826Y131937D01*
X55783Y131540D01*
X56811Y131405D01*
X57839Y131540D01*
X58797Y131937D01*
X59619Y132568D01*
X60250Y133390D01*
X60477Y133940D01*
X61019D01*
X61246Y133390D01*
X61877Y132568D01*
X62700Y131937D01*
X63657Y131540D01*
X64685Y131405D01*
X65713Y131540D01*
X66671Y131937D01*
X67493Y132568D01*
X68124Y133390D01*
X68352Y133940D01*
X68893D01*
X69120Y133390D01*
X69751Y132568D01*
X70574Y131937D01*
X71531Y131540D01*
X72559Y131405D01*
X73587Y131540D01*
X74545Y131937D01*
X75367Y132568D01*
X75998Y133390D01*
X76226Y133940D01*
X76767D01*
X76994Y133390D01*
X77625Y132568D01*
X78448Y131937D01*
X79405Y131540D01*
X80433Y131405D01*
X81461Y131540D01*
X82419Y131937D01*
X83241Y132568D01*
X83872Y133390D01*
X84100Y133940D01*
X84641D01*
X84868Y133390D01*
X85499Y132568D01*
X86322Y131937D01*
X87279Y131540D01*
X88307Y131405D01*
X89335Y131540D01*
X90293Y131937D01*
X91115Y132568D01*
X91746Y133390D01*
X91974Y133940D01*
X92515D01*
X92742Y133390D01*
X93373Y132568D01*
X94196Y131937D01*
X95153Y131540D01*
X96181Y131405D01*
X97209Y131540D01*
X98167Y131937D01*
X98989Y132568D01*
X99620Y133390D01*
X99848Y133940D01*
X100389D01*
X100616Y133390D01*
X101247Y132568D01*
X102070Y131937D01*
X103027Y131540D01*
X104055Y131405D01*
X105083Y131540D01*
X106041Y131937D01*
X106863Y132568D01*
X107494Y133390D01*
X107606Y133662D01*
X108148D01*
X108305Y133283D01*
X108970Y132416D01*
X109836Y131751D01*
X110846Y131333D01*
X111429Y131256D01*
Y136163D01*
Y141070D01*
X110846Y140994D01*
X109836Y140576D01*
X108970Y139910D01*
X108305Y139043D01*
X108148Y138665D01*
X107606D01*
X107494Y138936D01*
X106863Y139759D01*
X106041Y140390D01*
X105083Y140786D01*
X104055Y140922D01*
X103027Y140786D01*
X102070Y140390D01*
X101247Y139759D01*
X100616Y138936D01*
X100389Y138387D01*
X99848D01*
X99620Y138936D01*
X98989Y139759D01*
X98167Y140390D01*
X97209Y140786D01*
X96181Y140922D01*
X95153Y140786D01*
X94196Y140390D01*
X93373Y139759D01*
X92742Y138936D01*
X92515Y138387D01*
X91974D01*
X91746Y138936D01*
X91115Y139759D01*
X90293Y140390D01*
X89335Y140786D01*
X88307Y140922D01*
X87279Y140786D01*
X86322Y140390D01*
X85499Y139759D01*
X84868Y138936D01*
X84641Y138387D01*
X84100D01*
X83872Y138936D01*
X83241Y139759D01*
X82419Y140390D01*
X81461Y140786D01*
X80433Y140922D01*
X79405Y140786D01*
X78448Y140390D01*
X77625Y139759D01*
X76994Y138936D01*
X76767Y138387D01*
X76226D01*
X75998Y138936D01*
X75367Y139759D01*
X74545Y140390D01*
X73587Y140786D01*
X72559Y140922D01*
X71531Y140786D01*
X70574Y140390D01*
X69751Y139759D01*
X69120Y138936D01*
X68893Y138387D01*
X68352D01*
X68124Y138936D01*
X67493Y139759D01*
X66671Y140390D01*
X65713Y140786D01*
X64685Y140922D01*
X63657Y140786D01*
X62700Y140390D01*
X61877Y139759D01*
X61246Y138936D01*
X61019Y138387D01*
X60477D01*
X60250Y138936D01*
X59619Y139759D01*
X58797Y140390D01*
X57839Y140786D01*
X56811Y140922D01*
X55783Y140786D01*
X54826Y140390D01*
X54003Y139759D01*
X53372Y138936D01*
X53145Y138387D01*
X52603D01*
X52376Y138936D01*
X51745Y139759D01*
X50923Y140390D01*
X49965Y140786D01*
X48937Y140922D01*
X47909Y140786D01*
X46951Y140390D01*
X46129Y139759D01*
X45498Y138936D01*
X45000Y139040D01*
Y140888D01*
X37126D01*
Y131439D01*
X39737D01*
Y88386D01*
Y26772D01*
X37205D01*
Y17323D01*
X45079D01*
Y26772D01*
X42547D01*
Y87804D01*
X57275Y102532D01*
X133363D01*
X133758Y102268D01*
X134449Y102131D01*
X135140Y102268D01*
X135535Y102532D01*
X186315D01*
X186710Y102268D01*
X187402Y102131D01*
X188093Y102268D01*
X188488Y102532D01*
X239268D01*
X239663Y102268D01*
X240354Y102131D01*
X241046Y102268D01*
X241441Y102532D01*
X292418D01*
X292813Y102268D01*
X293504Y102131D01*
X294195Y102268D01*
X294590Y102532D01*
X305607D01*
X306002Y102268D01*
X306693Y102131D01*
X307384Y102268D01*
X307779Y102532D01*
X345764D01*
X346159Y102268D01*
X346850Y102131D01*
X347542Y102268D01*
X347937Y102532D01*
X398520D01*
X398915Y102268D01*
X399606Y102131D01*
X400298Y102268D01*
X400693Y102532D01*
X451079D01*
X451474Y102268D01*
X452165Y102131D01*
X452857Y102268D01*
X453252Y102532D01*
X503441D01*
X503836Y102268D01*
X504528Y102131D01*
X505219Y102268D01*
X505614Y102532D01*
X517922D01*
X520052Y100402D01*
Y86221D01*
X520159Y85683D01*
X520463Y85227D01*
X522747Y82944D01*
X523203Y82639D01*
X523740Y82532D01*
X530315D01*
Y80000D01*
X539764D01*
Y87874D01*
X530315D01*
Y85342D01*
X524322D01*
X522862Y86802D01*
Y100984D01*
X522755Y101522D01*
X522450Y101978D01*
X519497Y104930D01*
X519042Y105235D01*
X518504Y105342D01*
X511525D01*
X511334Y105804D01*
X513592Y108062D01*
X513896Y108518D01*
X514003Y109055D01*
Y138481D01*
X514267Y138876D01*
X514405Y139567D01*
X514267Y140258D01*
X513876Y140844D01*
X513290Y141236D01*
X512598Y141373D01*
X511907Y141236D01*
X511321Y140844D01*
X510930Y140258D01*
X510792Y139567D01*
X510930Y138876D01*
X511194Y138481D01*
Y109637D01*
X506898Y105342D01*
X505614D01*
X505219Y105606D01*
X504528Y105743D01*
X503836Y105606D01*
X503441Y105342D01*
X453252D01*
X452857Y105606D01*
X452165Y105743D01*
X451474Y105606D01*
X451079Y105342D01*
X400693D01*
X400298Y105606D01*
X399606Y105743D01*
X398915Y105606D01*
X398520Y105342D01*
X347937D01*
X347542Y105606D01*
X346850Y105743D01*
X346159Y105606D01*
X345764Y105342D01*
X307779D01*
X307384Y105606D01*
X306693Y105743D01*
X306002Y105606D01*
X305607Y105342D01*
X294590D01*
X294195Y105606D01*
X293504Y105743D01*
X292813Y105606D01*
X292418Y105342D01*
X241759D01*
Y155905D01*
X241652Y156443D01*
X241348Y156899D01*
X237588Y160658D01*
X237496Y161124D01*
X237232Y161519D01*
Y228441D01*
X237496Y228836D01*
X237633Y229528D01*
X237496Y230219D01*
X237104Y230805D01*
X236518Y231196D01*
X235827Y231334D01*
D02*
G37*
G36*
X539976Y133437D02*
X535539D01*
Y129787D01*
X539976D01*
Y133437D01*
D02*
G37*
G36*
Y138087D02*
X535539D01*
Y134437D01*
X539976D01*
Y138087D01*
D02*
G37*
G36*
X534539D02*
X530102D01*
Y134437D01*
X534539D01*
Y138087D01*
D02*
G37*
G36*
X197638Y139602D02*
X196947Y139464D01*
X196361Y139073D01*
X195969Y138487D01*
X195831Y137795D01*
X195969Y137104D01*
X196361Y136518D01*
X196947Y136126D01*
X197638Y135989D01*
X198329Y136126D01*
X198915Y136518D01*
X199307Y137104D01*
X199444Y137795D01*
X199307Y138487D01*
X198915Y139073D01*
X198329Y139464D01*
X197638Y139602D01*
D02*
G37*
G36*
X436614Y138814D02*
X435923Y138677D01*
X435337Y138285D01*
X434945Y137699D01*
X434808Y137008D01*
X434945Y136317D01*
X435337Y135731D01*
X435923Y135339D01*
X436614Y135202D01*
X437305Y135339D01*
X437891Y135731D01*
X438283Y136317D01*
X438420Y137008D01*
X438283Y137699D01*
X437891Y138285D01*
X437305Y138677D01*
X436614Y138814D01*
D02*
G37*
G36*
X452795Y143538D02*
X451767Y143403D01*
X450810Y143006D01*
X449987Y142375D01*
X449356Y141552D01*
X448960Y140595D01*
X448824Y139567D01*
Y137992D01*
X448960Y136964D01*
X449356Y136007D01*
X449987Y135184D01*
X450810Y134553D01*
X451767Y134157D01*
X452795Y134021D01*
X453823Y134157D01*
X454781Y134553D01*
X455603Y135184D01*
X456234Y136007D01*
X456631Y136964D01*
X456766Y137992D01*
Y139567D01*
X456631Y140595D01*
X456234Y141552D01*
X455603Y142375D01*
X454781Y143006D01*
X453823Y143403D01*
X452795Y143538D01*
D02*
G37*
G36*
X271260Y136846D02*
X270569Y136708D01*
X269983Y136317D01*
X269591Y135731D01*
X269454Y135039D01*
X269591Y134348D01*
X269983Y133762D01*
X270569Y133370D01*
X271260Y133233D01*
X271951Y133370D01*
X272537Y133762D01*
X272929Y134348D01*
X273066Y135039D01*
X272929Y135731D01*
X272537Y136317D01*
X271951Y136708D01*
X271260Y136846D01*
D02*
G37*
G36*
X390551Y141732D02*
X382677D01*
Y132283D01*
X390551D01*
Y141732D01*
D02*
G37*
G36*
X466945Y138279D02*
X463295D01*
Y133843D01*
X466945D01*
Y138279D01*
D02*
G37*
G36*
X462295D02*
X458646D01*
Y133843D01*
X462295D01*
Y138279D01*
D02*
G37*
G36*
X204921Y132909D02*
X204230Y132771D01*
X203644Y132380D01*
X203252Y131794D01*
X203115Y131102D01*
X203252Y130411D01*
X203644Y129825D01*
X204230Y129434D01*
X204921Y129296D01*
X205612Y129434D01*
X206199Y129825D01*
X206590Y130411D01*
X206728Y131102D01*
X206590Y131794D01*
X206199Y132380D01*
X205612Y132771D01*
X204921Y132909D01*
D02*
G37*
G36*
X308083Y127059D02*
X304397D01*
Y126772D01*
X304540Y125688D01*
X304958Y124679D01*
X305623Y123812D01*
X306490Y123147D01*
X307499Y122729D01*
X308083Y122652D01*
Y127059D01*
D02*
G37*
G36*
X265461Y122790D02*
Y121366D01*
X266884D01*
X266830Y121640D01*
X266391Y122297D01*
X265735Y122735D01*
X265461Y122790D01*
D02*
G37*
G36*
X298583Y132317D02*
X297555Y132182D01*
X296597Y131785D01*
X295775Y131154D01*
X295144Y130332D01*
X294747Y129374D01*
X294612Y128347D01*
Y126772D01*
X294747Y125744D01*
X295144Y124786D01*
X295775Y123964D01*
X296597Y123333D01*
X297555Y122936D01*
X298583Y122801D01*
X299610Y122936D01*
X300568Y123333D01*
X301391Y123964D01*
X302022Y124786D01*
X302418Y125744D01*
X302554Y126772D01*
Y128347D01*
X302418Y129374D01*
X302022Y130332D01*
X301391Y131154D01*
X300568Y131785D01*
X299610Y132182D01*
X298583Y132317D01*
D02*
G37*
G36*
X312768Y127059D02*
X309083D01*
Y122652D01*
X309666Y122729D01*
X310675Y123147D01*
X311542Y123812D01*
X312207Y124679D01*
X312626Y125688D01*
X312768Y126772D01*
Y127059D01*
D02*
G37*
G36*
X264461Y122790D02*
X264186Y122735D01*
X263530Y122297D01*
X263091Y121640D01*
X263037Y121366D01*
X264461D01*
Y122790D01*
D02*
G37*
G36*
Y120366D02*
X263037D01*
X263091Y120092D01*
X263530Y119436D01*
X264186Y118997D01*
X264461Y118942D01*
Y120366D01*
D02*
G37*
G36*
X288583Y116373D02*
X287891Y116236D01*
X287305Y115844D01*
X286914Y115258D01*
X286776Y114567D01*
X286914Y113876D01*
X287305Y113290D01*
X287891Y112898D01*
X288583Y112761D01*
X289274Y112898D01*
X289860Y113290D01*
X290251Y113876D01*
X290389Y114567D01*
X290251Y115258D01*
X289860Y115844D01*
X289274Y116236D01*
X288583Y116373D01*
D02*
G37*
G36*
X535827Y127908D02*
X534252D01*
X533224Y127773D01*
X532267Y127376D01*
X531444Y126745D01*
X530813Y125923D01*
X530416Y124965D01*
X530281Y123937D01*
X530416Y122909D01*
X530813Y121951D01*
X531444Y121129D01*
X532267Y120498D01*
X533224Y120101D01*
X534252Y119966D01*
X535827D01*
X536855Y120101D01*
X537812Y120498D01*
X538635Y121129D01*
X539266Y121951D01*
X539662Y122909D01*
X539798Y123937D01*
X539662Y124965D01*
X539266Y125923D01*
X538635Y126745D01*
X537812Y127376D01*
X536855Y127773D01*
X535827Y127908D01*
D02*
G37*
G36*
X266884Y120366D02*
X265461D01*
Y118942D01*
X265735Y118997D01*
X266391Y119436D01*
X266830Y120092D01*
X266884Y120366D01*
D02*
G37*
G36*
X252953Y129169D02*
X252261Y129031D01*
X251676Y128639D01*
X251284Y128053D01*
X251146Y127362D01*
X251284Y126671D01*
X251676Y126085D01*
X252261Y125693D01*
X252953Y125556D01*
X253644Y125693D01*
X254230Y126085D01*
X254622Y126671D01*
X254759Y127362D01*
X254622Y128053D01*
X254230Y128639D01*
X253644Y129031D01*
X252953Y129169D01*
D02*
G37*
G36*
X465551Y128381D02*
X464860Y128244D01*
X464274Y127852D01*
X463882Y127266D01*
X463745Y126575D01*
X463882Y125883D01*
X464274Y125297D01*
X464860Y124906D01*
X465551Y124768D01*
X466242Y124906D01*
X466828Y125297D01*
X467220Y125883D01*
X467357Y126575D01*
X467220Y127266D01*
X466828Y127852D01*
X466242Y128244D01*
X465551Y128381D01*
D02*
G37*
G36*
X309083Y132466D02*
Y128059D01*
X312768D01*
Y128347D01*
X312626Y129430D01*
X312207Y130439D01*
X311542Y131306D01*
X310675Y131971D01*
X309666Y132389D01*
X309083Y132466D01*
D02*
G37*
G36*
X308083Y132466D02*
X307499Y132389D01*
X306490Y131971D01*
X305623Y131306D01*
X304958Y130439D01*
X304540Y129430D01*
X304397Y128347D01*
Y128059D01*
X308083D01*
Y132466D01*
D02*
G37*
G36*
X330433Y128302D02*
X329742Y128165D01*
X329156Y127773D01*
X328764Y127187D01*
X328627Y126496D01*
X328764Y125805D01*
X329156Y125219D01*
X329742Y124827D01*
X330433Y124690D01*
X331124Y124827D01*
X331710Y125219D01*
X332102Y125805D01*
X332239Y126496D01*
X332102Y127187D01*
X331710Y127773D01*
X331124Y128165D01*
X330433Y128302D01*
D02*
G37*
G36*
X223937Y127121D02*
X223246Y126984D01*
X222660Y126592D01*
X222268Y126006D01*
X222131Y125315D01*
X222268Y124624D01*
X222660Y124038D01*
X223246Y123646D01*
X223937Y123509D01*
X224628Y123646D01*
X225214Y124038D01*
X225606Y124624D01*
X225743Y125315D01*
X225606Y126006D01*
X225214Y126592D01*
X224628Y126984D01*
X223937Y127121D01*
D02*
G37*
G36*
X292520Y132283D02*
X284646D01*
Y122835D01*
X292520D01*
Y132283D01*
D02*
G37*
G36*
X357283Y128184D02*
X356592Y128047D01*
X356006Y127655D01*
X355615Y127069D01*
X355477Y126378D01*
X355615Y125687D01*
X356006Y125101D01*
X356592Y124709D01*
X357283Y124572D01*
X357975Y124709D01*
X358561Y125101D01*
X358952Y125687D01*
X359090Y126378D01*
X358952Y127069D01*
X358561Y127655D01*
X357975Y128047D01*
X357283Y128184D01*
D02*
G37*
G36*
X415059Y127495D02*
X414368Y127358D01*
X413782Y126966D01*
X413390Y126380D01*
X413253Y125689D01*
X413390Y124998D01*
X413782Y124412D01*
X414368Y124020D01*
X415059Y123883D01*
X415750Y124020D01*
X416336Y124412D01*
X416728Y124998D01*
X416865Y125689D01*
X416728Y126380D01*
X416336Y126966D01*
X415750Y127358D01*
X415059Y127495D01*
D02*
G37*
G36*
X340158Y139995D02*
X339466Y139858D01*
X338880Y139466D01*
X338489Y138880D01*
X338351Y138189D01*
X338489Y137498D01*
X338880Y136912D01*
X339466Y136520D01*
X340158Y136383D01*
X340849Y136520D01*
X341435Y136912D01*
X341826Y137498D01*
X341964Y138189D01*
X341826Y138880D01*
X341435Y139466D01*
X340849Y139858D01*
X340158Y139995D01*
D02*
G37*
G36*
X261114Y159146D02*
X259690D01*
X259745Y158871D01*
X260184Y158215D01*
X260840Y157776D01*
X261114Y157722D01*
Y159146D01*
D02*
G37*
G36*
X184252Y171688D02*
X182863Y171551D01*
X181527Y171146D01*
X180296Y170488D01*
X179217Y169602D01*
X178331Y168523D01*
X177673Y167292D01*
X177268Y165956D01*
X177131Y164567D01*
X177268Y163178D01*
X177673Y161842D01*
X178331Y160611D01*
X179217Y159532D01*
X180296Y158646D01*
X181527Y157988D01*
X182863Y157583D01*
X184252Y157446D01*
X185641Y157583D01*
X186977Y157988D01*
X188208Y158646D01*
X189287Y159532D01*
X190173Y160611D01*
X190831Y161842D01*
X191236Y163178D01*
X191373Y164567D01*
X191236Y165956D01*
X190831Y167292D01*
X190173Y168523D01*
X189287Y169602D01*
X188208Y170488D01*
X186977Y171146D01*
X185641Y171551D01*
X184252Y171688D01*
D02*
G37*
G36*
X294783Y162338D02*
X294092Y162200D01*
X293506Y161809D01*
X293115Y161223D01*
X292977Y160531D01*
X293115Y159840D01*
X293506Y159254D01*
X294092Y158863D01*
X294783Y158725D01*
X295475Y158863D01*
X296061Y159254D01*
X296452Y159840D01*
X296590Y160531D01*
X296452Y161223D01*
X296061Y161809D01*
X295475Y162200D01*
X294783Y162338D01*
D02*
G37*
G36*
X263538Y159146D02*
X262114D01*
Y157722D01*
X262388Y157776D01*
X263045Y158215D01*
X263483Y158871D01*
X263538Y159146D01*
D02*
G37*
G36*
X358071Y156334D02*
X357380Y156196D01*
X356794Y155805D01*
X356402Y155219D01*
X356264Y154528D01*
X356402Y153836D01*
X356794Y153250D01*
X357380Y152859D01*
X358071Y152721D01*
X358762Y152859D01*
X359348Y153250D01*
X359740Y153836D01*
X359877Y154528D01*
X359740Y155219D01*
X359348Y155805D01*
X358762Y156196D01*
X358071Y156334D01*
D02*
G37*
G36*
X407114Y153726D02*
Y149319D01*
X410800D01*
Y149606D01*
X410657Y150690D01*
X410239Y151699D01*
X409574Y152566D01*
X408707Y153231D01*
X407697Y153649D01*
X407114Y153726D01*
D02*
G37*
G36*
X397114D02*
Y149319D01*
X400800D01*
Y149606D01*
X400657Y150690D01*
X400239Y151699D01*
X399574Y152566D01*
X398707Y153231D01*
X397697Y153649D01*
X397114Y153726D01*
D02*
G37*
G36*
X425984Y156137D02*
X425293Y156000D01*
X424707Y155608D01*
X424315Y155022D01*
X424178Y154331D01*
X424315Y153639D01*
X424707Y153053D01*
X425293Y152662D01*
X425984Y152524D01*
X426676Y152662D01*
X427261Y153053D01*
X427653Y153639D01*
X427791Y154331D01*
X427653Y155022D01*
X427261Y155608D01*
X426676Y156000D01*
X425984Y156137D01*
D02*
G37*
G36*
X417114Y153726D02*
Y149319D01*
X420800D01*
Y149606D01*
X420657Y150690D01*
X420239Y151699D01*
X419574Y152566D01*
X418707Y153231D01*
X417697Y153649D01*
X417114Y153726D01*
D02*
G37*
G36*
X229134Y171885D02*
X228443Y171748D01*
X227857Y171356D01*
X227465Y170770D01*
X227327Y170079D01*
X227465Y169387D01*
X227857Y168801D01*
X228443Y168410D01*
X229134Y168272D01*
X229825Y168410D01*
X230411Y168801D01*
X230803Y169387D01*
X230940Y170079D01*
X230803Y170770D01*
X230411Y171356D01*
X229825Y171748D01*
X229134Y171885D01*
D02*
G37*
G36*
X60630Y168145D02*
X59939Y168007D01*
X59353Y167616D01*
X58961Y167030D01*
X58824Y166339D01*
X58961Y165647D01*
X59353Y165061D01*
X59939Y164670D01*
X60630Y164532D01*
X61321Y164670D01*
X61907Y165061D01*
X62299Y165647D01*
X62436Y166339D01*
X62299Y167030D01*
X61907Y167616D01*
X61321Y168007D01*
X60630Y168145D01*
D02*
G37*
G36*
X296941Y172728D02*
X295517D01*
X295572Y172454D01*
X296010Y171798D01*
X296667Y171359D01*
X296941Y171305D01*
Y172728D01*
D02*
G37*
G36*
X377953Y174641D02*
X377261Y174504D01*
X376676Y174112D01*
X376284Y173526D01*
X376146Y172835D01*
X376284Y172143D01*
X376676Y171557D01*
X377261Y171166D01*
X377953Y171028D01*
X378644Y171166D01*
X379230Y171557D01*
X379622Y172143D01*
X379759Y172835D01*
X379622Y173526D01*
X379230Y174112D01*
X378644Y174504D01*
X377953Y174641D01*
D02*
G37*
G36*
X265551Y166570D02*
X264860Y166433D01*
X264274Y166041D01*
X263882Y165455D01*
X263745Y164764D01*
X263882Y164073D01*
X264274Y163487D01*
X264860Y163095D01*
X265551Y162957D01*
X266243Y163095D01*
X266828Y163487D01*
X267220Y164073D01*
X267357Y164764D01*
X267220Y165455D01*
X266828Y166041D01*
X266243Y166433D01*
X265551Y166570D01*
D02*
G37*
G36*
X262114Y161569D02*
Y160146D01*
X263538D01*
X263483Y160420D01*
X263045Y161076D01*
X262388Y161515D01*
X262114Y161569D01*
D02*
G37*
G36*
X261114D02*
X260840Y161515D01*
X260184Y161076D01*
X259745Y160420D01*
X259690Y160146D01*
X261114D01*
Y161569D01*
D02*
G37*
G36*
X286024Y165783D02*
X285332Y165645D01*
X284746Y165254D01*
X284355Y164668D01*
X284217Y163976D01*
X284355Y163285D01*
X284746Y162699D01*
X285332Y162308D01*
X286024Y162170D01*
X286715Y162308D01*
X287301Y162699D01*
X287692Y163285D01*
X287830Y163976D01*
X287692Y164668D01*
X287301Y165254D01*
X286715Y165645D01*
X286024Y165783D01*
D02*
G37*
G36*
X277165Y167161D02*
X276474Y167023D01*
X275888Y166632D01*
X275497Y166046D01*
X275359Y165354D01*
X275497Y164663D01*
X275888Y164077D01*
X276474Y163686D01*
X277165Y163548D01*
X277857Y163686D01*
X277862Y163689D01*
X278312Y163389D01*
X278312Y163386D01*
X278449Y162695D01*
X278841Y162109D01*
X279427Y161717D01*
X280118Y161580D01*
X280809Y161717D01*
X281395Y162109D01*
X281787Y162695D01*
X281925Y163386D01*
X281787Y164077D01*
X281395Y164663D01*
X280809Y165055D01*
X280118Y165192D01*
X279427Y165055D01*
X279421Y165051D01*
X278971Y165352D01*
X278972Y165354D01*
X278834Y166046D01*
X278443Y166632D01*
X277857Y167023D01*
X277165Y167161D01*
D02*
G37*
G36*
X390764Y148319D02*
X387114D01*
Y143882D01*
X390764D01*
Y148319D01*
D02*
G37*
G36*
X386114D02*
X382465D01*
Y143882D01*
X386114D01*
Y148319D01*
D02*
G37*
G36*
X420800D02*
X417114D01*
Y143912D01*
X417697Y143989D01*
X418707Y144407D01*
X419574Y145072D01*
X420239Y145939D01*
X420657Y146948D01*
X420800Y148031D01*
Y148319D01*
D02*
G37*
G36*
X400800D02*
X397114D01*
Y143912D01*
X397697Y143989D01*
X398707Y144407D01*
X399574Y145072D01*
X400239Y145939D01*
X400657Y146948D01*
X400800Y148031D01*
Y148319D01*
D02*
G37*
G36*
X142126Y145901D02*
X141435Y145763D01*
X140849Y145372D01*
X140457Y144786D01*
X140320Y144095D01*
X140457Y143403D01*
X140849Y142817D01*
X141435Y142426D01*
X142126Y142288D01*
X142817Y142426D01*
X143403Y142817D01*
X143795Y143403D01*
X143932Y144095D01*
X143795Y144786D01*
X143403Y145372D01*
X142817Y145763D01*
X142126Y145901D01*
D02*
G37*
G36*
X112429Y141070D02*
Y136663D01*
X116115D01*
Y136951D01*
X115972Y138034D01*
X115554Y139043D01*
X114889Y139910D01*
X114022Y140576D01*
X113012Y140994D01*
X112429Y141070D01*
D02*
G37*
G36*
X373228Y139995D02*
X372537Y139858D01*
X371951Y139466D01*
X371560Y138880D01*
X371422Y138189D01*
X371560Y137498D01*
X371951Y136912D01*
X372537Y136520D01*
X373228Y136383D01*
X373920Y136520D01*
X374506Y136912D01*
X374897Y137498D01*
X375035Y138189D01*
X374897Y138880D01*
X374506Y139466D01*
X373920Y139858D01*
X373228Y139995D01*
D02*
G37*
G36*
X466945Y143717D02*
X463295D01*
Y139279D01*
X466945D01*
Y143717D01*
D02*
G37*
G36*
X462295D02*
X458646D01*
Y139279D01*
X462295D01*
Y143717D01*
D02*
G37*
G36*
X416114Y153726D02*
X415531Y153649D01*
X414522Y153231D01*
X413655Y152566D01*
X412990Y151699D01*
X412571Y150690D01*
X412429Y149606D01*
Y149319D01*
X416114D01*
Y153726D01*
D02*
G37*
G36*
X406114D02*
X405531Y153649D01*
X404522Y153231D01*
X403655Y152566D01*
X402989Y151699D01*
X402571Y150690D01*
X402429Y149606D01*
Y149319D01*
X406114D01*
Y153726D01*
D02*
G37*
G36*
X390764Y153756D02*
X387114D01*
Y149319D01*
X390764D01*
Y153756D01*
D02*
G37*
G36*
X386114D02*
X382465D01*
Y149319D01*
X386114D01*
Y153756D01*
D02*
G37*
G36*
X396114Y153726D02*
X395531Y153649D01*
X394521Y153231D01*
X393655Y152566D01*
X392989Y151699D01*
X392571Y150690D01*
X392429Y149606D01*
Y149319D01*
X396114D01*
Y153726D01*
D02*
G37*
G36*
Y148319D02*
X392429D01*
Y148031D01*
X392571Y146948D01*
X392989Y145939D01*
X393655Y145072D01*
X394521Y144407D01*
X395531Y143989D01*
X396114Y143912D01*
Y148319D01*
D02*
G37*
G36*
X410800D02*
X407114D01*
Y143912D01*
X407697Y143989D01*
X408707Y144407D01*
X409574Y145072D01*
X410239Y145939D01*
X410657Y146948D01*
X410800Y148031D01*
Y148319D01*
D02*
G37*
G36*
X416114D02*
X412429D01*
Y148031D01*
X412571Y146948D01*
X412990Y145939D01*
X413655Y145072D01*
X414522Y144407D01*
X415531Y143989D01*
X416114Y143912D01*
Y148319D01*
D02*
G37*
G36*
X406114D02*
X402429D01*
Y148031D01*
X402571Y146948D01*
X402989Y145939D01*
X403655Y145072D01*
X404522Y144407D01*
X405531Y143989D01*
X406114Y143912D01*
Y148319D01*
D02*
G37*
G36*
X175787Y26806D02*
X174760Y26670D01*
X173802Y26274D01*
X172979Y25642D01*
X172348Y24820D01*
X171952Y23862D01*
X171816Y22835D01*
Y21260D01*
X171952Y20232D01*
X172348Y19274D01*
X172979Y18452D01*
X173802Y17821D01*
X174760Y17424D01*
X175787Y17289D01*
X176815Y17424D01*
X177773Y17821D01*
X178595Y18452D01*
X179226Y19274D01*
X179623Y20232D01*
X179758Y21260D01*
Y22835D01*
X179623Y23862D01*
X179226Y24820D01*
X178595Y25642D01*
X177773Y26274D01*
X176815Y26670D01*
X175787Y26806D01*
D02*
G37*
G36*
X122835D02*
X121807Y26670D01*
X120849Y26274D01*
X120027Y25642D01*
X119396Y24820D01*
X118999Y23862D01*
X118864Y22835D01*
Y21260D01*
X118999Y20232D01*
X119396Y19274D01*
X120027Y18452D01*
X120849Y17821D01*
X121807Y17424D01*
X122835Y17289D01*
X123862Y17424D01*
X124820Y17821D01*
X125643Y18452D01*
X126274Y19274D01*
X126670Y20232D01*
X126806Y21260D01*
Y22835D01*
X126670Y23862D01*
X126274Y24820D01*
X125643Y25642D01*
X124820Y26274D01*
X123862Y26670D01*
X122835Y26806D01*
D02*
G37*
G36*
X282087D02*
X281059Y26670D01*
X280101Y26274D01*
X279279Y25642D01*
X278648Y24820D01*
X278251Y23862D01*
X278116Y22835D01*
Y21260D01*
X278251Y20232D01*
X278648Y19274D01*
X279279Y18452D01*
X280101Y17821D01*
X281059Y17424D01*
X282087Y17289D01*
X283114Y17424D01*
X284072Y17821D01*
X284894Y18452D01*
X285526Y19274D01*
X285922Y20232D01*
X286058Y21260D01*
Y22835D01*
X285922Y23862D01*
X285526Y24820D01*
X284894Y25642D01*
X284072Y26274D01*
X283114Y26670D01*
X282087Y26806D01*
D02*
G37*
G36*
X228937D02*
X227909Y26670D01*
X226952Y26274D01*
X226129Y25642D01*
X225498Y24820D01*
X225101Y23862D01*
X224966Y22835D01*
Y21260D01*
X225101Y20232D01*
X225498Y19274D01*
X226129Y18452D01*
X226952Y17821D01*
X227909Y17424D01*
X228937Y17289D01*
X229965Y17424D01*
X230923Y17821D01*
X231745Y18452D01*
X232376Y19274D01*
X232773Y20232D01*
X232908Y21260D01*
Y22835D01*
X232773Y23862D01*
X232376Y24820D01*
X231745Y25642D01*
X230923Y26274D01*
X229965Y26670D01*
X228937Y26806D01*
D02*
G37*
G36*
X81142Y26806D02*
X80114Y26670D01*
X79156Y26274D01*
X78334Y25642D01*
X77703Y24820D01*
X77306Y23862D01*
X77171Y22835D01*
Y21260D01*
X77306Y20232D01*
X77703Y19274D01*
X78334Y18452D01*
X79156Y17821D01*
X80114Y17424D01*
X81142Y17289D01*
X82170Y17424D01*
X83127Y17821D01*
X83950Y18452D01*
X84581Y19274D01*
X84977Y20232D01*
X85113Y21260D01*
Y22835D01*
X84977Y23862D01*
X84581Y24820D01*
X83950Y25642D01*
X83127Y26274D01*
X82170Y26670D01*
X81142Y26806D01*
D02*
G37*
G36*
X65327Y21547D02*
X61642D01*
Y17140D01*
X62225Y17217D01*
X63234Y17635D01*
X64101Y18300D01*
X64766Y19167D01*
X65184Y20177D01*
X65327Y21260D01*
Y21547D01*
D02*
G37*
G36*
X60642D02*
X56956D01*
Y21260D01*
X57099Y20177D01*
X57517Y19167D01*
X58182Y18300D01*
X59049Y17635D01*
X60058Y17217D01*
X60642Y17140D01*
Y21547D01*
D02*
G37*
G36*
X71142Y26806D02*
X70114Y26670D01*
X69156Y26274D01*
X68334Y25642D01*
X67703Y24820D01*
X67306Y23862D01*
X67171Y22835D01*
Y21260D01*
X67306Y20232D01*
X67703Y19274D01*
X68334Y18452D01*
X69156Y17821D01*
X70114Y17424D01*
X71142Y17289D01*
X72170Y17424D01*
X73127Y17821D01*
X73950Y18452D01*
X74581Y19274D01*
X74977Y20232D01*
X75113Y21260D01*
Y22835D01*
X74977Y23862D01*
X74581Y24820D01*
X73950Y25642D01*
X73127Y26274D01*
X72170Y26670D01*
X71142Y26806D01*
D02*
G37*
G36*
X51142D02*
X50114Y26670D01*
X49156Y26274D01*
X48334Y25642D01*
X47703Y24820D01*
X47306Y23862D01*
X47171Y22835D01*
Y21260D01*
X47306Y20232D01*
X47703Y19274D01*
X48334Y18452D01*
X49156Y17821D01*
X50114Y17424D01*
X51142Y17289D01*
X52170Y17424D01*
X53127Y17821D01*
X53950Y18452D01*
X54581Y19274D01*
X54977Y20232D01*
X55113Y21260D01*
Y22835D01*
X54977Y23862D01*
X54581Y24820D01*
X53950Y25642D01*
X53127Y26274D01*
X52170Y26670D01*
X51142Y26806D01*
D02*
G37*
G36*
X376075Y26984D02*
X372425D01*
Y22547D01*
X376075D01*
Y26984D01*
D02*
G37*
G36*
X322925D02*
X319276D01*
Y22547D01*
X322925D01*
Y26984D01*
D02*
G37*
G36*
X327575D02*
X323925D01*
Y22547D01*
X327575D01*
Y26984D01*
D02*
G37*
G36*
X61642Y26954D02*
Y22547D01*
X65327D01*
Y22835D01*
X65184Y23918D01*
X64766Y24927D01*
X64101Y25794D01*
X63234Y26459D01*
X62225Y26877D01*
X61642Y26954D01*
D02*
G37*
G36*
X60642D02*
X60058Y26877D01*
X59049Y26459D01*
X58182Y25794D01*
X57517Y24927D01*
X57099Y23918D01*
X56956Y22835D01*
Y22547D01*
X60642D01*
Y26954D01*
D02*
G37*
G36*
X388386Y26806D02*
X387358Y26670D01*
X386400Y26274D01*
X385578Y25642D01*
X384947Y24820D01*
X384550Y23862D01*
X384415Y22835D01*
Y21260D01*
X384550Y20232D01*
X384947Y19274D01*
X385578Y18452D01*
X386400Y17821D01*
X387358Y17424D01*
X388386Y17289D01*
X389414Y17424D01*
X390371Y17821D01*
X391194Y18452D01*
X391825Y19274D01*
X392221Y20232D01*
X392357Y21260D01*
Y22835D01*
X392221Y23862D01*
X391825Y24820D01*
X391194Y25642D01*
X390371Y26274D01*
X389414Y26670D01*
X388386Y26806D01*
D02*
G37*
G36*
X335236D02*
X334208Y26670D01*
X333251Y26274D01*
X332428Y25642D01*
X331797Y24820D01*
X331401Y23862D01*
X331265Y22835D01*
Y21260D01*
X331401Y20232D01*
X331797Y19274D01*
X332428Y18452D01*
X333251Y17821D01*
X334208Y17424D01*
X335236Y17289D01*
X336264Y17424D01*
X337222Y17821D01*
X338044Y18452D01*
X338675Y19274D01*
X339072Y20232D01*
X339207Y21260D01*
Y22835D01*
X339072Y23862D01*
X338675Y24820D01*
X338044Y25642D01*
X337222Y26274D01*
X336264Y26670D01*
X335236Y26806D01*
D02*
G37*
G36*
X494882D02*
X493854Y26670D01*
X492896Y26274D01*
X492074Y25642D01*
X491443Y24820D01*
X491046Y23862D01*
X490911Y22835D01*
Y21260D01*
X491046Y20232D01*
X491443Y19274D01*
X492074Y18452D01*
X492896Y17821D01*
X493854Y17424D01*
X494882Y17289D01*
X495910Y17424D01*
X496867Y17821D01*
X497690Y18452D01*
X498321Y19274D01*
X498718Y20232D01*
X498853Y21260D01*
Y22835D01*
X498718Y23862D01*
X498321Y24820D01*
X497690Y25642D01*
X496867Y26274D01*
X495910Y26670D01*
X494882Y26806D01*
D02*
G37*
G36*
X441535D02*
X440508Y26670D01*
X439550Y26274D01*
X438728Y25642D01*
X438097Y24820D01*
X437700Y23862D01*
X437565Y22835D01*
Y21260D01*
X437700Y20232D01*
X438097Y19274D01*
X438728Y18452D01*
X439550Y17821D01*
X440508Y17424D01*
X441535Y17289D01*
X442563Y17424D01*
X443521Y17821D01*
X444343Y18452D01*
X444974Y19274D01*
X445371Y20232D01*
X445506Y21260D01*
Y22835D01*
X445371Y23862D01*
X444974Y24820D01*
X444343Y25642D01*
X443521Y26274D01*
X442563Y26670D01*
X441535Y26806D01*
D02*
G37*
G36*
X487220Y21547D02*
X483571D01*
Y17110D01*
X487220D01*
Y21547D01*
D02*
G37*
G36*
X168126Y21547D02*
X164476D01*
Y17110D01*
X168126D01*
Y21547D01*
D02*
G37*
G36*
X163476D02*
X159827D01*
Y17110D01*
X163476D01*
Y21547D01*
D02*
G37*
G36*
X221276D02*
X217626D01*
Y17110D01*
X221276D01*
Y21547D01*
D02*
G37*
G36*
X216626D02*
X212976D01*
Y17110D01*
X216626D01*
Y21547D01*
D02*
G37*
G36*
X115173D02*
X111524D01*
Y17110D01*
X115173D01*
Y21547D01*
D02*
G37*
G36*
X17717Y25035D02*
X16289Y24895D01*
X14916Y24478D01*
X13650Y23802D01*
X12541Y22892D01*
X11631Y21783D01*
X10955Y20517D01*
X10538Y19144D01*
X10398Y17717D01*
X10538Y16289D01*
X10955Y14916D01*
X11631Y13650D01*
X12541Y12541D01*
X13650Y11631D01*
X14916Y10955D01*
X16289Y10538D01*
X17717Y10398D01*
X19144Y10538D01*
X20517Y10955D01*
X21783Y11631D01*
X22892Y12541D01*
X23802Y13650D01*
X24478Y14916D01*
X24895Y16289D01*
X25035Y17717D01*
X24895Y19144D01*
X24478Y20517D01*
X23802Y21783D01*
X22892Y22892D01*
X21783Y23802D01*
X20517Y24478D01*
X19144Y24895D01*
X17717Y25035D01*
D02*
G37*
G36*
X26378Y57160D02*
X24803D01*
X23775Y57025D01*
X22818Y56628D01*
X21995Y55997D01*
X21364Y55174D01*
X20967Y54217D01*
X20832Y53189D01*
X20967Y52161D01*
X21364Y51204D01*
X21995Y50381D01*
X22818Y49750D01*
X23775Y49353D01*
X24803Y49218D01*
X26378D01*
X27406Y49353D01*
X28363Y49750D01*
X29186Y50381D01*
X29817Y51204D01*
X30057Y51784D01*
X31859D01*
X32453Y51190D01*
Y13976D01*
X32560Y13439D01*
X32865Y12983D01*
X35227Y10621D01*
X35683Y10316D01*
X36220Y10209D01*
X502953D01*
X503490Y10316D01*
X503946Y10621D01*
X507686Y14361D01*
X507991Y14817D01*
X508098Y15354D01*
Y17580D01*
X508678Y17821D01*
X509501Y18452D01*
X510132Y19274D01*
X510529Y20232D01*
X510664Y21260D01*
Y22835D01*
X510529Y23862D01*
X510132Y24820D01*
X509501Y25642D01*
X508678Y26274D01*
X507721Y26670D01*
X506693Y26806D01*
X505665Y26670D01*
X504707Y26274D01*
X503885Y25642D01*
X503254Y24820D01*
X502857Y23862D01*
X502722Y22835D01*
Y21260D01*
X502857Y20232D01*
X503254Y19274D01*
X503885Y18452D01*
X504707Y17821D01*
X505288Y17580D01*
Y15936D01*
X502371Y13019D01*
X454751D01*
Y17580D01*
X455332Y17821D01*
X456154Y18452D01*
X456785Y19274D01*
X457182Y20232D01*
X457317Y21260D01*
Y22835D01*
X457182Y23862D01*
X456785Y24820D01*
X456154Y25642D01*
X455332Y26274D01*
X454374Y26670D01*
X453346Y26806D01*
X452319Y26670D01*
X451361Y26274D01*
X450539Y25642D01*
X449907Y24820D01*
X449511Y23862D01*
X449375Y22835D01*
Y21260D01*
X449511Y20232D01*
X449907Y19274D01*
X450539Y18452D01*
X451361Y17821D01*
X451941Y17580D01*
Y13019D01*
X401602D01*
Y17580D01*
X402182Y17821D01*
X403005Y18452D01*
X403636Y19274D01*
X404033Y20232D01*
X404168Y21260D01*
Y22835D01*
X404033Y23862D01*
X403636Y24820D01*
X403005Y25642D01*
X402182Y26274D01*
X401225Y26670D01*
X400197Y26806D01*
X399169Y26670D01*
X398211Y26274D01*
X397389Y25642D01*
X396758Y24820D01*
X396361Y23862D01*
X396226Y22835D01*
Y21260D01*
X396361Y20232D01*
X396758Y19274D01*
X397389Y18452D01*
X398211Y17821D01*
X398792Y17580D01*
Y13019D01*
X348452D01*
Y17580D01*
X349033Y17821D01*
X349855Y18452D01*
X350486Y19274D01*
X350883Y20232D01*
X351018Y21260D01*
Y22835D01*
X350883Y23862D01*
X350486Y24820D01*
X349855Y25642D01*
X349033Y26274D01*
X348075Y26670D01*
X347047Y26806D01*
X346020Y26670D01*
X345062Y26274D01*
X344239Y25642D01*
X343608Y24820D01*
X343212Y23862D01*
X343076Y22835D01*
Y21260D01*
X343212Y20232D01*
X343608Y19274D01*
X344239Y18452D01*
X345062Y17821D01*
X345642Y17580D01*
Y13019D01*
X295303D01*
Y17580D01*
X295883Y17821D01*
X296706Y18452D01*
X297337Y19274D01*
X297733Y20232D01*
X297869Y21260D01*
Y22835D01*
X297733Y23862D01*
X297337Y24820D01*
X296706Y25642D01*
X295883Y26274D01*
X294925Y26670D01*
X293898Y26806D01*
X292870Y26670D01*
X291912Y26274D01*
X291090Y25642D01*
X290459Y24820D01*
X290062Y23862D01*
X289927Y22835D01*
Y21260D01*
X290062Y20232D01*
X290459Y19274D01*
X291090Y18452D01*
X291912Y17821D01*
X292493Y17580D01*
Y13019D01*
X242153D01*
Y17580D01*
X242734Y17821D01*
X243556Y18452D01*
X244187Y19274D01*
X244584Y20232D01*
X244719Y21260D01*
Y22835D01*
X244584Y23862D01*
X244187Y24820D01*
X243556Y25642D01*
X242734Y26274D01*
X241776Y26670D01*
X240748Y26806D01*
X239720Y26670D01*
X238762Y26274D01*
X237940Y25642D01*
X237309Y24820D01*
X236912Y23862D01*
X236777Y22835D01*
Y21260D01*
X236912Y20232D01*
X237309Y19274D01*
X237940Y18452D01*
X238762Y17821D01*
X239343Y17580D01*
Y13019D01*
X189003D01*
Y17580D01*
X189584Y17821D01*
X190406Y18452D01*
X191037Y19274D01*
X191434Y20232D01*
X191569Y21260D01*
Y22835D01*
X191434Y23862D01*
X191037Y24820D01*
X190406Y25642D01*
X189584Y26274D01*
X188626Y26670D01*
X187598Y26806D01*
X186571Y26670D01*
X185613Y26274D01*
X184791Y25642D01*
X184160Y24820D01*
X183763Y23862D01*
X183627Y22835D01*
Y21260D01*
X183763Y20232D01*
X184160Y19274D01*
X184791Y18452D01*
X185613Y17821D01*
X186194Y17580D01*
Y13019D01*
X136051D01*
Y17580D01*
X136631Y17821D01*
X137454Y18452D01*
X138085Y19274D01*
X138481Y20232D01*
X138617Y21260D01*
Y22835D01*
X138481Y23862D01*
X138085Y24820D01*
X137454Y25642D01*
X136631Y26274D01*
X135673Y26670D01*
X134646Y26806D01*
X133618Y26670D01*
X132660Y26274D01*
X131838Y25642D01*
X131207Y24820D01*
X130810Y23862D01*
X130675Y22835D01*
Y21260D01*
X130810Y20232D01*
X131207Y19274D01*
X131838Y18452D01*
X132660Y17821D01*
X133241Y17580D01*
Y13019D01*
X36802D01*
X35263Y14558D01*
Y51772D01*
X35156Y52309D01*
X34852Y52765D01*
X33434Y54182D01*
X32979Y54487D01*
X32441Y54594D01*
X30057D01*
X29817Y55174D01*
X29186Y55997D01*
X28363Y56628D01*
X27406Y57025D01*
X26378Y57160D01*
D02*
G37*
G36*
X110524Y21547D02*
X106874D01*
Y17110D01*
X110524D01*
Y21547D01*
D02*
G37*
G36*
X536614Y25035D02*
X535186Y24895D01*
X533813Y24478D01*
X532548Y23802D01*
X531439Y22892D01*
X530529Y21783D01*
X529853Y20517D01*
X529436Y19144D01*
X529295Y17717D01*
X529436Y16289D01*
X529853Y14916D01*
X530529Y13650D01*
X531439Y12541D01*
X532548Y11631D01*
X533813Y10955D01*
X535186Y10538D01*
X536614Y10398D01*
X538042Y10538D01*
X539415Y10955D01*
X540680Y11631D01*
X541789Y12541D01*
X542699Y13650D01*
X543376Y14916D01*
X543792Y16289D01*
X543933Y17717D01*
X543792Y19144D01*
X543376Y20517D01*
X542699Y21783D01*
X541789Y22892D01*
X540680Y23802D01*
X539415Y24478D01*
X538042Y24895D01*
X536614Y25035D01*
D02*
G37*
G36*
X429224Y21547D02*
X425575D01*
Y17110D01*
X429224D01*
Y21547D01*
D02*
G37*
G36*
X380724Y21547D02*
X377075D01*
Y17110D01*
X380724D01*
Y21547D01*
D02*
G37*
G36*
X482571Y21547D02*
X478921D01*
Y17110D01*
X482571D01*
Y21547D01*
D02*
G37*
G36*
X433874Y21547D02*
X430224D01*
Y17110D01*
X433874D01*
Y21547D01*
D02*
G37*
G36*
X376075Y21547D02*
X372425D01*
Y17110D01*
X376075D01*
Y21547D01*
D02*
G37*
G36*
X274425Y21547D02*
X270776D01*
Y17110D01*
X274425D01*
Y21547D01*
D02*
G37*
G36*
X269776D02*
X266126D01*
Y17110D01*
X269776D01*
Y21547D01*
D02*
G37*
G36*
X327575Y21547D02*
X323925D01*
Y17110D01*
X327575D01*
Y21547D01*
D02*
G37*
G36*
X322925D02*
X319276D01*
Y17110D01*
X322925D01*
Y21547D01*
D02*
G37*
G36*
X277087Y68854D02*
X276395Y68716D01*
X275809Y68325D01*
X275418Y67738D01*
X275280Y67047D01*
X275418Y66356D01*
X275809Y65770D01*
X276395Y65378D01*
X277087Y65241D01*
X277778Y65378D01*
X278364Y65770D01*
X278755Y66356D01*
X278893Y67047D01*
X278755Y67738D01*
X278364Y68325D01*
X277778Y68716D01*
X277087Y68854D01*
D02*
G37*
G36*
X223937D02*
X223246Y68716D01*
X222660Y68325D01*
X222268Y67738D01*
X222131Y67047D01*
X222268Y66356D01*
X222660Y65770D01*
X223246Y65378D01*
X223937Y65241D01*
X224628Y65378D01*
X225214Y65770D01*
X225606Y66356D01*
X225743Y67047D01*
X225606Y67738D01*
X225214Y68325D01*
X224628Y68716D01*
X223937Y68854D01*
D02*
G37*
G36*
X383189D02*
X382498Y68716D01*
X381912Y68325D01*
X381520Y67738D01*
X381383Y67047D01*
X381520Y66356D01*
X381912Y65770D01*
X382498Y65378D01*
X383189Y65241D01*
X383880Y65378D01*
X384466Y65770D01*
X384858Y66356D01*
X384995Y67047D01*
X384858Y67738D01*
X384466Y68325D01*
X383880Y68716D01*
X383189Y68854D01*
D02*
G37*
G36*
X330433D02*
X329742Y68716D01*
X329156Y68325D01*
X328764Y67738D01*
X328627Y67047D01*
X328764Y66356D01*
X329156Y65770D01*
X329742Y65378D01*
X330433Y65241D01*
X331124Y65378D01*
X331710Y65770D01*
X332102Y66356D01*
X332239Y67047D01*
X332102Y67738D01*
X331710Y68325D01*
X331124Y68716D01*
X330433Y68854D01*
D02*
G37*
G36*
X170984D02*
X170293Y68716D01*
X169707Y68325D01*
X169315Y67738D01*
X169178Y67047D01*
X169315Y66356D01*
X169707Y65770D01*
X170293Y65378D01*
X170984Y65241D01*
X171676Y65378D01*
X172262Y65770D01*
X172653Y66356D01*
X172791Y67047D01*
X172653Y67738D01*
X172262Y68325D01*
X171676Y68716D01*
X170984Y68854D01*
D02*
G37*
G36*
X30315Y67126D02*
X20866D01*
Y59252D01*
X30315D01*
Y67126D01*
D02*
G37*
G36*
X71063Y59287D02*
X70372Y59149D01*
X69786Y58758D01*
X69394Y58172D01*
X69257Y57480D01*
X69394Y56789D01*
X69786Y56203D01*
X70372Y55812D01*
X71063Y55674D01*
X71754Y55812D01*
X72340Y56203D01*
X72732Y56789D01*
X72869Y57480D01*
X72732Y58172D01*
X72340Y58758D01*
X71754Y59149D01*
X71063Y59287D01*
D02*
G37*
G36*
X118228Y68854D02*
X117537Y68716D01*
X116951Y68325D01*
X116560Y67738D01*
X116422Y67047D01*
X116560Y66356D01*
X116951Y65770D01*
X117537Y65378D01*
X118228Y65241D01*
X118920Y65378D01*
X119506Y65770D01*
X119897Y66356D01*
X120035Y67047D01*
X119897Y67738D01*
X119506Y68325D01*
X118920Y68716D01*
X118228Y68854D01*
D02*
G37*
G36*
X535827Y67908D02*
X534252D01*
X533224Y67773D01*
X532267Y67376D01*
X531444Y66745D01*
X530813Y65922D01*
X530416Y64965D01*
X530281Y63937D01*
X530416Y62909D01*
X530813Y61952D01*
X531444Y61129D01*
X532267Y60498D01*
X533224Y60101D01*
X534252Y59966D01*
X535827D01*
X536855Y60101D01*
X537812Y60498D01*
X538635Y61129D01*
X539266Y61952D01*
X539662Y62909D01*
X539798Y63937D01*
X539662Y64965D01*
X539266Y65922D01*
X538635Y66745D01*
X537812Y67376D01*
X536855Y67773D01*
X535827Y67908D01*
D02*
G37*
G36*
X534539Y108122D02*
X534252D01*
X533169Y107980D01*
X532159Y107562D01*
X531292Y106896D01*
X530627Y106030D01*
X530209Y105020D01*
X530132Y104437D01*
X534539D01*
Y108122D01*
D02*
G37*
G36*
X539946Y103437D02*
X535539D01*
Y99752D01*
X535827D01*
X536910Y99894D01*
X537920Y100312D01*
X538786Y100978D01*
X539452Y101844D01*
X539870Y102854D01*
X539946Y103437D01*
D02*
G37*
G36*
X535827Y117908D02*
X534252D01*
X533224Y117773D01*
X532267Y117376D01*
X531444Y116745D01*
X530813Y115922D01*
X530416Y114965D01*
X530281Y113937D01*
X530416Y112909D01*
X530813Y111951D01*
X531444Y111129D01*
X532267Y110498D01*
X533224Y110101D01*
X534252Y109966D01*
X535827D01*
X536855Y110101D01*
X537812Y110498D01*
X538635Y111129D01*
X539266Y111951D01*
X539662Y112909D01*
X539798Y113937D01*
X539662Y114965D01*
X539266Y115922D01*
X538635Y116745D01*
X537812Y117376D01*
X536855Y117773D01*
X535827Y117908D01*
D02*
G37*
G36*
Y108122D02*
X535539D01*
Y104437D01*
X539946D01*
X539870Y105020D01*
X539452Y106030D01*
X538786Y106896D01*
X537920Y107562D01*
X536910Y107980D01*
X535827Y108122D01*
D02*
G37*
G36*
X534539Y103437D02*
X530132D01*
X530209Y102854D01*
X530627Y101844D01*
X531292Y100978D01*
X532159Y100312D01*
X533169Y99894D01*
X534252Y99752D01*
X534539D01*
Y103437D01*
D02*
G37*
G36*
X489685Y68854D02*
X488994Y68716D01*
X488408Y68325D01*
X488016Y67738D01*
X487879Y67047D01*
X488016Y66356D01*
X488408Y65770D01*
X488994Y65378D01*
X489685Y65241D01*
X490376Y65378D01*
X490962Y65770D01*
X491354Y66356D01*
X491491Y67047D01*
X491354Y67738D01*
X490962Y68325D01*
X490376Y68716D01*
X489685Y68854D01*
D02*
G37*
G36*
X436142D02*
X435451Y68716D01*
X434864Y68325D01*
X434473Y67738D01*
X434335Y67047D01*
X434473Y66356D01*
X434864Y65770D01*
X435451Y65378D01*
X436142Y65241D01*
X436833Y65378D01*
X437419Y65770D01*
X437811Y66356D01*
X437948Y67047D01*
X437811Y67738D01*
X437419Y68325D01*
X436833Y68716D01*
X436142Y68854D01*
D02*
G37*
G36*
X51575Y89798D02*
X50884Y89661D01*
X50297Y89269D01*
X49906Y88683D01*
X49768Y87992D01*
X49906Y87301D01*
X50297Y86715D01*
X50884Y86323D01*
X51575Y86186D01*
X52266Y86323D01*
X52852Y86715D01*
X53244Y87301D01*
X53381Y87992D01*
X53244Y88683D01*
X52852Y89269D01*
X52266Y89661D01*
X51575Y89798D01*
D02*
G37*
G36*
X535827Y77908D02*
X534252D01*
X533224Y77773D01*
X532267Y77376D01*
X531444Y76745D01*
X530813Y75923D01*
X530416Y74965D01*
X530281Y73937D01*
X530416Y72909D01*
X530813Y71952D01*
X531444Y71129D01*
X532267Y70498D01*
X533224Y70101D01*
X534252Y69966D01*
X535827D01*
X536855Y70101D01*
X537812Y70498D01*
X538635Y71129D01*
X539266Y71952D01*
X539662Y72909D01*
X539798Y73937D01*
X539662Y74965D01*
X539266Y75923D01*
X538635Y76745D01*
X537812Y77376D01*
X536855Y77773D01*
X535827Y77908D01*
D02*
G37*
G36*
Y58122D02*
X535539D01*
Y54437D01*
X539946D01*
X539870Y55020D01*
X539452Y56030D01*
X538786Y56897D01*
X537920Y57562D01*
X536910Y57980D01*
X535827Y58122D01*
D02*
G37*
G36*
X115173Y26984D02*
X111524D01*
Y22547D01*
X115173D01*
Y26984D01*
D02*
G37*
G36*
X216626D02*
X212976D01*
Y22547D01*
X216626D01*
Y26984D01*
D02*
G37*
G36*
X221276D02*
X217626D01*
Y22547D01*
X221276D01*
Y26984D01*
D02*
G37*
G36*
X168126D02*
X164476D01*
Y22547D01*
X168126D01*
Y26984D01*
D02*
G37*
G36*
X163476D02*
X159827D01*
Y22547D01*
X163476D01*
Y26984D01*
D02*
G37*
G36*
X429224D02*
X425575D01*
Y22547D01*
X429224D01*
Y26984D01*
D02*
G37*
G36*
X380724D02*
X377075D01*
Y22547D01*
X380724D01*
Y26984D01*
D02*
G37*
G36*
X110524D02*
X106874D01*
Y22547D01*
X110524D01*
Y26984D01*
D02*
G37*
G36*
X433874D02*
X430224D01*
Y22547D01*
X433874D01*
Y26984D01*
D02*
G37*
G36*
X86811Y53775D02*
X86120Y53637D01*
X85534Y53246D01*
X85142Y52660D01*
X85005Y51968D01*
X85142Y51277D01*
X85534Y50691D01*
X86120Y50300D01*
X86811Y50162D01*
X87502Y50300D01*
X88088Y50691D01*
X88480Y51277D01*
X88617Y51968D01*
X88480Y52660D01*
X88088Y53246D01*
X87502Y53637D01*
X86811Y53775D01*
D02*
G37*
G36*
X539946Y53437D02*
X535539D01*
Y49752D01*
X535827D01*
X536910Y49894D01*
X537920Y50312D01*
X538786Y50977D01*
X539452Y51844D01*
X539870Y52854D01*
X539946Y53437D01*
D02*
G37*
G36*
X534539Y58122D02*
X534252D01*
X533169Y57980D01*
X532159Y57562D01*
X531292Y56897D01*
X530627Y56030D01*
X530209Y55020D01*
X530132Y54437D01*
X534539D01*
Y58122D01*
D02*
G37*
G36*
X53347Y54759D02*
X52655Y54622D01*
X52069Y54230D01*
X51678Y53644D01*
X51540Y52953D01*
X51678Y52262D01*
X52069Y51675D01*
X52655Y51284D01*
X53347Y51146D01*
X54038Y51284D01*
X54624Y51675D01*
X55015Y52262D01*
X55153Y52953D01*
X55015Y53644D01*
X54624Y54230D01*
X54038Y54622D01*
X53347Y54759D01*
D02*
G37*
G36*
X534539Y53437D02*
X530132D01*
X530209Y52854D01*
X530627Y51844D01*
X531292Y50977D01*
X532159Y50312D01*
X533169Y49894D01*
X534252Y49752D01*
X534539D01*
Y53437D01*
D02*
G37*
G36*
X482571Y26984D02*
X478921D01*
Y22547D01*
X482571D01*
Y26984D01*
D02*
G37*
G36*
X269776D02*
X266126D01*
Y22547D01*
X269776D01*
Y26984D01*
D02*
G37*
G36*
X487220D02*
X483571D01*
Y22547D01*
X487220D01*
Y26984D01*
D02*
G37*
G36*
X274425D02*
X270776D01*
Y22547D01*
X274425D01*
Y26984D01*
D02*
G37*
G36*
X422047Y301019D02*
X421356Y300882D01*
X420770Y300490D01*
X420378Y299904D01*
X420241Y299213D01*
X420378Y298521D01*
X420770Y297935D01*
X421356Y297544D01*
X422047Y297406D01*
X422739Y297544D01*
X423324Y297935D01*
X423716Y298521D01*
X423854Y299213D01*
X423716Y299904D01*
X423324Y300490D01*
X422739Y300882D01*
X422047Y301019D01*
D02*
G37*
G36*
X412205D02*
X411514Y300882D01*
X410927Y300490D01*
X410536Y299904D01*
X410398Y299213D01*
X410536Y298521D01*
X410927Y297935D01*
X411514Y297544D01*
X412205Y297406D01*
X412896Y297544D01*
X413482Y297935D01*
X413874Y298521D01*
X414011Y299213D01*
X413874Y299904D01*
X413482Y300490D01*
X412896Y300882D01*
X412205Y301019D01*
D02*
G37*
G36*
X431890Y303381D02*
X431199Y303244D01*
X430613Y302852D01*
X430221Y302266D01*
X430083Y301575D01*
X430221Y300884D01*
X430613Y300297D01*
X431199Y299906D01*
X431890Y299768D01*
X432581Y299906D01*
X433167Y300297D01*
X433559Y300884D01*
X433696Y301575D01*
X433559Y302266D01*
X433167Y302852D01*
X432581Y303244D01*
X431890Y303381D01*
D02*
G37*
G36*
X401968Y301413D02*
X401277Y301275D01*
X400691Y300884D01*
X400300Y300298D01*
X400162Y299606D01*
X400300Y298915D01*
X400691Y298329D01*
X401277Y297937D01*
X401968Y297800D01*
X402660Y297937D01*
X403246Y298329D01*
X403637Y298915D01*
X403775Y299606D01*
X403637Y300298D01*
X403246Y300884D01*
X402660Y301275D01*
X401968Y301413D01*
D02*
G37*
G36*
X93307Y301220D02*
X92539Y301067D01*
X91888Y300632D01*
X91453Y299981D01*
X91300Y299213D01*
X91453Y298445D01*
X91888Y297793D01*
X92539Y297358D01*
X93307Y297205D01*
X94075Y297358D01*
X94726Y297793D01*
X95161Y298445D01*
X95314Y299213D01*
X95161Y299981D01*
X94726Y300632D01*
X94075Y301067D01*
X93307Y301220D01*
D02*
G37*
G36*
X313779Y294720D02*
X313088Y294582D01*
X312502Y294191D01*
X312111Y293605D01*
X311973Y292913D01*
X312111Y292222D01*
X312502Y291636D01*
X313088Y291245D01*
X313779Y291107D01*
X314471Y291245D01*
X315057Y291636D01*
X315448Y292222D01*
X315586Y292913D01*
X315448Y293605D01*
X315057Y294191D01*
X314471Y294582D01*
X313779Y294720D01*
D02*
G37*
G36*
X294094Y293539D02*
X293403Y293401D01*
X292817Y293010D01*
X292426Y292424D01*
X292288Y291732D01*
X292426Y291041D01*
X292817Y290455D01*
X293403Y290063D01*
X294094Y289926D01*
X294786Y290063D01*
X295372Y290455D01*
X295763Y291041D01*
X295901Y291732D01*
X295763Y292424D01*
X295372Y293010D01*
X294786Y293401D01*
X294094Y293539D01*
D02*
G37*
G36*
X114961Y299232D02*
X114193Y299079D01*
X113541Y298644D01*
X113106Y297992D01*
X112954Y297224D01*
X113106Y296456D01*
X113541Y295805D01*
X114193Y295370D01*
X114961Y295217D01*
X115729Y295370D01*
X116380Y295805D01*
X116815Y296456D01*
X116968Y297224D01*
X116815Y297992D01*
X116380Y298644D01*
X115729Y299079D01*
X114961Y299232D01*
D02*
G37*
G36*
X510433Y296098D02*
X509742Y295960D01*
X509156Y295569D01*
X508764Y294983D01*
X508627Y294291D01*
X508764Y293600D01*
X509156Y293014D01*
X509742Y292622D01*
X510433Y292485D01*
X511124Y292622D01*
X511710Y293014D01*
X512102Y293600D01*
X512239Y294291D01*
X512102Y294983D01*
X511710Y295569D01*
X511124Y295960D01*
X510433Y296098D01*
D02*
G37*
G36*
X422047Y324641D02*
X421356Y324503D01*
X420770Y324112D01*
X420378Y323526D01*
X420241Y322835D01*
X420378Y322143D01*
X420770Y321557D01*
X421356Y321166D01*
X422047Y321028D01*
X422739Y321166D01*
X423324Y321557D01*
X423716Y322143D01*
X423854Y322835D01*
X423716Y323526D01*
X423324Y324112D01*
X422739Y324503D01*
X422047Y324641D01*
D02*
G37*
G36*
X412205D02*
X411514Y324503D01*
X410927Y324112D01*
X410536Y323526D01*
X410398Y322835D01*
X410536Y322143D01*
X410927Y321557D01*
X411514Y321166D01*
X412205Y321028D01*
X412896Y321166D01*
X413482Y321557D01*
X413874Y322143D01*
X414011Y322835D01*
X413874Y323526D01*
X413482Y324112D01*
X412896Y324503D01*
X412205Y324641D01*
D02*
G37*
G36*
X118110Y332716D02*
X117342Y332563D01*
X116691Y332128D01*
X116682Y332114D01*
X45129D01*
X45120Y332128D01*
X44469Y332563D01*
X43701Y332716D01*
X42933Y332563D01*
X42282Y332128D01*
X41846Y331477D01*
X41694Y330709D01*
X41846Y329941D01*
X42282Y329289D01*
X42296Y329280D01*
Y273417D01*
X26959Y258080D01*
X26655Y257624D01*
X26548Y257087D01*
Y142314D01*
X13574Y129340D01*
X13269Y128884D01*
X13162Y128347D01*
Y47638D01*
X13269Y47100D01*
X13574Y46644D01*
X18022Y42195D01*
X18478Y41891D01*
X19016Y41784D01*
X21124D01*
X21364Y41203D01*
X21995Y40381D01*
X22818Y39750D01*
X23775Y39353D01*
X24803Y39218D01*
X26378D01*
X27406Y39353D01*
X28363Y39750D01*
X29186Y40381D01*
X29817Y41203D01*
X30214Y42161D01*
X30349Y43189D01*
X30214Y44217D01*
X29817Y45175D01*
X29186Y45997D01*
X28363Y46628D01*
X27406Y47025D01*
X26378Y47160D01*
X24803D01*
X23775Y47025D01*
X22818Y46628D01*
X21995Y45997D01*
X21364Y45175D01*
X21124Y44594D01*
X19598D01*
X15972Y48220D01*
Y127764D01*
X28946Y140739D01*
X29251Y141195D01*
X29358Y141732D01*
Y256505D01*
X44694Y271841D01*
X44999Y272297D01*
X45106Y272835D01*
Y329280D01*
X45120Y329289D01*
X45129Y329304D01*
X116682D01*
X116691Y329289D01*
X116705Y329280D01*
Y325445D01*
X116691Y325435D01*
X116256Y324784D01*
X116103Y324016D01*
X116256Y323248D01*
X116691Y322597D01*
X117342Y322162D01*
X118110Y322009D01*
X118878Y322162D01*
X119529Y322597D01*
X119965Y323248D01*
X120117Y324016D01*
X119965Y324784D01*
X119529Y325435D01*
X119515Y325445D01*
Y329280D01*
X119529Y329289D01*
X119965Y329941D01*
X120117Y330709D01*
X119965Y331477D01*
X119529Y332128D01*
X118878Y332563D01*
X118110Y332716D01*
D02*
G37*
G36*
X431890Y324641D02*
X431199Y324503D01*
X430613Y324112D01*
X430221Y323526D01*
X430083Y322835D01*
X430221Y322143D01*
X430613Y321557D01*
X431199Y321166D01*
X431890Y321028D01*
X432581Y321166D01*
X433167Y321557D01*
X433559Y322143D01*
X433696Y322835D01*
X433559Y323526D01*
X433167Y324112D01*
X432581Y324503D01*
X431890Y324641D01*
D02*
G37*
G36*
X401968D02*
X401277Y324503D01*
X400691Y324112D01*
X400300Y323526D01*
X400162Y322835D01*
X400300Y322143D01*
X400691Y321557D01*
X401277Y321166D01*
X401968Y321028D01*
X402660Y321166D01*
X403246Y321557D01*
X403637Y322143D01*
X403775Y322835D01*
X403637Y323526D01*
X403246Y324112D01*
X402660Y324503D01*
X401968Y324641D01*
D02*
G37*
G36*
X315354Y315783D02*
X314663Y315645D01*
X314077Y315254D01*
X313685Y314668D01*
X313548Y313976D01*
X313685Y313285D01*
X314077Y312699D01*
X314663Y312308D01*
X315354Y312170D01*
X316046Y312308D01*
X316632Y312699D01*
X317023Y313285D01*
X317161Y313976D01*
X317023Y314668D01*
X316632Y315254D01*
X316046Y315645D01*
X315354Y315783D01*
D02*
G37*
G36*
X291732Y310468D02*
X291041Y310330D01*
X290455Y309939D01*
X290063Y309353D01*
X289926Y308661D01*
X290063Y307970D01*
X290455Y307384D01*
X291041Y306993D01*
X291732Y306855D01*
X292424Y306993D01*
X293010Y307384D01*
X293401Y307970D01*
X293539Y308661D01*
X293401Y309353D01*
X293010Y309939D01*
X292424Y310330D01*
X291732Y310468D01*
D02*
G37*
G36*
X343701Y324641D02*
X343009Y324503D01*
X342424Y324112D01*
X342032Y323526D01*
X341894Y322835D01*
X342032Y322143D01*
X342424Y321557D01*
X343009Y321166D01*
X343701Y321028D01*
X344392Y321166D01*
X344978Y321557D01*
X345370Y322143D01*
X345507Y322835D01*
X345370Y323526D01*
X344978Y324112D01*
X344392Y324503D01*
X343701Y324641D01*
D02*
G37*
G36*
X314764Y322082D02*
X314072Y321944D01*
X313487Y321553D01*
X313095Y320967D01*
X312957Y320276D01*
X313095Y319584D01*
X313487Y318998D01*
X314072Y318607D01*
X314764Y318469D01*
X315455Y318607D01*
X316041Y318998D01*
X316433Y319584D01*
X316570Y320276D01*
X316433Y320967D01*
X316041Y321553D01*
X315455Y321944D01*
X314764Y322082D01*
D02*
G37*
G36*
X66823Y267578D02*
X63386D01*
X62097Y267408D01*
X60896Y266911D01*
X59865Y266120D01*
X59073Y265088D01*
X58576Y263887D01*
X58472Y263099D01*
X66823D01*
Y267578D01*
D02*
G37*
G36*
X336417Y266176D02*
X335726Y266039D01*
X335140Y265647D01*
X334749Y265061D01*
X334611Y264370D01*
X334749Y263679D01*
X335140Y263093D01*
X335726Y262701D01*
X336417Y262564D01*
X337109Y262701D01*
X337695Y263093D01*
X338086Y263679D01*
X338224Y264370D01*
X338086Y265061D01*
X337695Y265647D01*
X337109Y266039D01*
X336417Y266176D01*
D02*
G37*
G36*
X55012Y280602D02*
X50532D01*
Y277165D01*
X50702Y275877D01*
X51199Y274676D01*
X51991Y273644D01*
X53022Y272853D01*
X54223Y272356D01*
X55012Y272252D01*
Y280602D01*
D02*
G37*
G36*
X71260Y267578D02*
X67823D01*
Y263099D01*
X76174D01*
X76070Y263887D01*
X75572Y265088D01*
X74781Y266120D01*
X73750Y266911D01*
X72549Y267408D01*
X71260Y267578D01*
D02*
G37*
G36*
X502756Y265192D02*
X502065Y265055D01*
X501479Y264663D01*
X501087Y264077D01*
X500949Y263386D01*
X501087Y262695D01*
X501479Y262108D01*
X502065Y261717D01*
X502756Y261579D01*
X503447Y261717D01*
X504033Y262108D01*
X504425Y262695D01*
X504562Y263386D01*
X504425Y264077D01*
X504033Y264663D01*
X503447Y265055D01*
X502756Y265192D01*
D02*
G37*
G36*
X487756Y265192D02*
X487065Y265055D01*
X486479Y264663D01*
X486087Y264077D01*
X485950Y263386D01*
X486087Y262695D01*
X486479Y262108D01*
X487065Y261717D01*
X487756Y261579D01*
X488447Y261717D01*
X489033Y262108D01*
X489425Y262695D01*
X489562Y263386D01*
X489425Y264077D01*
X489033Y264663D01*
X488447Y265055D01*
X487756Y265192D01*
D02*
G37*
G36*
X338386Y261255D02*
X337695Y261118D01*
X337108Y260726D01*
X336717Y260140D01*
X336579Y259449D01*
X336717Y258758D01*
X337108Y258172D01*
X337695Y257780D01*
X338386Y257643D01*
X339077Y257780D01*
X339663Y258172D01*
X340055Y258758D01*
X340192Y259449D01*
X340055Y260140D01*
X339663Y260726D01*
X339077Y261118D01*
X338386Y261255D01*
D02*
G37*
G36*
X497756Y265192D02*
X497065Y265055D01*
X496479Y264663D01*
X496087Y264077D01*
X495950Y263386D01*
X496087Y262695D01*
X496479Y262108D01*
X497065Y261717D01*
X497756Y261579D01*
X498447Y261717D01*
X499033Y262108D01*
X499425Y262695D01*
X499562Y263386D01*
X499425Y264077D01*
X499033Y264663D01*
X498447Y265055D01*
X497756Y265192D01*
D02*
G37*
G36*
X492756D02*
X492065Y265055D01*
X491479Y264663D01*
X491087Y264077D01*
X490949Y263386D01*
X491087Y262695D01*
X491479Y262108D01*
X492065Y261717D01*
X492756Y261579D01*
X493447Y261717D01*
X494033Y262108D01*
X494425Y262695D01*
X494562Y263386D01*
X494425Y264077D01*
X494033Y264663D01*
X493447Y265055D01*
X492756Y265192D01*
D02*
G37*
G36*
X56012Y289953D02*
Y281602D01*
X60491D01*
Y285039D01*
X60322Y286328D01*
X59824Y287529D01*
X59033Y288561D01*
X58002Y289352D01*
X56801Y289849D01*
X56012Y289953D01*
D02*
G37*
G36*
X55012D02*
X54223Y289849D01*
X53022Y289352D01*
X51991Y288561D01*
X51199Y287529D01*
X50702Y286328D01*
X50532Y285039D01*
Y281602D01*
X55012D01*
Y289953D01*
D02*
G37*
G36*
X223622Y288814D02*
X222931Y288677D01*
X222345Y288285D01*
X221953Y287699D01*
X221816Y287008D01*
X221953Y286317D01*
X222345Y285731D01*
X222931Y285339D01*
X223622Y285202D01*
X224313Y285339D01*
X224899Y285731D01*
X225291Y286317D01*
X225428Y287008D01*
X225291Y287699D01*
X224899Y288285D01*
X224313Y288677D01*
X223622Y288814D01*
D02*
G37*
G36*
X327559Y285271D02*
X326868Y285133D01*
X326282Y284742D01*
X325890Y284156D01*
X325753Y283465D01*
X325890Y282773D01*
X326282Y282187D01*
X326868Y281796D01*
X327559Y281658D01*
X328250Y281796D01*
X328836Y282187D01*
X329228Y282773D01*
X329365Y283465D01*
X329228Y284156D01*
X328836Y284742D01*
X328250Y285133D01*
X327559Y285271D01*
D02*
G37*
G36*
X312598Y282909D02*
X311907Y282771D01*
X311321Y282380D01*
X310930Y281794D01*
X310792Y281102D01*
X310930Y280411D01*
X311321Y279825D01*
X311907Y279433D01*
X312598Y279296D01*
X313290Y279433D01*
X313876Y279825D01*
X314267Y280411D01*
X314405Y281102D01*
X314267Y281794D01*
X313876Y282380D01*
X313290Y282771D01*
X312598Y282909D01*
D02*
G37*
G36*
X79134Y289805D02*
X77900Y289642D01*
X76751Y289166D01*
X75764Y288409D01*
X75007Y287422D01*
X74531Y286273D01*
X74369Y285039D01*
Y277165D01*
X74531Y275932D01*
X75007Y274783D01*
X75764Y273796D01*
X76751Y273039D01*
X77900Y272563D01*
X79134Y272400D01*
X80367Y272563D01*
X81516Y273039D01*
X82503Y273796D01*
X83261Y274783D01*
X83737Y275932D01*
X83899Y277165D01*
Y285039D01*
X83737Y286273D01*
X83261Y287422D01*
X82503Y288409D01*
X81516Y289166D01*
X80367Y289642D01*
X79134Y289805D01*
D02*
G37*
G36*
X60491Y280602D02*
X56012D01*
Y272252D01*
X56801Y272356D01*
X58002Y272853D01*
X59033Y273644D01*
X59824Y274676D01*
X60322Y275877D01*
X60491Y277165D01*
Y280602D01*
D02*
G37*
G36*
X311811Y276413D02*
X311120Y276275D01*
X310534Y275884D01*
X310142Y275298D01*
X310005Y274606D01*
X310142Y273915D01*
X310534Y273329D01*
X311120Y272937D01*
X311811Y272800D01*
X312502Y272937D01*
X313088Y273329D01*
X313480Y273915D01*
X313617Y274606D01*
X313480Y275298D01*
X313088Y275884D01*
X312502Y276275D01*
X311811Y276413D01*
D02*
G37*
G36*
X256299D02*
X255608Y276275D01*
X255022Y275884D01*
X254630Y275298D01*
X254493Y274606D01*
X254630Y273915D01*
X255022Y273329D01*
X255608Y272937D01*
X256299Y272800D01*
X256991Y272937D01*
X257576Y273329D01*
X257968Y273915D01*
X258106Y274606D01*
X257968Y275298D01*
X257576Y275884D01*
X256991Y276275D01*
X256299Y276413D01*
D02*
G37*
G36*
X62362Y367178D02*
X62075D01*
Y362992D01*
Y358807D01*
X62362D01*
X63446Y358949D01*
X64455Y359367D01*
X65322Y360033D01*
X65987Y360899D01*
X66405Y361909D01*
X66430Y362098D01*
X66934Y362098D01*
X66952Y361964D01*
X67348Y361007D01*
X67980Y360184D01*
X68802Y359553D01*
X69760Y359156D01*
X70787Y359021D01*
X72362D01*
X73390Y359156D01*
X74348Y359553D01*
X75170Y360184D01*
X75801Y361007D01*
X76198Y361964D01*
X76333Y362992D01*
X76198Y364020D01*
X75801Y364978D01*
X75170Y365800D01*
X74348Y366431D01*
X73390Y366828D01*
X72362Y366963D01*
X70787D01*
X69760Y366828D01*
X68802Y366431D01*
X67980Y365800D01*
X67348Y364978D01*
X66952Y364020D01*
X66934Y363887D01*
X66430Y363887D01*
X66405Y364075D01*
X65987Y365085D01*
X65322Y365952D01*
X64455Y366617D01*
X63446Y367035D01*
X62362Y367178D01*
D02*
G37*
G36*
X333780Y385861D02*
X332752Y385725D01*
X331794Y385329D01*
X330972Y384698D01*
X330341Y383875D01*
X329944Y382917D01*
X329809Y381890D01*
Y380315D01*
X329944Y379287D01*
X330341Y378329D01*
X330972Y377507D01*
X331794Y376876D01*
X332752Y376479D01*
X333780Y376344D01*
X334807Y376479D01*
X335765Y376876D01*
X336587Y377507D01*
X337218Y378329D01*
X337615Y379287D01*
X337751Y380315D01*
Y381890D01*
X337615Y382917D01*
X337218Y383875D01*
X336587Y384698D01*
X335765Y385329D01*
X334807Y385725D01*
X333780Y385861D01*
D02*
G37*
G36*
X323780D02*
X322752Y385725D01*
X321794Y385329D01*
X320972Y384698D01*
X320341Y383875D01*
X319944Y382917D01*
X319809Y381890D01*
Y380315D01*
X319944Y379287D01*
X320341Y378329D01*
X320972Y377507D01*
X321794Y376876D01*
X322752Y376479D01*
X323780Y376344D01*
X324807Y376479D01*
X325765Y376876D01*
X326587Y377507D01*
X327219Y378329D01*
X327615Y379287D01*
X327750Y380315D01*
Y381890D01*
X327615Y382917D01*
X327219Y383875D01*
X326587Y384698D01*
X325765Y385329D01*
X324807Y385725D01*
X323780Y385861D01*
D02*
G37*
G36*
X401890Y386648D02*
X400862Y386513D01*
X399904Y386116D01*
X399082Y385485D01*
X398451Y384663D01*
X398054Y383705D01*
X397919Y382677D01*
Y381102D01*
X398054Y380075D01*
X398451Y379117D01*
X399082Y378294D01*
X399904Y377663D01*
X400862Y377267D01*
X401890Y377131D01*
X402917Y377267D01*
X403875Y377663D01*
X404698Y378294D01*
X405329Y379117D01*
X405725Y380075D01*
X405861Y381102D01*
Y382677D01*
X405725Y383705D01*
X405329Y384663D01*
X404698Y385485D01*
X403875Y386116D01*
X402917Y386513D01*
X401890Y386648D01*
D02*
G37*
G36*
X343779Y385861D02*
X342752Y385725D01*
X341794Y385329D01*
X340972Y384698D01*
X340341Y383875D01*
X339944Y382917D01*
X339809Y381890D01*
Y380315D01*
X339944Y379287D01*
X340341Y378329D01*
X340972Y377507D01*
X341794Y376876D01*
X342752Y376479D01*
X343779Y376344D01*
X344807Y376479D01*
X345765Y376876D01*
X346587Y377507D01*
X347218Y378329D01*
X347615Y379287D01*
X347750Y380315D01*
Y381890D01*
X347615Y382917D01*
X347218Y383875D01*
X346587Y384698D01*
X345765Y385329D01*
X344807Y385725D01*
X343779Y385861D01*
D02*
G37*
G36*
X313779D02*
X312752Y385725D01*
X311794Y385329D01*
X310972Y384698D01*
X310341Y383875D01*
X309944Y382917D01*
X309809Y381890D01*
Y380315D01*
X309944Y379287D01*
X310341Y378329D01*
X310972Y377507D01*
X311794Y376876D01*
X312752Y376479D01*
X313779Y376344D01*
X314807Y376479D01*
X315765Y376876D01*
X316587Y377507D01*
X317218Y378329D01*
X317615Y379287D01*
X317751Y380315D01*
Y381890D01*
X317615Y382917D01*
X317218Y383875D01*
X316587Y384698D01*
X315765Y385329D01*
X314807Y385725D01*
X313779Y385861D01*
D02*
G37*
G36*
X283780D02*
X282752Y385725D01*
X281794Y385329D01*
X280972Y384698D01*
X280341Y383875D01*
X279944Y382917D01*
X279809Y381890D01*
Y380315D01*
X279944Y379287D01*
X280341Y378329D01*
X280972Y377507D01*
X281794Y376876D01*
X282752Y376479D01*
X283780Y376344D01*
X284807Y376479D01*
X285765Y376876D01*
X286587Y377507D01*
X287218Y378329D01*
X287615Y379287D01*
X287751Y380315D01*
Y381890D01*
X287615Y382917D01*
X287218Y383875D01*
X286587Y384698D01*
X285765Y385329D01*
X284807Y385725D01*
X283780Y385861D01*
D02*
G37*
G36*
X273780D02*
X272752Y385725D01*
X271794Y385329D01*
X270972Y384698D01*
X270341Y383875D01*
X269944Y382917D01*
X269809Y381890D01*
Y380315D01*
X269944Y379287D01*
X270341Y378329D01*
X270972Y377507D01*
X271794Y376876D01*
X272752Y376479D01*
X273780Y376344D01*
X274807Y376479D01*
X275765Y376876D01*
X276587Y377507D01*
X277219Y378329D01*
X277615Y379287D01*
X277750Y380315D01*
Y381890D01*
X277615Y382917D01*
X277219Y383875D01*
X276587Y384698D01*
X275765Y385329D01*
X274807Y385725D01*
X273780Y385861D01*
D02*
G37*
G36*
X303780D02*
X302752Y385725D01*
X301794Y385329D01*
X300972Y384698D01*
X300341Y383875D01*
X299944Y382917D01*
X299809Y381890D01*
Y380315D01*
X299944Y379287D01*
X300341Y378329D01*
X300972Y377507D01*
X301794Y376876D01*
X302752Y376479D01*
X303780Y376344D01*
X304807Y376479D01*
X305765Y376876D01*
X306587Y377507D01*
X307219Y378329D01*
X307615Y379287D01*
X307751Y380315D01*
Y381890D01*
X307615Y382917D01*
X307219Y383875D01*
X306587Y384698D01*
X305765Y385329D01*
X304807Y385725D01*
X303780Y385861D01*
D02*
G37*
G36*
X293779D02*
X292752Y385725D01*
X291794Y385329D01*
X290972Y384698D01*
X290341Y383875D01*
X289944Y382917D01*
X289809Y381890D01*
Y380315D01*
X289944Y379287D01*
X290341Y378329D01*
X290972Y377507D01*
X291794Y376876D01*
X292752Y376479D01*
X293779Y376344D01*
X294807Y376479D01*
X295765Y376876D01*
X296587Y377507D01*
X297218Y378329D01*
X297615Y379287D01*
X297750Y380315D01*
Y381890D01*
X297615Y382917D01*
X297218Y383875D01*
X296587Y384698D01*
X295765Y385329D01*
X294807Y385725D01*
X293779Y385861D01*
D02*
G37*
G36*
X217929Y386039D02*
X214280D01*
Y381602D01*
X217929D01*
Y386039D01*
D02*
G37*
G36*
X213280D02*
X209630D01*
Y381602D01*
X213280D01*
Y386039D01*
D02*
G37*
G36*
X364280Y386009D02*
Y381602D01*
X367965D01*
Y381890D01*
X367822Y382973D01*
X367404Y383982D01*
X366739Y384849D01*
X365872Y385514D01*
X364863Y385933D01*
X364280Y386009D01*
D02*
G37*
G36*
X254279D02*
Y381602D01*
X257965D01*
Y381890D01*
X257822Y382973D01*
X257404Y383982D01*
X256739Y384849D01*
X255872Y385514D01*
X254863Y385933D01*
X254279Y386009D01*
D02*
G37*
G36*
X363280Y386009D02*
X362696Y385933D01*
X361687Y385514D01*
X360820Y384849D01*
X360155Y383982D01*
X359737Y382973D01*
X359594Y381890D01*
Y381602D01*
X363280D01*
Y386009D01*
D02*
G37*
G36*
X421890Y386648D02*
X420862Y386513D01*
X419904Y386116D01*
X419082Y385485D01*
X418451Y384663D01*
X418054Y383705D01*
X417919Y382677D01*
Y381102D01*
X418054Y380075D01*
X418451Y379117D01*
X419082Y378294D01*
X419904Y377663D01*
X420862Y377267D01*
X421890Y377131D01*
X422918Y377267D01*
X423875Y377663D01*
X424698Y378294D01*
X425329Y379117D01*
X425725Y380075D01*
X425861Y381102D01*
Y382677D01*
X425725Y383705D01*
X425329Y384663D01*
X424698Y385485D01*
X423875Y386116D01*
X422918Y386513D01*
X421890Y386648D01*
D02*
G37*
G36*
X411890D02*
X410862Y386513D01*
X409904Y386116D01*
X409082Y385485D01*
X408451Y384663D01*
X408054Y383705D01*
X407919Y382677D01*
Y381102D01*
X408054Y380075D01*
X408451Y379117D01*
X409082Y378294D01*
X409904Y377663D01*
X410862Y377267D01*
X411890Y377131D01*
X412918Y377267D01*
X413875Y377663D01*
X414698Y378294D01*
X415329Y379117D01*
X415725Y380075D01*
X415861Y381102D01*
Y382677D01*
X415725Y383705D01*
X415329Y384663D01*
X414698Y385485D01*
X413875Y386116D01*
X412918Y386513D01*
X411890Y386648D01*
D02*
G37*
G36*
X253279Y386009D02*
X252696Y385933D01*
X251687Y385514D01*
X250820Y384849D01*
X250155Y383982D01*
X249737Y382973D01*
X249594Y381890D01*
Y381602D01*
X253279D01*
Y386009D01*
D02*
G37*
G36*
X435827Y386614D02*
X427953D01*
Y377165D01*
X435827D01*
Y386614D01*
D02*
G37*
G36*
X405905Y374803D02*
X398031D01*
Y365354D01*
X405905D01*
Y374803D01*
D02*
G37*
G36*
X431968Y374837D02*
X430941Y374702D01*
X429983Y374305D01*
X429161Y373674D01*
X428530Y372852D01*
X428133Y371894D01*
X427997Y370866D01*
Y369291D01*
X428133Y368264D01*
X428530Y367306D01*
X429161Y366483D01*
X429983Y365852D01*
X430941Y365456D01*
X431968Y365320D01*
X432996Y365456D01*
X433954Y365852D01*
X434776Y366483D01*
X435407Y367306D01*
X435804Y368264D01*
X435940Y369291D01*
Y370866D01*
X435804Y371894D01*
X435407Y372852D01*
X434776Y373674D01*
X433954Y374305D01*
X432996Y374702D01*
X431968Y374837D01*
D02*
G37*
G36*
X17717Y383105D02*
X16327Y382968D01*
X14991Y382563D01*
X13760Y381905D01*
X12681Y381019D01*
X11796Y379940D01*
X11138Y378709D01*
X10733Y377374D01*
X10596Y375984D01*
X10733Y374595D01*
X11138Y373259D01*
X11796Y372028D01*
X12681Y370949D01*
X13760Y370063D01*
X14991Y369405D01*
X16327Y369000D01*
X17717Y368863D01*
X19106Y369000D01*
X20442Y369405D01*
X21673Y370063D01*
X22752Y370949D01*
X23637Y372028D01*
X24295Y373259D01*
X24701Y374595D01*
X24837Y375984D01*
X24701Y377374D01*
X24295Y378709D01*
X23637Y379940D01*
X22752Y381019D01*
X21673Y381905D01*
X20442Y382563D01*
X19106Y382968D01*
X17717Y383105D01*
D02*
G37*
G36*
X536614Y383303D02*
X535186Y383162D01*
X533813Y382746D01*
X532548Y382069D01*
X531439Y381159D01*
X530529Y380050D01*
X529853Y378785D01*
X529436Y377412D01*
X529295Y375984D01*
X529436Y374556D01*
X529853Y373183D01*
X530529Y371918D01*
X531439Y370809D01*
X532548Y369899D01*
X533813Y369223D01*
X535186Y368806D01*
X536614Y368666D01*
X538042Y368806D01*
X539415Y369223D01*
X540680Y369899D01*
X541789Y370809D01*
X542699Y371918D01*
X543376Y373183D01*
X543792Y374556D01*
X543933Y375984D01*
X543792Y377412D01*
X543376Y378785D01*
X542699Y380050D01*
X541789Y381159D01*
X540680Y382069D01*
X539415Y382746D01*
X538042Y383162D01*
X536614Y383303D01*
D02*
G37*
G36*
X421969Y374837D02*
X420941Y374702D01*
X419983Y374305D01*
X419161Y373674D01*
X418530Y372852D01*
X418133Y371894D01*
X417998Y370866D01*
Y369291D01*
X418133Y368264D01*
X418530Y367306D01*
X419161Y366483D01*
X419983Y365852D01*
X420941Y365456D01*
X421969Y365320D01*
X422996Y365456D01*
X423954Y365852D01*
X424776Y366483D01*
X425408Y367306D01*
X425804Y368264D01*
X425940Y369291D01*
Y370866D01*
X425804Y371894D01*
X425408Y372852D01*
X424776Y373674D01*
X423954Y374305D01*
X422996Y374702D01*
X421969Y374837D01*
D02*
G37*
G36*
X61075Y367178D02*
X60787D01*
X59704Y367035D01*
X58695Y366617D01*
X57828Y365952D01*
X57163Y365085D01*
X56799Y364207D01*
X56299Y364307D01*
Y366929D01*
X46850D01*
Y359055D01*
X56299D01*
Y361678D01*
X56799Y361777D01*
X57163Y360899D01*
X57828Y360033D01*
X58695Y359367D01*
X59704Y358949D01*
X60787Y358807D01*
X61075D01*
Y362992D01*
Y367178D01*
D02*
G37*
G36*
X138347D02*
X138059D01*
Y362992D01*
Y358807D01*
X138347D01*
X139430Y358949D01*
X140439Y359367D01*
X141306Y360033D01*
X141971Y360899D01*
X142389Y361909D01*
X142414Y362098D01*
X142918Y362098D01*
X142936Y361964D01*
X143333Y361007D01*
X143964Y360184D01*
X144786Y359553D01*
X145744Y359156D01*
X146772Y359021D01*
X148346D01*
X149374Y359156D01*
X150332Y359553D01*
X151154Y360184D01*
X151785Y361007D01*
X152182Y361964D01*
X152317Y362992D01*
X152182Y364020D01*
X151785Y364978D01*
X151154Y365800D01*
X150332Y366431D01*
X149374Y366828D01*
X148346Y366963D01*
X146772D01*
X145744Y366828D01*
X144786Y366431D01*
X143964Y365800D01*
X143333Y364978D01*
X142936Y364020D01*
X142918Y363887D01*
X142414Y363887D01*
X142389Y364075D01*
X141971Y365085D01*
X141306Y365952D01*
X140439Y366617D01*
X139430Y367035D01*
X138347Y367178D01*
D02*
G37*
G36*
X411969Y374837D02*
X410941Y374702D01*
X409983Y374305D01*
X409161Y373674D01*
X408530Y372852D01*
X408133Y371894D01*
X407998Y370866D01*
Y369291D01*
X408133Y368264D01*
X408530Y367306D01*
X409161Y366483D01*
X409983Y365852D01*
X410941Y365456D01*
X411969Y365320D01*
X412996Y365456D01*
X413954Y365852D01*
X414776Y366483D01*
X415408Y367306D01*
X415804Y368264D01*
X415940Y369291D01*
Y370866D01*
X415804Y371894D01*
X415408Y372852D01*
X414776Y373674D01*
X413954Y374305D01*
X412996Y374702D01*
X411969Y374837D01*
D02*
G37*
G36*
X137059Y367178D02*
X136772D01*
X135688Y367035D01*
X134679Y366617D01*
X133812Y365952D01*
X133147Y365085D01*
X132783Y364207D01*
X132283Y364307D01*
Y366929D01*
X122835D01*
Y359055D01*
X132283D01*
Y361678D01*
X132783Y361777D01*
X133147Y360899D01*
X133812Y360033D01*
X134679Y359367D01*
X135688Y358949D01*
X136772Y358807D01*
X137059D01*
Y362992D01*
Y367178D01*
D02*
G37*
G36*
X233780Y385861D02*
X232752Y385725D01*
X231794Y385329D01*
X230972Y384698D01*
X230341Y383875D01*
X229944Y382917D01*
X229809Y381890D01*
Y380315D01*
X229944Y379287D01*
X230341Y378329D01*
X230972Y377507D01*
X231794Y376876D01*
X232752Y376479D01*
X233780Y376344D01*
X234807Y376479D01*
X235765Y376876D01*
X236587Y377507D01*
X237218Y378329D01*
X237615Y379287D01*
X237751Y380315D01*
Y381890D01*
X237615Y382917D01*
X237218Y383875D01*
X236587Y384698D01*
X235765Y385329D01*
X234807Y385725D01*
X233780Y385861D01*
D02*
G37*
G36*
X367965Y380602D02*
X364280D01*
Y376195D01*
X364863Y376272D01*
X365872Y376690D01*
X366739Y377355D01*
X367404Y378222D01*
X367822Y379232D01*
X367965Y380315D01*
Y380602D01*
D02*
G37*
G36*
X263779Y385861D02*
X262752Y385725D01*
X261794Y385329D01*
X260972Y384698D01*
X260341Y383875D01*
X259944Y382917D01*
X259809Y381890D01*
Y380315D01*
X259944Y379287D01*
X260341Y378329D01*
X260972Y377507D01*
X261794Y376876D01*
X262752Y376479D01*
X263779Y376344D01*
X264807Y376479D01*
X265765Y376876D01*
X266587Y377507D01*
X267218Y378329D01*
X267615Y379287D01*
X267751Y380315D01*
Y381890D01*
X267615Y382917D01*
X267218Y383875D01*
X266587Y384698D01*
X265765Y385329D01*
X264807Y385725D01*
X263779Y385861D01*
D02*
G37*
G36*
X243779D02*
X242752Y385725D01*
X241794Y385329D01*
X240972Y384698D01*
X240341Y383875D01*
X239944Y382917D01*
X239809Y381890D01*
Y380315D01*
X239944Y379287D01*
X240341Y378329D01*
X240972Y377507D01*
X241794Y376876D01*
X242752Y376479D01*
X243779Y376344D01*
X244807Y376479D01*
X245765Y376876D01*
X246587Y377507D01*
X247218Y378329D01*
X247615Y379287D01*
X247750Y380315D01*
Y381890D01*
X247615Y382917D01*
X247218Y383875D01*
X246587Y384698D01*
X245765Y385329D01*
X244807Y385725D01*
X243779Y385861D01*
D02*
G37*
G36*
X257965Y380602D02*
X254279D01*
Y376195D01*
X254863Y376272D01*
X255872Y376690D01*
X256739Y377355D01*
X257404Y378222D01*
X257822Y379232D01*
X257965Y380315D01*
Y380602D01*
D02*
G37*
G36*
X217929D02*
X214280D01*
Y376165D01*
X217929D01*
Y380602D01*
D02*
G37*
G36*
X213280D02*
X209630D01*
Y376165D01*
X213280D01*
Y380602D01*
D02*
G37*
G36*
X363280D02*
X359594D01*
Y380315D01*
X359737Y379232D01*
X360155Y378222D01*
X360820Y377355D01*
X361687Y376690D01*
X362696Y376272D01*
X363280Y376195D01*
Y380602D01*
D02*
G37*
G36*
X253279D02*
X249594D01*
Y380315D01*
X249737Y379232D01*
X250155Y378222D01*
X250820Y377355D01*
X251687Y376690D01*
X252696Y376272D01*
X253279Y376195D01*
Y380602D01*
D02*
G37*
G36*
X76174Y262099D02*
X67823D01*
Y257619D01*
X71260D01*
X72549Y257788D01*
X73750Y258286D01*
X74781Y259077D01*
X75572Y260109D01*
X76070Y261310D01*
X76174Y262099D01*
D02*
G37*
G36*
X260827Y200035D02*
X260136Y199897D01*
X259549Y199506D01*
X259158Y198920D01*
X259020Y198228D01*
X259158Y197537D01*
X259549Y196951D01*
X260136Y196560D01*
X260827Y196422D01*
X261518Y196560D01*
X262104Y196951D01*
X262496Y197537D01*
X262633Y198228D01*
X262496Y198920D01*
X262104Y199506D01*
X261518Y199897D01*
X260827Y200035D01*
D02*
G37*
G36*
X227908Y197531D02*
X226484D01*
Y196108D01*
X226759Y196162D01*
X227415Y196601D01*
X227853Y197257D01*
X227908Y197531D01*
D02*
G37*
G36*
X225484Y199955D02*
X225210Y199901D01*
X224554Y199462D01*
X224115Y198806D01*
X224061Y198531D01*
X225484D01*
Y199955D01*
D02*
G37*
G36*
X512598Y201216D02*
X511907Y201078D01*
X511321Y200687D01*
X510930Y200101D01*
X510792Y199409D01*
X510930Y198718D01*
X511321Y198132D01*
X511907Y197741D01*
X512598Y197603D01*
X513290Y197741D01*
X513876Y198132D01*
X514267Y198718D01*
X514405Y199409D01*
X514267Y200101D01*
X513876Y200687D01*
X513290Y201078D01*
X512598Y201216D01*
D02*
G37*
G36*
X225484Y197531D02*
X224061D01*
X224115Y197257D01*
X224554Y196601D01*
X225210Y196162D01*
X225484Y196108D01*
Y197531D01*
D02*
G37*
G36*
X484055Y194129D02*
X483364Y193992D01*
X482778Y193600D01*
X482386Y193014D01*
X482249Y192323D01*
X482386Y191632D01*
X482778Y191045D01*
X483364Y190654D01*
X484055Y190516D01*
X484746Y190654D01*
X485332Y191045D01*
X485724Y191632D01*
X485861Y192323D01*
X485724Y193014D01*
X485332Y193600D01*
X484746Y193992D01*
X484055Y194129D01*
D02*
G37*
G36*
X253346Y194129D02*
X252655Y193992D01*
X252069Y193600D01*
X251678Y193014D01*
X251540Y192323D01*
X251678Y191631D01*
X252069Y191045D01*
X252655Y190654D01*
X253346Y190516D01*
X254038Y190654D01*
X254624Y191045D01*
X255015Y191631D01*
X255153Y192323D01*
X255015Y193014D01*
X254624Y193600D01*
X254038Y193992D01*
X253346Y194129D01*
D02*
G37*
G36*
X492717Y198460D02*
X492025Y198322D01*
X491439Y197931D01*
X491048Y197345D01*
X490910Y196653D01*
X491048Y195962D01*
X491439Y195376D01*
X492025Y194985D01*
X492717Y194847D01*
X493408Y194985D01*
X493994Y195376D01*
X494385Y195962D01*
X494523Y196653D01*
X494385Y197345D01*
X493994Y197931D01*
X493408Y198322D01*
X492717Y198460D01*
D02*
G37*
G36*
X286811Y197279D02*
X286120Y197141D01*
X285534Y196750D01*
X285142Y196164D01*
X285005Y195472D01*
X285142Y194781D01*
X285534Y194195D01*
X286120Y193804D01*
X286811Y193666D01*
X287502Y193804D01*
X288088Y194195D01*
X288480Y194781D01*
X288617Y195472D01*
X288480Y196164D01*
X288088Y196750D01*
X287502Y197141D01*
X286811Y197279D01*
D02*
G37*
G36*
X344882Y212830D02*
X344191Y212692D01*
X343605Y212301D01*
X343213Y211715D01*
X343075Y211024D01*
X343213Y210332D01*
X343605Y209746D01*
X344191Y209355D01*
X344882Y209217D01*
X345573Y209355D01*
X346159Y209746D01*
X346551Y210332D01*
X346688Y211024D01*
X346551Y211715D01*
X346159Y212301D01*
X345573Y212692D01*
X344882Y212830D01*
D02*
G37*
G36*
X288386Y212239D02*
X287695Y212102D01*
X287108Y211710D01*
X286717Y211124D01*
X286579Y210433D01*
X286717Y209742D01*
X287108Y209156D01*
X287695Y208764D01*
X288386Y208627D01*
X289077Y208764D01*
X289663Y209156D01*
X290055Y209742D01*
X290192Y210433D01*
X290055Y211124D01*
X289663Y211710D01*
X289077Y212102D01*
X288386Y212239D01*
D02*
G37*
G36*
X261417Y215980D02*
X260726Y215842D01*
X260140Y215451D01*
X259749Y214864D01*
X259611Y214173D01*
X259749Y213482D01*
X260140Y212896D01*
X260726Y212504D01*
X261417Y212367D01*
X262109Y212504D01*
X262695Y212896D01*
X263086Y213482D01*
X263224Y214173D01*
X263086Y214864D01*
X262695Y215451D01*
X262109Y215842D01*
X261417Y215980D01*
D02*
G37*
G36*
X350787Y391956D02*
X227559D01*
X227021Y391849D01*
X226566Y391545D01*
X222786Y387765D01*
X222481Y387309D01*
X222375Y386772D01*
Y385569D01*
X221794Y385329D01*
X220972Y384698D01*
X220341Y383875D01*
X219944Y382917D01*
X219809Y381890D01*
Y380315D01*
X219944Y379287D01*
X220341Y378329D01*
X220972Y377507D01*
X221794Y376876D01*
X222375Y376636D01*
Y333417D01*
X208473Y319515D01*
X51874D01*
X51479Y319779D01*
X50787Y319917D01*
X50096Y319779D01*
X49510Y319388D01*
X49119Y318801D01*
X48981Y318110D01*
X49119Y317419D01*
X49510Y316833D01*
X50096Y316441D01*
X50787Y316304D01*
X51479Y316441D01*
X51874Y316705D01*
X209055D01*
X209593Y316812D01*
X210049Y317117D01*
X224773Y331841D01*
X225078Y332297D01*
X225184Y332835D01*
Y376636D01*
X225765Y376876D01*
X226587Y377507D01*
X227219Y378329D01*
X227615Y379287D01*
X227750Y380315D01*
Y381890D01*
X227615Y382917D01*
X227219Y383875D01*
X226587Y384698D01*
X225765Y385329D01*
X225184Y385569D01*
Y386190D01*
X228141Y389146D01*
X350205D01*
X352375Y386977D01*
Y385569D01*
X351794Y385329D01*
X350972Y384698D01*
X350341Y383875D01*
X349944Y382917D01*
X349809Y381890D01*
Y380315D01*
X349944Y379287D01*
X350341Y378329D01*
X350972Y377507D01*
X351794Y376876D01*
X352375Y376636D01*
Y228307D01*
X352482Y227769D01*
X352786Y227314D01*
X368888Y211211D01*
X369344Y210907D01*
X369882Y210800D01*
X473914D01*
X474309Y210536D01*
X475000Y210398D01*
X475691Y210536D01*
X476277Y210927D01*
X476669Y211513D01*
X476806Y212205D01*
X476669Y212896D01*
X476277Y213482D01*
X475691Y213874D01*
X475000Y214011D01*
X474309Y213874D01*
X473914Y213610D01*
X370464D01*
X355185Y228889D01*
Y376636D01*
X355765Y376876D01*
X356587Y377507D01*
X357219Y378329D01*
X357615Y379287D01*
X357751Y380315D01*
Y381890D01*
X357615Y382917D01*
X357219Y383875D01*
X356587Y384698D01*
X355765Y385329D01*
X355185Y385569D01*
Y387559D01*
X355078Y388097D01*
X354773Y388552D01*
X351781Y391545D01*
X351325Y391849D01*
X350787Y391956D01*
D02*
G37*
G36*
X281890Y209484D02*
X281199Y209346D01*
X280612Y208955D01*
X280221Y208368D01*
X280083Y207677D01*
X280221Y206986D01*
X280612Y206400D01*
X281199Y206008D01*
X281890Y205871D01*
X282581Y206008D01*
X283167Y206400D01*
X283559Y206986D01*
X283696Y207677D01*
X283559Y208368D01*
X283167Y208955D01*
X282581Y209346D01*
X281890Y209484D01*
D02*
G37*
G36*
X293701Y204956D02*
X293009Y204819D01*
X292424Y204427D01*
X292032Y203841D01*
X291894Y203150D01*
X292032Y202458D01*
X292424Y201872D01*
X293009Y201481D01*
X293701Y201343D01*
X294392Y201481D01*
X294978Y201872D01*
X295370Y202458D01*
X295507Y203150D01*
X295370Y203841D01*
X294978Y204427D01*
X294392Y204819D01*
X293701Y204956D01*
D02*
G37*
G36*
X226484Y199955D02*
Y198531D01*
X227908D01*
X227853Y198806D01*
X227415Y199462D01*
X226759Y199901D01*
X226484Y199955D01*
D02*
G37*
G36*
X291142Y208499D02*
X290451Y208362D01*
X289864Y207970D01*
X289473Y207384D01*
X289335Y206693D01*
X289473Y206002D01*
X289864Y205416D01*
X290451Y205024D01*
X291142Y204887D01*
X291833Y205024D01*
X292419Y205416D01*
X292811Y206002D01*
X292948Y206693D01*
X292811Y207384D01*
X292419Y207970D01*
X291833Y208362D01*
X291142Y208499D01*
D02*
G37*
G36*
X153543Y208893D02*
X152852Y208755D01*
X152266Y208364D01*
X151874Y207778D01*
X151737Y207087D01*
X151874Y206395D01*
X152266Y205809D01*
X152556Y205616D01*
Y205014D01*
X152266Y204821D01*
X151874Y204235D01*
X151737Y203543D01*
X151874Y202852D01*
X152266Y202266D01*
X152852Y201874D01*
X153543Y201737D01*
X154235Y201874D01*
X154821Y202266D01*
X155212Y202852D01*
X155350Y203543D01*
X155212Y204235D01*
X154821Y204821D01*
X154531Y205014D01*
Y205616D01*
X154821Y205809D01*
X155212Y206395D01*
X155350Y207087D01*
X155212Y207778D01*
X154821Y208364D01*
X154235Y208755D01*
X153543Y208893D01*
D02*
G37*
G36*
X305906Y178578D02*
X305214Y178440D01*
X304628Y178049D01*
X304237Y177463D01*
X304099Y176772D01*
X304237Y176080D01*
X304628Y175494D01*
X305214Y175103D01*
X305906Y174965D01*
X306597Y175103D01*
X307183Y175494D01*
X307574Y176080D01*
X307712Y176772D01*
X307574Y177463D01*
X307183Y178049D01*
X306597Y178440D01*
X305906Y178578D01*
D02*
G37*
G36*
X294094Y178184D02*
X293403Y178047D01*
X292817Y177655D01*
X292426Y177069D01*
X292288Y176378D01*
X292426Y175687D01*
X292817Y175101D01*
X293403Y174709D01*
X294094Y174572D01*
X294786Y174709D01*
X295372Y175101D01*
X295763Y175687D01*
X295901Y176378D01*
X295763Y177069D01*
X295372Y177655D01*
X294786Y178047D01*
X294094Y178184D01*
D02*
G37*
G36*
X436614Y178972D02*
X435923Y178834D01*
X435337Y178443D01*
X434945Y177857D01*
X434808Y177165D01*
X434945Y176474D01*
X435337Y175888D01*
X435923Y175496D01*
X436614Y175359D01*
X437305Y175496D01*
X437891Y175888D01*
X438283Y176474D01*
X438420Y177165D01*
X438283Y177857D01*
X437891Y178443D01*
X437305Y178834D01*
X436614Y178972D01*
D02*
G37*
G36*
X387795Y178578D02*
X387104Y178440D01*
X386518Y178049D01*
X386126Y177463D01*
X385989Y176772D01*
X386126Y176080D01*
X386518Y175494D01*
X387104Y175103D01*
X387795Y174965D01*
X388487Y175103D01*
X389073Y175494D01*
X389464Y176080D01*
X389602Y176772D01*
X389464Y177463D01*
X389073Y178049D01*
X388487Y178440D01*
X387795Y178578D01*
D02*
G37*
G36*
X248031Y178184D02*
X247340Y178047D01*
X246754Y177655D01*
X246363Y177069D01*
X246225Y176378D01*
X246363Y175687D01*
X246754Y175101D01*
X247340Y174709D01*
X248031Y174572D01*
X248723Y174709D01*
X249309Y175101D01*
X249700Y175687D01*
X249838Y176378D01*
X249700Y177069D01*
X249309Y177655D01*
X248723Y178047D01*
X248031Y178184D01*
D02*
G37*
G36*
X308661Y175035D02*
X307970Y174897D01*
X307384Y174506D01*
X306993Y173920D01*
X306855Y173228D01*
X306993Y172537D01*
X307384Y171951D01*
X307970Y171560D01*
X308661Y171422D01*
X309353Y171560D01*
X309939Y171951D01*
X310330Y172537D01*
X310468Y173228D01*
X310330Y173920D01*
X309939Y174506D01*
X309353Y174897D01*
X308661Y175035D01*
D02*
G37*
G36*
X299365Y172728D02*
X297941D01*
Y171305D01*
X298215Y171359D01*
X298871Y171798D01*
X299310Y172454D01*
X299365Y172728D01*
D02*
G37*
G36*
X297941Y175152D02*
Y173728D01*
X299365D01*
X299310Y174003D01*
X298871Y174659D01*
X298215Y175098D01*
X297941Y175152D01*
D02*
G37*
G36*
X296941D02*
X296667Y175098D01*
X296010Y174659D01*
X295572Y174003D01*
X295517Y173728D01*
X296941D01*
Y175152D01*
D02*
G37*
G36*
X301575Y191570D02*
X300884Y191433D01*
X300297Y191041D01*
X299906Y190455D01*
X299768Y189764D01*
X299906Y189073D01*
X300297Y188487D01*
X300884Y188095D01*
X301575Y187957D01*
X302266Y188095D01*
X302852Y188487D01*
X303244Y189073D01*
X303381Y189764D01*
X303244Y190455D01*
X302852Y191041D01*
X302266Y191433D01*
X301575Y191570D01*
D02*
G37*
G36*
X398031Y190389D02*
X397340Y190252D01*
X396754Y189860D01*
X396363Y189274D01*
X396225Y188583D01*
X396363Y187891D01*
X396754Y187305D01*
X397340Y186914D01*
X398031Y186776D01*
X398723Y186914D01*
X399309Y187305D01*
X399700Y187891D01*
X399838Y188583D01*
X399700Y189274D01*
X399309Y189860D01*
X398723Y190252D01*
X398031Y190389D01*
D02*
G37*
G36*
X502756Y193342D02*
X502065Y193204D01*
X501479Y192813D01*
X501087Y192227D01*
X500949Y191535D01*
X501087Y190844D01*
X501479Y190258D01*
X502065Y189867D01*
X502756Y189729D01*
X503447Y189867D01*
X504033Y190258D01*
X504425Y190844D01*
X504562Y191535D01*
X504425Y192227D01*
X504033Y192813D01*
X503447Y193204D01*
X502756Y193342D01*
D02*
G37*
G36*
X359842Y191570D02*
X359151Y191433D01*
X358565Y191041D01*
X358174Y190455D01*
X358036Y189764D01*
X358174Y189073D01*
X358565Y188487D01*
X359151Y188095D01*
X359842Y187957D01*
X360534Y188095D01*
X361120Y188487D01*
X361511Y189073D01*
X361649Y189764D01*
X361511Y190455D01*
X361120Y191041D01*
X360534Y191433D01*
X359842Y191570D01*
D02*
G37*
G36*
X390945Y188420D02*
X390254Y188283D01*
X389668Y187891D01*
X389276Y187305D01*
X389139Y186614D01*
X389276Y185923D01*
X389668Y185337D01*
X390254Y184945D01*
X390945Y184808D01*
X391636Y184945D01*
X392222Y185337D01*
X392614Y185923D01*
X392751Y186614D01*
X392614Y187305D01*
X392222Y187891D01*
X391636Y188283D01*
X390945Y188420D01*
D02*
G37*
G36*
X251378Y183499D02*
X250687Y183362D01*
X250101Y182970D01*
X249709Y182384D01*
X249572Y181693D01*
X249709Y181002D01*
X250101Y180416D01*
X250687Y180024D01*
X251378Y179887D01*
X252069Y180024D01*
X252655Y180416D01*
X253047Y181002D01*
X253184Y181693D01*
X253047Y182384D01*
X252655Y182970D01*
X252069Y183362D01*
X251378Y183499D01*
D02*
G37*
G36*
X283071Y181137D02*
X282380Y181000D01*
X281794Y180608D01*
X281402Y180022D01*
X281264Y179331D01*
X281402Y178639D01*
X281794Y178053D01*
X282380Y177662D01*
X283071Y177524D01*
X283762Y177662D01*
X284348Y178053D01*
X284740Y178639D01*
X284877Y179331D01*
X284740Y180022D01*
X284348Y180608D01*
X283762Y181000D01*
X283071Y181137D01*
D02*
G37*
G36*
X304331Y188420D02*
X303639Y188283D01*
X303053Y187891D01*
X302662Y187305D01*
X302524Y186614D01*
X302662Y185923D01*
X303053Y185337D01*
X303639Y184945D01*
X304331Y184808D01*
X305022Y184945D01*
X305608Y185337D01*
X306000Y185923D01*
X306137Y186614D01*
X306000Y187305D01*
X305608Y187891D01*
X305022Y188283D01*
X304331Y188420D01*
D02*
G37*
G36*
X307874Y186058D02*
X307183Y185921D01*
X306597Y185529D01*
X306205Y184943D01*
X306068Y184252D01*
X306205Y183561D01*
X306597Y182975D01*
X307183Y182583D01*
X307874Y182446D01*
X308565Y182583D01*
X309151Y182975D01*
X309543Y183561D01*
X309680Y184252D01*
X309543Y184943D01*
X309151Y185529D01*
X308565Y185921D01*
X307874Y186058D01*
D02*
G37*
G36*
X284646Y218342D02*
X283954Y218204D01*
X283368Y217813D01*
X282977Y217227D01*
X282839Y216535D01*
X282977Y215844D01*
X283368Y215258D01*
X283954Y214867D01*
X284646Y214729D01*
X285337Y214867D01*
X285923Y215258D01*
X286315Y215844D01*
X286452Y216535D01*
X286315Y217227D01*
X285923Y217813D01*
X285337Y218204D01*
X284646Y218342D01*
D02*
G37*
G36*
X68004Y252768D02*
X67716D01*
X66633Y252625D01*
X65624Y252207D01*
X64757Y251542D01*
X64092Y250675D01*
X63674Y249666D01*
X63597Y249083D01*
X68004D01*
Y252768D01*
D02*
G37*
G36*
X49106D02*
X48819D01*
X47736Y252625D01*
X46726Y252207D01*
X45859Y251542D01*
X45194Y250675D01*
X44776Y249666D01*
X44699Y249083D01*
X49106D01*
Y252768D01*
D02*
G37*
G36*
X50394D02*
X50106D01*
Y249083D01*
X54513D01*
X54436Y249666D01*
X54018Y250675D01*
X53353Y251542D01*
X52486Y252207D01*
X51477Y252625D01*
X50394Y252768D01*
D02*
G37*
G36*
X69291D02*
X69004D01*
Y249083D01*
X73411D01*
X73334Y249666D01*
X72916Y250675D01*
X72251Y251542D01*
X71384Y252207D01*
X70375Y252625D01*
X69291Y252768D01*
D02*
G37*
G36*
X73411Y248083D02*
X69004D01*
Y244397D01*
X69291D01*
X70375Y244540D01*
X71384Y244958D01*
X72251Y245623D01*
X72916Y246490D01*
X73334Y247499D01*
X73411Y248083D01*
D02*
G37*
G36*
X49106D02*
X44699D01*
X44776Y247499D01*
X45194Y246490D01*
X45859Y245623D01*
X46726Y244958D01*
X47736Y244540D01*
X48819Y244397D01*
X49106D01*
Y248083D01*
D02*
G37*
G36*
X73228Y242520D02*
X63779D01*
Y234646D01*
X73228D01*
Y242520D01*
D02*
G37*
G36*
X68004Y248083D02*
X63597D01*
X63674Y247499D01*
X64092Y246490D01*
X64757Y245623D01*
X65624Y244958D01*
X66633Y244540D01*
X67716Y244397D01*
X68004D01*
Y248083D01*
D02*
G37*
G36*
X54513D02*
X50106D01*
Y244397D01*
X50394D01*
X51477Y244540D01*
X52486Y244958D01*
X53353Y245623D01*
X54018Y246490D01*
X54436Y247499D01*
X54513Y248083D01*
D02*
G37*
G36*
X266232Y257632D02*
X265958Y257578D01*
X265302Y257139D01*
X264863Y256483D01*
X264809Y256209D01*
X266232D01*
Y257632D01*
D02*
G37*
G36*
X238689Y257435D02*
Y256012D01*
X240113D01*
X240058Y256286D01*
X239619Y256942D01*
X238963Y257381D01*
X238689Y257435D01*
D02*
G37*
G36*
X66823Y262099D02*
X58472D01*
X58576Y261310D01*
X59073Y260109D01*
X59865Y259077D01*
X60896Y258286D01*
X62097Y257788D01*
X63386Y257619D01*
X66823D01*
Y262099D01*
D02*
G37*
G36*
X267232Y257632D02*
Y256209D01*
X268656D01*
X268601Y256483D01*
X268163Y257139D01*
X267507Y257578D01*
X267232Y257632D01*
D02*
G37*
G36*
X237689Y257435D02*
X237415Y257381D01*
X236758Y256942D01*
X236320Y256286D01*
X236265Y256012D01*
X237689D01*
Y257435D01*
D02*
G37*
G36*
X240113Y255012D02*
X238689D01*
Y253588D01*
X238963Y253643D01*
X239619Y254081D01*
X240058Y254738D01*
X240113Y255012D01*
D02*
G37*
G36*
X237689D02*
X236265D01*
X236320Y254738D01*
X236758Y254081D01*
X237415Y253643D01*
X237689Y253588D01*
Y255012D01*
D02*
G37*
G36*
X268656Y255209D02*
X267232D01*
Y253785D01*
X267507Y253839D01*
X268163Y254278D01*
X268601Y254935D01*
X268656Y255209D01*
D02*
G37*
G36*
X266232D02*
X264809D01*
X264863Y254935D01*
X265302Y254278D01*
X265958Y253839D01*
X266232Y253785D01*
Y255209D01*
D02*
G37*
G36*
X430602Y224146D02*
X426195D01*
X426272Y223562D01*
X426690Y222553D01*
X427355Y221686D01*
X428222Y221021D01*
X429232Y220603D01*
X430315Y220460D01*
X430602D01*
Y224146D01*
D02*
G37*
G36*
X261417Y223066D02*
X260726Y222929D01*
X260140Y222537D01*
X259749Y221951D01*
X259611Y221260D01*
X259749Y220569D01*
X260140Y219983D01*
X260726Y219591D01*
X261417Y219454D01*
X262109Y219591D01*
X262695Y219983D01*
X263086Y220569D01*
X263224Y221260D01*
X263086Y221951D01*
X262695Y222537D01*
X262109Y222929D01*
X261417Y223066D01*
D02*
G37*
G36*
X332177Y222002D02*
X331903Y221948D01*
X331247Y221509D01*
X330808Y220853D01*
X330753Y220579D01*
X332177D01*
Y222002D01*
D02*
G37*
G36*
X436009Y224146D02*
X431602D01*
Y220460D01*
X431890D01*
X432973Y220603D01*
X433983Y221021D01*
X434849Y221686D01*
X435514Y222553D01*
X435933Y223562D01*
X436009Y224146D01*
D02*
G37*
G36*
X334601Y219579D02*
X333177D01*
Y218155D01*
X333451Y218210D01*
X334108Y218648D01*
X334546Y219304D01*
X334601Y219579D01*
D02*
G37*
G36*
X293110Y220704D02*
X292419Y220567D01*
X291833Y220175D01*
X291441Y219589D01*
X291304Y218898D01*
X291441Y218206D01*
X291833Y217620D01*
X292419Y217229D01*
X293110Y217091D01*
X293801Y217229D01*
X294388Y217620D01*
X294779Y218206D01*
X294917Y218898D01*
X294779Y219589D01*
X294388Y220175D01*
X293801Y220567D01*
X293110Y220704D01*
D02*
G37*
G36*
X310039Y218342D02*
X309348Y218204D01*
X308762Y217813D01*
X308370Y217227D01*
X308233Y216535D01*
X308370Y215844D01*
X308762Y215258D01*
X309348Y214867D01*
X310039Y214729D01*
X310731Y214867D01*
X311317Y215258D01*
X311708Y215844D01*
X311846Y216535D01*
X311708Y217227D01*
X311317Y217813D01*
X310731Y218204D01*
X310039Y218342D01*
D02*
G37*
G36*
X332177Y219579D02*
X330753D01*
X330808Y219304D01*
X331247Y218648D01*
X331903Y218210D01*
X332177Y218155D01*
Y219579D01*
D02*
G37*
G36*
X506299Y220901D02*
X505608Y220763D01*
X505022Y220372D01*
X504630Y219786D01*
X504493Y219094D01*
X504630Y218403D01*
X505022Y217817D01*
X505608Y217426D01*
X506299Y217288D01*
X506990Y217426D01*
X507577Y217817D01*
X507968Y218403D01*
X508106Y219094D01*
X507968Y219786D01*
X507577Y220372D01*
X506990Y220763D01*
X506299Y220901D01*
D02*
G37*
G36*
X435827Y238583D02*
X426378D01*
Y230709D01*
X435827D01*
Y238583D01*
D02*
G37*
G36*
X270276Y230153D02*
X269584Y230015D01*
X268998Y229624D01*
X268607Y229038D01*
X268469Y228346D01*
X268607Y227655D01*
X268998Y227069D01*
X269584Y226678D01*
X270276Y226540D01*
X270967Y226678D01*
X271553Y227069D01*
X271944Y227655D01*
X272082Y228346D01*
X271944Y229038D01*
X271553Y229624D01*
X270967Y230015D01*
X270276Y230153D01*
D02*
G37*
G36*
X54331Y242520D02*
X44882D01*
Y234646D01*
X54331D01*
Y242520D01*
D02*
G37*
G36*
X502756Y234877D02*
X502065Y234740D01*
X501479Y234348D01*
X501087Y233762D01*
X500949Y233071D01*
X501087Y232380D01*
X501479Y231794D01*
X502065Y231402D01*
X502756Y231264D01*
X503447Y231402D01*
X504033Y231794D01*
X504425Y232380D01*
X504562Y233071D01*
X504425Y233762D01*
X504033Y234348D01*
X503447Y234740D01*
X502756Y234877D01*
D02*
G37*
G36*
X431890Y228831D02*
X431602D01*
Y225146D01*
X436009D01*
X435933Y225729D01*
X435514Y226738D01*
X434849Y227605D01*
X433983Y228270D01*
X432973Y228689D01*
X431890Y228831D01*
D02*
G37*
G36*
X269882Y226019D02*
X269191Y225882D01*
X268605Y225490D01*
X268213Y224904D01*
X268075Y224213D01*
X268213Y223521D01*
X268217Y223516D01*
X267916Y223066D01*
X267913Y223066D01*
X267222Y222929D01*
X266636Y222537D01*
X266245Y221951D01*
X266107Y221260D01*
X266245Y220569D01*
X266636Y219983D01*
X267222Y219591D01*
X267913Y219454D01*
X268605Y219591D01*
X269191Y219983D01*
X269582Y220569D01*
X269720Y221260D01*
X269582Y221951D01*
X269578Y221957D01*
X269879Y222407D01*
X269882Y222406D01*
X270573Y222544D01*
X271159Y222935D01*
X271551Y223521D01*
X271688Y224213D01*
X271551Y224904D01*
X271159Y225490D01*
X270573Y225882D01*
X269882Y226019D01*
D02*
G37*
G36*
X333177Y222002D02*
Y220579D01*
X334601D01*
X334546Y220853D01*
X334108Y221509D01*
X333451Y221948D01*
X333177Y222002D01*
D02*
G37*
G36*
X430602Y228831D02*
X430315D01*
X429232Y228689D01*
X428222Y228270D01*
X427355Y227605D01*
X426690Y226738D01*
X426272Y225729D01*
X426195Y225146D01*
X430602D01*
Y228831D01*
D02*
G37*
G36*
X111929Y227536D02*
X110901Y227401D01*
X109944Y227004D01*
X109121Y226373D01*
X108490Y225550D01*
X108263Y225001D01*
X107722D01*
X107494Y225550D01*
X106863Y226373D01*
X106041Y227004D01*
X105083Y227401D01*
X104055Y227536D01*
X103027Y227401D01*
X102070Y227004D01*
X101247Y226373D01*
X100616Y225550D01*
X100389Y225001D01*
X99848D01*
X99620Y225550D01*
X98989Y226373D01*
X98167Y227004D01*
X97209Y227401D01*
X96181Y227536D01*
X95153Y227401D01*
X94196Y227004D01*
X93373Y226373D01*
X92742Y225550D01*
X92515Y225001D01*
X91974D01*
X91746Y225550D01*
X91115Y226373D01*
X90293Y227004D01*
X89335Y227401D01*
X88307Y227536D01*
X87279Y227401D01*
X86322Y227004D01*
X85499Y226373D01*
X84868Y225550D01*
X84641Y225001D01*
X84100D01*
X83872Y225550D01*
X83241Y226373D01*
X82419Y227004D01*
X81461Y227401D01*
X80433Y227536D01*
X79405Y227401D01*
X78448Y227004D01*
X77625Y226373D01*
X76994Y225550D01*
X76767Y225001D01*
X76226D01*
X75998Y225550D01*
X75367Y226373D01*
X74545Y227004D01*
X73587Y227401D01*
X72559Y227536D01*
X71531Y227401D01*
X70574Y227004D01*
X69751Y226373D01*
X69120Y225550D01*
X68893Y225001D01*
X68352D01*
X68124Y225550D01*
X67493Y226373D01*
X66671Y227004D01*
X65713Y227401D01*
X64685Y227536D01*
X63657Y227401D01*
X62700Y227004D01*
X61877Y226373D01*
X61246Y225550D01*
X61019Y225001D01*
X60477D01*
X60250Y225550D01*
X59619Y226373D01*
X58797Y227004D01*
X57839Y227401D01*
X56811Y227536D01*
X55783Y227401D01*
X54826Y227004D01*
X54003Y226373D01*
X53372Y225550D01*
X53145Y225001D01*
X52603D01*
X52376Y225550D01*
X51745Y226373D01*
X50923Y227004D01*
X49965Y227401D01*
X48937Y227536D01*
X47909Y227401D01*
X46951Y227004D01*
X46129Y226373D01*
X45498Y225550D01*
X45271Y225001D01*
X44729D01*
X44502Y225550D01*
X43871Y226373D01*
X43049Y227004D01*
X42091Y227401D01*
X41063Y227536D01*
X40035Y227401D01*
X39077Y227004D01*
X38255Y226373D01*
X37624Y225550D01*
X37227Y224593D01*
X37092Y223565D01*
Y221990D01*
X37227Y220962D01*
X37624Y220005D01*
X38255Y219182D01*
X39077Y218551D01*
X40035Y218155D01*
X41063Y218019D01*
X42091Y218155D01*
X43049Y218551D01*
X43871Y219182D01*
X44502Y220005D01*
X44729Y220554D01*
X45271D01*
X45498Y220005D01*
X46129Y219182D01*
X46951Y218551D01*
X47909Y218155D01*
X48937Y218019D01*
X49965Y218155D01*
X50923Y218551D01*
X51745Y219182D01*
X52376Y220005D01*
X52603Y220554D01*
X53145D01*
X53372Y220005D01*
X54003Y219182D01*
X54826Y218551D01*
X55783Y218155D01*
X56811Y218019D01*
X57839Y218155D01*
X58797Y218551D01*
X59619Y219182D01*
X60250Y220005D01*
X60477Y220554D01*
X61019D01*
X61246Y220005D01*
X61877Y219182D01*
X62700Y218551D01*
X63657Y218155D01*
X64685Y218019D01*
X65713Y218155D01*
X66671Y218551D01*
X67493Y219182D01*
X68124Y220005D01*
X68352Y220554D01*
X68893D01*
X69120Y220005D01*
X69751Y219182D01*
X70574Y218551D01*
X71531Y218155D01*
X72559Y218019D01*
X73587Y218155D01*
X74545Y218551D01*
X75367Y219182D01*
X75998Y220005D01*
X76226Y220554D01*
X76767D01*
X76994Y220005D01*
X77625Y219182D01*
X78448Y218551D01*
X79405Y218155D01*
X80433Y218019D01*
X81461Y218155D01*
X82419Y218551D01*
X83241Y219182D01*
X83872Y220005D01*
X84100Y220554D01*
X84641D01*
X84868Y220005D01*
X85499Y219182D01*
X86322Y218551D01*
X87279Y218155D01*
X88307Y218019D01*
X89335Y218155D01*
X90293Y218551D01*
X91115Y219182D01*
X91746Y220005D01*
X91974Y220554D01*
X92515D01*
X92742Y220005D01*
X93373Y219182D01*
X94196Y218551D01*
X95153Y218155D01*
X96181Y218019D01*
X97209Y218155D01*
X98167Y218551D01*
X98989Y219182D01*
X99620Y220005D01*
X99848Y220554D01*
X100389D01*
X100616Y220005D01*
X101247Y219182D01*
X102070Y218551D01*
X103027Y218155D01*
X104055Y218019D01*
X105083Y218155D01*
X106041Y218551D01*
X106863Y219182D01*
X107494Y220005D01*
X107722Y220554D01*
X108263D01*
X108490Y220005D01*
X109121Y219182D01*
X109944Y218551D01*
X110901Y218155D01*
X111929Y218019D01*
X112957Y218155D01*
X113915Y218551D01*
X114737Y219182D01*
X115368Y220005D01*
X115765Y220962D01*
X115900Y221990D01*
Y223565D01*
X115765Y224593D01*
X115368Y225550D01*
X114737Y226373D01*
X113915Y227004D01*
X112957Y227401D01*
X111929Y227536D01*
D02*
G37*
%LPD*%
D38*
X14567Y47638D02*
Y128347D01*
X27953Y141732D01*
Y257087D01*
X43701Y272835D01*
Y330709D01*
X118110Y324016D02*
Y330709D01*
X19016Y43189D02*
X25591D01*
X14567Y47638D02*
X19016Y43189D01*
X43701Y330709D02*
X118110D01*
X353780Y228307D02*
Y381102D01*
Y228307D02*
X369882Y212205D01*
X475000D01*
X523740Y83937D02*
X535039D01*
X521457Y86221D02*
X523740Y83937D01*
X521457Y86221D02*
Y100984D01*
X518504Y103937D02*
X521457Y100984D01*
X507480Y103937D02*
X518504D01*
X25591Y53189D02*
X32441D01*
X33858Y51772D01*
Y13976D02*
Y51772D01*
Y13976D02*
X36220Y11614D01*
X134646D01*
Y22047D01*
X502953Y11614D02*
X506693Y15354D01*
Y22047D01*
X453346Y11811D02*
Y22047D01*
X453150Y11614D02*
X453346Y11811D01*
X453150Y11614D02*
X502953D01*
X400197Y11614D02*
Y22047D01*
Y11614D02*
X400197Y11614D01*
X453150D01*
X347047Y11811D02*
Y22047D01*
X346850Y11614D02*
X347047Y11811D01*
X134646Y11614D02*
X346850D01*
X400197D01*
X293898Y11811D02*
Y22047D01*
X240748Y11614D02*
Y22047D01*
X187598Y11811D02*
Y22047D01*
X223780Y381102D02*
Y386772D01*
X227559Y390551D01*
X350787D01*
X353780Y387559D01*
Y381102D02*
Y387559D01*
X41142Y22047D02*
Y88386D01*
X56693Y103937D01*
X134449D01*
X187402D01*
X240354D01*
X293504D01*
X346850D01*
X399606D01*
X452165D01*
X504528D01*
X240354D02*
Y155905D01*
X235827Y160433D02*
X240354Y155905D01*
X504528Y103937D02*
X507480D01*
X512598Y109055D01*
Y139567D01*
X235827Y160433D02*
Y229528D01*
X50787Y318110D02*
X209055D01*
X223780Y332835D01*
Y381102D01*
X41142Y88386D02*
Y136085D01*
X41063Y136163D02*
X41142Y136085D01*
D39*
X147559Y362992D02*
D03*
X137559D02*
D03*
X61575D02*
D03*
X71575D02*
D03*
X68504Y248583D02*
D03*
X49606D02*
D03*
X535039Y73937D02*
D03*
Y63937D02*
D03*
Y53937D02*
D03*
Y123937D02*
D03*
Y113937D02*
D03*
Y103937D02*
D03*
X25591Y43189D02*
D03*
Y53189D02*
D03*
X431102Y224646D02*
D03*
D40*
X127559Y362992D02*
D03*
X51575D02*
D03*
X68504Y238583D02*
D03*
X49606D02*
D03*
X535039Y83937D02*
D03*
Y133937D02*
D03*
X25591Y63189D02*
D03*
X431102Y234646D02*
D03*
D41*
X111929Y222778D02*
D03*
X104055D02*
D03*
X96181D02*
D03*
X88307D02*
D03*
X80433D02*
D03*
X72559D02*
D03*
X64685D02*
D03*
X56811D02*
D03*
X48937D02*
D03*
X41063D02*
D03*
X111929Y136163D02*
D03*
X104055D02*
D03*
X96181D02*
D03*
X88307D02*
D03*
X80433D02*
D03*
X72559D02*
D03*
X64685D02*
D03*
X56811D02*
D03*
X48937D02*
D03*
X81142Y22047D02*
D03*
X71142D02*
D03*
X61142D02*
D03*
X51142D02*
D03*
X441535Y22047D02*
D03*
X453346D02*
D03*
X494882D02*
D03*
X506693D02*
D03*
X335236D02*
D03*
X347047D02*
D03*
X388386D02*
D03*
X400197D02*
D03*
X228937D02*
D03*
X240748D02*
D03*
X282087D02*
D03*
X293898D02*
D03*
X175787D02*
D03*
X187598D02*
D03*
X122835D02*
D03*
X134646D02*
D03*
X452795Y138779D02*
D03*
X308583Y127559D02*
D03*
X298583D02*
D03*
X396614Y137008D02*
D03*
X406614D02*
D03*
X416614D02*
D03*
X396614Y148819D02*
D03*
X406614D02*
D03*
X416614D02*
D03*
X363779Y381102D02*
D03*
X353780D02*
D03*
X343779D02*
D03*
X333780D02*
D03*
X323780D02*
D03*
X313779D02*
D03*
X303780D02*
D03*
X293779D02*
D03*
X283780D02*
D03*
X273780D02*
D03*
X263779D02*
D03*
X253780D02*
D03*
X243779D02*
D03*
X233780D02*
D03*
X223780D02*
D03*
X411969Y370079D02*
D03*
X421969D02*
D03*
X431968D02*
D03*
X421890Y381890D02*
D03*
X411890D02*
D03*
X401890D02*
D03*
D42*
X41063Y136163D02*
D03*
X41142Y22047D02*
D03*
X429724Y22047D02*
D03*
X483071D02*
D03*
X323425D02*
D03*
X376575D02*
D03*
X217126D02*
D03*
X270276D02*
D03*
X163976D02*
D03*
X111024D02*
D03*
X462795Y138779D02*
D03*
X288583Y127559D02*
D03*
X386614Y137008D02*
D03*
Y148819D02*
D03*
X213779Y381102D02*
D03*
X401968Y370079D02*
D03*
X431890Y381890D02*
D03*
D43*
X79134Y281102D02*
D03*
X55512D02*
D03*
D44*
X67323Y262598D02*
D03*
D45*
X261417Y214173D02*
D03*
X284646Y216535D02*
D03*
X50787Y318110D02*
D03*
X327559Y283465D02*
D03*
X312598Y281102D02*
D03*
X294094Y291732D02*
D03*
X313779Y292913D02*
D03*
X506299Y219094D02*
D03*
X251378Y181693D02*
D03*
X492717Y196653D02*
D03*
X286811Y195472D02*
D03*
X142126Y144095D02*
D03*
X291142Y206693D02*
D03*
X310039Y216535D02*
D03*
X261417Y221260D02*
D03*
X267913D02*
D03*
X293110Y218898D02*
D03*
X153543Y207087D02*
D03*
X288386Y210433D02*
D03*
X281890Y207677D02*
D03*
X475000Y212205D02*
D03*
X229134Y170079D02*
D03*
X502756Y191535D02*
D03*
X261614Y159646D02*
D03*
X264961Y120866D02*
D03*
X223937Y125315D02*
D03*
X252953Y127362D02*
D03*
X330433Y126496D02*
D03*
X489685Y67047D02*
D03*
X436142D02*
D03*
X383189D02*
D03*
X330433D02*
D03*
X277087D02*
D03*
X223937D02*
D03*
X170984D02*
D03*
X118228D02*
D03*
X465551Y126575D02*
D03*
X415059Y125689D02*
D03*
X357283Y126378D02*
D03*
X209055Y131102D02*
D03*
X204921D02*
D03*
X269882Y224213D02*
D03*
X270276Y228346D02*
D03*
X336417Y264370D02*
D03*
X338386Y259449D02*
D03*
X253346Y192323D02*
D03*
X260827Y198228D02*
D03*
X502756Y233071D02*
D03*
X484055Y192323D02*
D03*
X504528Y103937D02*
D03*
X512598Y139567D02*
D03*
X510433Y294291D02*
D03*
X512598Y199409D02*
D03*
X134449Y103937D02*
D03*
X452165D02*
D03*
X399606D02*
D03*
X346850D02*
D03*
X293504D02*
D03*
X240354D02*
D03*
X187402D02*
D03*
X248031Y176378D02*
D03*
X311811Y274606D02*
D03*
X256299D02*
D03*
X71063Y57480D02*
D03*
X53347Y52953D02*
D03*
X153543Y203543D02*
D03*
X60630Y166339D02*
D03*
X235827Y160433D02*
D03*
X197638Y137795D02*
D03*
X86811Y51968D02*
D03*
X294783Y160531D02*
D03*
X286024Y163976D02*
D03*
X235827Y229528D02*
D03*
X266732Y255709D02*
D03*
X225984Y198031D02*
D03*
X315354Y313976D02*
D03*
X314764Y320276D02*
D03*
X358071Y154528D02*
D03*
X51575Y87992D02*
D03*
X265551Y164764D02*
D03*
X280118Y163386D02*
D03*
X294094Y176378D02*
D03*
X297441Y173228D02*
D03*
X301575Y189764D02*
D03*
X283071Y179331D02*
D03*
X332677Y220079D02*
D03*
X304331Y186614D02*
D03*
X307874Y184252D02*
D03*
X305906Y176772D02*
D03*
X308661Y173228D02*
D03*
X359842Y189764D02*
D03*
X398031Y188583D02*
D03*
X390945Y186614D02*
D03*
X387795Y176772D02*
D03*
X377953Y172835D02*
D03*
X436614Y177165D02*
D03*
Y137008D02*
D03*
X425984Y154331D02*
D03*
X340158Y138189D02*
D03*
X373228D02*
D03*
X271260Y135039D02*
D03*
X306693Y103937D02*
D03*
X288583Y114567D02*
D03*
X223622Y287008D02*
D03*
X277165Y165354D02*
D03*
X291732Y308661D02*
D03*
X343701Y322835D02*
D03*
X293701Y203150D02*
D03*
X344882Y211024D02*
D03*
X502756Y263386D02*
D03*
X497756D02*
D03*
X492756D02*
D03*
X487756Y263386D02*
D03*
X422047Y299213D02*
D03*
X431890Y301575D02*
D03*
X412205Y299213D02*
D03*
X401968Y299606D02*
D03*
Y322835D02*
D03*
X412205D02*
D03*
X422047D02*
D03*
X431890D02*
D03*
D46*
X118110Y324016D02*
D03*
X43701Y330709D02*
D03*
X118110D02*
D03*
X114961Y297224D02*
D03*
X93307Y299213D02*
D03*
D47*
X17717Y375984D02*
D03*
Y17717D02*
D03*
X536614D02*
D03*
Y375984D02*
D03*
X550394Y164567D02*
D03*
X184252D02*
D03*
M02*
