G04*
G04 #@! TF.GenerationSoftware,Altium Limited,CircuitStudio,1.5.2 (30)*
G04*
G04 Layer_Color=16711935*
%FSLAX25Y25*%
%MOIN*%
G70*
G01*
G75*
%ADD37C,0.01000*%
%ADD38C,0.01181*%
%ADD48C,0.00787*%
D37*
X2270Y153015D02*
Y149016D01*
X8268D01*
Y153015D01*
X5269Y149016D02*
Y151015D01*
X2270Y155014D02*
X8268D01*
Y158013D01*
X7268Y159012D01*
X3269D01*
X2270Y158013D01*
Y155014D01*
X3269Y165011D02*
X2270Y164011D01*
Y162012D01*
X3269Y161012D01*
X7268D01*
X8268Y162012D01*
Y164011D01*
X7268Y165011D01*
X5269D01*
Y163011D01*
X2270Y171009D02*
Y167010D01*
X8268D01*
Y171009D01*
X5269Y167010D02*
Y169009D01*
X2270Y182005D02*
Y180006D01*
X3269Y179006D01*
X7268D01*
X8268Y180006D01*
Y182005D01*
X7268Y183005D01*
X3269D01*
X2270Y182005D01*
Y189003D02*
Y185004D01*
X5269D01*
Y187004D01*
Y185004D01*
X8268D01*
Y197000D02*
X2270D01*
Y199999D01*
X3269Y200999D01*
X5269D01*
X6268Y199999D01*
Y197000D01*
X3269Y206997D02*
X2270Y205997D01*
Y203998D01*
X3269Y202998D01*
X7268D01*
X8268Y203998D01*
Y205997D01*
X7268Y206997D01*
X2270Y208996D02*
X8268D01*
Y211995D01*
X7268Y212995D01*
X6268D01*
X5269Y211995D01*
Y208996D01*
Y211995D01*
X4269Y212995D01*
X3269D01*
X2270Y211995D01*
Y208996D01*
X-9884Y83268D02*
X-15882D01*
X-9884Y87266D01*
X-15882D01*
Y92265D02*
Y90266D01*
X-14882Y89266D01*
X-10884D01*
X-9884Y90266D01*
Y92265D01*
X-10884Y93265D01*
X-14882D01*
X-15882Y92265D01*
X-9884Y101262D02*
X-15882D01*
X-13883Y103261D01*
X-15882Y105261D01*
X-9884D01*
X-15882Y111259D02*
Y107260D01*
X-9884D01*
Y111259D01*
X-12883Y107260D02*
Y109259D01*
X-15882Y113258D02*
Y117257D01*
Y115257D01*
X-9884D01*
Y119256D02*
X-13883D01*
X-15882Y121255D01*
X-13883Y123255D01*
X-9884D01*
X-12883D01*
Y119256D01*
X-15882Y125254D02*
X-9884D01*
Y129253D01*
X-15882Y137250D02*
Y139250D01*
Y138250D01*
X-9884D01*
Y137250D01*
Y139250D01*
Y142249D02*
X-15882D01*
X-9884Y146247D01*
X-15882D01*
Y154245D02*
X-9884D01*
X-11883D01*
X-15882Y158244D01*
X-12883Y155244D01*
X-9884Y158244D01*
X-15882Y164242D02*
Y160243D01*
X-9884D01*
Y164242D01*
X-12883Y160243D02*
Y162242D01*
X-15882Y170240D02*
Y166241D01*
X-9884D01*
Y170240D01*
X-12883Y166241D02*
Y168240D01*
X-9884Y172239D02*
X-15882D01*
Y175238D01*
X-14882Y176238D01*
X-12883D01*
X-11883Y175238D01*
Y172239D01*
X-15882Y187234D02*
Y185235D01*
X-14882Y184235D01*
X-10884D01*
X-9884Y185235D01*
Y187234D01*
X-10884Y188234D01*
X-14882D01*
X-15882Y187234D01*
Y190233D02*
X-10884D01*
X-9884Y191233D01*
Y193232D01*
X-10884Y194232D01*
X-15882D01*
Y196231D02*
Y200230D01*
Y198231D01*
X-9884D01*
X-15882Y211226D02*
Y209227D01*
X-14882Y208227D01*
X-10884D01*
X-9884Y209227D01*
Y211226D01*
X-10884Y212226D01*
X-14882D01*
X-15882Y211226D01*
X-9884Y214225D02*
X-15882D01*
X-9884Y218224D01*
X-15882D01*
X-9884Y226221D02*
X-13883D01*
X-15882Y228221D01*
X-13883Y230220D01*
X-9884D01*
X-12883D01*
Y226221D01*
X-15882Y232220D02*
X-9884D01*
Y236218D01*
X-15882Y238218D02*
X-9884D01*
Y242216D01*
X-15882Y250214D02*
X-9884D01*
Y254212D01*
Y256212D02*
X-13883D01*
X-15882Y258211D01*
X-13883Y260210D01*
X-9884D01*
X-12883D01*
Y256212D01*
X-15882Y262210D02*
X-14882D01*
X-12883Y264209D01*
X-14882Y266209D01*
X-15882D01*
X-12883Y264209D02*
X-9884D01*
X-15882Y272207D02*
Y268208D01*
X-9884D01*
Y272207D01*
X-12883Y268208D02*
Y270207D01*
X-9884Y274206D02*
X-15882D01*
Y277205D01*
X-14882Y278205D01*
X-12883D01*
X-11883Y277205D01*
Y274206D01*
Y276205D02*
X-9884Y278205D01*
X-14882Y284203D02*
X-15882Y283203D01*
Y281204D01*
X-14882Y280204D01*
X-13883D01*
X-12883Y281204D01*
Y283203D01*
X-11883Y284203D01*
X-10884D01*
X-9884Y283203D01*
Y281204D01*
X-10884Y280204D01*
D38*
X23622Y17717D02*
G03*
X23622Y17717I-5906J0D01*
G01*
X542520Y375984D02*
G03*
X542520Y375984I-5906J0D01*
G01*
Y17717D02*
G03*
X542520Y17717I-5906J0D01*
G01*
D48*
X11417Y194685D02*
X11417Y194685D01*
Y194685D02*
Y194685D01*
X-394Y194685D02*
Y194685D01*
X-394Y178937D02*
Y300590D01*
X-394Y71063D02*
Y178937D01*
X-22047Y71063D02*
Y300590D01*
X-394D01*
X-22047Y71063D02*
X-394D01*
M02*
