M48
;Layer_Color=9474304
;FILE_FORMAT=2:5
INCH,TZ
;TYPE=PLATED
T1F00S00C0.01181
T2F00S00C0.04331
T4F00S00C0.11811
%
T01
X64173Y3150
X83465
Y42520
X80709Y46457
X98032Y36614
X104724Y51181
X125591Y43701
X134646Y36614
X144095Y51181
X161417Y31496
X194882Y17913
X207480Y3150
X57677Y24803
X217323Y37008
X255374Y37146
X251181Y32283
X254232Y7185
X265748Y3150
X270472Y7185
X233465Y3150
X287795Y36909
X283858Y42520
X325098Y50000
X342520Y55315
X373228Y79134
Y135728
X369685Y137795
X387992Y131102
X379331Y191732
X362205Y157874
X358661Y141043
X355413Y143799
X351673Y142520
X348524Y145177
X331693Y143701
X327756
X321358Y150984
X319291Y153740
X315354Y155020
X305807Y154921
X304921Y165256
X305906Y168898
X292913Y161417
X289173Y164665
X285039Y151378
X279724Y156004
X275098Y158169
X269094Y161024
X266142Y151575
X262106Y147539
X267520Y144488
X272441Y138189
X275590Y130118
X279724Y128740
X283858Y127756
X296457Y129232
X300197Y125787
X296358Y121653
X305807Y121850
X306201Y118209
X310531Y118602
X316240Y122736
X320866Y122835
X329429Y122638
X328445Y117717
X331890Y112795
X333957Y103150
X337894Y99410
X338583Y118602
X354331Y117323
X362303Y123130
X365650Y139370
X368110Y96161
X333465Y79134
X320866Y105905
X303445Y105118
X301476Y107874
X294685Y105217
X293996Y99606
X290158Y117717
X272441Y110630
X258169Y117028
X254724Y123130
X245965Y141831
X233858Y141732
X233858Y147244
X237598Y150886
X226772Y154626
X227264Y163583
X232776Y163386
X233858Y169685
X241732Y170079
X223228Y169291
X213189Y169488
X212894Y147244
X222835
X227165Y129921
X215650Y125787
X220079Y77165
X261122Y70571
X305512Y66142
X306201Y129823
X302756Y146653
X299114Y145472
X298031Y149606
X296161Y152264
X294882Y184646
X295669Y195669
X292520Y198130
X298917Y198031
X302362Y198425
X311417Y198622
X311122Y193996
X314173Y189173
X320571Y188287
X328346Y184646
X330413Y176575
X324606Y175098
X333268Y199902
X289764Y207972
X284941Y209350
X281496Y193307
X265945Y186713
X263189Y201575
X260236Y204429
X259842Y210236
X263090Y208563
X227953Y208760
X225492Y190748
X232579Y190650
X238976Y190157
X261417Y168898
X193405Y170472
X188583Y177165
X194587Y183071
X204724Y189370
X170079Y191339
X164567Y174409
X170177Y167028
X170472Y157480
X171850Y146653
X167913Y145079
X164567Y138976
X152657Y143602
X156791Y153445
X151476Y171653
X153347Y178347
X150984Y182874
X145374Y177657
X125984Y174409
X131201Y166831
X135433Y157480
X130413Y153642
X122835Y151870
X112992Y157480
X97244
X92913Y174409
X84646
X76083Y183071
X83465Y196063
X93307Y198031
X92913Y191339
X88189Y209055
X111909Y181693
X131102Y191339
X141339Y203839
X174803Y209842
X188583Y157480
Y134252
X183071Y126575
X170276
X196161Y119488
X201575Y116535
X139272Y117323
X146358Y104921
X129626Y94488
X134252Y77953
X132283Y62992
X149606Y62598
X110236Y64173
X109547Y75689
X107087Y101969
X91339
X98327Y126476
X92913Y138976
X80118Y141535
X72244Y136614
X75984Y157480
X126378Y138976
X78150Y74213
X61024Y79134
X45866Y75984
X53150Y61417
X50787Y94882
X50000Y104331
X13780Y73622
X48130Y183169
X44980Y222441
Y233071
X34252Y225787
X61122Y224114
X81890Y223819
X78543Y216043
X88189Y240945
X108957Y232972
X135138Y223819
X142815Y248819
X142913Y279232
X174803Y272835
X181496Y286910
X177854Y297539
X181496Y304035
X174803Y304724
X162992Y310335
X171752Y324016
X180315Y324410
X174803Y336614
X163976Y344094
X160531Y355413
X180315Y349606
X188189Y346555
X207874Y346457
X207087Y340650
X207874Y322835
X209547Y312598
X197835Y326181
X207579Y279331
X174803Y242126
X96161Y263779
X88189Y272835
X84153Y292913
X88189Y304724
X81398Y312008
X78642Y320965
X98524Y318701
X88189Y336614
X81299Y345965
X65453Y289961
X66240Y257480
X109350Y295177
X137992Y313090
X220177Y309941
X221063Y304528
X230020Y309941
X231004Y332874
X217913Y337500
X218504Y327559
Y349213
X230709Y354528
X235728Y345866
X246063Y346457
Y340158
X256693Y338583
Y348819
X269094Y354232
X284252Y346063
Y340158
X294882Y337795
X298622Y329921
X307283Y332677
X304429Y346752
X312500Y346949
X322441Y345669
Y340945
X323622Y325492
X332283Y324016
X333268Y316043
X333465Y307480
X337402Y288583
X341929Y292913
X333465Y275590
X320669Y282382
X312697Y279724
X310925Y285433
X308760Y290453
X296850Y290551
X295079Y287008
X292126Y291339
X287894Y289272
X285433Y281594
X280709Y285236
X271654Y282480
X265945Y281299
X257283Y279626
X259842Y272835
X262894Y261122
X271752Y248622
X277559Y244488
X274803Y234252
X262992Y234646
X264075Y239173
X259842Y242126
X265945Y220571
X274508Y219685
X274606Y216043
X277559Y212598
X284596Y215551
X288386Y220177
X292028Y220374
X295276Y220079
X289862Y226181
X281496Y225197
X303740Y226969
X316732Y225098
X316535Y235925
X320669Y251279
X333465Y244488
X337402Y256299
Y225197
X333465Y212598
X302067Y246654
X281496Y256299
X277559Y275590
X298425Y281890
X305413Y277953
X317913Y271161
X318110Y316043
X317717Y319390
X304626Y313090
X289862Y318898
X280906Y325984
X264469Y324902
X259842Y304724
X277559Y307480
X287598Y301673
X294882Y349606
X294980Y367028
X218406Y279331
X227559Y230807
X252362Y218799
X250590Y376575
X278543Y373130
X296260Y382185
T02
X175984Y12992
X185984
X302756Y13386
X312756
X322756
X332756
X342756
X352756
X379528Y202756
X285728Y185138
X213386Y209449
X230709Y102362
Y92362
Y82362
X199606Y82362
Y92362
Y102362
X168504
Y92362
Y82362
X189764Y209449
X201575
X127165
X115354
X103543
X62992Y176772
Y125591
X52992
X42992
X32992
X22992
X12992
X12992Y151575
X22992
X32992
X42992
X42992Y176772
X32992
X22992
X12992
X17323Y208661
X29134
X40945
X52992Y176772
X40945Y240551
X29134
X17323
Y272441
X29134
X40945
Y304331
X29134
X17323
Y336221
X29134
X40945
X103543
X115354
X127165
Y304331
X115354
X103543
Y272441
X115354
X127165
Y241339
X115354
X103543
X189764
X201575
Y272441
X189764
Y304331
X201575
X213386
Y272441
Y241339
X301969Y254528
X379528Y252756
Y242756
Y232756
Y222756
Y212756
Y262756
Y272756
Y282756
Y292756
Y302756
Y312756
Y322756
Y332756
Y342756
Y352756
X240236Y380709
X230236
X220236
X210236
X145591
X135591
X125591
X108189Y380709
X98189
X88189
X70945
X60945
X50945
X40945
T04
X20866Y17717
X375984
Y375984
X17717
M30
