G04*
G04 #@! TF.GenerationSoftware,Altium Limited,CircuitStudio,1.5.2 (30)*
G04*
G04 Layer_Color=7318015*
%FSLAX25Y25*%
%MOIN*%
G70*
G01*
G75*
%ADD10R,0.05512X0.07874*%
%ADD11R,0.04331X0.07480*%
%ADD12R,0.08622X0.06299*%
%ADD13R,0.03740X0.01890*%
%ADD14R,0.03543X0.03150*%
%ADD15R,0.04331X0.01575*%
%ADD16R,0.06102X0.02362*%
%ADD17R,0.02756X0.05118*%
%ADD18R,0.03543X0.02362*%
%ADD19R,0.16811X0.19291*%
%ADD20R,0.02402X0.01614*%
%ADD21R,0.11811X0.07874*%
%ADD22R,0.04724X0.08661*%
%ADD23R,0.22835X0.25197*%
%ADD24R,0.01181X0.04724*%
%ADD25R,0.04724X0.01181*%
%ADD27R,0.03150X0.01969*%
%ADD28R,0.12992X0.09449*%
%ADD29R,0.03543X0.05118*%
%ADD30R,0.03543X0.01575*%
%ADD31R,0.03937X0.02362*%
%ADD32R,0.01575X0.03543*%
%ADD33R,0.05118X0.03543*%
%ADD34R,0.07874X0.11811*%
%ADD35R,0.05118X0.02756*%
D10*
X318110Y82677D02*
D03*
Y92677D02*
D03*
X294488Y82677D02*
D03*
Y92677D02*
D03*
D11*
X358661Y83858D02*
D03*
X348819D02*
D03*
D12*
X97224Y86614D02*
D03*
X61043D02*
D03*
D13*
X181299Y39882D02*
D03*
Y47520D02*
D03*
X171457Y43701D02*
D03*
D14*
X241732Y130315D02*
D03*
Y137795D02*
D03*
X233858Y134055D02*
D03*
X93307Y72047D02*
D03*
Y64567D02*
D03*
X101181Y68307D02*
D03*
X188189Y351528D02*
D03*
Y359008D02*
D03*
X180315Y355268D02*
D03*
X226378Y351528D02*
D03*
Y359008D02*
D03*
X218504Y355268D02*
D03*
X264567Y351134D02*
D03*
Y358614D02*
D03*
X256693Y354874D02*
D03*
X302756Y351134D02*
D03*
Y358614D02*
D03*
X294882Y354874D02*
D03*
X188189Y329921D02*
D03*
Y337402D02*
D03*
X180315Y333661D02*
D03*
X226378Y329921D02*
D03*
Y337402D02*
D03*
X218504Y333661D02*
D03*
X264567Y329921D02*
D03*
Y337402D02*
D03*
X256693Y333661D02*
D03*
X302756Y329921D02*
D03*
Y337402D02*
D03*
X294882Y333661D02*
D03*
X203150Y173622D02*
D03*
Y181102D02*
D03*
X195276Y177362D02*
D03*
X241732Y173622D02*
D03*
Y181102D02*
D03*
X233858Y177362D02*
D03*
X203150Y151969D02*
D03*
Y159449D02*
D03*
X195276Y155709D02*
D03*
X203150Y130315D02*
D03*
Y137795D02*
D03*
X195276Y134055D02*
D03*
X241732Y151969D02*
D03*
Y159449D02*
D03*
X233858Y155709D02*
D03*
D15*
X116142Y109468D02*
D03*
Y104469D02*
D03*
Y99468D02*
D03*
Y94468D02*
D03*
X135827Y109468D02*
D03*
Y104469D02*
D03*
Y99468D02*
D03*
Y94468D02*
D03*
D16*
X224410Y42146D02*
D03*
Y37146D02*
D03*
Y32146D02*
D03*
Y27146D02*
D03*
X245669Y42146D02*
D03*
Y37146D02*
D03*
Y32146D02*
D03*
Y27146D02*
D03*
D17*
X57677Y102362D02*
D03*
X65158D02*
D03*
X36417Y85433D02*
D03*
X43898D02*
D03*
X36417Y104331D02*
D03*
X43898D02*
D03*
X214370Y27559D02*
D03*
X206890D02*
D03*
X206890Y41732D02*
D03*
X214370D02*
D03*
X271063Y382283D02*
D03*
X278543D02*
D03*
X258071D02*
D03*
X250591D02*
D03*
X136811Y85433D02*
D03*
X129331D02*
D03*
X273425Y193307D02*
D03*
X265945D02*
D03*
X273425Y225197D02*
D03*
X265945D02*
D03*
X273425Y256299D02*
D03*
X265945D02*
D03*
X273425Y288189D02*
D03*
X265945D02*
D03*
X328150Y193307D02*
D03*
X320669D02*
D03*
X328150Y225197D02*
D03*
X320669D02*
D03*
X328150Y256299D02*
D03*
X320669D02*
D03*
X328150Y288189D02*
D03*
X320669D02*
D03*
X98228Y166929D02*
D03*
X105709D02*
D03*
X98228Y133071D02*
D03*
X105709D02*
D03*
X80118Y166929D02*
D03*
X87598D02*
D03*
X80118Y133071D02*
D03*
X87598D02*
D03*
X136811Y166929D02*
D03*
X144291D02*
D03*
X136811Y133071D02*
D03*
X144291D02*
D03*
X118701Y166929D02*
D03*
X126181D02*
D03*
X118701Y133071D02*
D03*
X126181D02*
D03*
X175394Y166929D02*
D03*
X182874D02*
D03*
X175394Y133071D02*
D03*
X182874D02*
D03*
X157283Y166929D02*
D03*
X164764D02*
D03*
X157283Y133071D02*
D03*
X164764D02*
D03*
X272244Y102756D02*
D03*
X279724D02*
D03*
D18*
X261417Y129724D02*
D03*
Y135630D02*
D03*
X83464Y29724D02*
D03*
Y35630D02*
D03*
X207874Y350984D02*
D03*
Y356890D02*
D03*
X246063Y350984D02*
D03*
Y356890D02*
D03*
X284252Y350984D02*
D03*
Y356890D02*
D03*
X322441Y350984D02*
D03*
Y356890D02*
D03*
X207874Y329331D02*
D03*
Y335236D02*
D03*
X246063Y335236D02*
D03*
Y329331D02*
D03*
X284252Y335236D02*
D03*
Y329331D02*
D03*
X322441Y335236D02*
D03*
Y329331D02*
D03*
X223228Y173031D02*
D03*
Y178937D02*
D03*
X261417Y173031D02*
D03*
Y178937D02*
D03*
X222835Y151378D02*
D03*
Y157283D02*
D03*
Y129724D02*
D03*
Y135630D02*
D03*
X261417Y151378D02*
D03*
Y157283D02*
D03*
D19*
X69075Y58248D02*
D03*
D20*
X83681Y65768D02*
D03*
Y50768D02*
D03*
Y55768D02*
D03*
Y60768D02*
D03*
D21*
X238976Y217323D02*
D03*
Y205512D02*
D03*
X66535Y280315D02*
D03*
Y268504D02*
D03*
Y312205D02*
D03*
Y300394D02*
D03*
Y344094D02*
D03*
Y332283D02*
D03*
X152756Y280315D02*
D03*
Y268504D02*
D03*
Y312205D02*
D03*
Y300394D02*
D03*
Y344094D02*
D03*
Y332283D02*
D03*
X238583Y280315D02*
D03*
Y268504D02*
D03*
X238583Y312205D02*
D03*
Y300394D02*
D03*
X66535Y248425D02*
D03*
Y236614D02*
D03*
X66535Y216535D02*
D03*
Y204724D02*
D03*
X152756Y249213D02*
D03*
Y237402D02*
D03*
Y217323D02*
D03*
Y205512D02*
D03*
X238976Y249213D02*
D03*
Y237402D02*
D03*
D22*
X154331Y43701D02*
D03*
X136378D02*
D03*
X114173D02*
D03*
X96220D02*
D03*
D23*
X145354Y18898D02*
D03*
X105197D02*
D03*
D24*
X299016Y112795D02*
D03*
X300984D02*
D03*
X302953D02*
D03*
X304921D02*
D03*
X306890D02*
D03*
X308858D02*
D03*
X310827D02*
D03*
X312795D02*
D03*
X314764D02*
D03*
X316732D02*
D03*
X318701D02*
D03*
X320669D02*
D03*
X322638D02*
D03*
X324606D02*
D03*
X326575D02*
D03*
X328543D02*
D03*
Y160433D02*
D03*
X326575D02*
D03*
X324606D02*
D03*
X322638D02*
D03*
X320669D02*
D03*
X318701D02*
D03*
X316732D02*
D03*
X314764D02*
D03*
X312795D02*
D03*
X310827D02*
D03*
X308858D02*
D03*
X306890D02*
D03*
X304921D02*
D03*
X302953D02*
D03*
X300984D02*
D03*
X299016D02*
D03*
D25*
X337598Y121850D02*
D03*
Y123819D02*
D03*
Y125787D02*
D03*
Y127756D02*
D03*
Y129724D02*
D03*
Y131693D02*
D03*
Y133661D02*
D03*
Y135630D02*
D03*
Y137598D02*
D03*
Y139567D02*
D03*
Y141535D02*
D03*
Y143504D02*
D03*
Y145472D02*
D03*
Y147441D02*
D03*
Y149409D02*
D03*
Y151378D02*
D03*
X289961D02*
D03*
Y149409D02*
D03*
Y147441D02*
D03*
Y145472D02*
D03*
Y143504D02*
D03*
Y141535D02*
D03*
Y139567D02*
D03*
Y137598D02*
D03*
Y135630D02*
D03*
Y133661D02*
D03*
Y131693D02*
D03*
Y129724D02*
D03*
Y127756D02*
D03*
Y125787D02*
D03*
Y123819D02*
D03*
Y121850D02*
D03*
D27*
X53150Y49508D02*
D03*
Y54429D02*
D03*
D28*
X64173Y37008D02*
D03*
Y11024D02*
D03*
D29*
X294685Y177461D02*
D03*
X302165D02*
D03*
X110039Y56299D02*
D03*
X117520D02*
D03*
X149803D02*
D03*
X157283D02*
D03*
D30*
X354331Y120866D02*
D03*
Y125591D02*
D03*
X83464Y11811D02*
D03*
Y16535D02*
D03*
X233465Y14961D02*
D03*
Y10236D02*
D03*
X242520Y14961D02*
D03*
Y10236D02*
D03*
X368110Y79134D02*
D03*
Y83858D02*
D03*
X339370Y79134D02*
D03*
Y83858D02*
D03*
X282579Y123622D02*
D03*
Y118898D02*
D03*
X345079Y149606D02*
D03*
Y154331D02*
D03*
X344980Y120866D02*
D03*
Y125591D02*
D03*
D31*
X158268Y157638D02*
D03*
Y147638D02*
D03*
X181890Y157638D02*
D03*
Y147638D02*
D03*
X266929Y212756D02*
D03*
Y202756D02*
D03*
X290551Y212756D02*
D03*
Y202756D02*
D03*
X266929Y244646D02*
D03*
Y234646D02*
D03*
X290551Y244646D02*
D03*
Y234646D02*
D03*
X266929Y275748D02*
D03*
Y265748D02*
D03*
X290551Y275748D02*
D03*
Y265748D02*
D03*
X266929Y307638D02*
D03*
Y297638D02*
D03*
X290551Y307638D02*
D03*
Y297638D02*
D03*
X321654Y212756D02*
D03*
Y202756D02*
D03*
X345276Y212756D02*
D03*
Y202756D02*
D03*
X321654Y244646D02*
D03*
Y234646D02*
D03*
X345276Y244646D02*
D03*
Y234646D02*
D03*
X321654Y275748D02*
D03*
Y265748D02*
D03*
X345276Y275748D02*
D03*
Y265748D02*
D03*
X321654Y307638D02*
D03*
Y297638D02*
D03*
X345276Y307638D02*
D03*
Y297638D02*
D03*
X81102Y191496D02*
D03*
Y181496D02*
D03*
X104725Y191496D02*
D03*
Y181496D02*
D03*
X81102Y157638D02*
D03*
Y147638D02*
D03*
X104725Y157638D02*
D03*
Y147638D02*
D03*
X119685Y191496D02*
D03*
Y181496D02*
D03*
X143307Y191496D02*
D03*
Y181496D02*
D03*
X119685Y157638D02*
D03*
Y147638D02*
D03*
X143307Y157638D02*
D03*
Y147638D02*
D03*
X158268Y191496D02*
D03*
Y181496D02*
D03*
X181890Y191496D02*
D03*
Y181496D02*
D03*
D32*
X96850Y55512D02*
D03*
X92126D02*
D03*
X137008D02*
D03*
X132283D02*
D03*
X265748Y11417D02*
D03*
X270473D02*
D03*
X111024Y369291D02*
D03*
X106299D02*
D03*
X148425Y368898D02*
D03*
X143701D02*
D03*
X296850Y66142D02*
D03*
X292126D02*
D03*
X315748D02*
D03*
X320472D02*
D03*
X101181Y101969D02*
D03*
X96457D02*
D03*
X300787Y167815D02*
D03*
X296063D02*
D03*
D33*
X212992Y10433D02*
D03*
Y17913D02*
D03*
X267717Y20276D02*
D03*
Y27756D02*
D03*
X257087Y20276D02*
D03*
Y27756D02*
D03*
X202362Y17913D02*
D03*
Y10433D02*
D03*
X273228Y117520D02*
D03*
Y125000D02*
D03*
X355020Y158071D02*
D03*
Y150591D02*
D03*
D34*
X13780Y88976D02*
D03*
X25591D02*
D03*
X13780Y107874D02*
D03*
X25591D02*
D03*
D35*
X223622Y10827D02*
D03*
Y18307D02*
D03*
X279921Y10827D02*
D03*
Y18307D02*
D03*
Y27756D02*
D03*
Y35236D02*
D03*
X212205Y97047D02*
D03*
Y104528D02*
D03*
Y87598D02*
D03*
Y80118D02*
D03*
X312598Y42717D02*
D03*
Y50197D02*
D03*
X331890Y42717D02*
D03*
Y50197D02*
D03*
X342520Y42717D02*
D03*
Y50197D02*
D03*
X353150Y42717D02*
D03*
Y50197D02*
D03*
X146063Y99409D02*
D03*
Y91929D02*
D03*
X364961Y334449D02*
D03*
Y341929D02*
D03*
X361811Y101772D02*
D03*
Y94291D02*
D03*
X345669Y101772D02*
D03*
Y94291D02*
D03*
X81496Y273031D02*
D03*
Y265551D02*
D03*
Y304921D02*
D03*
Y297441D02*
D03*
X300787Y202559D02*
D03*
Y210039D02*
D03*
X300787Y241929D02*
D03*
Y234449D02*
D03*
X198031Y358465D02*
D03*
Y350984D02*
D03*
X236221Y358465D02*
D03*
Y350984D02*
D03*
X311417Y202559D02*
D03*
Y210039D02*
D03*
Y234449D02*
D03*
Y241929D02*
D03*
X81496Y336811D02*
D03*
Y329331D02*
D03*
X167717Y273031D02*
D03*
Y265551D02*
D03*
X300787D02*
D03*
Y273031D02*
D03*
Y297441D02*
D03*
Y304921D02*
D03*
X274410Y358465D02*
D03*
Y350984D02*
D03*
X312598Y358465D02*
D03*
Y350984D02*
D03*
X311417Y265551D02*
D03*
Y273031D02*
D03*
Y297441D02*
D03*
Y304921D02*
D03*
X167717Y304921D02*
D03*
Y297441D02*
D03*
Y336811D02*
D03*
Y329331D02*
D03*
X355512Y202559D02*
D03*
Y210039D02*
D03*
Y241929D02*
D03*
Y234449D02*
D03*
X198031Y336811D02*
D03*
Y329331D02*
D03*
X236221Y336811D02*
D03*
Y329331D02*
D03*
X366142Y202559D02*
D03*
Y210039D02*
D03*
Y241929D02*
D03*
Y234449D02*
D03*
X253543Y273031D02*
D03*
Y265551D02*
D03*
Y304921D02*
D03*
Y297441D02*
D03*
X355512Y265551D02*
D03*
Y273031D02*
D03*
Y304921D02*
D03*
Y297441D02*
D03*
X274410Y336811D02*
D03*
Y329331D02*
D03*
X312598Y336811D02*
D03*
Y329331D02*
D03*
X366142Y265551D02*
D03*
Y273031D02*
D03*
Y304921D02*
D03*
Y297441D02*
D03*
X243307Y104528D02*
D03*
Y97047D02*
D03*
Y87598D02*
D03*
Y80118D02*
D03*
X81496Y241142D02*
D03*
Y233661D02*
D03*
Y209252D02*
D03*
Y201772D02*
D03*
X213386Y180512D02*
D03*
Y173031D02*
D03*
X251575Y180512D02*
D03*
Y173031D02*
D03*
X167717Y241929D02*
D03*
Y234449D02*
D03*
X167717Y210039D02*
D03*
Y202559D02*
D03*
X212992Y158858D02*
D03*
Y151378D02*
D03*
Y137205D02*
D03*
Y129724D02*
D03*
X253937Y241929D02*
D03*
Y234449D02*
D03*
Y210039D02*
D03*
Y202559D02*
D03*
X251575Y158858D02*
D03*
Y151378D02*
D03*
Y137205D02*
D03*
Y129724D02*
D03*
X181102Y87598D02*
D03*
Y80118D02*
D03*
Y104528D02*
D03*
Y97047D02*
D03*
M02*
