G04*
G04 #@! TF.GenerationSoftware,Altium Limited,CircuitStudio,1.5.2 (30)*
G04*
G04 Layer_Color=20142*
%FSLAX25Y25*%
%MOIN*%
G70*
G01*
G75*
%ADD49R,0.06299X0.08661*%
%ADD50R,0.05118X0.08268*%
%ADD51R,0.09409X0.07087*%
%ADD52R,0.04528X0.02677*%
%ADD53R,0.04331X0.03937*%
%ADD54R,0.05118X0.02362*%
%ADD55R,0.06890X0.03150*%
%ADD56R,0.03543X0.05906*%
%ADD57R,0.04331X0.03150*%
%ADD58R,0.17598X0.20079*%
%ADD59R,0.03189X0.02402*%
%ADD60R,0.12598X0.08661*%
%ADD61R,0.05512X0.09449*%
%ADD62R,0.23622X0.25984*%
%ADD63R,0.01575X0.05118*%
%ADD64R,0.05118X0.01575*%
%ADD65C,0.12000*%
%ADD66R,0.03937X0.02756*%
%ADD67R,0.13780X0.10236*%
%ADD68R,0.04331X0.05906*%
%ADD69R,0.04331X0.02362*%
%ADD70R,0.04724X0.03150*%
%ADD71R,0.02362X0.04331*%
%ADD72R,0.05906X0.04331*%
%ADD73R,0.08661X0.12598*%
%ADD74R,0.05906X0.03543*%
%ADD75O,0.16535X0.08661*%
%ADD76O,0.08661X0.16535*%
%ADD77C,0.20472*%
%ADD78R,0.07087X0.08661*%
%ADD79R,0.08661X0.07087*%
%ADD80R,0.07087X0.07087*%
%ADD81C,0.03150*%
D49*
X318110Y82677D02*
D03*
Y92677D02*
D03*
X294488Y82677D02*
D03*
Y92677D02*
D03*
D50*
X358661Y83858D02*
D03*
X348819D02*
D03*
D51*
X97224Y86614D02*
D03*
X61043D02*
D03*
D52*
X181299Y39882D02*
D03*
Y47520D02*
D03*
X171457Y43701D02*
D03*
D53*
X241732Y130315D02*
D03*
Y137795D02*
D03*
X233858Y134055D02*
D03*
X93307Y72047D02*
D03*
Y64567D02*
D03*
X101181Y68307D02*
D03*
X188189Y351528D02*
D03*
Y359008D02*
D03*
X180315Y355268D02*
D03*
X226378Y351528D02*
D03*
Y359008D02*
D03*
X218504Y355268D02*
D03*
X264567Y351134D02*
D03*
Y358614D02*
D03*
X256693Y354874D02*
D03*
X302756Y351134D02*
D03*
Y358614D02*
D03*
X294882Y354874D02*
D03*
X188189Y329921D02*
D03*
Y337402D02*
D03*
X180315Y333661D02*
D03*
X226378Y329921D02*
D03*
Y337402D02*
D03*
X218504Y333661D02*
D03*
X264567Y329921D02*
D03*
Y337402D02*
D03*
X256693Y333661D02*
D03*
X302756Y329921D02*
D03*
Y337402D02*
D03*
X294882Y333661D02*
D03*
X203150Y173622D02*
D03*
Y181102D02*
D03*
X195276Y177362D02*
D03*
X241732Y173622D02*
D03*
Y181102D02*
D03*
X233858Y177362D02*
D03*
X203150Y151969D02*
D03*
Y159449D02*
D03*
X195276Y155709D02*
D03*
X203150Y130315D02*
D03*
Y137795D02*
D03*
X195276Y134055D02*
D03*
X241732Y151969D02*
D03*
Y159449D02*
D03*
X233858Y155709D02*
D03*
D54*
X116142Y109468D02*
D03*
Y104469D02*
D03*
Y99468D02*
D03*
Y94468D02*
D03*
X135827Y109468D02*
D03*
Y104469D02*
D03*
Y99468D02*
D03*
Y94468D02*
D03*
D55*
X224410Y42146D02*
D03*
Y37146D02*
D03*
Y32146D02*
D03*
Y27146D02*
D03*
X245669Y42146D02*
D03*
Y37146D02*
D03*
Y32146D02*
D03*
Y27146D02*
D03*
D56*
X57677Y102362D02*
D03*
X65158D02*
D03*
X36417Y85433D02*
D03*
X43898D02*
D03*
X36417Y104331D02*
D03*
X43898D02*
D03*
X214370Y27559D02*
D03*
X206890D02*
D03*
X206890Y41732D02*
D03*
X214370D02*
D03*
X271063Y382283D02*
D03*
X278543D02*
D03*
X258071D02*
D03*
X250591D02*
D03*
X136811Y85433D02*
D03*
X129331D02*
D03*
X273425Y193307D02*
D03*
X265945D02*
D03*
X273425Y225197D02*
D03*
X265945D02*
D03*
X273425Y256299D02*
D03*
X265945D02*
D03*
X273425Y288189D02*
D03*
X265945D02*
D03*
X328150Y193307D02*
D03*
X320669D02*
D03*
X328150Y225197D02*
D03*
X320669D02*
D03*
X328150Y256299D02*
D03*
X320669D02*
D03*
X328150Y288189D02*
D03*
X320669D02*
D03*
X98228Y166929D02*
D03*
X105709D02*
D03*
X98228Y133071D02*
D03*
X105709D02*
D03*
X80118Y166929D02*
D03*
X87598D02*
D03*
X80118Y133071D02*
D03*
X87598D02*
D03*
X136811Y166929D02*
D03*
X144291D02*
D03*
X136811Y133071D02*
D03*
X144291D02*
D03*
X118701Y166929D02*
D03*
X126181D02*
D03*
X118701Y133071D02*
D03*
X126181D02*
D03*
X175394Y166929D02*
D03*
X182874D02*
D03*
X175394Y133071D02*
D03*
X182874D02*
D03*
X157283Y166929D02*
D03*
X164764D02*
D03*
X157283Y133071D02*
D03*
X164764D02*
D03*
X272244Y102756D02*
D03*
X279724D02*
D03*
D57*
X261417Y129724D02*
D03*
Y135630D02*
D03*
X83464Y29724D02*
D03*
Y35630D02*
D03*
X207874Y350984D02*
D03*
Y356890D02*
D03*
X246063Y350984D02*
D03*
Y356890D02*
D03*
X284252Y350984D02*
D03*
Y356890D02*
D03*
X322441Y350984D02*
D03*
Y356890D02*
D03*
X207874Y329331D02*
D03*
Y335236D02*
D03*
X246063Y335236D02*
D03*
Y329331D02*
D03*
X284252Y335236D02*
D03*
Y329331D02*
D03*
X322441Y335236D02*
D03*
Y329331D02*
D03*
X223228Y173031D02*
D03*
Y178937D02*
D03*
X261417Y173031D02*
D03*
Y178937D02*
D03*
X222835Y151378D02*
D03*
Y157283D02*
D03*
Y129724D02*
D03*
Y135630D02*
D03*
X261417Y151378D02*
D03*
Y157283D02*
D03*
D58*
X69075Y58248D02*
D03*
D59*
X83681Y65768D02*
D03*
Y50768D02*
D03*
Y55768D02*
D03*
Y60768D02*
D03*
D60*
X238976Y217323D02*
D03*
Y205512D02*
D03*
X66535Y280315D02*
D03*
Y268504D02*
D03*
Y312205D02*
D03*
Y300394D02*
D03*
Y344094D02*
D03*
Y332283D02*
D03*
X152756Y280315D02*
D03*
Y268504D02*
D03*
Y312205D02*
D03*
Y300394D02*
D03*
Y344094D02*
D03*
Y332283D02*
D03*
X238583Y280315D02*
D03*
Y268504D02*
D03*
X238583Y312205D02*
D03*
Y300394D02*
D03*
X66535Y248425D02*
D03*
Y236614D02*
D03*
X66535Y216535D02*
D03*
Y204724D02*
D03*
X152756Y249213D02*
D03*
Y237402D02*
D03*
Y217323D02*
D03*
Y205512D02*
D03*
X238976Y249213D02*
D03*
Y237402D02*
D03*
D61*
X154331Y43701D02*
D03*
X136378D02*
D03*
X114173D02*
D03*
X96220D02*
D03*
D62*
X145354Y18898D02*
D03*
X105197D02*
D03*
D63*
X299016Y112795D02*
D03*
X300984D02*
D03*
X302953D02*
D03*
X304921D02*
D03*
X306890D02*
D03*
X308858D02*
D03*
X310827D02*
D03*
X312795D02*
D03*
X314764D02*
D03*
X316732D02*
D03*
X318701D02*
D03*
X320669D02*
D03*
X322638D02*
D03*
X324606D02*
D03*
X326575D02*
D03*
X328543D02*
D03*
Y160433D02*
D03*
X326575D02*
D03*
X324606D02*
D03*
X322638D02*
D03*
X320669D02*
D03*
X318701D02*
D03*
X316732D02*
D03*
X314764D02*
D03*
X312795D02*
D03*
X310827D02*
D03*
X308858D02*
D03*
X306890D02*
D03*
X304921D02*
D03*
X302953D02*
D03*
X300984D02*
D03*
X299016D02*
D03*
D64*
X337598Y121850D02*
D03*
Y123819D02*
D03*
Y125787D02*
D03*
Y127756D02*
D03*
Y129724D02*
D03*
Y131693D02*
D03*
Y133661D02*
D03*
Y135630D02*
D03*
Y137598D02*
D03*
Y139567D02*
D03*
Y141535D02*
D03*
Y143504D02*
D03*
Y145472D02*
D03*
Y147441D02*
D03*
Y149409D02*
D03*
Y151378D02*
D03*
X289961D02*
D03*
Y149409D02*
D03*
Y147441D02*
D03*
Y145472D02*
D03*
Y143504D02*
D03*
Y141535D02*
D03*
Y139567D02*
D03*
Y137598D02*
D03*
Y135630D02*
D03*
Y133661D02*
D03*
Y131693D02*
D03*
Y129724D02*
D03*
Y127756D02*
D03*
Y125787D02*
D03*
Y123819D02*
D03*
Y121850D02*
D03*
D65*
X38681Y8169D02*
D03*
X351870Y365453D02*
D03*
X370472Y61122D02*
D03*
X8169Y357382D02*
D03*
D66*
X53150Y49508D02*
D03*
Y54429D02*
D03*
D67*
X64173Y37008D02*
D03*
Y11024D02*
D03*
D68*
X294685Y177461D02*
D03*
X302165D02*
D03*
X110039Y56299D02*
D03*
X117520D02*
D03*
X149803D02*
D03*
X157283D02*
D03*
D69*
X354331Y120866D02*
D03*
Y125591D02*
D03*
X83464Y11811D02*
D03*
Y16535D02*
D03*
X233465Y14961D02*
D03*
Y10236D02*
D03*
X242520Y14961D02*
D03*
Y10236D02*
D03*
X368110Y79134D02*
D03*
Y83858D02*
D03*
X339370Y79134D02*
D03*
Y83858D02*
D03*
X282579Y123622D02*
D03*
Y118898D02*
D03*
X345079Y149606D02*
D03*
Y154331D02*
D03*
X344980Y120866D02*
D03*
Y125591D02*
D03*
D70*
X158268Y157638D02*
D03*
Y147638D02*
D03*
X181890Y157638D02*
D03*
Y147638D02*
D03*
X266929Y212756D02*
D03*
Y202756D02*
D03*
X290551Y212756D02*
D03*
Y202756D02*
D03*
X266929Y244646D02*
D03*
Y234646D02*
D03*
X290551Y244646D02*
D03*
Y234646D02*
D03*
X266929Y275748D02*
D03*
Y265748D02*
D03*
X290551Y275748D02*
D03*
Y265748D02*
D03*
X266929Y307638D02*
D03*
Y297638D02*
D03*
X290551Y307638D02*
D03*
Y297638D02*
D03*
X321654Y212756D02*
D03*
Y202756D02*
D03*
X345276Y212756D02*
D03*
Y202756D02*
D03*
X321654Y244646D02*
D03*
Y234646D02*
D03*
X345276Y244646D02*
D03*
Y234646D02*
D03*
X321654Y275748D02*
D03*
Y265748D02*
D03*
X345276Y275748D02*
D03*
Y265748D02*
D03*
X321654Y307638D02*
D03*
Y297638D02*
D03*
X345276Y307638D02*
D03*
Y297638D02*
D03*
X81102Y191496D02*
D03*
Y181496D02*
D03*
X104725Y191496D02*
D03*
Y181496D02*
D03*
X81102Y157638D02*
D03*
Y147638D02*
D03*
X104725Y157638D02*
D03*
Y147638D02*
D03*
X119685Y191496D02*
D03*
Y181496D02*
D03*
X143307Y191496D02*
D03*
Y181496D02*
D03*
X119685Y157638D02*
D03*
Y147638D02*
D03*
X143307Y157638D02*
D03*
Y147638D02*
D03*
X158268Y191496D02*
D03*
Y181496D02*
D03*
X181890Y191496D02*
D03*
Y181496D02*
D03*
D71*
X96850Y55512D02*
D03*
X92126D02*
D03*
X137008D02*
D03*
X132283D02*
D03*
X265748Y11417D02*
D03*
X270473D02*
D03*
X111024Y369291D02*
D03*
X106299D02*
D03*
X148425Y368898D02*
D03*
X143701D02*
D03*
X296850Y66142D02*
D03*
X292126D02*
D03*
X315748D02*
D03*
X320472D02*
D03*
X101181Y101969D02*
D03*
X96457D02*
D03*
X300787Y167815D02*
D03*
X296063D02*
D03*
D72*
X212992Y10433D02*
D03*
Y17913D02*
D03*
X267717Y20276D02*
D03*
Y27756D02*
D03*
X257087Y20276D02*
D03*
Y27756D02*
D03*
X202362Y17913D02*
D03*
Y10433D02*
D03*
X273228Y117520D02*
D03*
Y125000D02*
D03*
X355020Y158071D02*
D03*
Y150591D02*
D03*
D73*
X13780Y88976D02*
D03*
X25591D02*
D03*
X13780Y107874D02*
D03*
X25591D02*
D03*
D74*
X223622Y10827D02*
D03*
Y18307D02*
D03*
X279921Y10827D02*
D03*
Y18307D02*
D03*
Y27756D02*
D03*
Y35236D02*
D03*
X212205Y97047D02*
D03*
Y104528D02*
D03*
Y87598D02*
D03*
Y80118D02*
D03*
X312598Y42717D02*
D03*
Y50197D02*
D03*
X331890Y42717D02*
D03*
Y50197D02*
D03*
X342520Y42717D02*
D03*
Y50197D02*
D03*
X353150Y42717D02*
D03*
Y50197D02*
D03*
X146063Y99409D02*
D03*
Y91929D02*
D03*
X364961Y334449D02*
D03*
Y341929D02*
D03*
X361811Y101772D02*
D03*
Y94291D02*
D03*
X345669Y101772D02*
D03*
Y94291D02*
D03*
X81496Y273031D02*
D03*
Y265551D02*
D03*
Y304921D02*
D03*
Y297441D02*
D03*
X300787Y202559D02*
D03*
Y210039D02*
D03*
X300787Y241929D02*
D03*
Y234449D02*
D03*
X198031Y358465D02*
D03*
Y350984D02*
D03*
X236221Y358465D02*
D03*
Y350984D02*
D03*
X311417Y202559D02*
D03*
Y210039D02*
D03*
Y234449D02*
D03*
Y241929D02*
D03*
X81496Y336811D02*
D03*
Y329331D02*
D03*
X167717Y273031D02*
D03*
Y265551D02*
D03*
X300787D02*
D03*
Y273031D02*
D03*
Y297441D02*
D03*
Y304921D02*
D03*
X274410Y358465D02*
D03*
Y350984D02*
D03*
X312598Y358465D02*
D03*
Y350984D02*
D03*
X311417Y265551D02*
D03*
Y273031D02*
D03*
Y297441D02*
D03*
Y304921D02*
D03*
X167717Y304921D02*
D03*
Y297441D02*
D03*
Y336811D02*
D03*
Y329331D02*
D03*
X355512Y202559D02*
D03*
Y210039D02*
D03*
Y241929D02*
D03*
Y234449D02*
D03*
X198031Y336811D02*
D03*
Y329331D02*
D03*
X236221Y336811D02*
D03*
Y329331D02*
D03*
X366142Y202559D02*
D03*
Y210039D02*
D03*
Y241929D02*
D03*
Y234449D02*
D03*
X253543Y273031D02*
D03*
Y265551D02*
D03*
Y304921D02*
D03*
Y297441D02*
D03*
X355512Y265551D02*
D03*
Y273031D02*
D03*
Y304921D02*
D03*
Y297441D02*
D03*
X274410Y336811D02*
D03*
Y329331D02*
D03*
X312598Y336811D02*
D03*
Y329331D02*
D03*
X366142Y265551D02*
D03*
Y273031D02*
D03*
Y304921D02*
D03*
Y297441D02*
D03*
X243307Y104528D02*
D03*
Y97047D02*
D03*
Y87598D02*
D03*
Y80118D02*
D03*
X81496Y241142D02*
D03*
Y233661D02*
D03*
Y209252D02*
D03*
Y201772D02*
D03*
X213386Y180512D02*
D03*
Y173031D02*
D03*
X251575Y180512D02*
D03*
Y173031D02*
D03*
X167717Y241929D02*
D03*
Y234449D02*
D03*
X167717Y210039D02*
D03*
Y202559D02*
D03*
X212992Y158858D02*
D03*
Y151378D02*
D03*
Y137205D02*
D03*
Y129724D02*
D03*
X253937Y241929D02*
D03*
Y234449D02*
D03*
Y210039D02*
D03*
Y202559D02*
D03*
X251575Y158858D02*
D03*
Y151378D02*
D03*
Y137205D02*
D03*
Y129724D02*
D03*
X181102Y87598D02*
D03*
Y80118D02*
D03*
Y104528D02*
D03*
Y97047D02*
D03*
D75*
X28740Y39370D02*
D03*
D76*
X16929Y57874D02*
D03*
X40551D02*
D03*
D77*
X375984Y17717D02*
D03*
X17717D02*
D03*
Y375984D02*
D03*
X375984D02*
D03*
D78*
X12992Y176772D02*
D03*
X22992D02*
D03*
X32992D02*
D03*
X42992D02*
D03*
X52992D02*
D03*
X62992D02*
D03*
X40945Y380709D02*
D03*
X50945D02*
D03*
X60945D02*
D03*
X70945D02*
D03*
X213386Y241339D02*
D03*
X201575D02*
D03*
X189764D02*
D03*
X185984Y12992D02*
D03*
X175984D02*
D03*
X12992Y151575D02*
D03*
X22992D02*
D03*
X32992D02*
D03*
X42992D02*
D03*
X12992Y125591D02*
D03*
X22992D02*
D03*
X32992D02*
D03*
X42992D02*
D03*
X52992D02*
D03*
X62992D02*
D03*
X302756Y13386D02*
D03*
X312756D02*
D03*
X322756D02*
D03*
X332756D02*
D03*
X342756D02*
D03*
X352756D02*
D03*
X210236Y380709D02*
D03*
X220236D02*
D03*
X230236D02*
D03*
X240236D02*
D03*
X40945Y272441D02*
D03*
X29134D02*
D03*
X17323D02*
D03*
X40945Y304331D02*
D03*
X29134D02*
D03*
X17323D02*
D03*
X40945Y336221D02*
D03*
X29134D02*
D03*
X17323D02*
D03*
X127165Y272441D02*
D03*
X115354D02*
D03*
X103543D02*
D03*
X127165Y304331D02*
D03*
X115354D02*
D03*
X103543D02*
D03*
X127165Y336221D02*
D03*
X115354D02*
D03*
X103543D02*
D03*
X213386Y272441D02*
D03*
X201575D02*
D03*
X189764D02*
D03*
X213386Y304331D02*
D03*
X201575D02*
D03*
X189764D02*
D03*
X88189Y380709D02*
D03*
X98189D02*
D03*
X108189D02*
D03*
X125591Y380709D02*
D03*
X135591D02*
D03*
X145591D02*
D03*
X40945Y208661D02*
D03*
X29134D02*
D03*
X17323D02*
D03*
X40945Y240551D02*
D03*
X29134D02*
D03*
X17323D02*
D03*
X127165Y209449D02*
D03*
X115354D02*
D03*
X103543D02*
D03*
X127165Y241339D02*
D03*
X115354D02*
D03*
X103543D02*
D03*
X213386Y209449D02*
D03*
X201575D02*
D03*
X189764D02*
D03*
D79*
X168504Y102362D02*
D03*
Y92362D02*
D03*
Y82362D02*
D03*
X379528Y202756D02*
D03*
Y212756D02*
D03*
Y222756D02*
D03*
Y232756D02*
D03*
Y242756D02*
D03*
Y252756D02*
D03*
Y262756D02*
D03*
Y272756D02*
D03*
Y282756D02*
D03*
Y292756D02*
D03*
Y302756D02*
D03*
Y312756D02*
D03*
Y322756D02*
D03*
Y332756D02*
D03*
Y342756D02*
D03*
Y352756D02*
D03*
X199606Y102362D02*
D03*
Y92362D02*
D03*
Y82362D02*
D03*
X230709Y102362D02*
D03*
Y92362D02*
D03*
Y82362D02*
D03*
D80*
X301969Y254528D02*
D03*
X285728Y185138D02*
D03*
D81*
X218406Y279331D02*
D03*
X207579D02*
D03*
X294685Y105217D02*
D03*
X232776Y163386D02*
D03*
X227264Y163583D02*
D03*
X226772Y154626D02*
D03*
X76083Y183071D02*
D03*
X285433Y281594D02*
D03*
X280709Y285236D02*
D03*
X329429Y122638D02*
D03*
X262894Y261122D02*
D03*
X284596Y215551D02*
D03*
X296850Y290551D02*
D03*
X289862Y318898D02*
D03*
X207087Y340650D02*
D03*
X262992Y234646D02*
D03*
X355413Y143799D02*
D03*
X81398Y312008D02*
D03*
X230709Y354528D02*
D03*
X269094Y354232D02*
D03*
X188189Y346555D02*
D03*
X137992Y313090D02*
D03*
X109350Y295177D02*
D03*
X84153Y292913D02*
D03*
X81299Y345965D02*
D03*
X163976Y344094D02*
D03*
X160531Y355413D02*
D03*
X217913Y337500D02*
D03*
X231004Y332874D02*
D03*
X304429Y346752D02*
D03*
X142913Y279232D02*
D03*
X298622Y329921D02*
D03*
X323622Y325492D02*
D03*
X317717Y319390D02*
D03*
X280906Y325984D02*
D03*
X197835Y326181D02*
D03*
X264469Y324902D02*
D03*
X96161Y263779D02*
D03*
X312500Y346949D02*
D03*
X307283Y332677D02*
D03*
X298425Y281890D02*
D03*
X271654Y282480D02*
D03*
X162992Y310335D02*
D03*
X171752Y324016D02*
D03*
X177854Y297539D02*
D03*
X292126Y291339D02*
D03*
X287894Y289272D02*
D03*
X287598Y301673D02*
D03*
X230020Y309941D02*
D03*
X235728Y345866D02*
D03*
X181496Y304035D02*
D03*
Y286910D02*
D03*
X227559Y230807D02*
D03*
X265945Y220571D02*
D03*
X142815Y248819D02*
D03*
X108957Y232972D02*
D03*
X61122Y224114D02*
D03*
X111909Y181693D02*
D03*
X151476Y171653D02*
D03*
X145374Y177657D02*
D03*
X171850Y146653D02*
D03*
X44980Y233071D02*
D03*
X34252Y225787D02*
D03*
X48130Y183169D02*
D03*
X153347Y178347D02*
D03*
X193405Y170472D02*
D03*
X78543Y216043D02*
D03*
X227953Y208760D02*
D03*
X238976Y190157D02*
D03*
X241732Y170079D02*
D03*
X135138Y223819D02*
D03*
X81890D02*
D03*
X44980Y222441D02*
D03*
X122835Y151870D02*
D03*
X152657Y143602D02*
D03*
X167913Y145079D02*
D03*
X170276Y126575D02*
D03*
X183071D02*
D03*
X66240Y257480D02*
D03*
X78642Y320965D02*
D03*
X304626Y313090D02*
D03*
X310925Y285433D02*
D03*
X305413Y277953D02*
D03*
X316535Y235925D02*
D03*
X98524Y318701D02*
D03*
X220177Y309941D02*
D03*
X221063Y304528D02*
D03*
X317913Y271161D02*
D03*
X209547Y312598D02*
D03*
X308760Y290453D02*
D03*
X295079Y287008D02*
D03*
X65453Y289961D02*
D03*
X274508Y219685D02*
D03*
X289764Y207972D02*
D03*
X232579Y190650D02*
D03*
X225492Y190748D02*
D03*
X237598Y150886D02*
D03*
X294980Y367028D02*
D03*
X296260Y382185D02*
D03*
X341929Y292913D02*
D03*
X312697Y279724D02*
D03*
X302067Y246654D02*
D03*
X303740Y226969D02*
D03*
X318110Y316043D02*
D03*
X333268D02*
D03*
X257283Y279626D02*
D03*
X263090Y208563D02*
D03*
X271752Y248622D02*
D03*
X170177Y167028D02*
D03*
X245965Y141831D02*
D03*
X131201Y166831D02*
D03*
X130413Y153642D02*
D03*
X156791Y153445D02*
D03*
X196161Y119488D02*
D03*
X139272Y117323D02*
D03*
X194587Y183071D02*
D03*
X98327Y126476D02*
D03*
X150984Y182874D02*
D03*
X141339Y203839D02*
D03*
X263189Y201575D02*
D03*
X265945Y186713D02*
D03*
X274803Y234252D02*
D03*
X289862Y226181D02*
D03*
X288386Y220177D02*
D03*
X292028Y220374D02*
D03*
X295669Y195669D02*
D03*
X298917Y198031D02*
D03*
X302362Y198425D02*
D03*
X314173Y189173D02*
D03*
X311417Y198622D02*
D03*
X295276Y220079D02*
D03*
X264075Y239173D02*
D03*
X320571Y188287D02*
D03*
X311122Y193996D02*
D03*
X252362Y218799D02*
D03*
X284941Y209350D02*
D03*
X292520Y198130D02*
D03*
X260236Y204429D02*
D03*
X275098Y158169D02*
D03*
X324606Y175098D02*
D03*
X330413Y176575D02*
D03*
X302756Y146653D02*
D03*
X321358Y150984D02*
D03*
X306201Y129823D02*
D03*
X262106Y147539D02*
D03*
X279724Y156004D02*
D03*
X204724Y189370D02*
D03*
X292913Y161417D02*
D03*
X315354Y155020D02*
D03*
X305807Y154921D02*
D03*
X319291Y153740D02*
D03*
X215650Y125787D02*
D03*
X289173Y164665D02*
D03*
X72244Y136614D02*
D03*
X261122Y70571D02*
D03*
X293996Y99606D02*
D03*
X306201Y118209D02*
D03*
X254724Y123130D02*
D03*
X320669Y282382D02*
D03*
Y251279D02*
D03*
X304921Y165256D02*
D03*
X316732Y225098D02*
D03*
X278543Y373130D02*
D03*
X250590Y376575D02*
D03*
X333268Y199902D02*
D03*
X274606Y216043D02*
D03*
X265945Y281299D02*
D03*
X269094Y161024D02*
D03*
X299114Y145472D02*
D03*
X296161Y152264D02*
D03*
X298031Y149606D02*
D03*
X258169Y117028D02*
D03*
X285039Y151378D02*
D03*
X316240Y122736D02*
D03*
X80118Y141535D02*
D03*
X213189Y169488D02*
D03*
X212894Y147244D02*
D03*
X267520Y144488D02*
D03*
X305807Y121850D02*
D03*
X129626Y94488D02*
D03*
X146358Y104921D02*
D03*
X275590Y130118D02*
D03*
X279724Y128740D02*
D03*
X296358Y121653D02*
D03*
X296457Y129232D02*
D03*
X283858Y127756D02*
D03*
Y42520D02*
D03*
X300197Y125787D02*
D03*
X287795Y36909D02*
D03*
X379331Y191732D02*
D03*
X327756Y143701D02*
D03*
X331693D02*
D03*
X310531Y118602D02*
D03*
X320866Y122835D02*
D03*
X342520Y55315D02*
D03*
X109547Y75689D02*
D03*
X78150Y74213D02*
D03*
X45866Y75984D02*
D03*
X57677Y24803D02*
D03*
X328445Y117717D02*
D03*
X331890Y112795D02*
D03*
X338583Y118602D02*
D03*
X325098Y50000D02*
D03*
X333957Y103150D02*
D03*
X368110Y96161D02*
D03*
X337894Y99410D02*
D03*
X301476Y107874D02*
D03*
X303445Y105118D02*
D03*
X387992Y131102D02*
D03*
X373228Y135728D02*
D03*
X369685Y137795D02*
D03*
X365650Y139370D02*
D03*
X358661Y141043D02*
D03*
X351673Y142520D02*
D03*
X348524Y145177D02*
D03*
X362303Y123130D02*
D03*
X270472Y7185D02*
D03*
X254232D02*
D03*
X217323Y37008D02*
D03*
X194882Y17913D02*
D03*
X220079Y77165D02*
D03*
X255374Y37146D02*
D03*
X126378Y138976D02*
D03*
X164567D02*
D03*
X92913D02*
D03*
X125984Y174409D02*
D03*
X164567D02*
D03*
X92913D02*
D03*
X84646D02*
D03*
X83465Y196063D02*
D03*
X93307Y198031D02*
D03*
X332283Y324016D02*
D03*
X259842Y304724D02*
D03*
Y272835D02*
D03*
Y242126D02*
D03*
Y210236D02*
D03*
X88189Y336614D02*
D03*
Y304724D02*
D03*
Y272835D02*
D03*
Y240945D02*
D03*
Y209055D02*
D03*
X174803Y336614D02*
D03*
Y304724D02*
D03*
Y272835D02*
D03*
Y242126D02*
D03*
Y209842D02*
D03*
X50000Y104331D02*
D03*
X134252Y77953D02*
D03*
X149606Y62598D02*
D03*
X161417Y31496D02*
D03*
X281496Y256299D02*
D03*
Y225197D02*
D03*
X337402D02*
D03*
Y256299D02*
D03*
Y288583D02*
D03*
X201575Y116535D02*
D03*
X281496Y193307D02*
D03*
X328346Y184646D02*
D03*
X294882D02*
D03*
X362205Y157874D02*
D03*
X290158Y117717D02*
D03*
X50787Y94882D02*
D03*
X110236Y64173D02*
D03*
X125591Y43701D02*
D03*
X132283Y62992D02*
D03*
X80709Y46457D02*
D03*
X134646Y36614D02*
D03*
X98032D02*
D03*
X53150Y61417D02*
D03*
X13780Y73622D02*
D03*
X61024Y79134D02*
D03*
X91339Y101969D02*
D03*
X107087D02*
D03*
X75984Y157480D02*
D03*
X97244D02*
D03*
X112992D02*
D03*
X135433D02*
D03*
X170472D02*
D03*
X188583D02*
D03*
X207874Y322835D02*
D03*
X180315Y324410D02*
D03*
Y349606D02*
D03*
X207874Y346457D02*
D03*
X218504Y349213D02*
D03*
Y327559D02*
D03*
X256693Y348819D02*
D03*
X246063Y346457D02*
D03*
X256693Y338583D02*
D03*
X246063Y340158D02*
D03*
X322441Y345669D02*
D03*
Y340945D02*
D03*
X284252Y340158D02*
D03*
Y346063D02*
D03*
X294882Y337795D02*
D03*
Y349606D02*
D03*
X333465Y307480D02*
D03*
X277559D02*
D03*
Y212598D02*
D03*
Y275590D02*
D03*
Y244488D02*
D03*
X333465Y212598D02*
D03*
Y244488D02*
D03*
Y275590D02*
D03*
X170079Y191339D02*
D03*
X131102D02*
D03*
X92913D02*
D03*
X64173Y3150D02*
D03*
X83465Y42520D02*
D03*
Y3150D02*
D03*
X207480D02*
D03*
X233465D02*
D03*
X265748D02*
D03*
X251181Y32283D02*
D03*
X104724Y51181D02*
D03*
X144095D02*
D03*
X188583Y134252D02*
D03*
X233858Y141732D02*
D03*
X222835Y147244D02*
D03*
X227165Y129921D02*
D03*
X188583Y177165D02*
D03*
X223228Y169291D02*
D03*
X233858Y147244D02*
D03*
X233858Y169685D02*
D03*
X261417Y168898D02*
D03*
X305906D02*
D03*
X320866Y105905D02*
D03*
X272441Y138189D02*
D03*
X354331Y117323D02*
D03*
X266142Y151575D02*
D03*
X272441Y110630D02*
D03*
X373228Y79134D02*
D03*
X333465D02*
D03*
X305512Y66142D02*
D03*
M02*
