G04*
G04 #@! TF.GenerationSoftware,Altium Limited,CircuitStudio,1.5.2 (30)*
G04*
G04 Layer_Color=255*
%FSLAX25Y25*%
%MOIN*%
G70*
G01*
G75*
%ADD39R,0.06299X0.07874*%
%ADD40O,0.06299X0.07874*%
%ADD41R,0.07874X0.06299*%
%ADD42O,0.07874X0.06299*%
%ADD43O,0.15748X0.07874*%
%ADD44O,0.07874X0.15748*%
D39*
X213779Y381102D02*
D03*
X386614Y147953D02*
D03*
Y137008D02*
D03*
X288583Y127559D02*
D03*
X462795Y138779D02*
D03*
X111024Y22047D02*
D03*
X163976D02*
D03*
X270276D02*
D03*
X217126D02*
D03*
X376575D02*
D03*
X323425D02*
D03*
X483071D02*
D03*
X429724D02*
D03*
X41142Y22047D02*
D03*
X41063Y136163D02*
D03*
D40*
X223780Y381102D02*
D03*
X233780D02*
D03*
X243779D02*
D03*
X253780D02*
D03*
X263779D02*
D03*
X273780D02*
D03*
X283780D02*
D03*
X293779D02*
D03*
X303780D02*
D03*
X313779D02*
D03*
X323780D02*
D03*
X333780D02*
D03*
X343779D02*
D03*
X353780D02*
D03*
X363779D02*
D03*
X416614Y147953D02*
D03*
X406614D02*
D03*
X396614D02*
D03*
X416614Y137008D02*
D03*
X406614D02*
D03*
X396614D02*
D03*
X298583Y127559D02*
D03*
X308583D02*
D03*
X452795Y138779D02*
D03*
X134646Y22047D02*
D03*
X122835D02*
D03*
X187598D02*
D03*
X175787D02*
D03*
X293898D02*
D03*
X282087D02*
D03*
X240748D02*
D03*
X228937D02*
D03*
X400197D02*
D03*
X388386D02*
D03*
X347047D02*
D03*
X335236D02*
D03*
X506693D02*
D03*
X494882D02*
D03*
X453346D02*
D03*
X441535D02*
D03*
X51142Y22047D02*
D03*
X61142D02*
D03*
X71142D02*
D03*
X81142D02*
D03*
X48937Y136163D02*
D03*
X56811D02*
D03*
X64685D02*
D03*
X72559D02*
D03*
X80433D02*
D03*
X88307D02*
D03*
X96181D02*
D03*
X104055D02*
D03*
X111929D02*
D03*
X41063Y222778D02*
D03*
X48937D02*
D03*
X56811D02*
D03*
X64685D02*
D03*
X72559D02*
D03*
X80433D02*
D03*
X88307D02*
D03*
X96181D02*
D03*
X104055D02*
D03*
X111929D02*
D03*
D41*
X25591Y63189D02*
D03*
X535039Y133937D02*
D03*
Y83937D02*
D03*
X49606Y238583D02*
D03*
X68504D02*
D03*
D42*
X25591Y53189D02*
D03*
Y43189D02*
D03*
X535039Y103937D02*
D03*
Y113937D02*
D03*
Y123937D02*
D03*
Y53937D02*
D03*
Y63937D02*
D03*
Y73937D02*
D03*
X49606Y248583D02*
D03*
X68504D02*
D03*
D43*
X67323Y262598D02*
D03*
D44*
X55512Y281102D02*
D03*
X79134D02*
D03*
M02*
