G04*
G04 #@! TF.GenerationSoftware,Altium Limited,CircuitStudio,1.5.2 (30)*
G04*
G04 Layer_Physical_Order=1*
G04 Layer_Color=255*
%FSLAX25Y25*%
%MOIN*%
G70*
G01*
G75*
%ADD10R,0.05118X0.02756*%
%ADD11R,0.05118X0.03543*%
%ADD12R,0.48031X0.38386*%
%ADD13R,0.06299X0.13780*%
%ADD14R,0.02756X0.05118*%
%ADD15R,0.07874X0.21654*%
%ADD16R,0.03150X0.03543*%
%ADD17R,0.02362X0.03543*%
%ADD18R,0.01575X0.03543*%
%ADD19R,0.03543X0.05118*%
%ADD20R,0.03543X0.02362*%
%ADD21R,0.03543X0.01575*%
%ADD22R,0.02402X0.01614*%
%ADD23R,0.16811X0.19291*%
%ADD24R,0.09449X0.12992*%
%ADD25R,0.03150X0.01969*%
%ADD26R,0.08622X0.06299*%
%ADD27R,0.04331X0.01575*%
%ADD28R,0.07480X0.04331*%
%ADD29R,0.01181X0.04724*%
%ADD30R,0.04724X0.01181*%
%ADD31R,0.03150X0.04724*%
%ADD32R,0.03543X0.07874*%
%ADD33R,0.07874X0.03543*%
%ADD34R,0.19685X0.19685*%
%ADD35R,0.03543X0.03150*%
%ADD36C,0.03937*%
%ADD37C,0.04000*%
%ADD38C,0.01000*%
%ADD39R,0.06299X0.07874*%
%ADD40O,0.06299X0.07874*%
%ADD41R,0.07874X0.06299*%
%ADD42O,0.07874X0.06299*%
%ADD43O,0.15748X0.07874*%
%ADD44O,0.07874X0.15748*%
%ADD45C,0.01969*%
%ADD46C,0.12598*%
G36*
X267232Y253785D02*
X267507Y253839D01*
X268163Y254278D01*
X268463Y254727D01*
X268963Y254576D01*
Y238386D01*
X265961D01*
Y238598D01*
X264870D01*
Y235236D01*
Y231874D01*
X265026D01*
Y227756D01*
X265126Y227254D01*
X265410Y226828D01*
X268088Y224150D01*
X268213Y223521D01*
X268217Y223516D01*
X267916Y223066D01*
X267913Y223066D01*
X267222Y222929D01*
X266636Y222537D01*
X266245Y221951D01*
X266107Y221260D01*
X266245Y220569D01*
X266636Y219983D01*
X267222Y219591D01*
X267552Y219525D01*
X267717Y218983D01*
X266395Y217660D01*
X266110Y217235D01*
X266010Y216732D01*
Y212355D01*
X264023Y210368D01*
X262560D01*
X262408Y210868D01*
X262498Y210927D01*
X262889Y211513D01*
X263027Y212205D01*
X262889Y212896D01*
X262730Y213135D01*
Y220035D01*
X263086Y220569D01*
X263224Y221260D01*
X263086Y221951D01*
X262695Y222537D01*
X262109Y222929D01*
X261417Y223066D01*
X260726Y222929D01*
X260140Y222537D01*
X259749Y221951D01*
X259611Y221260D01*
X259749Y220569D01*
X260105Y220035D01*
Y213590D01*
X259943Y213482D01*
X259552Y212896D01*
X259414Y212205D01*
X259436Y212094D01*
X259180Y211837D01*
X258996Y211746D01*
X256496D01*
Y212992D01*
Y214961D01*
Y216929D01*
Y218898D01*
Y220866D01*
Y222835D01*
Y224803D01*
Y224868D01*
X259646D01*
X260148Y224968D01*
X260574Y225253D01*
X263330Y228009D01*
X263614Y228435D01*
X263714Y228937D01*
Y231874D01*
X263870D01*
Y235236D01*
Y238598D01*
X263545D01*
X263330Y238920D01*
X263002Y239248D01*
X263209Y239748D01*
X263870D01*
Y242520D01*
Y245291D01*
X261433D01*
X260958Y245524D01*
Y247980D01*
X261433Y248213D01*
X263870D01*
Y250984D01*
X264370D01*
Y251484D01*
X266158D01*
Y253290D01*
X266232Y253351D01*
Y255709D01*
X267232D01*
Y253785D01*
D02*
G37*
G36*
X187402Y368635D02*
X169291D01*
X168789Y368535D01*
X168363Y368251D01*
X166985Y366873D01*
X166701Y366447D01*
X166601Y365945D01*
Y364583D01*
X165535D01*
Y362336D01*
X164323D01*
X163723Y362936D01*
X163298Y363221D01*
X162795Y363320D01*
X161827D01*
Y364779D01*
X159580D01*
Y368110D01*
X159480Y368613D01*
X159196Y369038D01*
X156440Y371794D01*
X156014Y372079D01*
X155512Y372179D01*
X151000D01*
Y391059D01*
X126484D01*
Y370866D01*
Y350673D01*
X151000D01*
Y369553D01*
X154968D01*
X156955Y367566D01*
Y364779D01*
X154709D01*
Y362508D01*
X158268D01*
Y361508D01*
X154709D01*
Y359236D01*
Y357299D01*
X154921Y357087D01*
Y351969D01*
X156955D01*
Y351181D01*
Y348425D01*
X154921D01*
Y343307D01*
Y340945D01*
Y335827D01*
X156955D01*
Y334402D01*
X154279Y331726D01*
X147681D01*
X147148Y332082D01*
X146457Y332220D01*
X145765Y332082D01*
X145232Y331726D01*
X139921D01*
Y338090D01*
X132047D01*
Y322736D01*
X134672D01*
Y319993D01*
X132320Y317641D01*
X132035Y317215D01*
X131935Y316713D01*
Y313819D01*
X131260D01*
Y313537D01*
X126791D01*
X126289Y313437D01*
X125863Y313153D01*
X123875Y311164D01*
X123591Y310738D01*
X123491Y310236D01*
Y309842D01*
X116535D01*
Y314370D01*
X111811D01*
Y309842D01*
X103347D01*
Y312205D01*
X102100D01*
Y326228D01*
X104973Y329101D01*
X112047D01*
Y322736D01*
X119921D01*
Y338090D01*
X112047D01*
Y331726D01*
X104429D01*
X103927Y331626D01*
X103501Y331342D01*
X99859Y327700D01*
X99575Y327274D01*
X99475Y326772D01*
Y312205D01*
X98228D01*
Y311943D01*
X96063D01*
Y393701D01*
X187402D01*
Y368635D01*
D02*
G37*
G36*
X551421Y393599D02*
X552379Y393203D01*
X553202Y392572D01*
X553833Y391749D01*
X554229Y390792D01*
X554360Y389797D01*
X554331Y389764D01*
X554331D01*
X554350Y171055D01*
X553850Y170755D01*
X553119Y171146D01*
X551783Y171551D01*
X550394Y171688D01*
X549005Y171551D01*
X547669Y171146D01*
X546438Y170488D01*
X545359Y169602D01*
X544473Y168523D01*
X543815Y167292D01*
X543410Y165956D01*
X543273Y164567D01*
X543410Y163178D01*
X543815Y161842D01*
X544473Y160611D01*
X545359Y159532D01*
X546438Y158646D01*
X547669Y157988D01*
X549005Y157583D01*
X550394Y157446D01*
X551783Y157583D01*
X553119Y157988D01*
X553851Y158379D01*
X554351Y158080D01*
X554365Y3937D01*
X554229Y2909D01*
X553833Y1952D01*
X553202Y1129D01*
X552379Y498D01*
X551421Y101D01*
X550881Y30D01*
X550394Y-0D01*
X550394Y-0D01*
X550394D01*
X549894Y-0D01*
X549394Y-0D01*
X3937Y-34D01*
X2909Y101D01*
X1952Y498D01*
X1129Y1129D01*
X498Y1952D01*
X101Y2909D01*
X-30Y3903D01*
X-0Y3937D01*
X-0D01*
X-0Y69937D01*
X67Y69950D01*
X458Y70211D01*
X719Y70602D01*
X810Y71063D01*
Y147228D01*
X10055D01*
Y193698D01*
X10555Y193850D01*
X10566Y193833D01*
X10956Y193572D01*
X11417Y193481D01*
X11787Y193554D01*
X11878Y193572D01*
X12269Y193833D01*
X12530Y194224D01*
X12622Y194685D01*
Y194685D01*
X12530Y195146D01*
X12269Y195537D01*
X11878Y195798D01*
X11417Y195889D01*
X10956Y195798D01*
X10800Y195693D01*
X10566Y195537D01*
X10566Y195537D01*
X10555Y195521D01*
X10055Y195672D01*
Y214783D01*
X810D01*
Y300590D01*
X719Y301051D01*
X458Y301442D01*
X67Y301703D01*
X0Y301716D01*
Y308540D01*
X0Y309040D01*
X54750D01*
X54828Y309055D01*
X54907D01*
X54973Y309068D01*
X54973D01*
X55046Y309099D01*
X55057Y309101D01*
X55067Y309107D01*
X55122Y309130D01*
X55262Y309188D01*
X55262Y309188D01*
X55484Y309410D01*
X55542Y309550D01*
X55564Y309605D01*
X55571Y309614D01*
X55573Y309626D01*
X55603Y309699D01*
X56044Y309842D01*
X88567D01*
Y307858D01*
Y306315D01*
X88779Y306102D01*
Y302165D01*
X90026D01*
Y301181D01*
X90126Y300679D01*
X90410Y300253D01*
X91513Y299150D01*
X91638Y298521D01*
X92030Y297935D01*
X92616Y297544D01*
X93307Y297406D01*
X93998Y297544D01*
X94584Y297935D01*
X94976Y298521D01*
X95113Y299213D01*
X94976Y299904D01*
X94584Y300490D01*
X93998Y300882D01*
X93370Y301007D01*
X92711Y301665D01*
X92795Y302165D01*
X93898D01*
Y306102D01*
Y307646D01*
X94110Y307858D01*
Y309842D01*
X98016D01*
Y308842D01*
Y307693D01*
X98228Y307480D01*
Y304331D01*
X99475D01*
Y292913D01*
Y291882D01*
X98138Y290545D01*
X97866Y290602D01*
X97638Y290752D01*
Y292028D01*
X97638Y292028D01*
Y295571D01*
X92913D01*
Y295112D01*
X82776D01*
X82273Y295012D01*
X81847Y294727D01*
X78206Y291086D01*
X77921Y290660D01*
X77821Y290157D01*
Y289609D01*
X76751Y289166D01*
X75764Y288409D01*
X75007Y287422D01*
X74531Y286273D01*
X74369Y285039D01*
Y277165D01*
X74531Y275932D01*
X75007Y274783D01*
X75764Y273796D01*
X76751Y273039D01*
X77900Y272563D01*
X79134Y272400D01*
X80367Y272563D01*
X81516Y273039D01*
X82503Y273796D01*
X83261Y274783D01*
X83737Y275932D01*
X83899Y277165D01*
Y285039D01*
X83737Y286273D01*
X83261Y287422D01*
X82503Y288409D01*
X81516Y289166D01*
X80943Y289404D01*
X80826Y289993D01*
X83319Y292487D01*
X92814D01*
X92913Y291987D01*
Y291150D01*
X92913Y290650D01*
X92913Y290650D01*
Y290650D01*
X92913D01*
X92913Y290650D01*
Y287106D01*
X93963D01*
Y279921D01*
X94063Y279419D01*
X94347Y278993D01*
X95922Y277418D01*
X96348Y277134D01*
X96850Y277034D01*
X105512D01*
Y271063D01*
X131283D01*
Y270850D01*
X136508D01*
Y278346D01*
Y285842D01*
X116748D01*
X116535Y285630D01*
X105512D01*
Y279659D01*
X97394D01*
X96588Y280465D01*
Y287106D01*
X97638D01*
Y287565D01*
X98327D01*
X98829Y287665D01*
X99255Y287950D01*
X101716Y290410D01*
X101886Y290666D01*
X102000Y290836D01*
X102100Y291339D01*
Y291601D01*
X146457D01*
X146959Y291701D01*
X147385Y291985D01*
X148783Y293383D01*
X149067Y293809D01*
X149167Y294311D01*
X157047D01*
Y309842D01*
X187402D01*
Y366010D01*
X197488D01*
X204781Y358717D01*
X205206Y358433D01*
X205709Y358333D01*
X230559D01*
X254987Y333905D01*
Y275831D01*
X254630Y275298D01*
X254493Y274606D01*
X254630Y273915D01*
X254987Y273382D01*
Y263976D01*
X254134D01*
Y257283D01*
X254987D01*
Y255906D01*
X255086Y255403D01*
X255371Y254977D01*
X255765Y254584D01*
X256191Y254299D01*
X256693Y254199D01*
X257724D01*
X257936Y253987D01*
X258071Y253543D01*
X258071Y253543D01*
X258071D01*
X258071Y253543D01*
Y248425D01*
X258333D01*
Y245079D01*
X258071D01*
Y239961D01*
X258333D01*
Y239173D01*
X258433Y238671D01*
X258717Y238245D01*
X259111Y237851D01*
X259537Y237567D01*
X260039Y237467D01*
X261024D01*
Y232087D01*
X261089D01*
Y229481D01*
X259102Y227494D01*
X256496D01*
Y227559D01*
X250197D01*
Y227494D01*
X247985D01*
X245023Y230456D01*
X244597Y230740D01*
X244094Y230840D01*
X237051D01*
X236518Y231196D01*
X235827Y231334D01*
X235136Y231196D01*
X234549Y230805D01*
X234158Y230219D01*
X234020Y229528D01*
X234158Y228836D01*
X234549Y228250D01*
X235136Y227859D01*
X235827Y227721D01*
X236518Y227859D01*
X237051Y228215D01*
X243551D01*
X245779Y225987D01*
X245587Y225525D01*
X229284D01*
X224935Y229874D01*
Y285784D01*
X225291Y286317D01*
X225428Y287008D01*
X225291Y287699D01*
X224899Y288285D01*
X224313Y288677D01*
X223622Y288814D01*
X222931Y288677D01*
X222345Y288285D01*
X221953Y287699D01*
X221816Y287008D01*
X221953Y286317D01*
X222309Y285784D01*
Y229331D01*
X222409Y228828D01*
X222694Y228403D01*
X227078Y224019D01*
X226887Y223557D01*
X224166D01*
X212533Y235189D01*
Y282087D01*
X212433Y282589D01*
X212149Y283015D01*
X209786Y285377D01*
X209361Y285662D01*
X208858Y285761D01*
X207677D01*
Y287598D01*
X195866D01*
Y285565D01*
X188386D01*
Y287205D01*
X179331D01*
Y285565D01*
X174606D01*
Y286811D01*
X170307D01*
X170095Y287024D01*
X168807D01*
Y284252D01*
Y281480D01*
X171244D01*
X171457Y281693D01*
X174606D01*
Y282939D01*
X179331D01*
Y281299D01*
Y277362D01*
Y275722D01*
X174606D01*
Y276969D01*
X170307D01*
X170095Y277181D01*
X168807D01*
Y274409D01*
Y271638D01*
X171244D01*
X171457Y271850D01*
X174606D01*
Y273097D01*
X179331D01*
Y271457D01*
X188386D01*
Y272900D01*
X195866D01*
Y270866D01*
X204199D01*
Y230315D01*
X204299Y229813D01*
X204584Y229387D01*
X213889Y220082D01*
X213698Y219620D01*
X211370D01*
X198172Y232818D01*
X197747Y233102D01*
X197244Y233202D01*
X189370D01*
Y243110D01*
X179921D01*
Y233202D01*
X170866D01*
Y234449D01*
X166354D01*
Y234661D01*
X165067D01*
Y231890D01*
Y229118D01*
X167504D01*
X167717Y229331D01*
X170866D01*
Y230577D01*
X179921D01*
Y219882D01*
Y205616D01*
Y195801D01*
X170866D01*
Y197047D01*
X166354D01*
Y197260D01*
X165067D01*
Y194488D01*
Y191717D01*
X167504D01*
X167717Y191929D01*
X170866D01*
Y193175D01*
X179921D01*
Y182480D01*
X189370D01*
Y193175D01*
X201575D01*
X202077Y193275D01*
X202503Y193560D01*
X209786Y200844D01*
X210071Y201269D01*
X210171Y201772D01*
Y213630D01*
X211567Y215026D01*
X218225D01*
X218416Y214564D01*
X215981Y212129D01*
X215697Y211703D01*
X215597Y211201D01*
Y167060D01*
X211867Y163330D01*
X211583Y162904D01*
X211483Y162402D01*
Y157874D01*
X210630D01*
Y155840D01*
X207087D01*
Y157087D01*
X206824D01*
Y160236D01*
X206725Y160739D01*
X206440Y161164D01*
X205849Y161755D01*
X205424Y162039D01*
X204921Y162139D01*
X199016D01*
X198513Y162039D01*
X198088Y161755D01*
X196710Y160377D01*
X196425Y159951D01*
X196325Y159449D01*
Y147573D01*
X190315D01*
Y150197D01*
X154347D01*
Y150409D01*
X149535D01*
Y146260D01*
Y142110D01*
X179905D01*
X180118Y142323D01*
X190315D01*
Y144947D01*
X196325D01*
Y139020D01*
X195969Y138487D01*
X195831Y137795D01*
X195969Y137104D01*
X196361Y136518D01*
X196947Y136126D01*
X197638Y135989D01*
X198329Y136126D01*
X198915Y136518D01*
X199307Y137104D01*
X199444Y137795D01*
X199307Y138487D01*
X198950Y139020D01*
Y151276D01*
X199000Y151756D01*
X200287D01*
Y154528D01*
X201287D01*
Y151756D01*
X203724D01*
X203937Y151969D01*
X207087D01*
Y153215D01*
X210630D01*
Y151181D01*
X222441D01*
Y153215D01*
X230118D01*
X230620Y153315D01*
X231046Y153599D01*
X236135Y158688D01*
X236518Y158764D01*
X237104Y159156D01*
X237496Y159742D01*
X237633Y160433D01*
X237496Y161124D01*
X237139Y161658D01*
Y197244D01*
X239173D01*
Y198491D01*
X240354D01*
X240857Y198590D01*
X241283Y198875D01*
X242276Y199869D01*
X242913D01*
Y199606D01*
X244160D01*
Y178937D01*
X244260Y178435D01*
X244544Y178009D01*
X246238Y176316D01*
X246363Y175687D01*
X246754Y175101D01*
X247340Y174709D01*
X248031Y174572D01*
X248723Y174709D01*
X249309Y175101D01*
X249700Y175687D01*
X249838Y176378D01*
X249700Y177069D01*
X249309Y177655D01*
X248723Y178047D01*
X248094Y178172D01*
X246785Y179481D01*
Y183722D01*
X247285Y183930D01*
X249584Y181631D01*
X249709Y181002D01*
X250101Y180416D01*
X250687Y180024D01*
X251378Y179887D01*
X252069Y180024D01*
X252655Y180416D01*
X253047Y181002D01*
X253184Y181693D01*
X253047Y182384D01*
X252655Y182970D01*
X252069Y183362D01*
X251440Y183487D01*
X249344Y185583D01*
Y196897D01*
X249697Y197250D01*
X249727Y197250D01*
X250197Y197166D01*
Y195276D01*
X252034D01*
Y193547D01*
X251678Y193014D01*
X251540Y192323D01*
X251678Y191631D01*
X252069Y191045D01*
X252655Y190654D01*
X253346Y190516D01*
X254038Y190654D01*
X254624Y191045D01*
X255015Y191631D01*
X255153Y192323D01*
X255015Y193014D01*
X254659Y193547D01*
Y195276D01*
X256496D01*
Y197244D01*
Y199213D01*
Y199278D01*
X258842D01*
X259130Y198778D01*
X259020Y198228D01*
X259158Y197537D01*
X259549Y196951D01*
X260136Y196560D01*
X260764Y196434D01*
X261089Y196110D01*
Y190748D01*
X261024D01*
Y184449D01*
X262780D01*
Y184236D01*
X263870D01*
Y187598D01*
Y190961D01*
X263714D01*
Y196653D01*
X263614Y197156D01*
X263330Y197582D01*
X262621Y198291D01*
X262524Y198778D01*
X262812Y199278D01*
X284102D01*
X285498Y197881D01*
Y196697D01*
X285142Y196164D01*
X285005Y195472D01*
X285142Y194781D01*
X285534Y194195D01*
X285918Y193939D01*
X285766Y193439D01*
X283465D01*
X282962Y193339D01*
X282536Y193054D01*
X281158Y191676D01*
X280874Y191250D01*
X280774Y190748D01*
X265961D01*
Y190961D01*
X264870D01*
Y187598D01*
Y184236D01*
X265026D01*
Y183221D01*
X264623Y182818D01*
X264529Y182677D01*
X263976D01*
X263764Y182890D01*
X261327D01*
Y180118D01*
Y177346D01*
X262614D01*
X262827Y177559D01*
X264239D01*
Y174409D01*
X262827D01*
X262614Y174622D01*
X261327D01*
Y171850D01*
Y169079D01*
X263764D01*
X264239Y168846D01*
Y165988D01*
X263882Y165455D01*
X263745Y164764D01*
X263882Y164073D01*
X264274Y163487D01*
X264860Y163095D01*
X265551Y162957D01*
X266243Y163095D01*
X266494Y163263D01*
X266995Y162996D01*
Y154331D01*
X267094Y153828D01*
X267379Y153402D01*
X271725Y149057D01*
X271518Y148557D01*
X208268D01*
X207765Y148457D01*
X207340Y148172D01*
X203993Y144826D01*
X203709Y144400D01*
X203609Y143898D01*
Y132327D01*
X203252Y131794D01*
X203115Y131102D01*
X203252Y130411D01*
X203644Y129825D01*
X204230Y129434D01*
X204921Y129296D01*
X205612Y129434D01*
X206199Y129825D01*
X206590Y130411D01*
X206728Y131102D01*
X206590Y131794D01*
X206234Y132327D01*
Y143354D01*
X208811Y145931D01*
X307874D01*
X308376Y146031D01*
X308802Y146316D01*
X311573Y149087D01*
X312073Y148880D01*
Y147788D01*
X309496Y145210D01*
X211417D01*
X210915Y145110D01*
X210489Y144826D01*
X208127Y142464D01*
X207842Y142038D01*
X207743Y141535D01*
Y132327D01*
X207386Y131794D01*
X207249Y131102D01*
X207386Y130411D01*
X207778Y129825D01*
X208364Y129434D01*
X209055Y129296D01*
X209746Y129434D01*
X210332Y129825D01*
X210724Y130411D01*
X210861Y131102D01*
X210724Y131794D01*
X210368Y132327D01*
Y140992D01*
X211961Y142585D01*
X227822D01*
X227932Y142085D01*
X227615Y141873D01*
X223009Y137267D01*
X222724Y136841D01*
X222624Y136339D01*
Y126539D01*
X222268Y126006D01*
X222131Y125315D01*
X222268Y124624D01*
X222660Y124038D01*
X223246Y123646D01*
X223937Y123509D01*
X224628Y123646D01*
X225214Y124038D01*
X225606Y124624D01*
X225743Y125315D01*
X225606Y126006D01*
X225250Y126539D01*
Y135795D01*
X229087Y139632D01*
X255636D01*
X255787Y139132D01*
X255765Y139117D01*
X252025Y135377D01*
X251740Y134951D01*
X251640Y134449D01*
Y128587D01*
X251284Y128053D01*
X251146Y127362D01*
X251284Y126671D01*
X251676Y126085D01*
X252261Y125693D01*
X252953Y125556D01*
X253644Y125693D01*
X254230Y126085D01*
X254622Y126671D01*
X254759Y127362D01*
X254622Y128053D01*
X254265Y128587D01*
Y133905D01*
X257237Y136876D01*
X269920D01*
X270072Y136376D01*
X269983Y136317D01*
X269591Y135731D01*
X269454Y135039D01*
X269591Y134348D01*
X269983Y133762D01*
X270569Y133370D01*
X271260Y133233D01*
X271951Y133370D01*
X272484Y133727D01*
X337008D01*
X337510Y133827D01*
X337936Y134111D01*
X340220Y136395D01*
X340849Y136520D01*
X341435Y136912D01*
X341826Y137498D01*
X341964Y138189D01*
X341826Y138880D01*
X341435Y139466D01*
X340849Y139858D01*
X340158Y139995D01*
X339466Y139858D01*
X338880Y139466D01*
X338489Y138880D01*
X338364Y138251D01*
X336464Y136352D01*
X272963D01*
X272945Y136376D01*
X273197Y136876D01*
X314567D01*
X315069Y136976D01*
X315495Y137261D01*
X320219Y141985D01*
X320504Y142411D01*
X320604Y142913D01*
Y197883D01*
X320939Y198105D01*
X321093Y198138D01*
X321325Y197961D01*
Y170276D01*
X321425Y169773D01*
X321710Y169347D01*
X343766Y147291D01*
Y131449D01*
X340145Y127828D01*
X331628D01*
X331124Y128165D01*
X330433Y128302D01*
X329742Y128165D01*
X329156Y127773D01*
X328764Y127187D01*
X328627Y126496D01*
X328764Y125805D01*
X329156Y125219D01*
X329742Y124827D01*
X330433Y124690D01*
X331124Y124827D01*
X331687Y125203D01*
X340689D01*
X341191Y125303D01*
X341617Y125588D01*
X346007Y129977D01*
X346291Y130403D01*
X346391Y130905D01*
Y147835D01*
X346376Y147911D01*
X346837Y148157D01*
X355971Y139023D01*
Y127602D01*
X355615Y127069D01*
X355477Y126378D01*
X355615Y125687D01*
X356006Y125101D01*
X356592Y124709D01*
X357283Y124572D01*
X357975Y124709D01*
X358561Y125101D01*
X358952Y125687D01*
X359090Y126378D01*
X358952Y127069D01*
X358596Y127602D01*
Y139431D01*
X358935Y139625D01*
X359084Y139650D01*
X373973Y124761D01*
X374399Y124476D01*
X374902Y124376D01*
X413835D01*
X414368Y124020D01*
X415059Y123883D01*
X415750Y124020D01*
X416336Y124412D01*
X416728Y124998D01*
X416865Y125689D01*
X416728Y126380D01*
X416362Y126927D01*
X416407Y127122D01*
X416546Y127427D01*
X419141D01*
X420922Y125647D01*
X421348Y125362D01*
X421850Y125262D01*
X464327D01*
X464860Y124906D01*
X465551Y124768D01*
X466242Y124906D01*
X466828Y125297D01*
X467220Y125883D01*
X467357Y126575D01*
X467220Y127266D01*
X466828Y127852D01*
X466242Y128244D01*
X465551Y128381D01*
X464860Y128244D01*
X464327Y127887D01*
X422394D01*
X420613Y129668D01*
X420187Y129953D01*
X419685Y130053D01*
X376331D01*
X335565Y170819D01*
Y202165D01*
X335465Y202668D01*
X335180Y203094D01*
X326912Y211361D01*
X326487Y211646D01*
X325984Y211746D01*
X304134D01*
Y211811D01*
Y212992D01*
Y214961D01*
Y216929D01*
Y216994D01*
X307724D01*
X308245Y216473D01*
X308370Y215844D01*
X308762Y215258D01*
X309348Y214867D01*
X310039Y214729D01*
X310731Y214867D01*
X311317Y215258D01*
X311708Y215844D01*
X311846Y216535D01*
X311708Y217227D01*
X311317Y217813D01*
X310731Y218204D01*
X310102Y218329D01*
X309262Y219169D01*
X309312Y219436D01*
X309446Y219669D01*
X312221D01*
Y220957D01*
X309449D01*
Y221957D01*
X312221D01*
Y223244D01*
X312008Y223457D01*
Y224606D01*
Y224868D01*
X314909D01*
X315142Y224394D01*
Y223244D01*
Y221957D01*
X317913D01*
X320685D01*
Y223244D01*
X320472Y223457D01*
Y224606D01*
Y227756D01*
X319226D01*
Y268504D01*
X319126Y269006D01*
X318842Y269432D01*
X313917Y274356D01*
Y274856D01*
X320613Y281552D01*
X320898Y281978D01*
X320998Y282480D01*
Y290551D01*
X322244D01*
Y295276D01*
X317126D01*
Y294226D01*
X315004D01*
X314471Y294582D01*
X313779Y294720D01*
X313088Y294582D01*
X312502Y294191D01*
X312111Y293605D01*
X311973Y292913D01*
X312111Y292222D01*
X312502Y291636D01*
X313088Y291245D01*
X313779Y291107D01*
X314471Y291245D01*
X315004Y291601D01*
X317126D01*
Y290551D01*
X318372D01*
Y283024D01*
X311749Y276400D01*
X311120Y276275D01*
X310534Y275884D01*
X310142Y275298D01*
X310005Y274606D01*
X310142Y273915D01*
X310534Y273329D01*
X311120Y272937D01*
X311749Y272812D01*
X316601Y267960D01*
Y227756D01*
X315354D01*
Y227494D01*
X312008D01*
Y227756D01*
X306890D01*
Y227494D01*
X304134D01*
Y227559D01*
X298036D01*
X297825Y228055D01*
X297975Y228206D01*
X298260Y228631D01*
X298360Y229134D01*
Y238826D01*
X302503Y242969D01*
X302787Y243395D01*
X302887Y243898D01*
Y276425D01*
X306252Y279790D01*
X311374D01*
X311907Y279433D01*
X312598Y279296D01*
X313290Y279433D01*
X313876Y279825D01*
X314267Y280411D01*
X314405Y281102D01*
X314267Y281794D01*
X313876Y282380D01*
X313290Y282771D01*
X312598Y282909D01*
X311907Y282771D01*
X311374Y282415D01*
X305709D01*
X305206Y282315D01*
X304781Y282031D01*
X300647Y277897D01*
X300362Y277471D01*
X300262Y276969D01*
Y244441D01*
X298543Y242722D01*
X298155Y243041D01*
X298260Y243198D01*
X298360Y243701D01*
Y288039D01*
X301528Y291207D01*
X302362D01*
X302865Y291307D01*
X303290Y291592D01*
X305653Y293954D01*
X305937Y294380D01*
X306037Y294882D01*
Y296654D01*
X307283D01*
Y301378D01*
Y304134D01*
Y305183D01*
X324213D01*
Y304331D01*
X330906D01*
Y308465D01*
Y311811D01*
Y316142D01*
X324213D01*
Y315289D01*
X316579D01*
X316046Y315645D01*
X315354Y315783D01*
X314663Y315645D01*
X314077Y315254D01*
X313685Y314668D01*
X313548Y313976D01*
X313685Y313285D01*
X314077Y312699D01*
X314663Y312308D01*
X315354Y312170D01*
X316046Y312308D01*
X316579Y312664D01*
X324213D01*
Y311811D01*
Y308661D01*
Y307809D01*
X307283D01*
Y308858D01*
X302165D01*
Y305118D01*
X294291D01*
Y304029D01*
X293986Y303969D01*
X293560Y303684D01*
X293166Y303290D01*
X292882Y302865D01*
X292782Y302362D01*
Y292957D01*
X292426Y292424D01*
X292288Y291732D01*
X292426Y291041D01*
X292817Y290455D01*
X293403Y290063D01*
X294094Y289926D01*
X294786Y290063D01*
X295372Y290455D01*
X295763Y291041D01*
X295901Y291732D01*
X295763Y292424D01*
X295407Y292957D01*
Y300394D01*
X302165D01*
Y296654D01*
X303412D01*
Y295426D01*
X301818Y293832D01*
X300984D01*
X300482Y293732D01*
X300056Y293448D01*
X296119Y289511D01*
X295834Y289085D01*
X295735Y288583D01*
Y244245D01*
X293363Y241873D01*
X293079Y241447D01*
X292979Y240945D01*
Y238386D01*
X291273D01*
Y306346D01*
X291795Y306868D01*
X292424Y306993D01*
X293010Y307384D01*
X293401Y307970D01*
X293539Y308661D01*
X293401Y309353D01*
X293010Y309939D01*
X292424Y310330D01*
X291732Y310468D01*
X291041Y310330D01*
X290455Y309939D01*
X290063Y309353D01*
X289990Y308982D01*
X289805Y308870D01*
X289305Y309152D01*
Y313433D01*
X297788Y321916D01*
X313198D01*
X313395Y321416D01*
X313095Y320967D01*
X312957Y320276D01*
X313095Y319584D01*
X313487Y318998D01*
X314072Y318607D01*
X314764Y318469D01*
X315455Y318607D01*
X315988Y318963D01*
X336661D01*
X337664Y317960D01*
Y315945D01*
X335630D01*
Y311614D01*
Y308465D01*
Y304134D01*
X337664D01*
Y299363D01*
X336267Y297966D01*
X330118D01*
Y299016D01*
X325000D01*
Y294291D01*
X330118D01*
Y295341D01*
X336811D01*
X337313Y295441D01*
X337739Y295725D01*
X339904Y297891D01*
X340189Y298317D01*
X340289Y298819D01*
Y304134D01*
X342323D01*
Y308465D01*
Y311614D01*
Y315945D01*
X340289D01*
Y318504D01*
X340189Y319006D01*
X339905Y319432D01*
X338133Y321204D01*
X337707Y321488D01*
X337205Y321588D01*
X330249D01*
X330138Y322088D01*
X330456Y322300D01*
X334786Y326631D01*
X335071Y327057D01*
X335171Y327559D01*
Y351181D01*
X337205D01*
Y355512D01*
Y358661D01*
Y362992D01*
X335171D01*
Y376630D01*
X335765Y376876D01*
X336587Y377507D01*
X337218Y378329D01*
X337615Y379287D01*
X337751Y380315D01*
Y381890D01*
X337615Y382917D01*
X337218Y383875D01*
X336587Y384698D01*
X335765Y385329D01*
X334807Y385725D01*
X333780Y385861D01*
X332752Y385725D01*
X331794Y385329D01*
X330972Y384698D01*
X330341Y383875D01*
X329944Y382917D01*
X329809Y381890D01*
Y380315D01*
X329944Y379287D01*
X330341Y378329D01*
X330972Y377507D01*
X331794Y376876D01*
X332546Y376565D01*
Y362992D01*
X330512D01*
Y358661D01*
Y355512D01*
Y351181D01*
X332546D01*
Y328103D01*
X328984Y324541D01*
X319624D01*
X319417Y325041D01*
X324944Y330568D01*
X325229Y330994D01*
X325328Y331496D01*
Y335039D01*
X327362D01*
Y339370D01*
Y342520D01*
Y346850D01*
X325328D01*
Y376695D01*
X325765Y376876D01*
X326587Y377507D01*
X327219Y378329D01*
X327615Y379287D01*
X327750Y380315D01*
Y381890D01*
X327615Y382917D01*
X327219Y383875D01*
X326587Y384698D01*
X325765Y385329D01*
X324807Y385725D01*
X323780Y385861D01*
X322752Y385725D01*
X321794Y385329D01*
X320972Y384698D01*
X320341Y383875D01*
X319944Y382917D01*
X319809Y381890D01*
Y380315D01*
X319944Y379287D01*
X320341Y378329D01*
X320972Y377507D01*
X321794Y376876D01*
X322703Y376499D01*
Y346850D01*
X320669D01*
Y342520D01*
Y339370D01*
Y335039D01*
X322703D01*
Y332040D01*
X317566Y326903D01*
X310569D01*
X310362Y327403D01*
X314708Y331749D01*
X314992Y332175D01*
X315092Y332677D01*
Y351181D01*
X317126D01*
Y355512D01*
Y358661D01*
Y362992D01*
X315092D01*
Y376597D01*
X315765Y376876D01*
X316587Y377507D01*
X317218Y378329D01*
X317615Y379287D01*
X317751Y380315D01*
Y381890D01*
X317615Y382917D01*
X317218Y383875D01*
X316587Y384698D01*
X315765Y385329D01*
X314807Y385725D01*
X313779Y385861D01*
X312752Y385725D01*
X311794Y385329D01*
X310972Y384698D01*
X310341Y383875D01*
X309944Y382917D01*
X309809Y381890D01*
Y380315D01*
X309944Y379287D01*
X310341Y378329D01*
X310972Y377507D01*
X311794Y376876D01*
X312467Y376597D01*
Y362992D01*
X310433D01*
Y358661D01*
Y355512D01*
Y351181D01*
X312467D01*
Y333221D01*
X308511Y329265D01*
X302695D01*
X302488Y329765D01*
X304865Y332143D01*
X305150Y332569D01*
X305250Y333071D01*
Y335039D01*
X307283D01*
Y339370D01*
Y342520D01*
Y346850D01*
X305250D01*
Y376662D01*
X305765Y376876D01*
X306587Y377507D01*
X307219Y378329D01*
X307615Y379287D01*
X307751Y380315D01*
Y381890D01*
X307615Y382917D01*
X307219Y383875D01*
X306587Y384698D01*
X305765Y385329D01*
X304807Y385725D01*
X303780Y385861D01*
X302752Y385725D01*
X301794Y385329D01*
X300972Y384698D01*
X300341Y383875D01*
X299944Y382917D01*
X299809Y381890D01*
Y380315D01*
X299944Y379287D01*
X300341Y378329D01*
X300972Y377507D01*
X301794Y376876D01*
X302624Y376532D01*
Y346850D01*
X300591D01*
Y342520D01*
Y339370D01*
Y335039D01*
X302624D01*
Y333615D01*
X300637Y331628D01*
X291339D01*
X291263Y331612D01*
X291016Y332073D01*
X294629Y335686D01*
X294914Y336112D01*
X295013Y336614D01*
Y351181D01*
X297047D01*
Y355512D01*
Y358661D01*
Y362992D01*
X295092D01*
Y376597D01*
X295765Y376876D01*
X296587Y377507D01*
X297218Y378329D01*
X297615Y379287D01*
X297750Y380315D01*
Y381890D01*
X297615Y382917D01*
X297218Y383875D01*
X296587Y384698D01*
X295765Y385329D01*
X294807Y385725D01*
X293779Y385861D01*
X292752Y385725D01*
X291794Y385329D01*
X290972Y384698D01*
X290341Y383875D01*
X289944Y382917D01*
X289809Y381890D01*
Y380315D01*
X289944Y379287D01*
X290341Y378329D01*
X290972Y377507D01*
X291794Y376876D01*
X292467Y376597D01*
Y362992D01*
X290354D01*
Y358661D01*
Y355512D01*
Y351181D01*
X292388D01*
Y337158D01*
X285671Y330441D01*
X285171Y330648D01*
Y335039D01*
X287205D01*
Y339370D01*
Y342520D01*
Y346850D01*
X285171D01*
Y376630D01*
X285765Y376876D01*
X286587Y377507D01*
X287218Y378329D01*
X287615Y379287D01*
X287751Y380315D01*
Y381890D01*
X287615Y382917D01*
X287218Y383875D01*
X286587Y384698D01*
X285765Y385329D01*
X284807Y385725D01*
X283780Y385861D01*
X282752Y385725D01*
X281794Y385329D01*
X280972Y384698D01*
X280341Y383875D01*
X279944Y382917D01*
X279809Y381890D01*
Y380315D01*
X279944Y379287D01*
X280341Y378329D01*
X280972Y377507D01*
X281794Y376876D01*
X282546Y376565D01*
Y346850D01*
X280512D01*
Y342520D01*
Y339370D01*
Y335039D01*
X282546D01*
Y330859D01*
X277956Y326269D01*
X277494Y326460D01*
Y332874D01*
X277394Y333376D01*
X277109Y333802D01*
X274935Y335977D01*
Y351181D01*
X276969D01*
Y355512D01*
Y358661D01*
Y362992D01*
X275092D01*
Y376597D01*
X275765Y376876D01*
X276587Y377507D01*
X277219Y378329D01*
X277615Y379287D01*
X277750Y380315D01*
Y381890D01*
X277615Y382917D01*
X277219Y383875D01*
X276587Y384698D01*
X275765Y385329D01*
X274807Y385725D01*
X273780Y385861D01*
X272752Y385725D01*
X271794Y385329D01*
X270972Y384698D01*
X270341Y383875D01*
X269944Y382917D01*
X269809Y381890D01*
Y380315D01*
X269944Y379287D01*
X270341Y378329D01*
X270972Y377507D01*
X271794Y376876D01*
X272467Y376597D01*
Y362992D01*
X270276D01*
Y358661D01*
Y355512D01*
Y351181D01*
X272309D01*
Y335433D01*
X272409Y334931D01*
X272694Y334505D01*
X274868Y332330D01*
Y330791D01*
X274407Y330599D01*
X265092Y339914D01*
Y376597D01*
X265765Y376876D01*
X266587Y377507D01*
X267218Y378329D01*
X267615Y379287D01*
X267751Y380315D01*
Y381890D01*
X267615Y382917D01*
X267218Y383875D01*
X266587Y384698D01*
X265765Y385329D01*
X264807Y385725D01*
X263779Y385861D01*
X262752Y385725D01*
X261794Y385329D01*
X260972Y384698D01*
X260341Y383875D01*
X259944Y382917D01*
X259809Y381890D01*
Y380315D01*
X259944Y379287D01*
X260341Y378329D01*
X260972Y377507D01*
X261794Y376876D01*
X262467Y376597D01*
Y339370D01*
X262567Y338868D01*
X262851Y338442D01*
X272900Y328393D01*
Y326460D01*
X272438Y326269D01*
X245092Y353615D01*
Y376597D01*
X245765Y376876D01*
X246587Y377507D01*
X247218Y378329D01*
X247615Y379287D01*
X247750Y380315D01*
Y381890D01*
X247615Y382917D01*
X247218Y383875D01*
X246587Y384698D01*
X245765Y385329D01*
X244807Y385725D01*
X243779Y385861D01*
X242752Y385725D01*
X241794Y385329D01*
X240972Y384698D01*
X240341Y383875D01*
X239944Y382917D01*
X239809Y381890D01*
Y380315D01*
X239944Y379287D01*
X240341Y378329D01*
X240972Y377507D01*
X241794Y376876D01*
X242467Y376597D01*
Y353071D01*
X242567Y352569D01*
X242851Y352143D01*
X270932Y324063D01*
Y260318D01*
X270469Y260127D01*
X269038Y261558D01*
X268613Y261843D01*
X268110Y261943D01*
X265945D01*
Y263976D01*
X257612D01*
Y273382D01*
X257968Y273915D01*
X258106Y274606D01*
X257968Y275298D01*
X257612Y275831D01*
Y334449D01*
X257512Y334951D01*
X257227Y335377D01*
X232031Y360574D01*
X231605Y360858D01*
X231102Y360958D01*
X206252D01*
X198960Y368251D01*
X198534Y368535D01*
X198031Y368635D01*
X188204D01*
Y393701D01*
X188205Y393701D01*
X550394Y393735D01*
X550394D01*
X551421Y393599D01*
D02*
G37*
G36*
X3903Y393701D02*
Y393701D01*
X95260D01*
X95260Y393701D01*
Y311943D01*
X95276Y311864D01*
X95167Y311843D01*
X94741Y311558D01*
X94535Y311352D01*
X93898D01*
Y312008D01*
X88779D01*
Y311352D01*
X57454D01*
Y322736D01*
X60079D01*
Y338090D01*
X57454D01*
Y343071D01*
X57354Y343573D01*
X57070Y343999D01*
X54275Y346794D01*
X53849Y347079D01*
X53347Y347179D01*
X36811D01*
Y348425D01*
X34777D01*
Y351969D01*
X36811D01*
Y357087D01*
Y359024D01*
X37024Y359236D01*
Y361508D01*
X33465D01*
Y362508D01*
X37024D01*
Y364779D01*
X34777D01*
Y367173D01*
X36114Y368510D01*
Y370366D01*
X34258D01*
X32536Y368645D01*
X32252Y368219D01*
X32152Y367717D01*
Y364779D01*
X29906D01*
Y363320D01*
X28937D01*
X28435Y363221D01*
X28009Y362936D01*
X27409Y362336D01*
X26197D01*
Y364583D01*
X24319D01*
Y361024D01*
Y357465D01*
X26197D01*
Y359711D01*
X27953D01*
X28455Y359811D01*
X28881Y360096D01*
X29406Y360620D01*
X29906Y360514D01*
Y359236D01*
Y357299D01*
X30118Y357087D01*
Y355840D01*
X27756D01*
X27254Y355740D01*
X26828Y355456D01*
X24675Y353303D01*
X24213Y353494D01*
Y353740D01*
X17651D01*
Y357677D01*
X21441D01*
Y357465D01*
X23319D01*
Y361024D01*
Y364583D01*
X21441D01*
X21228Y364370D01*
X14173D01*
Y357677D01*
X15026D01*
Y353740D01*
X14370D01*
Y348622D01*
X24213D01*
Y349868D01*
X24409D01*
X24912Y349968D01*
X25338Y350253D01*
X28300Y353215D01*
X30118D01*
Y351969D01*
X32152D01*
Y348425D01*
X30118D01*
Y343307D01*
Y340945D01*
Y335827D01*
X32152D01*
Y331539D01*
X31796Y331006D01*
X31658Y330315D01*
X31796Y329624D01*
X32187Y329038D01*
X32773Y328646D01*
X33465Y328509D01*
X34156Y328646D01*
X34742Y329038D01*
X35133Y329624D01*
X35271Y330315D01*
X35133Y331006D01*
X34777Y331539D01*
Y335827D01*
X36811D01*
Y340945D01*
Y343307D01*
Y344553D01*
X52803D01*
X54829Y342527D01*
Y338090D01*
X52205D01*
Y322736D01*
X54829D01*
Y310039D01*
Y309922D01*
X54816Y309856D01*
X54750Y309842D01*
X0D01*
X-34Y349247D01*
X-68Y389764D01*
X67Y390792D01*
X464Y391749D01*
X1095Y392572D01*
X1918Y393203D01*
X2875Y393600D01*
X3869Y393730D01*
X3903Y393701D01*
D02*
G37*
G36*
X223338Y212596D02*
X219741Y208999D01*
X219457Y208573D01*
X219357Y208071D01*
Y178543D01*
X219457Y178041D01*
X219741Y177615D01*
X227340Y170016D01*
X227465Y169387D01*
X227857Y168801D01*
X228443Y168410D01*
X229134Y168272D01*
X229825Y168410D01*
X230411Y168801D01*
X230803Y169387D01*
X230940Y170079D01*
X230803Y170770D01*
X230411Y171356D01*
X229825Y171748D01*
X229196Y171873D01*
X221982Y179087D01*
Y207527D01*
X225544Y211089D01*
X250197D01*
Y211024D01*
Y209055D01*
Y207087D01*
Y206118D01*
X249984D01*
Y205028D01*
X253346D01*
X256830D01*
X257209Y205108D01*
X259111Y203206D01*
X259537Y202921D01*
X260039Y202821D01*
X293067D01*
X293600Y202465D01*
X294291Y202327D01*
X294983Y202465D01*
X295569Y202857D01*
X295960Y203443D01*
X296098Y204134D01*
X295960Y204825D01*
X295569Y205411D01*
X294983Y205803D01*
X294291Y205940D01*
X293600Y205803D01*
X293411Y205677D01*
X293224Y205721D01*
X292811Y206002D01*
X292936Y206630D01*
X297335Y211030D01*
X297364Y211029D01*
X297835Y210945D01*
Y209055D01*
Y207087D01*
Y205118D01*
Y203150D01*
Y201181D01*
Y199213D01*
Y197244D01*
Y195276D01*
X304134D01*
Y195341D01*
X306543D01*
X309711Y192173D01*
Y185592D01*
X309211Y185440D01*
X309151Y185529D01*
X308565Y185921D01*
X307874Y186058D01*
X307183Y185921D01*
X306597Y185529D01*
X306205Y184943D01*
X306080Y184314D01*
X302615Y180849D01*
X302600Y180827D01*
X302100Y180979D01*
Y182527D01*
X304393Y184820D01*
X305022Y184945D01*
X305608Y185337D01*
X306000Y185923D01*
X306137Y186614D01*
X306000Y187305D01*
X305608Y187891D01*
X305022Y188283D01*
X304331Y188420D01*
X303639Y188283D01*
X303053Y187891D01*
X302662Y187305D01*
X302537Y186677D01*
X299859Y183999D01*
X299575Y183573D01*
X299475Y183071D01*
Y174656D01*
X298975Y174504D01*
X298871Y174659D01*
X298215Y175098D01*
X297941Y175152D01*
Y173228D01*
Y171305D01*
X298215Y171359D01*
X298871Y171798D01*
X298975Y171952D01*
X299475Y171801D01*
Y159599D01*
X298275Y158399D01*
X295893D01*
X295820Y158492D01*
X295928Y159165D01*
X296061Y159254D01*
X296452Y159840D01*
X296590Y160531D01*
X296452Y161223D01*
X296061Y161809D01*
X295475Y162200D01*
X294846Y162325D01*
X289305Y167867D01*
Y184236D01*
X289461D01*
Y187598D01*
X290461D01*
Y184236D01*
X290616D01*
Y176772D01*
X290716Y176269D01*
X291001Y175844D01*
X291395Y175450D01*
X291821Y175165D01*
X292323Y175065D01*
X292870D01*
X293403Y174709D01*
X294094Y174572D01*
X294786Y174709D01*
X295372Y175101D01*
X295763Y175687D01*
X295901Y176378D01*
X295763Y177069D01*
X295372Y177655D01*
X294786Y178047D01*
X294094Y178184D01*
X293742Y178114D01*
X293242Y178495D01*
Y184449D01*
X293307D01*
Y190748D01*
X293780Y190813D01*
X298669D01*
X299781Y189701D01*
X299906Y189073D01*
X300297Y188487D01*
X300884Y188095D01*
X301575Y187957D01*
X302266Y188095D01*
X302852Y188487D01*
X303244Y189073D01*
X303381Y189764D01*
X303244Y190455D01*
X302852Y191041D01*
X302266Y191433D01*
X301637Y191558D01*
X300141Y193054D01*
X299715Y193339D01*
X299213Y193439D01*
X287856D01*
X287704Y193939D01*
X288088Y194195D01*
X288480Y194781D01*
X288617Y195472D01*
X288480Y196164D01*
X288124Y196697D01*
Y198425D01*
X288024Y198927D01*
X287739Y199353D01*
X285574Y201519D01*
X285148Y201803D01*
X284646Y201903D01*
X256496D01*
Y201969D01*
Y202937D01*
X256709D01*
Y204028D01*
X253346D01*
X249984D01*
Y203869D01*
X249498Y203772D01*
X249072Y203487D01*
X248744Y203159D01*
X248244Y203367D01*
Y204118D01*
Y205405D01*
X245472D01*
X242701D01*
Y204118D01*
X242913Y203906D01*
Y202756D01*
Y202494D01*
X241732D01*
X241230Y202394D01*
X240804Y202109D01*
X239811Y201116D01*
X239173D01*
Y201899D01*
X239370Y202362D01*
X239386Y202378D01*
X239386Y202880D01*
Y204512D01*
Y206783D01*
X235827D01*
X232268D01*
Y204512D01*
Y202575D01*
X232480Y202362D01*
Y197244D01*
X234514D01*
Y161658D01*
X234158Y161124D01*
X234020Y160433D01*
X234045Y160310D01*
X229574Y155840D01*
X222441D01*
Y157874D01*
X214108D01*
Y161858D01*
X217838Y165588D01*
X218122Y166013D01*
X218222Y166516D01*
Y210657D01*
X220622Y213057D01*
X223146D01*
X223338Y212596D01*
D02*
G37*
G36*
X168413Y357465D02*
X170291D01*
X170504Y357677D01*
X174081D01*
Y353740D01*
X167520D01*
Y352494D01*
X161614D01*
Y357087D01*
Y359024D01*
X161827Y359236D01*
Y360514D01*
X162327Y360620D01*
X162851Y360096D01*
X163277Y359811D01*
X163779Y359711D01*
X165535D01*
Y357465D01*
X167413D01*
Y361024D01*
X168413D01*
Y357465D01*
D02*
G37*
%LPC*%
G36*
X445642Y78240D02*
X443567D01*
Y75378D01*
X445642D01*
Y78240D01*
D02*
G37*
G36*
X286587D02*
X284512D01*
Y75378D01*
X286587D01*
Y78240D01*
D02*
G37*
G36*
X448716D02*
X446642D01*
Y75378D01*
X448716D01*
Y78240D01*
D02*
G37*
G36*
X236512D02*
X234437D01*
Y75378D01*
X236512D01*
Y78240D01*
D02*
G37*
G36*
X395764Y78240D02*
X393689D01*
Y75378D01*
X395764D01*
Y78240D01*
D02*
G37*
G36*
X339933Y78240D02*
X337858D01*
Y75378D01*
X339933D01*
Y78240D01*
D02*
G37*
G36*
X343008D02*
X340933D01*
Y75378D01*
X343008D01*
Y78240D01*
D02*
G37*
G36*
X392689Y78240D02*
X390614D01*
Y75378D01*
X392689D01*
Y78240D01*
D02*
G37*
G36*
X289661Y78240D02*
X287587D01*
Y75378D01*
X289661D01*
Y78240D01*
D02*
G37*
G36*
X445642Y82102D02*
X443567D01*
Y79240D01*
X445642D01*
Y82102D01*
D02*
G37*
G36*
X286587D02*
X284512D01*
Y79240D01*
X286587D01*
Y82102D01*
D02*
G37*
G36*
X127728D02*
X125654D01*
Y79240D01*
X127728D01*
Y82102D01*
D02*
G37*
G36*
X233437D02*
X231362D01*
Y79240D01*
X233437D01*
Y82102D01*
D02*
G37*
G36*
X180484D02*
X178409D01*
Y79240D01*
X180484D01*
Y82102D01*
D02*
G37*
G36*
X502260D02*
X500185D01*
Y79240D01*
X502260D01*
Y82102D01*
D02*
G37*
G36*
Y78240D02*
X500185D01*
Y75378D01*
X502260D01*
Y78240D01*
D02*
G37*
G36*
X499185D02*
X497110D01*
Y75378D01*
X499185D01*
Y78240D01*
D02*
G37*
G36*
X339933Y82102D02*
X337858D01*
Y79240D01*
X339933D01*
Y82102D01*
D02*
G37*
G36*
X499185D02*
X497110D01*
Y79240D01*
X499185D01*
Y82102D01*
D02*
G37*
G36*
X343008D02*
X340933D01*
Y79240D01*
X343008D01*
Y82102D01*
D02*
G37*
G36*
X233437Y58480D02*
X231362D01*
Y55618D01*
X233437D01*
Y58480D01*
D02*
G37*
G36*
X180484D02*
X178409D01*
Y55618D01*
X180484D01*
Y58480D01*
D02*
G37*
G36*
X286587D02*
X284512D01*
Y55618D01*
X286587D01*
Y58480D01*
D02*
G37*
G36*
X130803D02*
X128728D01*
Y55618D01*
X130803D01*
Y58480D01*
D02*
G37*
G36*
X445642D02*
X443567D01*
Y55618D01*
X445642D01*
Y58480D01*
D02*
G37*
G36*
X127728D02*
X125654D01*
Y55618D01*
X127728D01*
Y58480D01*
D02*
G37*
G36*
X339933D02*
X337858D01*
Y55618D01*
X339933D01*
Y58480D01*
D02*
G37*
G36*
X535827Y58122D02*
X535539D01*
Y54437D01*
X539946D01*
X539870Y55020D01*
X539452Y56030D01*
X538786Y56897D01*
X537920Y57562D01*
X536910Y57980D01*
X535827Y58122D01*
D02*
G37*
G36*
X343008Y58480D02*
X340933D01*
Y55618D01*
X343008D01*
Y58480D01*
D02*
G37*
G36*
X502260D02*
X500185D01*
Y55618D01*
X502260D01*
Y58480D01*
D02*
G37*
G36*
X499185D02*
X497110D01*
Y55618D01*
X499185D01*
Y58480D01*
D02*
G37*
G36*
X183559D02*
X181484D01*
Y55618D01*
X183559D01*
Y58480D01*
D02*
G37*
G36*
X130803Y78240D02*
X128728D01*
Y75378D01*
X130803D01*
Y78240D01*
D02*
G37*
G36*
X127728D02*
X125654D01*
Y75378D01*
X127728D01*
Y78240D01*
D02*
G37*
G36*
X180484D02*
X178409D01*
Y75378D01*
X180484D01*
Y78240D01*
D02*
G37*
G36*
X233437D02*
X231362D01*
Y75378D01*
X233437D01*
Y78240D01*
D02*
G37*
G36*
X183559D02*
X181484D01*
Y75378D01*
X183559D01*
Y78240D01*
D02*
G37*
G36*
X78347Y80370D02*
X77619Y80275D01*
X76941Y79994D01*
X76358Y79547D01*
X75912Y78965D01*
X75631Y78287D01*
X75535Y77559D01*
X75631Y76831D01*
X75912Y76153D01*
X76358Y75571D01*
X76941Y75124D01*
X77619Y74843D01*
X78347Y74748D01*
X79074Y74843D01*
X79752Y75124D01*
X80335Y75571D01*
X80781Y76153D01*
X81062Y76831D01*
X81158Y77559D01*
X81062Y78287D01*
X80781Y78965D01*
X80335Y79547D01*
X79752Y79994D01*
X79074Y80275D01*
X78347Y80370D01*
D02*
G37*
G36*
X289661Y58480D02*
X287587D01*
Y55618D01*
X289661D01*
Y58480D01*
D02*
G37*
G36*
X236512D02*
X234437D01*
Y55618D01*
X236512D01*
Y58480D01*
D02*
G37*
G36*
X448716D02*
X446642D01*
Y55618D01*
X448716D01*
Y58480D01*
D02*
G37*
G36*
X395764D02*
X393689D01*
Y55618D01*
X395764D01*
Y58480D01*
D02*
G37*
G36*
X392689D02*
X390614D01*
Y55618D01*
X392689D01*
Y58480D01*
D02*
G37*
G36*
X370563Y98835D02*
X368488D01*
Y96563D01*
X370563D01*
Y98835D01*
D02*
G37*
G36*
X480134Y98638D02*
X478059D01*
Y96366D01*
X480134D01*
Y98638D01*
D02*
G37*
G36*
X373638Y98835D02*
X371563D01*
Y96563D01*
X373638D01*
Y98835D01*
D02*
G37*
G36*
X539946Y103437D02*
X535539D01*
Y99752D01*
X535827D01*
X536910Y99894D01*
X537920Y100312D01*
X538786Y100978D01*
X539452Y101844D01*
X539870Y102854D01*
X539946Y103437D01*
D02*
G37*
G36*
X534539D02*
X530132D01*
X530209Y102854D01*
X530627Y101844D01*
X531292Y100978D01*
X532159Y100312D01*
X533169Y99894D01*
X534252Y99752D01*
X534539D01*
Y103437D01*
D02*
G37*
G36*
X477059Y98638D02*
X474984D01*
Y96366D01*
X477059D01*
Y98638D01*
D02*
G37*
G36*
X317807D02*
X315732D01*
Y96366D01*
X317807D01*
Y98638D01*
D02*
G37*
G36*
X267535D02*
X265461D01*
Y96366D01*
X267535D01*
Y98638D01*
D02*
G37*
G36*
X320882D02*
X318807D01*
Y96366D01*
X320882D01*
Y98638D01*
D02*
G37*
G36*
X426591D02*
X424516D01*
Y96366D01*
X426591D01*
Y98638D01*
D02*
G37*
G36*
X423516D02*
X421441D01*
Y96366D01*
X423516D01*
Y98638D01*
D02*
G37*
G36*
X265461Y122790D02*
Y121366D01*
X266884D01*
X266830Y121640D01*
X266391Y122297D01*
X265735Y122735D01*
X265461Y122790D01*
D02*
G37*
G36*
X264461D02*
X264186Y122735D01*
X263530Y122297D01*
X263091Y121640D01*
X263037Y121366D01*
X264461D01*
Y122790D01*
D02*
G37*
G36*
X308083Y127059D02*
X304397D01*
Y126772D01*
X304540Y125688D01*
X304958Y124679D01*
X305623Y123812D01*
X306490Y123147D01*
X307499Y122729D01*
X308083Y122652D01*
Y127059D01*
D02*
G37*
G36*
X298583Y132317D02*
X297555Y132182D01*
X296597Y131785D01*
X295775Y131154D01*
X295144Y130332D01*
X294747Y129374D01*
X294612Y128347D01*
Y126772D01*
X294747Y125744D01*
X295144Y124786D01*
X295775Y123964D01*
X296597Y123333D01*
X297555Y122936D01*
X298583Y122801D01*
X299610Y122936D01*
X300568Y123333D01*
X301391Y123964D01*
X302022Y124786D01*
X302418Y125744D01*
X302554Y126772D01*
Y128347D01*
X302418Y129374D01*
X302022Y130332D01*
X301391Y131154D01*
X300568Y131785D01*
X299610Y132182D01*
X298583Y132317D01*
D02*
G37*
G36*
X312768Y127059D02*
X309083D01*
Y122652D01*
X309666Y122729D01*
X310675Y123147D01*
X311542Y123812D01*
X312207Y124679D01*
X312626Y125688D01*
X312768Y126772D01*
Y127059D01*
D02*
G37*
G36*
X475000Y214011D02*
X474309Y213874D01*
X473723Y213482D01*
X473331Y212896D01*
X473194Y212205D01*
X473331Y211513D01*
X473687Y210980D01*
Y182677D01*
X473787Y182175D01*
X474072Y181749D01*
X479987Y175834D01*
Y134646D01*
X480087Y134143D01*
X480371Y133718D01*
X487458Y126631D01*
X487884Y126346D01*
X488386Y126246D01*
X510086D01*
X515813Y120519D01*
Y116929D01*
X515913Y116427D01*
X516198Y116001D01*
X517970Y114229D01*
X518395Y113945D01*
X518898Y113845D01*
X519882D01*
Y112992D01*
X526575D01*
Y113845D01*
X527212D01*
X528048Y113009D01*
X528474Y112724D01*
X528976Y112624D01*
X530534D01*
X530813Y111951D01*
X531444Y111129D01*
X532267Y110498D01*
X533224Y110101D01*
X534252Y109966D01*
X535827D01*
X536855Y110101D01*
X537812Y110498D01*
X538635Y111129D01*
X539266Y111951D01*
X539662Y112909D01*
X539798Y113937D01*
X539662Y114965D01*
X539266Y115922D01*
X538635Y116745D01*
X537812Y117376D01*
X536855Y117773D01*
X535827Y117908D01*
X534252D01*
X533224Y117773D01*
X532267Y117376D01*
X531444Y116745D01*
X530813Y115922D01*
X530534Y115250D01*
X529520D01*
X528684Y116086D01*
X528258Y116370D01*
X527756Y116470D01*
X526575D01*
Y117323D01*
Y120472D01*
Y121325D01*
X527559D01*
X528061Y121425D01*
X528487Y121710D01*
X529402Y122624D01*
X530534D01*
X530813Y121951D01*
X531444Y121129D01*
X532267Y120498D01*
X533224Y120101D01*
X534252Y119966D01*
X535827D01*
X536855Y120101D01*
X537812Y120498D01*
X538635Y121129D01*
X539266Y121951D01*
X539662Y122909D01*
X539798Y123937D01*
X539662Y124965D01*
X539266Y125923D01*
X538635Y126745D01*
X537812Y127376D01*
X536855Y127773D01*
X535827Y127908D01*
X534252D01*
X533224Y127773D01*
X532267Y127376D01*
X531444Y126745D01*
X530813Y125923D01*
X530534Y125250D01*
X528858D01*
X528356Y125150D01*
X527930Y124865D01*
X527075Y124010D01*
X526575Y124094D01*
Y124803D01*
X524541D01*
Y201772D01*
X524441Y202274D01*
X524157Y202700D01*
X520810Y206046D01*
X520384Y206331D01*
X519882Y206431D01*
X506299D01*
X505797Y206331D01*
X505371Y206046D01*
X501828Y202503D01*
X501543Y202077D01*
X501443Y201575D01*
Y192760D01*
X501087Y192227D01*
X500949Y191535D01*
X501087Y190844D01*
X501479Y190258D01*
X502065Y189867D01*
X502756Y189729D01*
X503447Y189867D01*
X504033Y190258D01*
X504425Y190844D01*
X504562Y191535D01*
X504425Y192227D01*
X504069Y192760D01*
Y201031D01*
X506843Y203805D01*
X519338D01*
X521916Y201228D01*
Y124803D01*
X519882D01*
Y120472D01*
Y117323D01*
Y116614D01*
X519382Y116530D01*
X518439Y117473D01*
Y121063D01*
X518339Y121565D01*
X518054Y121991D01*
X511558Y128487D01*
X511132Y128772D01*
X510630Y128872D01*
X488930D01*
X482612Y135189D01*
Y176378D01*
X482512Y176880D01*
X482227Y177306D01*
X476313Y183221D01*
Y210980D01*
X476669Y211513D01*
X476806Y212205D01*
X476669Y212896D01*
X476277Y213482D01*
X475691Y213874D01*
X475000Y214011D01*
D02*
G37*
G36*
X535827Y108122D02*
X535539D01*
Y104437D01*
X539946D01*
X539870Y105020D01*
X539452Y106030D01*
X538786Y106896D01*
X537920Y107562D01*
X536910Y107980D01*
X535827Y108122D01*
D02*
G37*
G36*
X534539D02*
X534252D01*
X533169Y107980D01*
X532159Y107562D01*
X531292Y106896D01*
X530627Y106030D01*
X530209Y105020D01*
X530132Y104437D01*
X534539D01*
Y108122D01*
D02*
G37*
G36*
X309842Y117913D02*
X298031D01*
Y115879D01*
X289807D01*
X289274Y116236D01*
X288583Y116373D01*
X287891Y116236D01*
X287305Y115844D01*
X286914Y115258D01*
X286776Y114567D01*
X286914Y113876D01*
X287305Y113290D01*
X287891Y112898D01*
X288583Y112761D01*
X289274Y112898D01*
X289807Y113254D01*
X298031D01*
Y111221D01*
X306365D01*
Y105678D01*
X306002Y105606D01*
X305416Y105214D01*
X305024Y104628D01*
X304887Y103937D01*
X305024Y103246D01*
X305416Y102660D01*
X306002Y102268D01*
X306693Y102131D01*
X307384Y102268D01*
X307970Y102660D01*
X308362Y103246D01*
X308487Y103875D01*
X308605Y103993D01*
X308890Y104419D01*
X308990Y104921D01*
Y111221D01*
X309842D01*
Y117913D01*
D02*
G37*
G36*
X266884Y120366D02*
X265461D01*
Y118942D01*
X265735Y118997D01*
X266391Y119436D01*
X266830Y120092D01*
X266884Y120366D01*
D02*
G37*
G36*
X264461D02*
X263037D01*
X263091Y120092D01*
X263530Y119436D01*
X264186Y118997D01*
X264461Y118942D01*
Y120366D01*
D02*
G37*
G36*
X264461Y98638D02*
X262386D01*
Y96366D01*
X264461D01*
Y98638D01*
D02*
G37*
G36*
X539764Y87874D02*
X530315D01*
Y85250D01*
X523307D01*
X522805Y85150D01*
X522379Y84865D01*
X521119Y83605D01*
X520834Y83179D01*
X520774Y82874D01*
X518701D01*
Y82021D01*
X518504D01*
X518002Y81921D01*
X517576Y81637D01*
X515410Y79471D01*
X515126Y79046D01*
X515026Y78543D01*
Y66732D01*
X515126Y66230D01*
X515410Y65804D01*
X516985Y64229D01*
X517411Y63945D01*
X517913Y63845D01*
X518701D01*
Y62992D01*
Y59842D01*
Y55512D01*
X525394D01*
Y56365D01*
X526378D01*
X526880Y56464D01*
X527306Y56749D01*
X528881Y58324D01*
X529166Y58750D01*
X529265Y59252D01*
Y61661D01*
X530072Y62468D01*
X530631Y62390D01*
X530813Y61952D01*
X531444Y61129D01*
X532267Y60498D01*
X533224Y60101D01*
X534252Y59966D01*
X535827D01*
X536855Y60101D01*
X537812Y60498D01*
X538635Y61129D01*
X539266Y61952D01*
X539662Y62909D01*
X539798Y63937D01*
X539662Y64965D01*
X539266Y65922D01*
X538635Y66745D01*
X537812Y67376D01*
X536855Y67773D01*
X535827Y67908D01*
X534252D01*
X533224Y67773D01*
X532267Y67376D01*
X531444Y66745D01*
X530813Y65922D01*
X530534Y65250D01*
X529685D01*
X529183Y65150D01*
X528757Y64865D01*
X527025Y63133D01*
X526740Y62707D01*
X526640Y62205D01*
Y59796D01*
X525894Y59049D01*
X525394Y59133D01*
Y59842D01*
Y62992D01*
Y67323D01*
X518701D01*
Y66934D01*
X518201Y66726D01*
X517651Y67276D01*
Y78000D01*
X518205Y78553D01*
X518701Y78342D01*
Y75394D01*
Y71063D01*
X525394D01*
Y71916D01*
X530840D01*
X531444Y71129D01*
X532267Y70498D01*
X533224Y70101D01*
X534252Y69966D01*
X535827D01*
X536855Y70101D01*
X537812Y70498D01*
X538635Y71129D01*
X539266Y71952D01*
X539662Y72909D01*
X539798Y73937D01*
X539662Y74965D01*
X539266Y75923D01*
X538635Y76745D01*
X537812Y77376D01*
X536855Y77773D01*
X535827Y77908D01*
X534252D01*
X533224Y77773D01*
X532267Y77376D01*
X531444Y76745D01*
X530813Y75923D01*
X530416Y74965D01*
X530361Y74541D01*
X525394D01*
Y75394D01*
X525197Y75590D01*
Y78347D01*
X525394Y78543D01*
Y82624D01*
X530315D01*
Y80000D01*
X539764D01*
Y87874D01*
D02*
G37*
G36*
X395764Y82102D02*
X393689D01*
Y79240D01*
X395764D01*
Y82102D01*
D02*
G37*
G36*
X328937Y111221D02*
D01*
Y111221D01*
X328648Y111221D01*
X325000D01*
Y106102D01*
X325656D01*
Y104481D01*
X323285Y102109D01*
X323000Y101683D01*
X322900Y101181D01*
Y94048D01*
X321337Y92485D01*
X320851Y92641D01*
X320882Y93094D01*
X320882D01*
Y95366D01*
X315732D01*
Y93094D01*
X315732D01*
Y90976D01*
X315551Y90551D01*
X315072Y90551D01*
X312205D01*
Y85433D01*
X313254D01*
Y74409D01*
X313354Y73907D01*
X313639Y73481D01*
X315804Y71316D01*
X316230Y71031D01*
X316732Y70932D01*
X317913D01*
Y70079D01*
X319947D01*
Y66142D01*
X320047Y65639D01*
X320332Y65214D01*
X320735Y64811D01*
Y62008D01*
X319488D01*
Y58071D01*
Y56468D01*
X319335Y56315D01*
X319276D01*
Y54634D01*
X322047D01*
X324819D01*
Y56315D01*
Y58055D01*
X324606Y58268D01*
Y62008D01*
X323360D01*
Y65354D01*
X323260Y65857D01*
X322975Y66282D01*
X322572Y66685D01*
Y70079D01*
X324606D01*
Y74409D01*
Y77559D01*
Y77751D01*
X325106Y77959D01*
X325253Y77812D01*
X325679Y77527D01*
X326181Y77428D01*
X328071D01*
Y75590D01*
X329120D01*
Y68272D01*
X328764Y67738D01*
X328627Y67047D01*
X328764Y66356D01*
X329156Y65770D01*
X329742Y65378D01*
X330433Y65241D01*
X331124Y65378D01*
X331710Y65770D01*
X332102Y66356D01*
X332239Y67047D01*
X332102Y67738D01*
X331746Y68272D01*
Y75590D01*
X332795D01*
Y81890D01*
X332288D01*
X332081Y82390D01*
X332424Y82733D01*
X332709Y83159D01*
X332809Y83661D01*
Y85236D01*
X334842D01*
Y89567D01*
X338583D01*
Y85236D01*
X345276D01*
Y86089D01*
X348031D01*
X348534Y86189D01*
X348960Y86473D01*
X350535Y88048D01*
X350819Y88474D01*
X350919Y88976D01*
Y105118D01*
X350819Y105620D01*
X350535Y106046D01*
X346991Y109590D01*
X346565Y109874D01*
X346063Y109974D01*
X334842D01*
Y111221D01*
X329422D01*
X329134Y111221D01*
Y111221D01*
X329134D01*
X328937D01*
D02*
G37*
G36*
X224606Y111221D02*
X222638D01*
Y111024D01*
X218701D01*
Y105905D01*
X219160D01*
Y104481D01*
X216788Y102109D01*
X216504Y101683D01*
X216404Y101181D01*
Y94048D01*
X214841Y92485D01*
X214347Y92644D01*
X214306Y92883D01*
X214315Y93024D01*
X214386Y93094D01*
Y95366D01*
X209236D01*
Y93094D01*
Y90976D01*
X209055Y90551D01*
X208576Y90551D01*
X205709D01*
Y85433D01*
X206758D01*
Y74213D01*
X206858Y73710D01*
X207143Y73284D01*
X209111Y71316D01*
X209537Y71031D01*
X210039Y70932D01*
X211417D01*
Y70079D01*
X213451D01*
Y66732D01*
X213551Y66230D01*
X213836Y65804D01*
X214239Y65401D01*
Y62008D01*
X212992D01*
Y58071D01*
Y56468D01*
X212839Y56315D01*
X212779D01*
Y54634D01*
X215551D01*
X218323D01*
Y56315D01*
Y58055D01*
X218110Y58268D01*
Y62008D01*
X216864D01*
Y65945D01*
X216764Y66447D01*
X216479Y66873D01*
X216076Y67276D01*
Y70079D01*
X218110D01*
Y74409D01*
Y77559D01*
Y78412D01*
X218945D01*
X219544Y77812D01*
X219970Y77527D01*
X220472Y77428D01*
X221575D01*
Y75590D01*
X222624D01*
Y68272D01*
X222268Y67738D01*
X222131Y67047D01*
X222268Y66356D01*
X222660Y65770D01*
X223246Y65378D01*
X223937Y65241D01*
X224628Y65378D01*
X225214Y65770D01*
X225606Y66356D01*
X225743Y67047D01*
X225606Y67738D01*
X225250Y68272D01*
Y75590D01*
X226299D01*
Y81890D01*
X225583D01*
X225388Y82390D01*
X226125Y83127D01*
X226410Y83553D01*
X226509Y84055D01*
Y85236D01*
X228543D01*
Y89567D01*
X232283D01*
Y85236D01*
X238976D01*
Y86089D01*
X240945D01*
X241447Y86189D01*
X241873Y86473D01*
X244432Y89033D01*
X244717Y89458D01*
X244817Y89961D01*
Y106496D01*
X244717Y106998D01*
X244432Y107424D01*
X242464Y109393D01*
X242038Y109677D01*
X241535Y109777D01*
X228543D01*
Y111024D01*
X224606D01*
Y111221D01*
D02*
G37*
G36*
X122638D02*
X112795D01*
Y106102D01*
X113254D01*
Y104481D01*
X110883Y102109D01*
X110598Y101683D01*
X110498Y101181D01*
Y94048D01*
X108935Y92485D01*
X108441Y92644D01*
X108400Y92883D01*
X108409Y93024D01*
X108480Y93094D01*
Y95366D01*
X103331D01*
Y93094D01*
Y90976D01*
X103150Y90551D01*
X102671Y90551D01*
X99803D01*
Y85433D01*
X100853D01*
Y74016D01*
X100953Y73513D01*
X101237Y73088D01*
X103009Y71316D01*
X103435Y71031D01*
X103937Y70932D01*
X105512D01*
Y70079D01*
X107546D01*
Y66339D01*
X107646Y65836D01*
X107930Y65410D01*
X108333Y65008D01*
Y62008D01*
X107087D01*
Y58071D01*
Y56468D01*
X106933Y56315D01*
X106874D01*
Y54634D01*
X109646D01*
X112417D01*
Y56315D01*
Y58055D01*
X112205Y58268D01*
Y62008D01*
X110958D01*
Y65551D01*
X110858Y66053D01*
X110574Y66479D01*
X110171Y66882D01*
Y70079D01*
X112205D01*
Y74409D01*
Y77559D01*
Y78412D01*
X113236D01*
X113836Y77812D01*
X114261Y77527D01*
X114764Y77428D01*
X115866D01*
Y75590D01*
X116916D01*
Y68272D01*
X116560Y67738D01*
X116422Y67047D01*
X116560Y66356D01*
X116951Y65770D01*
X117537Y65378D01*
X118228Y65241D01*
X118920Y65378D01*
X119506Y65770D01*
X119897Y66356D01*
X120035Y67047D01*
X119897Y67738D01*
X119541Y68272D01*
Y75590D01*
X120591D01*
Y81890D01*
X120083D01*
X119876Y82390D01*
X120220Y82733D01*
X120504Y83159D01*
X120604Y83661D01*
Y85236D01*
X122638D01*
Y89567D01*
X126378D01*
Y85236D01*
X133071D01*
Y86089D01*
X135039D01*
X135542Y86189D01*
X135968Y86473D01*
X139314Y89820D01*
X139599Y90246D01*
X139699Y90748D01*
Y105709D01*
X139599Y106211D01*
X139314Y106637D01*
X136361Y109590D01*
X135935Y109874D01*
X135433Y109974D01*
X122638D01*
Y111221D01*
D02*
G37*
G36*
X392689Y82102D02*
X390614D01*
Y79240D01*
X392689D01*
Y82102D01*
D02*
G37*
G36*
X448716D02*
X446642D01*
Y79240D01*
X448716D01*
Y82102D01*
D02*
G37*
G36*
X289661D02*
X287587D01*
Y79240D01*
X289661D01*
Y82102D01*
D02*
G37*
G36*
X130803D02*
X128728D01*
Y79240D01*
X130803D01*
Y82102D01*
D02*
G37*
G36*
X236512D02*
X234437D01*
Y79240D01*
X236512D01*
Y82102D01*
D02*
G37*
G36*
X183559D02*
X181484D01*
Y79240D01*
X183559D01*
Y82102D01*
D02*
G37*
G36*
X158161Y98638D02*
X156087D01*
Y96366D01*
X158161D01*
Y98638D01*
D02*
G37*
G36*
X108480D02*
X106405D01*
Y96366D01*
X108480D01*
Y98638D01*
D02*
G37*
G36*
X161236D02*
X159161D01*
Y96366D01*
X161236D01*
Y98638D01*
D02*
G37*
G36*
X214386D02*
X212311D01*
Y96366D01*
X214386D01*
Y98638D01*
D02*
G37*
G36*
X211311D02*
X209236D01*
Y96366D01*
X211311D01*
Y98638D01*
D02*
G37*
G36*
X105405D02*
X103331D01*
Y96366D01*
X105405D01*
Y98638D01*
D02*
G37*
G36*
X434646Y111221D02*
D01*
Y111221D01*
X434357Y111221D01*
X430709D01*
Y106102D01*
X431364D01*
Y104481D01*
X428993Y102109D01*
X428709Y101683D01*
X428609Y101181D01*
Y94048D01*
X427046Y92485D01*
X426552Y92644D01*
X426510Y92883D01*
X426520Y93024D01*
X426591Y93094D01*
Y95366D01*
X421441D01*
Y93094D01*
Y90976D01*
X421260Y90551D01*
X420781Y90551D01*
X417913D01*
Y85433D01*
X418963D01*
Y73622D01*
X419063Y73120D01*
X419347Y72694D01*
X420725Y71316D01*
X421151Y71031D01*
X421654Y70932D01*
X423622D01*
Y70079D01*
X425656D01*
Y67323D01*
X425756Y66821D01*
X426040Y66395D01*
X426443Y65992D01*
Y62008D01*
X425197D01*
Y58071D01*
Y56468D01*
X425043Y56315D01*
X424984D01*
Y54634D01*
X427756D01*
X430528D01*
Y56315D01*
Y58055D01*
X430315Y58268D01*
Y62008D01*
X429069D01*
Y66535D01*
X428969Y67038D01*
X428684Y67464D01*
X428281Y67866D01*
Y70079D01*
X430315D01*
Y74409D01*
X430315D01*
Y77559D01*
X430315D01*
Y78268D01*
X430815Y78352D01*
X431355Y77812D01*
X431781Y77527D01*
X432283Y77428D01*
X433779D01*
Y75590D01*
X434829D01*
Y68272D01*
X434473Y67738D01*
X434335Y67047D01*
X434473Y66356D01*
X434864Y65770D01*
X435451Y65378D01*
X436142Y65241D01*
X436833Y65378D01*
X437419Y65770D01*
X437811Y66356D01*
X437948Y67047D01*
X437811Y67738D01*
X437454Y68272D01*
Y75590D01*
X438504D01*
Y81890D01*
X438139D01*
X437948Y82352D01*
X438133Y82536D01*
X438417Y82962D01*
X438517Y83465D01*
Y85236D01*
X440551D01*
Y89567D01*
X444291D01*
Y85236D01*
X450984D01*
Y86089D01*
X452756D01*
X453258Y86189D01*
X453684Y86473D01*
X456440Y89229D01*
X456725Y89655D01*
X456824Y90158D01*
Y105709D01*
X456725Y106211D01*
X456440Y106637D01*
X453487Y109590D01*
X453061Y109874D01*
X452559Y109974D01*
X440551D01*
Y111221D01*
X435131D01*
X434842Y111221D01*
Y111221D01*
X434842D01*
X434646D01*
D02*
G37*
G36*
X275590D02*
D01*
Y111221D01*
X275302Y111221D01*
X271654D01*
Y106102D01*
X272309D01*
Y104481D01*
X269938Y102109D01*
X269654Y101683D01*
X269553Y101181D01*
Y94048D01*
X267991Y92485D01*
X267497Y92644D01*
X267455Y92883D01*
X267464Y93024D01*
X267535Y93094D01*
Y95366D01*
X262386D01*
Y93094D01*
Y90976D01*
X262205Y90551D01*
X261726Y90551D01*
X258858D01*
Y85433D01*
X259908D01*
Y74213D01*
X260008Y73710D01*
X260292Y73284D01*
X262261Y71316D01*
X262687Y71031D01*
X263189Y70932D01*
X264567D01*
Y70079D01*
X266601D01*
Y66732D01*
X266701Y66230D01*
X266985Y65804D01*
X267388Y65401D01*
Y62008D01*
X266142D01*
Y58071D01*
Y56468D01*
X265988Y56315D01*
X265929D01*
Y54634D01*
X268701D01*
X271472D01*
Y56315D01*
Y58055D01*
X271260Y58268D01*
Y62008D01*
X270013D01*
Y65945D01*
X269914Y66447D01*
X269629Y66873D01*
X269226Y67276D01*
Y70079D01*
X271260D01*
Y74409D01*
Y77555D01*
X271385Y77677D01*
X271430Y77696D01*
X271760Y77778D01*
X272135Y77527D01*
X272638Y77428D01*
X274724D01*
Y75590D01*
X275774D01*
Y68272D01*
X275418Y67738D01*
X275280Y67047D01*
X275418Y66356D01*
X275809Y65770D01*
X276395Y65378D01*
X277087Y65241D01*
X277778Y65378D01*
X278364Y65770D01*
X278755Y66356D01*
X278893Y67047D01*
X278755Y67738D01*
X278399Y68272D01*
Y75590D01*
X279449D01*
Y81890D01*
X279084D01*
X278893Y82352D01*
X279078Y82536D01*
X279362Y82962D01*
X279462Y83465D01*
Y85236D01*
X281496D01*
Y89567D01*
X285236D01*
Y85236D01*
X291929D01*
Y86089D01*
X295079D01*
X295581Y86189D01*
X296007Y86473D01*
X297582Y88048D01*
X297866Y88474D01*
X297966Y88976D01*
Y104724D01*
X297866Y105227D01*
X297582Y105653D01*
X293645Y109590D01*
X293219Y109874D01*
X292717Y109974D01*
X281496D01*
Y111221D01*
X276076D01*
X275787Y111221D01*
Y111221D01*
X275787D01*
X275590D01*
D02*
G37*
G36*
X488189D02*
D01*
Y111221D01*
X487900Y111221D01*
X484252D01*
Y106102D01*
X484908D01*
Y104481D01*
X482536Y102109D01*
X482252Y101683D01*
X482152Y101181D01*
Y94048D01*
X480589Y92485D01*
X480095Y92644D01*
X480054Y92883D01*
X480063Y93024D01*
X480134Y93094D01*
Y95366D01*
X474984D01*
Y93094D01*
Y90976D01*
X474803Y90551D01*
X474324Y90551D01*
X471457D01*
Y85433D01*
X472506D01*
Y73425D01*
X472606Y72923D01*
X472891Y72497D01*
X474072Y71316D01*
X474498Y71031D01*
X475000Y70932D01*
X477165D01*
Y70079D01*
X479199D01*
Y66339D01*
X479299Y65836D01*
X479584Y65410D01*
X479987Y65008D01*
Y62008D01*
X478740D01*
Y58071D01*
Y56468D01*
X478587Y56315D01*
X478528D01*
Y54634D01*
X481299D01*
X484071D01*
Y56315D01*
Y58055D01*
X483858Y58268D01*
Y62008D01*
X482612D01*
Y65551D01*
X482512Y66053D01*
X482227Y66479D01*
X481824Y66882D01*
Y70079D01*
X483858D01*
Y74409D01*
Y77559D01*
Y78412D01*
X484496D01*
X485096Y77812D01*
X485521Y77527D01*
X486024Y77428D01*
X487323D01*
Y75590D01*
X488372D01*
Y68272D01*
X488016Y67738D01*
X487879Y67047D01*
X488016Y66356D01*
X488408Y65770D01*
X488994Y65378D01*
X489685Y65241D01*
X490376Y65378D01*
X490962Y65770D01*
X491354Y66356D01*
X491491Y67047D01*
X491354Y67738D01*
X490998Y68272D01*
Y75590D01*
X492047D01*
Y81890D01*
X491862D01*
X491792Y82060D01*
X491710Y82390D01*
X491961Y82765D01*
X492061Y83268D01*
Y85236D01*
X494095D01*
Y89567D01*
X497835D01*
Y85236D01*
X504528D01*
Y86089D01*
X506890D01*
X507392Y86189D01*
X507818Y86473D01*
X509786Y88442D01*
X510071Y88868D01*
X510171Y89370D01*
Y105315D01*
X510071Y105817D01*
X509786Y106243D01*
X506440Y109590D01*
X506014Y109874D01*
X505512Y109974D01*
X494095D01*
Y111221D01*
X488674D01*
X488386Y111221D01*
Y111221D01*
X488386D01*
X488189D01*
D02*
G37*
G36*
X169488D02*
D01*
Y111221D01*
X169200Y111221D01*
X165551D01*
Y106102D01*
X166010D01*
Y104481D01*
X163639Y102109D01*
X163354Y101683D01*
X163254Y101181D01*
Y94048D01*
X162098Y92891D01*
X161487Y92988D01*
X161433Y93094D01*
Y93094D01*
X161236Y93513D01*
Y95366D01*
X156087D01*
Y93094D01*
X156283D01*
Y90976D01*
X156102Y90551D01*
X155623Y90551D01*
X152559D01*
Y85433D01*
X153609D01*
Y74409D01*
X153709Y73907D01*
X153993Y73481D01*
X156158Y71316D01*
X156584Y71031D01*
X157087Y70932D01*
X158465D01*
Y70079D01*
X160498D01*
Y66929D01*
X160598Y66427D01*
X160883Y66001D01*
X161286Y65598D01*
Y62008D01*
X160039D01*
Y58071D01*
Y56468D01*
X159886Y56315D01*
X159827D01*
Y54634D01*
X162598D01*
X165370D01*
Y56315D01*
Y58055D01*
X165157Y58268D01*
Y62008D01*
X163911D01*
Y66142D01*
X163811Y66644D01*
X163527Y67070D01*
X163124Y67473D01*
Y70079D01*
X165157D01*
Y74409D01*
X165157D01*
Y77559D01*
X165157Y77559D01*
X165157Y77559D01*
X165261Y77905D01*
X165749Y78064D01*
X166001Y77812D01*
X166427Y77527D01*
X166929Y77428D01*
X168622D01*
Y75590D01*
X169672D01*
Y68272D01*
X169315Y67738D01*
X169178Y67047D01*
X169315Y66356D01*
X169707Y65770D01*
X170293Y65378D01*
X170984Y65241D01*
X171676Y65378D01*
X172262Y65770D01*
X172653Y66356D01*
X172791Y67047D01*
X172653Y67738D01*
X172297Y68272D01*
Y75590D01*
X173346D01*
Y81890D01*
X172631D01*
X172435Y82390D01*
X172975Y82930D01*
X173260Y83356D01*
X173360Y83858D01*
Y85236D01*
X175394D01*
Y89567D01*
X179134D01*
Y85236D01*
X185827D01*
Y86089D01*
X187795D01*
X188298Y86189D01*
X188723Y86473D01*
X191873Y89623D01*
X192158Y90049D01*
X192257Y90551D01*
Y104331D01*
X192158Y104833D01*
X191873Y105259D01*
X187542Y109590D01*
X187117Y109874D01*
X186614Y109974D01*
X175394D01*
Y111221D01*
X169974D01*
X169685Y111221D01*
Y111221D01*
X169685D01*
X169488D01*
D02*
G37*
G36*
X381693D02*
D01*
Y111221D01*
X381404Y111221D01*
X377756D01*
Y106102D01*
X378412D01*
Y104677D01*
X376040Y102306D01*
X375756Y101880D01*
X375656Y101378D01*
Y94244D01*
X374288Y92876D01*
X374271Y92869D01*
X373688Y92984D01*
X373638Y93094D01*
X373638Y93094D01*
Y93094D01*
Y93178D01*
Y93291D01*
X373638Y93594D01*
Y95563D01*
X368488D01*
Y93594D01*
X368488Y93291D01*
Y93193D01*
Y93094D01*
X368488Y92791D01*
Y90748D01*
X364961D01*
Y85630D01*
X366010D01*
Y74409D01*
X366110Y73907D01*
X366395Y73481D01*
X368560Y71316D01*
X368986Y71031D01*
X369488Y70932D01*
X370669D01*
Y70079D01*
X372703D01*
Y66732D01*
X372803Y66230D01*
X373088Y65804D01*
X373491Y65401D01*
Y62008D01*
X372244D01*
Y58071D01*
Y56468D01*
X372091Y56315D01*
X372031D01*
Y54634D01*
X374803D01*
X377575D01*
Y56315D01*
Y58055D01*
X377362Y58268D01*
Y62008D01*
X376116D01*
Y65945D01*
X376016Y66447D01*
X375731Y66873D01*
X375328Y67276D01*
Y70079D01*
X377362D01*
Y74409D01*
Y77555D01*
X377487Y77677D01*
X377532Y77696D01*
X377862Y77778D01*
X378238Y77527D01*
X378740Y77428D01*
X380827D01*
Y75590D01*
X381876D01*
Y68272D01*
X381520Y67738D01*
X381383Y67047D01*
X381520Y66356D01*
X381912Y65770D01*
X382498Y65378D01*
X383189Y65241D01*
X383880Y65378D01*
X384466Y65770D01*
X384858Y66356D01*
X384995Y67047D01*
X384858Y67738D01*
X384502Y68272D01*
Y75590D01*
X385551D01*
Y81890D01*
X385366D01*
X385296Y82060D01*
X385214Y82390D01*
X385465Y82765D01*
X385565Y83268D01*
Y85433D01*
X387598D01*
Y89567D01*
X391339D01*
Y85433D01*
X398031D01*
Y86286D01*
X400000D01*
X400502Y86386D01*
X400928Y86670D01*
X403881Y89623D01*
X404166Y90049D01*
X404265Y90551D01*
Y104921D01*
X404166Y105424D01*
X403881Y105849D01*
X400141Y109590D01*
X399715Y109874D01*
X399213Y109974D01*
X387598D01*
Y111221D01*
X382178D01*
X381890Y111221D01*
Y111221D01*
X381890D01*
X381693D01*
D02*
G37*
G36*
X492047Y58268D02*
X487323D01*
Y51968D01*
X488372D01*
Y48622D01*
X486221D01*
Y44291D01*
Y41142D01*
Y36811D01*
X488451D01*
Y33268D01*
X488551Y32765D01*
X488836Y32340D01*
X493569Y27606D01*
Y26552D01*
X492896Y26274D01*
X492074Y25642D01*
X491443Y24820D01*
X491046Y23862D01*
X490911Y22835D01*
Y21260D01*
X491046Y20232D01*
X491443Y19274D01*
X492074Y18452D01*
X492896Y17821D01*
X493854Y17424D01*
X494882Y17289D01*
X495910Y17424D01*
X496867Y17821D01*
X497690Y18452D01*
X498321Y19274D01*
X498718Y20232D01*
X498853Y21260D01*
Y22835D01*
X498718Y23862D01*
X498321Y24820D01*
X497690Y25642D01*
X496867Y26274D01*
X496195Y26552D01*
Y27606D01*
X500731Y32143D01*
X501016Y32569D01*
X501116Y33071D01*
Y36811D01*
X502953D01*
Y41142D01*
Y44291D01*
Y48622D01*
X496260D01*
Y47887D01*
X492913D01*
Y48622D01*
X490998D01*
Y51968D01*
X492047D01*
Y58268D01*
D02*
G37*
G36*
X453346Y26806D02*
X452319Y26670D01*
X451361Y26274D01*
X450539Y25642D01*
X449907Y24820D01*
X449511Y23862D01*
X449375Y22835D01*
Y21260D01*
X449511Y20232D01*
X449907Y19274D01*
X450539Y18452D01*
X451361Y17821D01*
X452319Y17424D01*
X453346Y17289D01*
X454374Y17424D01*
X455332Y17821D01*
X456154Y18452D01*
X456785Y19274D01*
X457182Y20232D01*
X457317Y21260D01*
Y22835D01*
X457182Y23862D01*
X456785Y24820D01*
X456154Y25642D01*
X455332Y26274D01*
X454374Y26670D01*
X453346Y26806D01*
D02*
G37*
G36*
X506693D02*
X505665Y26670D01*
X504707Y26274D01*
X503885Y25642D01*
X503254Y24820D01*
X502857Y23862D01*
X502722Y22835D01*
Y21260D01*
X502857Y20232D01*
X503254Y19274D01*
X503885Y18452D01*
X504707Y17821D01*
X505665Y17424D01*
X506693Y17289D01*
X507721Y17424D01*
X508678Y17821D01*
X509501Y18452D01*
X510132Y19274D01*
X510529Y20232D01*
X510664Y21260D01*
Y22835D01*
X510529Y23862D01*
X510132Y24820D01*
X509501Y25642D01*
X508678Y26274D01*
X507721Y26670D01*
X506693Y26806D01*
D02*
G37*
G36*
X60642Y26954D02*
X60058Y26877D01*
X59049Y26459D01*
X58182Y25794D01*
X57517Y24927D01*
X57099Y23918D01*
X56956Y22835D01*
Y22547D01*
X60642D01*
Y26954D01*
D02*
G37*
G36*
X45079Y26772D02*
X37205D01*
Y17323D01*
X45079D01*
Y26772D01*
D02*
G37*
G36*
X438504Y58268D02*
X433779D01*
Y51968D01*
X434711D01*
Y48622D01*
X432677D01*
Y44291D01*
Y41142D01*
Y36811D01*
X435105D01*
Y33268D01*
X435205Y32765D01*
X435489Y32340D01*
X440223Y27606D01*
Y26552D01*
X439550Y26274D01*
X438728Y25642D01*
X438097Y24820D01*
X437700Y23862D01*
X437565Y22835D01*
Y21260D01*
X437700Y20232D01*
X438097Y19274D01*
X438728Y18452D01*
X439550Y17821D01*
X440508Y17424D01*
X441535Y17289D01*
X442563Y17424D01*
X443521Y17821D01*
X444343Y18452D01*
X444974Y19274D01*
X445371Y20232D01*
X445506Y21260D01*
Y22835D01*
X445371Y23862D01*
X444974Y24820D01*
X444343Y25642D01*
X443521Y26274D01*
X442848Y26552D01*
Y27606D01*
X447385Y32143D01*
X447669Y32569D01*
X447769Y33071D01*
Y36811D01*
X449409D01*
Y41142D01*
Y44291D01*
Y48622D01*
X442717D01*
Y47769D01*
X439370D01*
Y48622D01*
X437336D01*
Y51968D01*
X438504D01*
Y58268D01*
D02*
G37*
G36*
X332795D02*
X328071D01*
Y51968D01*
X328805D01*
Y48622D01*
X326772D01*
Y44291D01*
Y41142D01*
Y36811D01*
X328805D01*
Y33268D01*
X328905Y32765D01*
X329190Y32340D01*
X333924Y27606D01*
Y26552D01*
X333251Y26274D01*
X332428Y25642D01*
X331797Y24820D01*
X331401Y23862D01*
X331265Y22835D01*
Y21260D01*
X331401Y20232D01*
X331797Y19274D01*
X332428Y18452D01*
X333251Y17821D01*
X334208Y17424D01*
X335236Y17289D01*
X336264Y17424D01*
X337222Y17821D01*
X338044Y18452D01*
X338675Y19274D01*
X339072Y20232D01*
X339207Y21260D01*
Y22835D01*
X339072Y23862D01*
X338675Y24820D01*
X338044Y25642D01*
X337222Y26274D01*
X336549Y26552D01*
Y27606D01*
X341086Y32143D01*
X341370Y32569D01*
X341470Y33071D01*
Y36811D01*
X343504D01*
Y41142D01*
Y44291D01*
Y48622D01*
X336811D01*
Y47769D01*
X333465D01*
Y48622D01*
X331431D01*
Y51968D01*
X332795D01*
Y58268D01*
D02*
G37*
G36*
X293898Y26806D02*
X292870Y26670D01*
X291912Y26274D01*
X291090Y25642D01*
X290459Y24820D01*
X290062Y23862D01*
X289927Y22835D01*
Y21260D01*
X290062Y20232D01*
X290459Y19274D01*
X291090Y18452D01*
X291912Y17821D01*
X292870Y17424D01*
X293898Y17289D01*
X294925Y17424D01*
X295883Y17821D01*
X296706Y18452D01*
X297337Y19274D01*
X297733Y20232D01*
X297869Y21260D01*
Y22835D01*
X297733Y23862D01*
X297337Y24820D01*
X296706Y25642D01*
X295883Y26274D01*
X294925Y26670D01*
X293898Y26806D01*
D02*
G37*
G36*
X347047D02*
X346020Y26670D01*
X345062Y26274D01*
X344239Y25642D01*
X343608Y24820D01*
X343212Y23862D01*
X343076Y22835D01*
Y21260D01*
X343212Y20232D01*
X343608Y19274D01*
X344239Y18452D01*
X345062Y17821D01*
X346020Y17424D01*
X347047Y17289D01*
X348075Y17424D01*
X349033Y17821D01*
X349855Y18452D01*
X350486Y19274D01*
X350883Y20232D01*
X351018Y21260D01*
Y22835D01*
X350883Y23862D01*
X350486Y24820D01*
X349855Y25642D01*
X349033Y26274D01*
X348075Y26670D01*
X347047Y26806D01*
D02*
G37*
G36*
X400197D02*
X399169Y26670D01*
X398211Y26274D01*
X397389Y25642D01*
X396758Y24820D01*
X396361Y23862D01*
X396226Y22835D01*
Y21260D01*
X396361Y20232D01*
X396758Y19274D01*
X397389Y18452D01*
X398211Y17821D01*
X399169Y17424D01*
X400197Y17289D01*
X401225Y17424D01*
X402182Y17821D01*
X403005Y18452D01*
X403636Y19274D01*
X404033Y20232D01*
X404168Y21260D01*
Y22835D01*
X404033Y23862D01*
X403636Y24820D01*
X403005Y25642D01*
X402182Y26274D01*
X401225Y26670D01*
X400197Y26806D01*
D02*
G37*
G36*
X385551Y58268D02*
X380827D01*
Y51968D01*
X381758D01*
Y48622D01*
X379724D01*
Y44291D01*
Y41142D01*
Y36811D01*
X381955D01*
Y33268D01*
X382055Y32765D01*
X382340Y32340D01*
X387073Y27606D01*
Y26552D01*
X386400Y26274D01*
X385578Y25642D01*
X384947Y24820D01*
X384550Y23862D01*
X384415Y22835D01*
Y21260D01*
X384550Y20232D01*
X384947Y19274D01*
X385578Y18452D01*
X386400Y17821D01*
X387358Y17424D01*
X388386Y17289D01*
X389414Y17424D01*
X390371Y17821D01*
X391194Y18452D01*
X391825Y19274D01*
X392221Y20232D01*
X392357Y21260D01*
Y22835D01*
X392221Y23862D01*
X391825Y24820D01*
X391194Y25642D01*
X390371Y26274D01*
X389698Y26552D01*
Y27606D01*
X394235Y32143D01*
X394520Y32569D01*
X394620Y33071D01*
Y36811D01*
X396457D01*
Y41142D01*
Y44291D01*
Y48622D01*
X389764D01*
Y47769D01*
X386417D01*
Y48622D01*
X384384D01*
Y51968D01*
X385551D01*
Y58268D01*
D02*
G37*
G36*
X110524Y26984D02*
X106874D01*
Y22547D01*
X110524D01*
Y26984D01*
D02*
G37*
G36*
X433874D02*
X430224D01*
Y22547D01*
X433874D01*
Y26984D01*
D02*
G37*
G36*
X163476D02*
X159827D01*
Y22547D01*
X163476D01*
Y26984D01*
D02*
G37*
G36*
X115173D02*
X111524D01*
Y22547D01*
X115173D01*
Y26984D01*
D02*
G37*
G36*
X216626D02*
X212976D01*
Y22547D01*
X216626D01*
Y26984D01*
D02*
G37*
G36*
X429224D02*
X425575D01*
Y22547D01*
X429224D01*
Y26984D01*
D02*
G37*
G36*
X376075D02*
X372425D01*
Y22547D01*
X376075D01*
Y26984D01*
D02*
G37*
G36*
X322925D02*
X319276D01*
Y22547D01*
X322925D01*
Y26984D01*
D02*
G37*
G36*
X61642Y26954D02*
Y22547D01*
X65327D01*
Y22835D01*
X65184Y23918D01*
X64766Y24927D01*
X64101Y25794D01*
X63234Y26459D01*
X62225Y26877D01*
X61642Y26954D01*
D02*
G37*
G36*
X380724Y26984D02*
X377075D01*
Y22547D01*
X380724D01*
Y26984D01*
D02*
G37*
G36*
X327575D02*
X323925D01*
Y22547D01*
X327575D01*
Y26984D01*
D02*
G37*
G36*
X279449Y58268D02*
X274724D01*
Y51968D01*
X275262D01*
Y48622D01*
X273228D01*
Y44291D01*
Y41142D01*
Y36811D01*
X275656D01*
Y33268D01*
X275756Y32765D01*
X276040Y32340D01*
X280774Y27606D01*
Y26552D01*
X280101Y26274D01*
X279279Y25642D01*
X278648Y24820D01*
X278251Y23862D01*
X278116Y22835D01*
Y21260D01*
X278251Y20232D01*
X278648Y19274D01*
X279279Y18452D01*
X280101Y17821D01*
X281059Y17424D01*
X282087Y17289D01*
X283114Y17424D01*
X284072Y17821D01*
X284894Y18452D01*
X285526Y19274D01*
X285922Y20232D01*
X286058Y21260D01*
Y22835D01*
X285922Y23862D01*
X285526Y24820D01*
X284894Y25642D01*
X284072Y26274D01*
X283399Y26552D01*
Y27606D01*
X287936Y32143D01*
X288221Y32569D01*
X288320Y33071D01*
Y36811D01*
X289961D01*
Y41142D01*
Y44291D01*
Y48622D01*
X283268D01*
Y47769D01*
X279921D01*
Y48622D01*
X277887D01*
Y51968D01*
X279449D01*
Y58268D01*
D02*
G37*
G36*
X380724Y21547D02*
X377075D01*
Y17110D01*
X380724D01*
Y21547D01*
D02*
G37*
G36*
X376075D02*
X372425D01*
Y17110D01*
X376075D01*
Y21547D01*
D02*
G37*
G36*
X429224Y21547D02*
X425575D01*
Y17110D01*
X429224D01*
Y21547D01*
D02*
G37*
G36*
X482571Y21547D02*
X478921D01*
Y17110D01*
X482571D01*
Y21547D01*
D02*
G37*
G36*
X433874Y21547D02*
X430224D01*
Y17110D01*
X433874D01*
Y21547D01*
D02*
G37*
G36*
X327575Y21547D02*
X323925D01*
Y17110D01*
X327575D01*
Y21547D01*
D02*
G37*
G36*
X221276Y21547D02*
X217626D01*
Y17110D01*
X221276D01*
Y21547D01*
D02*
G37*
G36*
X216626D02*
X212976D01*
Y17110D01*
X216626D01*
Y21547D01*
D02*
G37*
G36*
X269776Y21547D02*
X266126D01*
Y17110D01*
X269776D01*
Y21547D01*
D02*
G37*
G36*
X322925Y21547D02*
X319276D01*
Y17110D01*
X322925D01*
Y21547D01*
D02*
G37*
G36*
X274425Y21547D02*
X270776D01*
Y17110D01*
X274425D01*
Y21547D01*
D02*
G37*
G36*
X173346Y58268D02*
X168622D01*
Y51968D01*
X169160D01*
Y48622D01*
X167126D01*
Y44291D01*
Y41142D01*
Y36811D01*
X169357D01*
Y33268D01*
X169457Y32765D01*
X169741Y32340D01*
X174475Y27606D01*
Y26552D01*
X173802Y26274D01*
X172979Y25642D01*
X172348Y24820D01*
X171952Y23862D01*
X171816Y22835D01*
Y21260D01*
X171952Y20232D01*
X172348Y19274D01*
X172979Y18452D01*
X173802Y17821D01*
X174760Y17424D01*
X175787Y17289D01*
X176815Y17424D01*
X177773Y17821D01*
X178595Y18452D01*
X179226Y19274D01*
X179623Y20232D01*
X179758Y21260D01*
Y22835D01*
X179623Y23862D01*
X179226Y24820D01*
X178595Y25642D01*
X177773Y26274D01*
X177100Y26552D01*
Y27606D01*
X181637Y32143D01*
X181921Y32569D01*
X182021Y33071D01*
Y36811D01*
X183858D01*
Y41142D01*
Y44291D01*
Y48622D01*
X177165D01*
Y47769D01*
X173819D01*
Y48622D01*
X171785D01*
Y51968D01*
X173346D01*
Y58268D01*
D02*
G37*
G36*
X134646Y26806D02*
X133618Y26670D01*
X132660Y26274D01*
X131838Y25642D01*
X131207Y24820D01*
X130810Y23862D01*
X130675Y22835D01*
Y21260D01*
X130810Y20232D01*
X131207Y19274D01*
X131838Y18452D01*
X132660Y17821D01*
X133618Y17424D01*
X134646Y17289D01*
X135673Y17424D01*
X136631Y17821D01*
X137454Y18452D01*
X138085Y19274D01*
X138481Y20232D01*
X138617Y21260D01*
Y22835D01*
X138481Y23862D01*
X138085Y24820D01*
X137454Y25642D01*
X136631Y26274D01*
X135673Y26670D01*
X134646Y26806D01*
D02*
G37*
G36*
X187598D02*
X186571Y26670D01*
X185613Y26274D01*
X184791Y25642D01*
X184160Y24820D01*
X183763Y23862D01*
X183627Y22835D01*
Y21260D01*
X183763Y20232D01*
X184160Y19274D01*
X184791Y18452D01*
X185613Y17821D01*
X186571Y17424D01*
X187598Y17289D01*
X188626Y17424D01*
X189584Y17821D01*
X190406Y18452D01*
X191037Y19274D01*
X191434Y20232D01*
X191569Y21260D01*
Y22835D01*
X191434Y23862D01*
X191037Y24820D01*
X190406Y25642D01*
X189584Y26274D01*
X188626Y26670D01*
X187598Y26806D01*
D02*
G37*
G36*
X240748D02*
X239720Y26670D01*
X238762Y26274D01*
X237940Y25642D01*
X237309Y24820D01*
X236912Y23862D01*
X236777Y22835D01*
Y21260D01*
X236912Y20232D01*
X237309Y19274D01*
X237940Y18452D01*
X238762Y17821D01*
X239720Y17424D01*
X240748Y17289D01*
X241776Y17424D01*
X242734Y17821D01*
X243556Y18452D01*
X244187Y19274D01*
X244584Y20232D01*
X244719Y21260D01*
Y22835D01*
X244584Y23862D01*
X244187Y24820D01*
X243556Y25642D01*
X242734Y26274D01*
X241776Y26670D01*
X240748Y26806D01*
D02*
G37*
G36*
X226299Y58268D02*
X221575D01*
Y51968D01*
X222309D01*
Y48622D01*
X220276D01*
Y44291D01*
Y41142D01*
Y36811D01*
X222506D01*
Y33268D01*
X222606Y32765D01*
X222891Y32340D01*
X227624Y27606D01*
Y26552D01*
X226952Y26274D01*
X226129Y25642D01*
X225498Y24820D01*
X225101Y23862D01*
X224966Y22835D01*
Y21260D01*
X225101Y20232D01*
X225498Y19274D01*
X226129Y18452D01*
X226952Y17821D01*
X227909Y17424D01*
X228937Y17289D01*
X229965Y17424D01*
X230923Y17821D01*
X231745Y18452D01*
X232376Y19274D01*
X232773Y20232D01*
X232908Y21260D01*
Y22835D01*
X232773Y23862D01*
X232376Y24820D01*
X231745Y25642D01*
X230923Y26274D01*
X230250Y26552D01*
Y27606D01*
X234786Y32143D01*
X235071Y32569D01*
X235171Y33071D01*
Y36811D01*
X237008D01*
Y41142D01*
Y44291D01*
Y48622D01*
X230315D01*
Y47769D01*
X226969D01*
Y48622D01*
X224935D01*
Y51968D01*
X226299D01*
Y58268D01*
D02*
G37*
G36*
X120591D02*
X115866D01*
Y51968D01*
X116404D01*
Y48622D01*
X114370D01*
Y44291D01*
Y41142D01*
Y36811D01*
X116404D01*
Y33268D01*
X116504Y32765D01*
X116788Y32340D01*
X121522Y27606D01*
Y26552D01*
X120849Y26274D01*
X120027Y25642D01*
X119396Y24820D01*
X118999Y23862D01*
X118864Y22835D01*
Y21260D01*
X118999Y20232D01*
X119396Y19274D01*
X120027Y18452D01*
X120849Y17821D01*
X121807Y17424D01*
X122835Y17289D01*
X123862Y17424D01*
X124820Y17821D01*
X125643Y18452D01*
X126274Y19274D01*
X126670Y20232D01*
X126806Y21260D01*
Y22835D01*
X126670Y23862D01*
X126274Y24820D01*
X125643Y25642D01*
X124820Y26274D01*
X124147Y26552D01*
Y27606D01*
X128684Y32143D01*
X128969Y32569D01*
X129069Y33071D01*
Y36811D01*
X131102D01*
Y41142D01*
Y44291D01*
Y48622D01*
X124409D01*
Y47769D01*
X121063D01*
Y48622D01*
X119029D01*
Y51968D01*
X120591D01*
Y58268D01*
D02*
G37*
G36*
X60642Y21547D02*
X56956D01*
Y21260D01*
X57099Y20177D01*
X57517Y19167D01*
X58182Y18300D01*
X59049Y17635D01*
X60058Y17217D01*
X60642Y17140D01*
Y21547D01*
D02*
G37*
G36*
X487220Y21547D02*
X483571D01*
Y17110D01*
X487220D01*
Y21547D01*
D02*
G37*
G36*
X65327Y21547D02*
X61642D01*
Y17140D01*
X62225Y17217D01*
X63234Y17635D01*
X64101Y18300D01*
X64766Y19167D01*
X65184Y20177D01*
X65327Y21260D01*
Y21547D01*
D02*
G37*
G36*
X71063Y59287D02*
X70372Y59149D01*
X69786Y58758D01*
X69394Y58172D01*
X69257Y57480D01*
X69394Y56789D01*
X69750Y56256D01*
Y44291D01*
X67716D01*
Y39961D01*
Y36811D01*
Y32480D01*
X69829D01*
Y26552D01*
X69156Y26274D01*
X68334Y25642D01*
X67703Y24820D01*
X67306Y23862D01*
X67171Y22835D01*
Y21260D01*
X67306Y20232D01*
X67703Y19274D01*
X68334Y18452D01*
X69156Y17821D01*
X70114Y17424D01*
X71142Y17289D01*
X72170Y17424D01*
X73127Y17821D01*
X73950Y18452D01*
X74581Y19274D01*
X74977Y20232D01*
X75113Y21260D01*
Y22835D01*
X74977Y23862D01*
X74581Y24820D01*
X73950Y25642D01*
X73127Y26274D01*
X72454Y26552D01*
Y32480D01*
X74409D01*
Y36811D01*
Y39961D01*
Y44291D01*
X72376D01*
Y56256D01*
X72732Y56789D01*
X72869Y57480D01*
X72732Y58172D01*
X72340Y58758D01*
X71754Y59149D01*
X71063Y59287D01*
D02*
G37*
G36*
X53347Y54759D02*
X52655Y54622D01*
X52069Y54230D01*
X51678Y53644D01*
X51552Y53015D01*
X50253Y51716D01*
X49968Y51290D01*
X49869Y50787D01*
Y44291D01*
X47835D01*
Y39961D01*
Y36811D01*
Y32480D01*
X49829D01*
Y26552D01*
X49156Y26274D01*
X48334Y25642D01*
X47703Y24820D01*
X47306Y23862D01*
X47171Y22835D01*
Y21260D01*
X47306Y20232D01*
X47703Y19274D01*
X48334Y18452D01*
X49156Y17821D01*
X50114Y17424D01*
X51142Y17289D01*
X52170Y17424D01*
X53127Y17821D01*
X53950Y18452D01*
X54581Y19274D01*
X54977Y20232D01*
X55113Y21260D01*
Y22835D01*
X54977Y23862D01*
X54581Y24820D01*
X53950Y25642D01*
X53127Y26274D01*
X52454Y26552D01*
Y32480D01*
X54527D01*
Y36811D01*
Y39961D01*
Y44291D01*
X52494D01*
Y50244D01*
X53409Y51159D01*
X54038Y51284D01*
X54624Y51675D01*
X55015Y52262D01*
X55153Y52953D01*
X55015Y53644D01*
X54624Y54230D01*
X54038Y54622D01*
X53347Y54759D01*
D02*
G37*
G36*
X162098Y53634D02*
X159827D01*
Y51953D01*
X162098D01*
Y53634D01*
D02*
G37*
G36*
X112417D02*
X110146D01*
Y51953D01*
X112417D01*
Y53634D01*
D02*
G37*
G36*
X165370D02*
X163098D01*
Y51953D01*
X165370D01*
Y53634D01*
D02*
G37*
G36*
X218323Y53634D02*
X216051D01*
Y51953D01*
X218323D01*
Y53634D01*
D02*
G37*
G36*
X215051D02*
X212779D01*
Y51953D01*
X215051D01*
Y53634D01*
D02*
G37*
G36*
X109146Y53634D02*
X106874D01*
Y51953D01*
X109146D01*
Y53634D01*
D02*
G37*
G36*
X445642Y54618D02*
X443567D01*
Y51756D01*
X445642D01*
Y54618D01*
D02*
G37*
G36*
X395764Y54618D02*
X393689D01*
Y51756D01*
X395764D01*
Y54618D01*
D02*
G37*
G36*
X448716Y54618D02*
X446642D01*
Y51756D01*
X448716D01*
Y54618D01*
D02*
G37*
G36*
X502260Y54618D02*
X500185D01*
Y51756D01*
X502260D01*
Y54618D01*
D02*
G37*
G36*
X499185D02*
X497110D01*
Y51756D01*
X499185D01*
Y54618D01*
D02*
G37*
G36*
X430528Y53634D02*
X428256D01*
Y51953D01*
X430528D01*
Y53634D01*
D02*
G37*
G36*
X427256D02*
X424984D01*
Y51953D01*
X427256D01*
Y53634D01*
D02*
G37*
G36*
X480799Y53634D02*
X478528D01*
Y51953D01*
X480799D01*
Y53634D01*
D02*
G37*
G36*
X534539Y58122D02*
X534252D01*
X533169Y57980D01*
X532159Y57562D01*
X531292Y56897D01*
X530627Y56030D01*
X530209Y55020D01*
X530132Y54437D01*
X534539D01*
Y58122D01*
D02*
G37*
G36*
X484071Y53634D02*
X481799D01*
Y51953D01*
X484071D01*
Y53634D01*
D02*
G37*
G36*
X377575Y53634D02*
X375303D01*
Y51953D01*
X377575D01*
Y53634D01*
D02*
G37*
G36*
X271472Y53634D02*
X269201D01*
Y51953D01*
X271472D01*
Y53634D01*
D02*
G37*
G36*
X268201D02*
X265929D01*
Y51953D01*
X268201D01*
Y53634D01*
D02*
G37*
G36*
X321547Y53634D02*
X319276D01*
Y51953D01*
X321547D01*
Y53634D01*
D02*
G37*
G36*
X374303Y53634D02*
X372031D01*
Y51953D01*
X374303D01*
Y53634D01*
D02*
G37*
G36*
X324819Y53634D02*
X322547D01*
Y51953D01*
X324819D01*
Y53634D01*
D02*
G37*
G36*
X392689Y54618D02*
X390614D01*
Y51756D01*
X392689D01*
Y54618D01*
D02*
G37*
G36*
X26378Y47160D02*
X24803D01*
X23775Y47025D01*
X22818Y46628D01*
X21995Y45997D01*
X21364Y45175D01*
X20967Y44217D01*
X20832Y43189D01*
X20967Y42161D01*
X21364Y41203D01*
X21995Y40381D01*
X22818Y39750D01*
X23775Y39353D01*
X24803Y39218D01*
X26378D01*
X27406Y39353D01*
X28363Y39750D01*
X29186Y40381D01*
X29817Y41203D01*
X30214Y42161D01*
X30349Y43189D01*
X30214Y44217D01*
X29817Y45175D01*
X29186Y45997D01*
X28363Y46628D01*
X27406Y47025D01*
X26378Y47160D01*
D02*
G37*
G36*
X547244Y34701D02*
X546516Y34605D01*
X545838Y34324D01*
X545256Y33878D01*
X544809Y33296D01*
X544528Y32617D01*
X544433Y31890D01*
X544528Y31162D01*
X544809Y30484D01*
X545256Y29902D01*
X545838Y29455D01*
X546516Y29174D01*
X547244Y29078D01*
X547972Y29174D01*
X548650Y29455D01*
X549232Y29902D01*
X549679Y30484D01*
X549960Y31162D01*
X550056Y31890D01*
X549960Y32617D01*
X549679Y33296D01*
X549232Y33878D01*
X548650Y34324D01*
X547972Y34605D01*
X547244Y34701D01*
D02*
G37*
G36*
X26378Y57160D02*
X24803D01*
X23775Y57025D01*
X22818Y56628D01*
X21995Y55997D01*
X21364Y55174D01*
X20967Y54217D01*
X20832Y53189D01*
X20967Y52161D01*
X21364Y51204D01*
X21995Y50381D01*
X22818Y49750D01*
X23775Y49353D01*
X24803Y49218D01*
X26378D01*
X27406Y49353D01*
X28363Y49750D01*
X29186Y50381D01*
X29817Y51204D01*
X30214Y52161D01*
X30349Y53189D01*
X30214Y54217D01*
X29817Y55174D01*
X29186Y55997D01*
X28363Y56628D01*
X27406Y57025D01*
X26378Y57160D01*
D02*
G37*
G36*
X539946Y53437D02*
X535539D01*
Y49752D01*
X535827D01*
X536910Y49894D01*
X537920Y50312D01*
X538786Y50977D01*
X539452Y51844D01*
X539870Y52854D01*
X539946Y53437D01*
D02*
G37*
G36*
X534539D02*
X530132D01*
X530209Y52854D01*
X530627Y51844D01*
X531292Y50977D01*
X532159Y50312D01*
X533169Y49894D01*
X534252Y49752D01*
X534539D01*
Y53437D01*
D02*
G37*
G36*
X487220Y26984D02*
X483571D01*
Y22547D01*
X487220D01*
Y26984D01*
D02*
G37*
G36*
X221276D02*
X217626D01*
Y22547D01*
X221276D01*
Y26984D01*
D02*
G37*
G36*
X168126D02*
X164476D01*
Y22547D01*
X168126D01*
Y26984D01*
D02*
G37*
G36*
X269776D02*
X266126D01*
Y22547D01*
X269776D01*
Y26984D01*
D02*
G37*
G36*
X274425D02*
X270776D01*
Y22547D01*
X274425D01*
Y26984D01*
D02*
G37*
G36*
X482571D02*
X478921D01*
Y22547D01*
X482571D01*
Y26984D01*
D02*
G37*
G36*
X286587Y54618D02*
X284512D01*
Y51756D01*
X286587D01*
Y54618D01*
D02*
G37*
G36*
X236512D02*
X234437D01*
Y51756D01*
X236512D01*
Y54618D01*
D02*
G37*
G36*
X289661D02*
X287587D01*
Y51756D01*
X289661D01*
Y54618D01*
D02*
G37*
G36*
X343008Y54618D02*
X340933D01*
Y51756D01*
X343008D01*
Y54618D01*
D02*
G37*
G36*
X339933D02*
X337858D01*
Y51756D01*
X339933D01*
Y54618D01*
D02*
G37*
G36*
X233437Y54618D02*
X231362D01*
Y51756D01*
X233437D01*
Y54618D01*
D02*
G37*
G36*
X127728D02*
X125654D01*
Y51756D01*
X127728D01*
Y54618D01*
D02*
G37*
G36*
X86811Y53775D02*
X86120Y53637D01*
X85587Y53281D01*
X83268D01*
X82765Y53181D01*
X82340Y52897D01*
X80174Y50731D01*
X79890Y50305D01*
X79790Y49803D01*
Y44291D01*
X77756D01*
Y39961D01*
Y36811D01*
Y32480D01*
X79829D01*
Y26552D01*
X79156Y26274D01*
X78334Y25642D01*
X77703Y24820D01*
X77306Y23862D01*
X77171Y22835D01*
Y21260D01*
X77306Y20232D01*
X77703Y19274D01*
X78334Y18452D01*
X79156Y17821D01*
X80114Y17424D01*
X81142Y17289D01*
X82170Y17424D01*
X83127Y17821D01*
X83950Y18452D01*
X84581Y19274D01*
X84977Y20232D01*
X85113Y21260D01*
Y22835D01*
X84977Y23862D01*
X84581Y24820D01*
X83950Y25642D01*
X83127Y26274D01*
X82454Y26552D01*
Y32480D01*
X84449D01*
Y36811D01*
Y39961D01*
Y44291D01*
X82415D01*
Y49259D01*
X83811Y50656D01*
X85587D01*
X86120Y50300D01*
X86811Y50162D01*
X87502Y50300D01*
X88088Y50691D01*
X88480Y51277D01*
X88617Y51968D01*
X88480Y52660D01*
X88088Y53246D01*
X87502Y53637D01*
X86811Y53775D01*
D02*
G37*
G36*
X130803Y54618D02*
X128728D01*
Y51756D01*
X130803D01*
Y54618D01*
D02*
G37*
G36*
X183559D02*
X181484D01*
Y51756D01*
X183559D01*
Y54618D01*
D02*
G37*
G36*
X180484D02*
X178409D01*
Y51756D01*
X180484D01*
Y54618D01*
D02*
G37*
G36*
X168126Y21547D02*
X164476D01*
Y17110D01*
X168126D01*
Y21547D01*
D02*
G37*
G36*
X324303Y271217D02*
X321638D01*
Y269929D01*
X324303D01*
Y271217D01*
D02*
G37*
G36*
X499031Y279421D02*
X488689D01*
Y269079D01*
X499031D01*
Y279421D01*
D02*
G37*
G36*
X327969Y271217D02*
X325303D01*
Y269929D01*
X327969D01*
Y271217D01*
D02*
G37*
G36*
X347654D02*
X344988D01*
Y269929D01*
X347654D01*
Y271217D01*
D02*
G37*
G36*
X343988D02*
X341323D01*
Y269929D01*
X343988D01*
Y271217D01*
D02*
G37*
G36*
X487689Y279421D02*
X477346D01*
Y269079D01*
X487689D01*
Y279421D01*
D02*
G37*
G36*
X324303Y268929D02*
X321638D01*
Y267642D01*
X324303D01*
Y268929D01*
D02*
G37*
G36*
X327969Y266216D02*
X325303D01*
Y264929D01*
X327969D01*
Y266216D01*
D02*
G37*
G36*
Y268929D02*
X325303D01*
Y267642D01*
X327969D01*
Y268929D01*
D02*
G37*
G36*
X347654D02*
X344988D01*
Y267642D01*
X347654D01*
Y268929D01*
D02*
G37*
G36*
X343988D02*
X341323D01*
Y267642D01*
X343988D01*
Y268929D01*
D02*
G37*
G36*
X324303Y276217D02*
X321638D01*
Y274929D01*
X324303D01*
Y276217D01*
D02*
G37*
G36*
X167807Y277181D02*
X166520D01*
Y274909D01*
X167807D01*
Y277181D01*
D02*
G37*
G36*
X327969Y276217D02*
X325303D01*
Y274929D01*
X327969D01*
Y276217D01*
D02*
G37*
G36*
X142732Y285842D02*
X137508D01*
Y278846D01*
X142732D01*
Y285842D01*
D02*
G37*
G36*
X353780Y385861D02*
X352752Y385725D01*
X351794Y385329D01*
X350972Y384698D01*
X350341Y383875D01*
X349944Y382917D01*
X349809Y381890D01*
Y380315D01*
X349944Y379287D01*
X350341Y378329D01*
X350972Y377507D01*
X351794Y376876D01*
X352467Y376597D01*
Y275525D01*
X347441D01*
Y276004D01*
X341535D01*
Y272854D01*
X347441D01*
Y272900D01*
X352953D01*
Y272047D01*
Y268898D01*
Y265742D01*
X347441D01*
Y266004D01*
X341535D01*
Y265683D01*
X337642D01*
X337109Y266039D01*
X336417Y266176D01*
X335726Y266039D01*
X335140Y265647D01*
X334749Y265061D01*
X334611Y264370D01*
X334749Y263679D01*
X335140Y263093D01*
X335726Y262701D01*
X336417Y262564D01*
X337109Y262701D01*
X337642Y263057D01*
X341535D01*
Y262854D01*
Y261004D01*
Y260742D01*
X339640D01*
X339077Y261118D01*
X338386Y261255D01*
X337695Y261118D01*
X337108Y260726D01*
X336717Y260140D01*
X336579Y259449D01*
X336717Y258758D01*
X337108Y258172D01*
X337695Y257780D01*
X338386Y257643D01*
X339077Y257780D01*
X339581Y258117D01*
X341535D01*
Y257854D01*
X347441D01*
Y258117D01*
X364350D01*
X364853Y258216D01*
X365279Y258501D01*
X367660Y260883D01*
X367945Y261309D01*
X368045Y261811D01*
Y264567D01*
X370079D01*
Y268898D01*
Y272047D01*
Y276378D01*
X363386D01*
Y275525D01*
X359646D01*
Y276378D01*
X355092D01*
Y376597D01*
X355765Y376876D01*
X356587Y377507D01*
X357219Y378329D01*
X357615Y379287D01*
X357751Y380315D01*
Y381890D01*
X357615Y382917D01*
X357219Y383875D01*
X356587Y384698D01*
X355765Y385329D01*
X354807Y385725D01*
X353780Y385861D01*
D02*
G37*
G36*
X327969Y273929D02*
X325303D01*
Y272642D01*
X327969D01*
Y273929D01*
D02*
G37*
G36*
X167807Y273909D02*
X166520D01*
Y271638D01*
X167807D01*
Y273909D01*
D02*
G37*
G36*
X142732Y277846D02*
X137508D01*
Y270850D01*
X142732D01*
Y277846D01*
D02*
G37*
G36*
X55012Y280602D02*
X50532D01*
Y277165D01*
X50702Y275877D01*
X51199Y274676D01*
X51991Y273644D01*
X53022Y272853D01*
X54223Y272356D01*
X55012Y272252D01*
Y280602D01*
D02*
G37*
G36*
X324303Y273929D02*
X321638D01*
Y272642D01*
X324303D01*
Y273929D01*
D02*
G37*
G36*
X60491Y280602D02*
X56012D01*
Y272252D01*
X56801Y272356D01*
X58002Y272853D01*
X59033Y273644D01*
X59824Y274676D01*
X60322Y275877D01*
X60491Y277165D01*
Y280602D01*
D02*
G37*
G36*
X237689Y255012D02*
X236265D01*
X236320Y254738D01*
X236758Y254081D01*
X237415Y253643D01*
X237689Y253588D01*
Y255012D01*
D02*
G37*
G36*
X50394Y252768D02*
X50106D01*
Y249083D01*
X54513D01*
X54436Y249666D01*
X54018Y250675D01*
X53353Y251542D01*
X52486Y252207D01*
X51477Y252625D01*
X50394Y252768D01*
D02*
G37*
G36*
X240113Y255012D02*
X238689D01*
Y253588D01*
X238963Y253643D01*
X239619Y254081D01*
X240058Y254738D01*
X240113Y255012D01*
D02*
G37*
G36*
X238689Y257435D02*
Y256012D01*
X240113D01*
X240058Y256286D01*
X239619Y256942D01*
X238963Y257381D01*
X238689Y257435D01*
D02*
G37*
G36*
X237689D02*
X237415Y257381D01*
X236758Y256942D01*
X236320Y256286D01*
X236265Y256012D01*
X237689D01*
Y257435D01*
D02*
G37*
G36*
X69291Y252768D02*
X69004D01*
Y249083D01*
X73411D01*
X73334Y249666D01*
X72916Y250675D01*
X72251Y251542D01*
X71384Y252207D01*
X70375Y252625D01*
X69291Y252768D01*
D02*
G37*
G36*
X135130Y247063D02*
X131905D01*
X131693Y246850D01*
X127756D01*
Y245604D01*
X99409D01*
Y246457D01*
X92716D01*
Y242126D01*
Y238976D01*
Y234646D01*
X94750D01*
Y227234D01*
X94196Y227004D01*
X93373Y226373D01*
X92742Y225550D01*
X92515Y225001D01*
X91974D01*
X91746Y225550D01*
X91115Y226373D01*
X90293Y227004D01*
X89335Y227401D01*
X88307Y227536D01*
X87279Y227401D01*
X86322Y227004D01*
X85499Y226373D01*
X84868Y225550D01*
X84641Y225001D01*
X84100D01*
X83872Y225550D01*
X83241Y226373D01*
X82419Y227004D01*
X81461Y227401D01*
X80433Y227536D01*
X79405Y227401D01*
X78448Y227004D01*
X77625Y226373D01*
X76994Y225550D01*
X76767Y225001D01*
X76226D01*
X75998Y225550D01*
X75367Y226373D01*
X74545Y227004D01*
X73587Y227401D01*
X72559Y227536D01*
X71531Y227401D01*
X70574Y227004D01*
X69751Y226373D01*
X69120Y225550D01*
X68893Y225001D01*
X68352D01*
X68124Y225550D01*
X67493Y226373D01*
X66671Y227004D01*
X65713Y227401D01*
X64685Y227536D01*
X63657Y227401D01*
X62700Y227004D01*
X61877Y226373D01*
X61246Y225550D01*
X61019Y225001D01*
X60477D01*
X60250Y225550D01*
X59619Y226373D01*
X58797Y227004D01*
X57839Y227401D01*
X56811Y227536D01*
X55783Y227401D01*
X54826Y227004D01*
X54003Y226373D01*
X53372Y225550D01*
X53145Y225001D01*
X52603D01*
X52376Y225550D01*
X51745Y226373D01*
X50923Y227004D01*
X49965Y227401D01*
X48937Y227536D01*
X47909Y227401D01*
X46951Y227004D01*
X46129Y226373D01*
X45498Y225550D01*
X45271Y225001D01*
X44729D01*
X44502Y225550D01*
X43871Y226373D01*
X43049Y227004D01*
X42091Y227401D01*
X41063Y227536D01*
X40035Y227401D01*
X39077Y227004D01*
X38255Y226373D01*
X37624Y225550D01*
X37227Y224593D01*
X37092Y223565D01*
Y221990D01*
X37227Y220962D01*
X37624Y220005D01*
X38255Y219182D01*
X39077Y218551D01*
X40035Y218155D01*
X41063Y218019D01*
X42091Y218155D01*
X43049Y218551D01*
X43871Y219182D01*
X44502Y220005D01*
X44729Y220554D01*
X45271D01*
X45498Y220005D01*
X46129Y219182D01*
X46951Y218551D01*
X47909Y218155D01*
X48937Y218019D01*
X49965Y218155D01*
X50923Y218551D01*
X51745Y219182D01*
X52376Y220005D01*
X52603Y220554D01*
X53145D01*
X53372Y220005D01*
X54003Y219182D01*
X54826Y218551D01*
X55783Y218155D01*
X56811Y218019D01*
X57839Y218155D01*
X58797Y218551D01*
X59619Y219182D01*
X60250Y220005D01*
X60477Y220554D01*
X61019D01*
X61246Y220005D01*
X61877Y219182D01*
X62700Y218551D01*
X63657Y218155D01*
X64685Y218019D01*
X65713Y218155D01*
X66671Y218551D01*
X67493Y219182D01*
X68124Y220005D01*
X68352Y220554D01*
X68893D01*
X69120Y220005D01*
X69751Y219182D01*
X70574Y218551D01*
X71531Y218155D01*
X72559Y218019D01*
X73587Y218155D01*
X74545Y218551D01*
X75367Y219182D01*
X75998Y220005D01*
X76226Y220554D01*
X76767D01*
X76994Y220005D01*
X77625Y219182D01*
X78448Y218551D01*
X79405Y218155D01*
X80433Y218019D01*
X81461Y218155D01*
X82419Y218551D01*
X83241Y219182D01*
X83872Y220005D01*
X84100Y220554D01*
X84641D01*
X84868Y220005D01*
X85499Y219182D01*
X86322Y218551D01*
X87279Y218155D01*
X88307Y218019D01*
X89335Y218155D01*
X90293Y218551D01*
X91115Y219182D01*
X91746Y220005D01*
X91974Y220554D01*
X92515D01*
X92742Y220005D01*
X93373Y219182D01*
X94196Y218551D01*
X95153Y218155D01*
X96181Y218019D01*
X97209Y218155D01*
X98167Y218551D01*
X98989Y219182D01*
X99620Y220005D01*
X99848Y220554D01*
X100389D01*
X100616Y220005D01*
X101247Y219182D01*
X102070Y218551D01*
X103027Y218155D01*
X104055Y218019D01*
X105083Y218155D01*
X106041Y218551D01*
X106863Y219182D01*
X107494Y220005D01*
X107722Y220554D01*
X108263D01*
X108490Y220005D01*
X109121Y219182D01*
X109944Y218551D01*
X110901Y218155D01*
X111929Y218019D01*
X112957Y218155D01*
X113915Y218551D01*
X114737Y219182D01*
X115368Y220005D01*
X115765Y220962D01*
X115900Y221990D01*
Y223565D01*
X115765Y224593D01*
X115368Y225550D01*
X114737Y226373D01*
X113915Y227004D01*
X112957Y227401D01*
X111929Y227536D01*
X110901Y227401D01*
X109944Y227004D01*
X109121Y226373D01*
X108490Y225550D01*
X108263Y225001D01*
X107722D01*
X107494Y225550D01*
X106863Y226373D01*
X106041Y227004D01*
X105083Y227401D01*
X104055Y227536D01*
X103027Y227401D01*
X102070Y227004D01*
X101247Y226373D01*
X100616Y225550D01*
X100389Y225001D01*
X99848D01*
X99620Y225550D01*
X98989Y226373D01*
X98167Y227004D01*
X97376Y227332D01*
Y234646D01*
X99409D01*
Y238976D01*
Y242126D01*
Y242979D01*
X127756D01*
Y241732D01*
X133449D01*
Y241520D01*
X135130D01*
Y244291D01*
Y247063D01*
D02*
G37*
G36*
X137811D02*
X136130D01*
Y244791D01*
X137811D01*
Y247063D01*
D02*
G37*
G36*
X266158Y250484D02*
X264870D01*
Y248213D01*
X266158D01*
Y250484D01*
D02*
G37*
G36*
X68004Y252768D02*
X67716D01*
X66633Y252625D01*
X65624Y252207D01*
X64757Y251542D01*
X64092Y250675D01*
X63674Y249666D01*
X63597Y249083D01*
X68004D01*
Y252768D01*
D02*
G37*
G36*
X49106D02*
X48819D01*
X47736Y252625D01*
X46726Y252207D01*
X45859Y251542D01*
X45194Y250675D01*
X44776Y249666D01*
X44699Y249083D01*
X49106D01*
Y252768D01*
D02*
G37*
G36*
X327969Y263929D02*
X325303D01*
Y262642D01*
X327969D01*
Y263929D01*
D02*
G37*
G36*
X324303D02*
X321638D01*
Y262642D01*
X324303D01*
Y263929D01*
D02*
G37*
G36*
X66823Y267578D02*
X63386D01*
X62097Y267408D01*
X60896Y266911D01*
X59865Y266120D01*
X59073Y265088D01*
X58576Y263887D01*
X58472Y263099D01*
X66823D01*
Y267578D01*
D02*
G37*
G36*
X324303Y266216D02*
X321638D01*
Y264929D01*
X324303D01*
Y266216D01*
D02*
G37*
G36*
X71260Y267578D02*
X67823D01*
Y263099D01*
X76174D01*
X76070Y263887D01*
X75572Y265088D01*
X74781Y266120D01*
X73750Y266911D01*
X72549Y267408D01*
X71260Y267578D01*
D02*
G37*
G36*
X327969Y261216D02*
X325303D01*
Y259929D01*
X327969D01*
Y261216D01*
D02*
G37*
G36*
X76174Y262099D02*
X67823D01*
Y257619D01*
X71260D01*
X72549Y257788D01*
X73750Y258286D01*
X74781Y259077D01*
X75572Y260109D01*
X76070Y261310D01*
X76174Y262099D01*
D02*
G37*
G36*
X66823D02*
X58472D01*
X58576Y261310D01*
X59073Y260109D01*
X59865Y259077D01*
X60896Y258286D01*
X62097Y257788D01*
X63386Y257619D01*
X66823D01*
Y262099D01*
D02*
G37*
G36*
X324303Y258929D02*
X321638D01*
Y257642D01*
X324303D01*
Y258929D01*
D02*
G37*
G36*
Y261216D02*
X321638D01*
Y259929D01*
X324303D01*
Y261216D01*
D02*
G37*
G36*
X327969Y258929D02*
X325303D01*
Y257642D01*
X327969D01*
Y258929D01*
D02*
G37*
G36*
X487689Y290764D02*
X477346D01*
Y280421D01*
X487689D01*
Y290764D01*
D02*
G37*
G36*
X125484Y391059D02*
X100969D01*
Y371366D01*
X125484D01*
Y391059D01*
D02*
G37*
G36*
X91158D02*
X66642D01*
Y371366D01*
X91158D01*
Y391059D01*
D02*
G37*
G36*
X233780Y385861D02*
X232752Y385725D01*
X231794Y385329D01*
X230972Y384698D01*
X230341Y383875D01*
X229944Y382917D01*
X229809Y381890D01*
Y380315D01*
X229944Y379287D01*
X230341Y378329D01*
X230972Y377507D01*
X231794Y376876D01*
X232467Y376597D01*
Y375662D01*
X231355Y374550D01*
X231071Y374124D01*
X230971Y373622D01*
Y371850D01*
X226116D01*
Y372638D01*
X226016Y373140D01*
X225731Y373566D01*
X225092Y374205D01*
Y376597D01*
X225765Y376876D01*
X226587Y377507D01*
X227219Y378329D01*
X227615Y379287D01*
X227750Y380315D01*
Y381890D01*
X227615Y382917D01*
X227219Y383875D01*
X226587Y384698D01*
X225765Y385329D01*
X224807Y385725D01*
X223780Y385861D01*
X222752Y385725D01*
X221794Y385329D01*
X220972Y384698D01*
X220341Y383875D01*
X219944Y382917D01*
X219809Y381890D01*
Y380315D01*
X219944Y379287D01*
X220341Y378329D01*
X220972Y377507D01*
X221794Y376876D01*
X222467Y376597D01*
Y373661D01*
X222567Y373159D01*
X222851Y372733D01*
X223234Y372350D01*
X223027Y371850D01*
X222638D01*
Y365158D01*
X234449D01*
Y371850D01*
X233596D01*
Y373078D01*
X234708Y374190D01*
X234992Y374616D01*
X235092Y375118D01*
Y376597D01*
X235765Y376876D01*
X236587Y377507D01*
X237218Y378329D01*
X237615Y379287D01*
X237751Y380315D01*
Y381890D01*
X237615Y382917D01*
X237218Y383875D01*
X236587Y384698D01*
X235765Y385329D01*
X234807Y385725D01*
X233780Y385861D01*
D02*
G37*
G36*
X213280Y380602D02*
X209630D01*
Y376165D01*
X213280D01*
Y380602D01*
D02*
G37*
G36*
X65642Y391059D02*
X41126D01*
Y372179D01*
X38124D01*
X38045Y372297D01*
X37388Y372735D01*
X37114Y372790D01*
Y370866D01*
Y368942D01*
X37388Y368997D01*
X38045Y369436D01*
X38124Y369553D01*
X41126D01*
Y350673D01*
X64829D01*
Y320472D01*
X64929Y319970D01*
X65214Y319544D01*
X66148Y318610D01*
X68004D01*
Y320467D01*
X67454Y321016D01*
Y350673D01*
X91158D01*
Y370366D01*
X66142D01*
Y370866D01*
X65642D01*
Y391059D01*
D02*
G37*
G36*
X36114Y372790D02*
X35840Y372735D01*
X35184Y372297D01*
X34745Y371640D01*
X34690Y371366D01*
X36114D01*
Y372790D01*
D02*
G37*
G36*
X513673Y341551D02*
X512386D01*
X512173Y341339D01*
X507874D01*
Y340092D01*
X507087D01*
X506584Y339992D01*
X506158Y339708D01*
X505952Y339502D01*
X504724D01*
Y340354D01*
X498032D01*
Y339502D01*
X496654D01*
X496151Y339402D01*
X495725Y339117D01*
X493560Y336952D01*
X493275Y336526D01*
X493176Y336024D01*
Y327953D01*
X493275Y327450D01*
X493560Y327025D01*
X495529Y325056D01*
X495954Y324771D01*
X496457Y324672D01*
X503196D01*
X504199Y323669D01*
Y316732D01*
X504299Y316230D01*
X504584Y315804D01*
X505753Y314635D01*
X505561Y314173D01*
X459029D01*
Y327913D01*
X458929Y328416D01*
X458645Y328842D01*
X454865Y332621D01*
X454439Y332906D01*
X453937Y333005D01*
X390354D01*
X389852Y332906D01*
X389426Y332621D01*
X377025Y320219D01*
X376740Y319794D01*
X376640Y319291D01*
Y174059D01*
X376284Y173526D01*
X376146Y172835D01*
X376284Y172143D01*
X376676Y171557D01*
X377261Y171166D01*
X377953Y171028D01*
X378644Y171166D01*
X379230Y171557D01*
X379622Y172143D01*
X379759Y172835D01*
X379622Y173526D01*
X379265Y174059D01*
Y318748D01*
X390898Y330380D01*
X391990D01*
X392197Y329880D01*
X387064Y324747D01*
X386779Y324321D01*
X386680Y323819D01*
Y178157D01*
X386518Y178049D01*
X386126Y177463D01*
X385989Y176772D01*
X386126Y176080D01*
X386518Y175494D01*
X387104Y175103D01*
X387795Y174965D01*
X388487Y175103D01*
X389073Y175494D01*
X389464Y176080D01*
X389602Y176772D01*
X389464Y177463D01*
X389305Y177701D01*
Y183531D01*
X389805Y183641D01*
X390017Y183324D01*
X391198Y182143D01*
X391624Y181858D01*
X392126Y181758D01*
X406299D01*
X406802Y181858D01*
X407227Y182143D01*
X408999Y183914D01*
X409284Y184340D01*
X409383Y184843D01*
Y252606D01*
X413949Y257172D01*
X444016D01*
Y255925D01*
X444055D01*
Y254797D01*
X435374D01*
X434872Y254697D01*
X434446Y254412D01*
X430174Y250141D01*
X429890Y249715D01*
X429790Y249213D01*
Y245472D01*
X427756D01*
Y241142D01*
Y238417D01*
X427543Y238205D01*
Y236327D01*
X431102D01*
X434661D01*
Y238205D01*
Y240929D01*
X434449Y241142D01*
Y245472D01*
X432415D01*
Y248669D01*
X435918Y252172D01*
X444055D01*
Y250925D01*
X453504D01*
Y256043D01*
X453465D01*
Y260925D01*
X453504D01*
Y265925D01*
Y270925D01*
Y275925D01*
Y280925D01*
Y285925D01*
Y290925D01*
Y295713D01*
X453717D01*
Y297984D01*
X448779D01*
X443843D01*
Y295713D01*
X444055D01*
Y294797D01*
X401358D01*
X400856Y294697D01*
X400430Y294412D01*
X397103Y291086D01*
X396819Y290660D01*
X396719Y290158D01*
Y189807D01*
X396363Y189274D01*
X396225Y188583D01*
X396363Y187891D01*
X396754Y187305D01*
X397340Y186914D01*
X398031Y186776D01*
X398723Y186914D01*
X399309Y187305D01*
X399700Y187891D01*
X399838Y188583D01*
X399700Y189274D01*
X399344Y189807D01*
Y289614D01*
X401902Y292172D01*
X444055D01*
Y290925D01*
Y285925D01*
Y280925D01*
Y275925D01*
Y270925D01*
Y265925D01*
Y261043D01*
X444016D01*
Y259797D01*
X413406D01*
X412903Y259697D01*
X412477Y259412D01*
X407143Y254078D01*
X406858Y253652D01*
X406758Y253150D01*
Y185386D01*
X405756Y184383D01*
X392670D01*
X392257Y184796D01*
Y185390D01*
X392614Y185923D01*
X392751Y186614D01*
X392614Y187305D01*
X392222Y187891D01*
X391636Y188283D01*
X390945Y188420D01*
X390254Y188283D01*
X389805Y187983D01*
X389305Y188180D01*
Y323275D01*
X394048Y328018D01*
X449063D01*
X451404Y325677D01*
Y314173D01*
X450157D01*
Y304724D01*
X511404D01*
Y297118D01*
X510371Y296085D01*
X509742Y295960D01*
X509156Y295569D01*
X508764Y294983D01*
X508627Y294291D01*
X508764Y293600D01*
X509156Y293014D01*
X509742Y292622D01*
X510433Y292485D01*
X511124Y292622D01*
X511710Y293014D01*
X512102Y293600D01*
X512227Y294229D01*
X513645Y295647D01*
X513929Y296073D01*
X514029Y296575D01*
Y304724D01*
X514945D01*
Y304512D01*
X517216D01*
Y309449D01*
Y314386D01*
X514945D01*
Y314173D01*
X513471D01*
X511746Y315898D01*
Y316929D01*
X515142D01*
Y316717D01*
X517413D01*
Y320276D01*
Y323835D01*
X515142D01*
X514929Y323622D01*
X511746D01*
Y325197D01*
X511646Y325699D01*
X511361Y326125D01*
X510761Y326725D01*
Y327362D01*
X512386D01*
Y327150D01*
X513673D01*
Y329921D01*
Y332693D01*
X512386D01*
X512173Y332480D01*
X507874D01*
Y331894D01*
X507567Y331719D01*
X507374Y331670D01*
X506998Y331921D01*
X506496Y332021D01*
X504724D01*
Y332874D01*
Y336024D01*
Y336876D01*
X506496D01*
X506998Y336976D01*
X507374Y337227D01*
X507567Y337179D01*
X507874Y337003D01*
Y336221D01*
X512386D01*
Y336008D01*
X513673D01*
Y338779D01*
Y341551D01*
D02*
G37*
G36*
X515961D02*
X514673D01*
Y339280D01*
X515961D01*
Y341551D01*
D02*
G37*
G36*
X125484Y370366D02*
X100969D01*
Y350673D01*
X125484D01*
Y370366D01*
D02*
G37*
G36*
X17717Y383105D02*
X16327Y382968D01*
X14991Y382563D01*
X13760Y381905D01*
X12681Y381019D01*
X11796Y379940D01*
X11138Y378709D01*
X10733Y377374D01*
X10596Y375984D01*
X10733Y374595D01*
X11138Y373259D01*
X11796Y372028D01*
X12681Y370949D01*
X13760Y370063D01*
X14991Y369405D01*
X16327Y369000D01*
X17717Y368863D01*
X19106Y369000D01*
X20442Y369405D01*
X21673Y370063D01*
X22752Y370949D01*
X23637Y372028D01*
X24295Y373259D01*
X24701Y374595D01*
X24837Y375984D01*
X24701Y377374D01*
X24295Y378709D01*
X23637Y379940D01*
X22752Y381019D01*
X21673Y381905D01*
X20442Y382563D01*
X19106Y382968D01*
X17717Y383105D01*
D02*
G37*
G36*
X536614Y383212D02*
X535204Y383073D01*
X533848Y382662D01*
X532599Y381994D01*
X531503Y381095D01*
X530605Y380000D01*
X529937Y378750D01*
X529525Y377394D01*
X529387Y375984D01*
X529525Y374574D01*
X529937Y373218D01*
X530605Y371969D01*
X531503Y370873D01*
X532599Y369975D01*
X533848Y369307D01*
X535204Y368895D01*
X536614Y368757D01*
X538024Y368895D01*
X539380Y369307D01*
X540630Y369975D01*
X541725Y370873D01*
X542624Y371969D01*
X543292Y373218D01*
X543703Y374574D01*
X543842Y375984D01*
X543703Y377394D01*
X543292Y378750D01*
X542624Y380000D01*
X541725Y381095D01*
X540630Y381994D01*
X539380Y382662D01*
X538024Y383073D01*
X536614Y383212D01*
D02*
G37*
G36*
X213280Y386039D02*
X209630D01*
Y381602D01*
X213280D01*
Y386039D01*
D02*
G37*
G36*
X363280Y386009D02*
X362696Y385933D01*
X361687Y385514D01*
X360820Y384849D01*
X360155Y383982D01*
X359737Y382973D01*
X359594Y381890D01*
Y381602D01*
X363280D01*
Y386009D01*
D02*
G37*
G36*
X217929Y386039D02*
X214280D01*
Y381602D01*
X217929D01*
Y386039D01*
D02*
G37*
G36*
X364280Y386009D02*
Y381602D01*
X367965D01*
Y381890D01*
X367822Y382973D01*
X367404Y383982D01*
X366739Y384849D01*
X365872Y385514D01*
X364863Y385933D01*
X364280Y386009D01*
D02*
G37*
G36*
X254279D02*
Y381602D01*
X257965D01*
Y381890D01*
X257822Y382973D01*
X257404Y383982D01*
X256739Y384849D01*
X255872Y385514D01*
X254863Y385933D01*
X254279Y386009D01*
D02*
G37*
G36*
X253279Y386009D02*
X252696Y385933D01*
X251687Y385514D01*
X250820Y384849D01*
X250155Y383982D01*
X249737Y382973D01*
X249594Y381890D01*
Y381602D01*
X253279D01*
Y386009D01*
D02*
G37*
G36*
Y380602D02*
X249594D01*
Y380315D01*
X249737Y379232D01*
X250155Y378222D01*
X250820Y377355D01*
X251687Y376690D01*
X252696Y376272D01*
X253279Y376195D01*
Y380602D01*
D02*
G37*
G36*
X217929D02*
X214280D01*
Y376165D01*
X217929D01*
Y380602D01*
D02*
G37*
G36*
X363280D02*
X359594D01*
Y380315D01*
X359737Y379232D01*
X360155Y378222D01*
X360820Y377355D01*
X361687Y376690D01*
X362696Y376272D01*
X363280Y376195D01*
Y380602D01*
D02*
G37*
G36*
X367965D02*
X364280D01*
Y376195D01*
X364863Y376272D01*
X365872Y376690D01*
X366739Y377355D01*
X367404Y378222D01*
X367822Y379232D01*
X367965Y380315D01*
Y380602D01*
D02*
G37*
G36*
X257965D02*
X254279D01*
Y376195D01*
X254863Y376272D01*
X255872Y376690D01*
X256739Y377355D01*
X257404Y378222D01*
X257822Y379232D01*
X257965Y380315D01*
Y380602D01*
D02*
G37*
G36*
X453717Y301256D02*
X449279D01*
Y298984D01*
X453717D01*
Y301256D01*
D02*
G37*
G36*
X448279D02*
X443843D01*
Y298984D01*
X448279D01*
Y301256D01*
D02*
G37*
G36*
X520488Y308949D02*
X518217D01*
Y304512D01*
X520488D01*
Y308949D01*
D02*
G37*
G36*
X68004Y317610D02*
X66580D01*
X66635Y317336D01*
X67073Y316680D01*
X67730Y316241D01*
X68004Y316187D01*
Y317610D01*
D02*
G37*
G36*
X520488Y314386D02*
X518217D01*
Y309949D01*
X520488D01*
Y314386D01*
D02*
G37*
G36*
X167807Y287024D02*
X166520D01*
Y284752D01*
X167807D01*
Y287024D01*
D02*
G37*
G36*
Y283752D02*
X166520D01*
Y281480D01*
X167807D01*
Y283752D01*
D02*
G37*
G36*
X499031Y290764D02*
X488689D01*
Y280421D01*
X499031D01*
Y290764D01*
D02*
G37*
G36*
X55012Y289953D02*
X54223Y289849D01*
X53022Y289352D01*
X51991Y288561D01*
X51199Y287529D01*
X50702Y286328D01*
X50532Y285039D01*
Y281602D01*
X55012D01*
Y289953D01*
D02*
G37*
G36*
X330118Y291535D02*
X325000D01*
Y286811D01*
X326246D01*
Y284689D01*
X325890Y284156D01*
X325753Y283465D01*
X325890Y282773D01*
X326282Y282187D01*
X326868Y281796D01*
X327559Y281658D01*
X328250Y281796D01*
X328836Y282187D01*
X329228Y282773D01*
X329365Y283465D01*
X329228Y284156D01*
X328872Y284689D01*
Y286811D01*
X330118D01*
Y291535D01*
D02*
G37*
G36*
X56012Y289953D02*
Y281602D01*
X60491D01*
Y285039D01*
X60322Y286328D01*
X59824Y287529D01*
X59033Y288561D01*
X58002Y289352D01*
X56801Y289849D01*
X56012Y289953D01*
D02*
G37*
G36*
X515961Y332693D02*
X514673D01*
Y330421D01*
X515961D01*
Y332693D01*
D02*
G37*
G36*
X80079Y338090D02*
X72205D01*
Y322736D01*
X80079D01*
Y329101D01*
X83720D01*
X83762Y329038D01*
X84348Y328646D01*
X85039Y328509D01*
X85731Y328646D01*
X86317Y329038D01*
X86708Y329624D01*
X86846Y330315D01*
X86708Y331006D01*
X86317Y331592D01*
X85731Y331984D01*
X85039Y332121D01*
X84348Y331984D01*
X83962Y331726D01*
X80079D01*
Y338090D01*
D02*
G37*
G36*
X12992Y336276D02*
X12264Y336180D01*
X11586Y335899D01*
X11004Y335453D01*
X10557Y334870D01*
X10277Y334192D01*
X10181Y333465D01*
X10277Y332737D01*
X10557Y332059D01*
X11004Y331477D01*
X11586Y331030D01*
X12264Y330749D01*
X12992Y330653D01*
X13720Y330749D01*
X14398Y331030D01*
X14980Y331477D01*
X15427Y332059D01*
X15708Y332737D01*
X15804Y333465D01*
X15708Y334192D01*
X15427Y334870D01*
X14980Y335453D01*
X14398Y335899D01*
X13720Y336180D01*
X12992Y336276D01*
D02*
G37*
G36*
X515961Y338280D02*
X514673D01*
Y336008D01*
X515961D01*
Y338280D01*
D02*
G37*
G36*
X364567Y340213D02*
X363839Y340117D01*
X363161Y339836D01*
X362579Y339390D01*
X362132Y338807D01*
X361851Y338129D01*
X361755Y337402D01*
X361851Y336674D01*
X362132Y335996D01*
X362579Y335414D01*
X363161Y334967D01*
X363839Y334686D01*
X364567Y334590D01*
X365295Y334686D01*
X365973Y334967D01*
X366555Y335414D01*
X367002Y335996D01*
X367283Y336674D01*
X367378Y337402D01*
X367283Y338129D01*
X367002Y338807D01*
X366555Y339390D01*
X365973Y339836D01*
X365295Y340117D01*
X364567Y340213D01*
D02*
G37*
G36*
X515961Y329421D02*
X514673D01*
Y327150D01*
X515961D01*
Y329421D01*
D02*
G37*
G36*
X520685Y319776D02*
X518413D01*
Y316717D01*
X520685D01*
Y319776D01*
D02*
G37*
G36*
X70428Y317610D02*
X69004D01*
Y316187D01*
X69278Y316241D01*
X69934Y316680D01*
X70373Y317336D01*
X70428Y317610D01*
D02*
G37*
G36*
X69004Y320034D02*
Y318610D01*
X70428D01*
X70373Y318884D01*
X69934Y319541D01*
X69278Y319979D01*
X69004Y320034D01*
D02*
G37*
G36*
X343779Y385861D02*
X342752Y385725D01*
X341794Y385329D01*
X340972Y384698D01*
X340341Y383875D01*
X339944Y382917D01*
X339809Y381890D01*
Y380315D01*
X339944Y379287D01*
X340341Y378329D01*
X340972Y377507D01*
X341794Y376876D01*
X342388Y376630D01*
Y346850D01*
X340354D01*
Y342520D01*
Y339370D01*
Y335039D01*
X342388D01*
Y324059D01*
X342032Y323526D01*
X341894Y322835D01*
X342032Y322143D01*
X342424Y321557D01*
X343009Y321166D01*
X343701Y321028D01*
X344392Y321166D01*
X344978Y321557D01*
X345370Y322143D01*
X345507Y322835D01*
X345370Y323526D01*
X345013Y324059D01*
Y335039D01*
X347047D01*
Y339370D01*
Y342520D01*
Y346850D01*
X345013D01*
Y376565D01*
X345765Y376876D01*
X346587Y377507D01*
X347218Y378329D01*
X347615Y379287D01*
X347750Y380315D01*
Y381890D01*
X347615Y382917D01*
X347218Y383875D01*
X346587Y384698D01*
X345765Y385329D01*
X344807Y385725D01*
X343779Y385861D01*
D02*
G37*
G36*
X520685Y323835D02*
X518413D01*
Y320776D01*
X520685D01*
Y323835D01*
D02*
G37*
G36*
X73411Y248083D02*
X69004D01*
Y244397D01*
X69291D01*
X70375Y244540D01*
X71384Y244958D01*
X72251Y245623D01*
X72916Y246490D01*
X73334Y247499D01*
X73411Y248083D01*
D02*
G37*
G36*
X400800Y147453D02*
X397114D01*
Y143046D01*
X397697Y143122D01*
X398707Y143541D01*
X399574Y144206D01*
X400239Y145073D01*
X400657Y146082D01*
X400800Y147165D01*
Y147453D01*
D02*
G37*
G36*
X416114D02*
X412429D01*
Y147165D01*
X412571Y146082D01*
X412990Y145073D01*
X413655Y144206D01*
X414522Y143541D01*
X415531Y143122D01*
X416114Y143046D01*
Y147453D01*
D02*
G37*
G36*
X420800D02*
X417114D01*
Y143046D01*
X417697Y143122D01*
X418707Y143541D01*
X419574Y144206D01*
X420239Y145073D01*
X420657Y146082D01*
X420800Y147165D01*
Y147453D01*
D02*
G37*
G36*
X148535Y150409D02*
X143724D01*
Y146760D01*
X148535D01*
Y150409D01*
D02*
G37*
G36*
X410800Y147453D02*
X407114D01*
Y143046D01*
X407697Y143122D01*
X408707Y143541D01*
X409574Y144206D01*
X410239Y145073D01*
X410657Y146082D01*
X410800Y147165D01*
Y147453D01*
D02*
G37*
G36*
X406114D02*
X402429D01*
Y147165D01*
X402571Y146082D01*
X402989Y145073D01*
X403655Y144206D01*
X404522Y143541D01*
X405531Y143122D01*
X406114Y143046D01*
Y147453D01*
D02*
G37*
G36*
X466945Y143717D02*
X463295D01*
Y139279D01*
X466945D01*
Y143717D01*
D02*
G37*
G36*
X462295D02*
X458646D01*
Y139279D01*
X462295D01*
Y143717D01*
D02*
G37*
G36*
X386114Y147453D02*
X382465D01*
Y143016D01*
X386114D01*
Y147453D01*
D02*
G37*
G36*
X396114D02*
X392429D01*
Y147165D01*
X392571Y146082D01*
X392989Y145073D01*
X393655Y144206D01*
X394521Y143541D01*
X395531Y143122D01*
X396114Y143046D01*
Y147453D01*
D02*
G37*
G36*
X390764D02*
X387114D01*
Y143016D01*
X390764D01*
Y147453D01*
D02*
G37*
G36*
X417114Y152860D02*
Y148453D01*
X420800D01*
Y148740D01*
X420657Y149823D01*
X420239Y150833D01*
X419574Y151700D01*
X418707Y152365D01*
X417697Y152783D01*
X417114Y152860D01*
D02*
G37*
G36*
X407114D02*
Y148453D01*
X410800D01*
Y148740D01*
X410657Y149823D01*
X410239Y150833D01*
X409574Y151700D01*
X408707Y152365D01*
X407697Y152783D01*
X407114Y152860D01*
D02*
G37*
G36*
X359842Y191570D02*
X359151Y191433D01*
X358565Y191041D01*
X358174Y190455D01*
X358036Y189764D01*
X358174Y189073D01*
X358565Y188487D01*
X359151Y188095D01*
X359842Y187957D01*
X360534Y188095D01*
X361067Y188451D01*
X369535D01*
X371916Y186071D01*
Y161417D01*
X372016Y160915D01*
X372300Y160489D01*
X377025Y155765D01*
X377450Y155480D01*
X377953Y155380D01*
X423078D01*
X424190Y154268D01*
X424315Y153639D01*
X424707Y153053D01*
X425293Y152662D01*
X425984Y152524D01*
X426676Y152662D01*
X427261Y153053D01*
X427653Y153639D01*
X427791Y154331D01*
X427653Y155022D01*
X427261Y155608D01*
X426676Y156000D01*
X426047Y156125D01*
X424550Y157621D01*
X424124Y157906D01*
X423622Y158005D01*
X378497D01*
X374541Y161961D01*
Y186614D01*
X374441Y187117D01*
X374156Y187542D01*
X371007Y190692D01*
X370581Y190977D01*
X370079Y191076D01*
X361067D01*
X360534Y191433D01*
X359842Y191570D01*
D02*
G37*
G36*
X184252Y171688D02*
X182863Y171551D01*
X181527Y171146D01*
X180296Y170488D01*
X179217Y169602D01*
X178331Y168523D01*
X177673Y167292D01*
X177268Y165956D01*
X177131Y164567D01*
X177268Y163178D01*
X177673Y161842D01*
X178331Y160611D01*
X179217Y159532D01*
X180296Y158646D01*
X181527Y157988D01*
X182863Y157583D01*
X184252Y157446D01*
X185641Y157583D01*
X186977Y157988D01*
X188208Y158646D01*
X189287Y159532D01*
X190173Y160611D01*
X190831Y161842D01*
X191236Y163178D01*
X191373Y164567D01*
X191236Y165956D01*
X190831Y167292D01*
X190173Y168523D01*
X189287Y169602D01*
X188208Y170488D01*
X186977Y171146D01*
X185641Y171551D01*
X184252Y171688D01*
D02*
G37*
G36*
X348031Y205940D02*
X347340Y205803D01*
X346754Y205411D01*
X346363Y204825D01*
X346225Y204134D01*
X346363Y203443D01*
X346719Y202909D01*
Y164567D01*
X346819Y164065D01*
X347103Y163639D01*
X356277Y154465D01*
X356402Y153836D01*
X356794Y153250D01*
X357380Y152859D01*
X358071Y152721D01*
X358762Y152859D01*
X359348Y153250D01*
X359740Y153836D01*
X359877Y154528D01*
X359740Y155219D01*
X359348Y155805D01*
X358762Y156196D01*
X358133Y156322D01*
X349344Y165111D01*
Y202909D01*
X349700Y203443D01*
X349838Y204134D01*
X349700Y204825D01*
X349309Y205411D01*
X348723Y205803D01*
X348031Y205940D01*
D02*
G37*
G36*
X397114Y152860D02*
Y148453D01*
X400800D01*
Y148740D01*
X400657Y149823D01*
X400239Y150833D01*
X399574Y151700D01*
X398707Y152365D01*
X397697Y152783D01*
X397114Y152860D01*
D02*
G37*
G36*
X406114D02*
X405531Y152783D01*
X404522Y152365D01*
X403655Y151700D01*
X402989Y150833D01*
X402571Y149823D01*
X402429Y148740D01*
Y148453D01*
X406114D01*
Y152860D01*
D02*
G37*
G36*
X396114D02*
X395531Y152783D01*
X394521Y152365D01*
X393655Y151700D01*
X392989Y150833D01*
X392571Y149823D01*
X392429Y148740D01*
Y148453D01*
X396114D01*
Y152860D01*
D02*
G37*
G36*
X416114D02*
X415531Y152783D01*
X414522Y152365D01*
X413655Y151700D01*
X412990Y150833D01*
X412571Y149823D01*
X412429Y148740D01*
Y148453D01*
X416114D01*
Y152860D01*
D02*
G37*
G36*
X390764Y152890D02*
X387114D01*
Y148453D01*
X390764D01*
Y152890D01*
D02*
G37*
G36*
X386114D02*
X382465D01*
Y148453D01*
X386114D01*
Y152890D01*
D02*
G37*
G36*
X309083Y132466D02*
Y128059D01*
X312768D01*
Y128347D01*
X312626Y129430D01*
X312207Y130439D01*
X311542Y131306D01*
X310675Y131971D01*
X309666Y132389D01*
X309083Y132466D01*
D02*
G37*
G36*
X308083Y132466D02*
X307499Y132389D01*
X306490Y131971D01*
X305623Y131306D01*
X304958Y130439D01*
X304540Y129430D01*
X304397Y128347D01*
Y128059D01*
X308083D01*
Y132466D01*
D02*
G37*
G36*
X534539Y133437D02*
X530102D01*
Y129787D01*
X534539D01*
Y133437D01*
D02*
G37*
G36*
X116115Y135663D02*
X112429D01*
Y131256D01*
X113012Y131333D01*
X114022Y131751D01*
X114889Y132416D01*
X115554Y133283D01*
X115972Y134293D01*
X116115Y135376D01*
Y135663D01*
D02*
G37*
G36*
X539976Y133437D02*
X535539D01*
Y129787D01*
X539976D01*
Y133437D01*
D02*
G37*
G36*
X17717Y24944D02*
X16307Y24805D01*
X14951Y24394D01*
X13701Y23726D01*
X12606Y22827D01*
X11707Y21732D01*
X11039Y20482D01*
X10628Y19127D01*
X10489Y17717D01*
X10628Y16307D01*
X11039Y14951D01*
X11707Y13701D01*
X12606Y12606D01*
X13701Y11707D01*
X14951Y11039D01*
X16307Y10628D01*
X17717Y10489D01*
X19127Y10628D01*
X20482Y11039D01*
X21732Y11707D01*
X22827Y12606D01*
X23726Y13701D01*
X24394Y14951D01*
X24805Y16307D01*
X24944Y17717D01*
X24805Y19127D01*
X24394Y20482D01*
X23726Y21732D01*
X22827Y22827D01*
X21732Y23726D01*
X20482Y24394D01*
X19127Y24805D01*
X17717Y24944D01*
D02*
G37*
G36*
X115173Y21547D02*
X111524D01*
Y17110D01*
X115173D01*
Y21547D01*
D02*
G37*
G36*
X163476D02*
X159827D01*
Y17110D01*
X163476D01*
Y21547D01*
D02*
G37*
G36*
X292520Y132283D02*
X284646D01*
Y122835D01*
X292520D01*
Y132283D01*
D02*
G37*
G36*
X536614Y24944D02*
X535204Y24805D01*
X533848Y24394D01*
X532599Y23726D01*
X531503Y22827D01*
X530605Y21732D01*
X529937Y20482D01*
X529525Y19127D01*
X529387Y17717D01*
X529525Y16307D01*
X529937Y14951D01*
X530605Y13701D01*
X531503Y12606D01*
X532599Y11707D01*
X533848Y11039D01*
X535204Y10628D01*
X536614Y10489D01*
X538024Y10628D01*
X539380Y11039D01*
X540630Y11707D01*
X541725Y12606D01*
X542624Y13701D01*
X543292Y14951D01*
X543703Y16307D01*
X543842Y17717D01*
X543703Y19127D01*
X543292Y20482D01*
X542624Y21732D01*
X541725Y22827D01*
X540630Y23726D01*
X539380Y24394D01*
X538024Y24805D01*
X536614Y24944D01*
D02*
G37*
G36*
X110524Y21547D02*
X106874D01*
Y17110D01*
X110524D01*
Y21547D01*
D02*
G37*
G36*
X436614Y178972D02*
X435923Y178834D01*
X435337Y178443D01*
X434945Y177857D01*
X434808Y177165D01*
X434945Y176474D01*
X435302Y175941D01*
Y138232D01*
X434945Y137699D01*
X434808Y137008D01*
X434945Y136317D01*
X435337Y135731D01*
X435923Y135339D01*
X436614Y135202D01*
X437305Y135339D01*
X437891Y135731D01*
X438283Y136317D01*
X438420Y137008D01*
X438283Y137699D01*
X437927Y138232D01*
Y175941D01*
X438283Y176474D01*
X438420Y177165D01*
X438283Y177857D01*
X437891Y178443D01*
X437305Y178834D01*
X436614Y178972D01*
D02*
G37*
G36*
X539976Y138087D02*
X535539D01*
Y134437D01*
X539976D01*
Y138087D01*
D02*
G37*
G36*
X112429Y141070D02*
Y136663D01*
X116115D01*
Y136951D01*
X115972Y138034D01*
X115554Y139043D01*
X114889Y139910D01*
X114022Y140576D01*
X113012Y140994D01*
X112429Y141070D01*
D02*
G37*
G36*
X390551Y141732D02*
X382677D01*
Y138321D01*
X375009D01*
X374897Y138880D01*
X374506Y139466D01*
X373920Y139858D01*
X373228Y139995D01*
X372537Y139858D01*
X371951Y139466D01*
X371560Y138880D01*
X371422Y138189D01*
X371560Y137498D01*
X371951Y136912D01*
X372537Y136520D01*
X373166Y136395D01*
X373481Y136080D01*
X373907Y135795D01*
X374410Y135695D01*
X382677D01*
Y132283D01*
X390551D01*
Y141732D01*
D02*
G37*
G36*
X512598Y201216D02*
X511907Y201078D01*
X511321Y200687D01*
X510930Y200101D01*
X510792Y199409D01*
X510930Y198718D01*
X511286Y198185D01*
Y140791D01*
X510930Y140258D01*
X510792Y139567D01*
X510930Y138876D01*
X511321Y138290D01*
X511907Y137898D01*
X512598Y137761D01*
X513290Y137898D01*
X513876Y138290D01*
X514267Y138876D01*
X514405Y139567D01*
X514267Y140258D01*
X513911Y140791D01*
Y198185D01*
X514267Y198718D01*
X514405Y199409D01*
X514267Y200101D01*
X513876Y200687D01*
X513290Y201078D01*
X512598Y201216D01*
D02*
G37*
G36*
X534539Y138087D02*
X530102D01*
Y134437D01*
X534539D01*
Y138087D01*
D02*
G37*
G36*
X406614Y141766D02*
X405586Y141631D01*
X404629Y141234D01*
X403806Y140603D01*
X403175Y139781D01*
X402778Y138823D01*
X402643Y137795D01*
Y136221D01*
X402778Y135193D01*
X403175Y134235D01*
X403806Y133413D01*
X404629Y132782D01*
X405586Y132385D01*
X406614Y132249D01*
X407642Y132385D01*
X408600Y132782D01*
X409422Y133413D01*
X410053Y134235D01*
X410450Y135193D01*
X410585Y136221D01*
Y137795D01*
X410450Y138823D01*
X410053Y139781D01*
X409422Y140603D01*
X408600Y141234D01*
X407642Y141631D01*
X406614Y141766D01*
D02*
G37*
G36*
X396614D02*
X395586Y141631D01*
X394629Y141234D01*
X393806Y140603D01*
X393175Y139781D01*
X392778Y138823D01*
X392643Y137795D01*
Y136221D01*
X392778Y135193D01*
X393175Y134235D01*
X393806Y133413D01*
X394629Y132782D01*
X395586Y132385D01*
X396614Y132249D01*
X397642Y132385D01*
X398600Y132782D01*
X399422Y133413D01*
X400053Y134235D01*
X400450Y135193D01*
X400585Y136221D01*
Y137795D01*
X400450Y138823D01*
X400053Y139781D01*
X399422Y140603D01*
X398600Y141234D01*
X397642Y141631D01*
X396614Y141766D01*
D02*
G37*
G36*
X416614D02*
X415586Y141631D01*
X414629Y141234D01*
X413806Y140603D01*
X413175Y139781D01*
X412779Y138823D01*
X412643Y137795D01*
Y136221D01*
X412779Y135193D01*
X413175Y134235D01*
X413806Y133413D01*
X414629Y132782D01*
X415586Y132385D01*
X416614Y132249D01*
X417642Y132385D01*
X418600Y132782D01*
X419422Y133413D01*
X420053Y134235D01*
X420450Y135193D01*
X420585Y136221D01*
Y137795D01*
X420450Y138823D01*
X420053Y139781D01*
X419422Y140603D01*
X418600Y141234D01*
X417642Y141631D01*
X416614Y141766D01*
D02*
G37*
G36*
X466945Y138279D02*
X463295D01*
Y133843D01*
X466945D01*
Y138279D01*
D02*
G37*
G36*
X462295D02*
X458646D01*
Y133843D01*
X462295D01*
Y138279D01*
D02*
G37*
G36*
X154937Y232496D02*
X151878D01*
Y230618D01*
X154937D01*
Y232496D01*
D02*
G37*
G36*
X150878D02*
X147819D01*
Y230618D01*
X150878D01*
Y232496D01*
D02*
G37*
G36*
X164067Y234661D02*
X162779D01*
Y232390D01*
X164067D01*
Y234661D01*
D02*
G37*
G36*
X434661Y235327D02*
X431602D01*
Y233449D01*
X434661D01*
Y235327D01*
D02*
G37*
G36*
X430602D02*
X427543D01*
Y233449D01*
X430602D01*
Y235327D01*
D02*
G37*
G36*
X164067Y231390D02*
X162779D01*
Y229118D01*
X164067D01*
Y231390D01*
D02*
G37*
G36*
X317413Y220957D02*
X315142D01*
Y219669D01*
X317413D01*
Y220957D01*
D02*
G37*
G36*
X334601Y219579D02*
X333177D01*
Y218155D01*
X333451Y218210D01*
X334108Y218648D01*
X334546Y219304D01*
X334601Y219579D01*
D02*
G37*
G36*
X320685Y220957D02*
X318413D01*
Y219669D01*
X320685D01*
Y220957D01*
D02*
G37*
G36*
X333177Y222002D02*
Y220579D01*
X334601D01*
X334546Y220853D01*
X334108Y221509D01*
X333451Y221948D01*
X333177Y222002D01*
D02*
G37*
G36*
X332177D02*
X331903Y221948D01*
X331247Y221509D01*
X330808Y220853D01*
X330753Y220579D01*
X332177D01*
Y222002D01*
D02*
G37*
G36*
X520488Y247457D02*
X518217D01*
Y243020D01*
X520488D01*
Y247457D01*
D02*
G37*
G36*
X264870Y245291D02*
Y243020D01*
X266158D01*
Y245291D01*
X264870D01*
D02*
G37*
G36*
X49106Y248083D02*
X44699D01*
X44776Y247499D01*
X45194Y246490D01*
X45859Y245623D01*
X46726Y244958D01*
X47736Y244540D01*
X48819Y244397D01*
X49106D01*
Y248083D01*
D02*
G37*
G36*
X68004D02*
X63597D01*
X63674Y247499D01*
X64092Y246490D01*
X64757Y245623D01*
X65624Y244958D01*
X66633Y244540D01*
X67716Y244397D01*
X68004D01*
Y248083D01*
D02*
G37*
G36*
X54513D02*
X50106D01*
Y244397D01*
X50394D01*
X51477Y244540D01*
X52486Y244958D01*
X53353Y245623D01*
X54018Y246490D01*
X54436Y247499D01*
X54513Y248083D01*
D02*
G37*
G36*
X137811Y243791D02*
X136130D01*
Y241520D01*
X137811D01*
Y243791D01*
D02*
G37*
G36*
X73228Y242520D02*
X63779D01*
Y234646D01*
X73228D01*
Y242520D01*
D02*
G37*
G36*
X54331D02*
X44882D01*
Y234646D01*
X54331D01*
Y242520D01*
D02*
G37*
G36*
X517216Y247457D02*
X514945D01*
Y247244D01*
X450157D01*
Y237795D01*
X451404D01*
Y143252D01*
X450810Y143006D01*
X449987Y142375D01*
X449356Y141552D01*
X448960Y140595D01*
X448824Y139567D01*
Y137992D01*
X448960Y136964D01*
X449356Y136007D01*
X449987Y135184D01*
X450810Y134553D01*
X451767Y134157D01*
X452795Y134021D01*
X453823Y134157D01*
X454781Y134553D01*
X455603Y135184D01*
X456234Y136007D01*
X456631Y136964D01*
X456766Y137992D01*
Y139567D01*
X456631Y140595D01*
X456234Y141552D01*
X455603Y142375D01*
X454781Y143006D01*
X454029Y143317D01*
Y237795D01*
X491404D01*
Y197878D01*
X491048Y197345D01*
X490910Y196653D01*
X491048Y195962D01*
X491439Y195376D01*
X492025Y194985D01*
X492717Y194847D01*
X493408Y194985D01*
X493994Y195376D01*
X494385Y195962D01*
X494523Y196653D01*
X494385Y197345D01*
X494029Y197878D01*
Y237795D01*
X496404D01*
Y196685D01*
X493354Y193635D01*
X485280D01*
X484746Y193992D01*
X484055Y194129D01*
X483364Y193992D01*
X482778Y193600D01*
X482386Y193014D01*
X482249Y192323D01*
X482386Y191632D01*
X482778Y191045D01*
X483364Y190654D01*
X484055Y190516D01*
X484746Y190654D01*
X485280Y191010D01*
X493898D01*
X494400Y191110D01*
X494826Y191395D01*
X498645Y195214D01*
X498929Y195639D01*
X499029Y196142D01*
Y237795D01*
X501443D01*
Y234295D01*
X501087Y233762D01*
X500949Y233071D01*
X501087Y232380D01*
X501479Y231794D01*
X502065Y231402D01*
X502756Y231264D01*
X503447Y231402D01*
X504033Y231794D01*
X504425Y232380D01*
X504562Y233071D01*
X504425Y233762D01*
X504069Y234295D01*
Y237795D01*
X506404D01*
Y227748D01*
X505371Y226715D01*
X505087Y226290D01*
X504987Y225787D01*
Y220319D01*
X504630Y219786D01*
X504493Y219094D01*
X504630Y218403D01*
X505022Y217817D01*
X505608Y217426D01*
X506299Y217288D01*
X506990Y217426D01*
X507577Y217817D01*
X507968Y218403D01*
X508106Y219094D01*
X507968Y219786D01*
X507612Y220319D01*
Y225244D01*
X508645Y226276D01*
X508929Y226702D01*
X509029Y227205D01*
Y237795D01*
X514945D01*
Y237583D01*
X517216D01*
Y242520D01*
Y247457D01*
D02*
G37*
G36*
X266158Y242020D02*
X264870D01*
Y239748D01*
X266158D01*
Y242020D01*
D02*
G37*
G36*
X520488Y242020D02*
X518217D01*
Y237583D01*
X520488D01*
Y242020D01*
D02*
G37*
G36*
X332177Y219579D02*
X330753D01*
X330808Y219304D01*
X331247Y218648D01*
X331903Y218210D01*
X332177Y218155D01*
Y219579D01*
D02*
G37*
G36*
X260327Y174622D02*
X259039D01*
Y172350D01*
X260327D01*
Y174622D01*
D02*
G37*
G36*
X296941Y172728D02*
X295517D01*
X295572Y172454D01*
X296010Y171798D01*
X296667Y171359D01*
X296941Y171305D01*
Y172728D01*
D02*
G37*
G36*
Y175152D02*
X296667Y175098D01*
X296010Y174659D01*
X295572Y174003D01*
X295517Y173728D01*
X296941D01*
Y175152D01*
D02*
G37*
G36*
X260327Y182890D02*
X259039D01*
Y180618D01*
X260327D01*
Y182890D01*
D02*
G37*
G36*
Y179618D02*
X259039D01*
Y177346D01*
X260327D01*
Y179618D01*
D02*
G37*
G36*
X263538Y159146D02*
X262114D01*
Y157722D01*
X262388Y157776D01*
X263045Y158215D01*
X263483Y158871D01*
X263538Y159146D01*
D02*
G37*
G36*
X261114D02*
X259690D01*
X259745Y158871D01*
X260184Y158215D01*
X260840Y157776D01*
X261114Y157722D01*
Y159146D01*
D02*
G37*
G36*
Y161569D02*
X260840Y161515D01*
X260184Y161076D01*
X259745Y160420D01*
X259690Y160146D01*
X261114D01*
Y161569D01*
D02*
G37*
G36*
X260327Y171350D02*
X259039D01*
Y169079D01*
X260327D01*
Y171350D01*
D02*
G37*
G36*
X262114Y161569D02*
Y160146D01*
X263538D01*
X263483Y160420D01*
X263045Y161076D01*
X262388Y161515D01*
X262114Y161569D01*
D02*
G37*
G36*
X164067Y193988D02*
X162779D01*
Y191717D01*
X164067D01*
Y193988D01*
D02*
G37*
G36*
X244972Y207693D02*
X242701D01*
Y206405D01*
X244972D01*
Y207693D01*
D02*
G37*
G36*
X151378Y230118D02*
D01*
Y229618D01*
X147819D01*
Y227740D01*
X148031Y227528D01*
Y224803D01*
Y220472D01*
X150065D01*
Y214173D01*
X150165Y213671D01*
X150450Y213245D01*
X152231Y211464D01*
Y208399D01*
X63976D01*
X63474Y208299D01*
X63048Y208015D01*
X55883Y200849D01*
X55598Y200424D01*
X55498Y199921D01*
Y140668D01*
X54826Y140390D01*
X54003Y139759D01*
X53372Y138936D01*
X53145Y138387D01*
X52603D01*
X52376Y138936D01*
X51745Y139759D01*
X50923Y140390D01*
X49965Y140786D01*
X48937Y140922D01*
X47909Y140786D01*
X46951Y140390D01*
X46129Y139759D01*
X45498Y138936D01*
X45000Y139040D01*
Y140888D01*
X37126D01*
Y137476D01*
X25927D01*
X25425Y137376D01*
X24999Y137092D01*
X20528Y132621D01*
X20244Y132195D01*
X20144Y131693D01*
Y110039D01*
X20244Y109537D01*
X20528Y109111D01*
X24278Y105362D01*
Y67126D01*
X20866D01*
Y59252D01*
X30315D01*
Y67126D01*
X26903D01*
Y86680D01*
X31693D01*
Y85433D01*
Y82874D01*
X31890Y82677D01*
X35433D01*
Y77559D01*
X36483D01*
Y74016D01*
X36583Y73513D01*
X36867Y73088D01*
X38836Y71119D01*
X39261Y70834D01*
X39764Y70735D01*
X51181D01*
X51683Y70834D01*
X52109Y71119D01*
X55653Y74662D01*
X55937Y75088D01*
X56037Y75591D01*
Y101181D01*
X64370D01*
Y107874D01*
X63517D01*
Y111464D01*
X64520Y112467D01*
X68898D01*
X69400Y112567D01*
X69826Y112851D01*
X73487Y116513D01*
X73772Y116939D01*
X73872Y117441D01*
Y131658D01*
X74545Y131937D01*
X75367Y132568D01*
X75998Y133390D01*
X76226Y133940D01*
X76767D01*
X76994Y133390D01*
X77625Y132568D01*
X78448Y131937D01*
X79405Y131540D01*
X80433Y131405D01*
X81461Y131540D01*
X82419Y131937D01*
X83241Y132568D01*
X83872Y133390D01*
X84100Y133940D01*
X84641D01*
X84868Y133390D01*
X85499Y132568D01*
X86322Y131937D01*
X87279Y131540D01*
X88307Y131405D01*
X89335Y131540D01*
X90293Y131937D01*
X91115Y132568D01*
X91746Y133390D01*
X91974Y133940D01*
X92515D01*
X92742Y133390D01*
X93373Y132568D01*
X94196Y131937D01*
X95153Y131540D01*
X96181Y131405D01*
X97209Y131540D01*
X98167Y131937D01*
X98989Y132568D01*
X99620Y133390D01*
X99848Y133940D01*
X100389D01*
X100616Y133390D01*
X101247Y132568D01*
X102070Y131937D01*
X103027Y131540D01*
X104055Y131405D01*
X105083Y131540D01*
X106041Y131937D01*
X106863Y132568D01*
X107494Y133390D01*
X107606Y133662D01*
X108148D01*
X108305Y133283D01*
X108970Y132416D01*
X109836Y131751D01*
X110846Y131333D01*
X111429Y131256D01*
Y136163D01*
Y141070D01*
X110846Y140994D01*
X109836Y140576D01*
X108970Y139910D01*
X108305Y139043D01*
X108148Y138665D01*
X107606D01*
X107494Y138936D01*
X106863Y139759D01*
X106041Y140390D01*
X105368Y140668D01*
Y141700D01*
X106449Y142782D01*
X140902D01*
X141435Y142426D01*
X142126Y142288D01*
X142817Y142426D01*
X143224Y142698D01*
X143724Y142466D01*
Y142110D01*
X148535D01*
Y145760D01*
X143724D01*
Y145723D01*
X143224Y145491D01*
X142817Y145763D01*
X142126Y145901D01*
X141435Y145763D01*
X140902Y145407D01*
X105905D01*
X105403Y145307D01*
X104977Y145023D01*
X103127Y143172D01*
X102842Y142746D01*
X102743Y142244D01*
Y140668D01*
X102070Y140390D01*
X101247Y139759D01*
X100616Y138936D01*
X100389Y138387D01*
X99848D01*
X99620Y138936D01*
X98989Y139759D01*
X98167Y140390D01*
X97209Y140786D01*
X96181Y140922D01*
X95153Y140786D01*
X94196Y140390D01*
X93373Y139759D01*
X92742Y138936D01*
X92515Y138387D01*
X91974D01*
X91746Y138936D01*
X91115Y139759D01*
X90293Y140390D01*
X89335Y140786D01*
X88307Y140922D01*
X87279Y140786D01*
X86322Y140390D01*
X85499Y139759D01*
X84868Y138936D01*
X84641Y138387D01*
X84100D01*
X83872Y138936D01*
X83241Y139759D01*
X82419Y140390D01*
X81461Y140786D01*
X80433Y140922D01*
X79405Y140786D01*
X78448Y140390D01*
X77625Y139759D01*
X76994Y138936D01*
X76767Y138387D01*
X76226D01*
X75998Y138936D01*
X75367Y139759D01*
X74545Y140390D01*
X73587Y140786D01*
X72559Y140922D01*
X71531Y140786D01*
X70574Y140390D01*
X69751Y139759D01*
X69120Y138936D01*
X68893Y138387D01*
X68352D01*
X68124Y138936D01*
X67493Y139759D01*
X66671Y140390D01*
X65713Y140786D01*
X64685Y140922D01*
X63657Y140786D01*
X62700Y140390D01*
X61877Y139759D01*
X61246Y138936D01*
X61019Y138387D01*
X60477D01*
X60250Y138936D01*
X59619Y139759D01*
X58797Y140390D01*
X58124Y140668D01*
Y199378D01*
X64520Y205774D01*
X152319D01*
X152426Y205702D01*
X152455Y205165D01*
X152121Y204856D01*
X67913D01*
X67411Y204756D01*
X66985Y204471D01*
X59702Y197188D01*
X59417Y196762D01*
X59317Y196260D01*
Y167563D01*
X58961Y167030D01*
X58824Y166339D01*
X58961Y165647D01*
X59353Y165061D01*
X59939Y164670D01*
X60630Y164532D01*
X61321Y164670D01*
X61907Y165061D01*
X62299Y165647D01*
X62436Y166339D01*
X62299Y167030D01*
X61942Y167563D01*
Y195716D01*
X68457Y202231D01*
X152319D01*
X152852Y201874D01*
X153543Y201737D01*
X154235Y201874D01*
X154821Y202266D01*
X155212Y202852D01*
X155350Y203543D01*
X155212Y204235D01*
X154821Y204821D01*
X154531Y205014D01*
Y205616D01*
X154821Y205809D01*
X155212Y206395D01*
X155350Y207087D01*
X155212Y207778D01*
X154856Y208311D01*
Y212008D01*
X154756Y212510D01*
X154472Y212936D01*
X152691Y214717D01*
Y220472D01*
X154724D01*
Y224803D01*
X154937Y225016D01*
Y227740D01*
Y229618D01*
X151378D01*
Y230118D01*
D02*
G37*
G36*
X248244Y207693D02*
X245972D01*
Y206405D01*
X248244D01*
Y207693D01*
D02*
G37*
G36*
X239386Y210055D02*
X236327D01*
Y207783D01*
X239386D01*
Y210055D01*
D02*
G37*
G36*
X235327D02*
X232268D01*
Y207783D01*
X235327D01*
Y210055D01*
D02*
G37*
G36*
X226484Y199955D02*
Y198531D01*
X227908D01*
X227853Y198806D01*
X227415Y199462D01*
X226759Y199901D01*
X226484Y199955D01*
D02*
G37*
G36*
X225484Y197531D02*
X224061D01*
X224115Y197257D01*
X224554Y196601D01*
X225210Y196162D01*
X225484Y196108D01*
Y197531D01*
D02*
G37*
G36*
X164067Y197260D02*
X162779D01*
Y194988D01*
X164067D01*
Y197260D01*
D02*
G37*
G36*
X227908Y197531D02*
X226484D01*
Y196108D01*
X226759Y196162D01*
X227415Y196601D01*
X227853Y197257D01*
X227908Y197531D01*
D02*
G37*
G36*
X225484Y199955D02*
X225210Y199901D01*
X224554Y199462D01*
X224115Y198806D01*
X224061Y198531D01*
X225484D01*
Y199955D01*
D02*
G37*
%LPD*%
G36*
X37126Y131439D02*
X39750D01*
Y130780D01*
X38442Y129472D01*
X38157Y129046D01*
X38058Y128543D01*
Y128150D01*
X37795D01*
Y126903D01*
X34843D01*
Y128150D01*
X30543D01*
X30331Y128362D01*
X29043D01*
Y125591D01*
Y122819D01*
X30331D01*
Y123031D01*
X34843D01*
Y124278D01*
X37795D01*
Y123031D01*
X40945D01*
X41157Y122819D01*
X43595D01*
Y125591D01*
Y128362D01*
X42307D01*
X42094Y128150D01*
X41684D01*
X41475Y128623D01*
X41712Y128924D01*
X51160D01*
X51417Y128424D01*
X51373Y128362D01*
X51311D01*
X51307D01*
X50500D01*
Y125591D01*
Y122819D01*
X51307D01*
X51769Y122819D01*
X51787D01*
X52199Y123031D01*
X52287Y123031D01*
X56299D01*
Y128150D01*
X55998D01*
X55937Y128455D01*
X55653Y128881D01*
X53369Y131164D01*
X52943Y131449D01*
X52441Y131549D01*
X51238D01*
X51068Y132049D01*
X51745Y132568D01*
X52376Y133390D01*
X52603Y133940D01*
X53145D01*
X53372Y133390D01*
X54003Y132568D01*
X54826Y131937D01*
X55783Y131540D01*
X56811Y131405D01*
X57839Y131540D01*
X58797Y131937D01*
X59619Y132568D01*
X60250Y133390D01*
X60477Y133940D01*
X61019D01*
X61246Y133390D01*
X61877Y132568D01*
X62700Y131937D01*
X63657Y131540D01*
X64685Y131405D01*
X65713Y131540D01*
X66671Y131937D01*
X67493Y132568D01*
X68124Y133390D01*
X68352Y133940D01*
X68893D01*
X69120Y133390D01*
X69751Y132568D01*
X70574Y131937D01*
X71246Y131658D01*
Y117985D01*
X68354Y115092D01*
X63976D01*
X63474Y114992D01*
X63048Y114708D01*
X61277Y112936D01*
X60992Y112510D01*
X60892Y112008D01*
Y107874D01*
X52559D01*
Y101181D01*
X53412D01*
Y89332D01*
X52912Y89180D01*
X52852Y89269D01*
X52266Y89661D01*
X51575Y89798D01*
X50884Y89661D01*
X50350Y89305D01*
X43898D01*
Y90551D01*
X31693D01*
Y89305D01*
X26903D01*
Y105905D01*
X26803Y106408D01*
X26519Y106834D01*
X22769Y110583D01*
Y131149D01*
X26471Y134851D01*
X37126D01*
Y131439D01*
D02*
G37*
%LPC*%
G36*
X28043Y128362D02*
X26756D01*
Y126091D01*
X28043D01*
Y128362D01*
D02*
G37*
G36*
X49500D02*
X48213D01*
Y126091D01*
X49500D01*
Y128362D01*
D02*
G37*
G36*
X45882D02*
X44594D01*
Y126091D01*
X45882D01*
Y128362D01*
D02*
G37*
G36*
X49500Y125091D02*
X48213D01*
Y122819D01*
X49500D01*
Y125091D01*
D02*
G37*
G36*
X28043D02*
X26756D01*
Y122819D01*
X28043D01*
Y125091D01*
D02*
G37*
G36*
X45882D02*
X44594D01*
Y122819D01*
X45882D01*
Y125091D01*
D02*
G37*
%LPD*%
D10*
X303937Y344685D02*
D03*
Y337205D02*
D03*
X293701Y360827D02*
D03*
Y353346D02*
D03*
X273622Y360827D02*
D03*
Y353346D02*
D03*
X283858Y344685D02*
D03*
Y337205D02*
D03*
X313779Y360827D02*
D03*
Y353346D02*
D03*
X324016Y344685D02*
D03*
Y337205D02*
D03*
X333858Y360827D02*
D03*
Y353346D02*
D03*
X343701Y344685D02*
D03*
Y337205D02*
D03*
X96063Y236811D02*
D03*
Y244291D02*
D03*
X327559Y313976D02*
D03*
Y306496D02*
D03*
X338976Y313779D02*
D03*
Y306299D02*
D03*
X431102Y243307D02*
D03*
Y235827D02*
D03*
X501378Y330709D02*
D03*
Y338189D02*
D03*
X522047Y65158D02*
D03*
Y57677D02*
D03*
Y80709D02*
D03*
Y73228D02*
D03*
X480512Y72244D02*
D03*
Y79724D02*
D03*
X426968Y72244D02*
D03*
Y79724D02*
D03*
X374016Y72244D02*
D03*
Y79724D02*
D03*
X321260Y72244D02*
D03*
Y79724D02*
D03*
X267913Y72244D02*
D03*
Y79724D02*
D03*
X214764Y72244D02*
D03*
Y79724D02*
D03*
X161811Y72244D02*
D03*
Y79724D02*
D03*
X108858Y72244D02*
D03*
Y79724D02*
D03*
X489567Y46457D02*
D03*
Y38976D02*
D03*
X436024Y46457D02*
D03*
Y38976D02*
D03*
X383071Y46457D02*
D03*
Y38976D02*
D03*
X330118Y46457D02*
D03*
Y38976D02*
D03*
X276575Y46457D02*
D03*
Y38976D02*
D03*
X223622Y46457D02*
D03*
Y38976D02*
D03*
X170472Y46457D02*
D03*
Y38976D02*
D03*
X499606Y46457D02*
D03*
Y38976D02*
D03*
X446063Y46457D02*
D03*
Y38976D02*
D03*
X393110Y46457D02*
D03*
Y38976D02*
D03*
X340158Y46457D02*
D03*
Y38976D02*
D03*
X286614Y46457D02*
D03*
Y38976D02*
D03*
X233661Y46457D02*
D03*
Y38976D02*
D03*
X180512Y46457D02*
D03*
Y38976D02*
D03*
X127756Y46457D02*
D03*
Y38976D02*
D03*
X117717Y46457D02*
D03*
Y38976D02*
D03*
X366732Y266732D02*
D03*
Y274213D02*
D03*
X356299Y266732D02*
D03*
Y274213D02*
D03*
X81102Y34646D02*
D03*
Y42126D02*
D03*
X71063Y34646D02*
D03*
Y42126D02*
D03*
X51181Y34646D02*
D03*
Y42126D02*
D03*
X523228Y115157D02*
D03*
Y122638D02*
D03*
X172047Y94882D02*
D03*
Y87402D02*
D03*
X119291Y94882D02*
D03*
Y87402D02*
D03*
X182480Y94882D02*
D03*
Y87402D02*
D03*
X129724Y94882D02*
D03*
Y87402D02*
D03*
X278150Y94882D02*
D03*
Y87402D02*
D03*
X225197Y94882D02*
D03*
Y87402D02*
D03*
X288583Y94882D02*
D03*
Y87402D02*
D03*
X235630Y94882D02*
D03*
Y87402D02*
D03*
X384252Y95079D02*
D03*
Y87598D02*
D03*
X331496Y94882D02*
D03*
Y87402D02*
D03*
X394685Y95079D02*
D03*
Y87598D02*
D03*
X341929Y94882D02*
D03*
Y87402D02*
D03*
X490748Y94882D02*
D03*
Y87402D02*
D03*
X437205Y94882D02*
D03*
Y87402D02*
D03*
X501181Y94882D02*
D03*
Y87402D02*
D03*
X447638Y94882D02*
D03*
Y87402D02*
D03*
X151378Y230118D02*
D03*
Y222638D02*
D03*
D11*
X33465Y338386D02*
D03*
Y345866D02*
D03*
X158268Y338386D02*
D03*
Y345866D02*
D03*
Y362008D02*
D03*
Y354528D02*
D03*
X33465Y362008D02*
D03*
Y354528D02*
D03*
X235827Y199803D02*
D03*
Y207283D02*
D03*
D12*
X66142Y370866D02*
D03*
X125984D02*
D03*
D13*
X56142Y330413D02*
D03*
X76142D02*
D03*
X115984D02*
D03*
X135984D02*
D03*
D14*
X307677Y114567D02*
D03*
X300197D02*
D03*
X205512Y284252D02*
D03*
X198031D02*
D03*
X205512Y274213D02*
D03*
X198031D02*
D03*
X256299Y260630D02*
D03*
X263779D02*
D03*
X220276Y154527D02*
D03*
X212795D02*
D03*
X232283Y368504D02*
D03*
X224803D02*
D03*
X175394Y361024D02*
D03*
X167913D02*
D03*
X16339D02*
D03*
X23819D02*
D03*
X62205Y104528D02*
D03*
X54724D02*
D03*
D15*
X184646Y231496D02*
D03*
Y194095D02*
D03*
D16*
X37795Y80118D02*
D03*
X34055Y87992D02*
D03*
X41535D02*
D03*
X114173Y311811D02*
D03*
X117913Y303937D02*
D03*
X110433D02*
D03*
X158661Y95866D02*
D03*
X162402Y87992D02*
D03*
X154921D02*
D03*
X105905Y95866D02*
D03*
X109646Y87992D02*
D03*
X102165D02*
D03*
X264961Y95866D02*
D03*
X268701Y87992D02*
D03*
X261221D02*
D03*
X211811Y95866D02*
D03*
X215551Y87992D02*
D03*
X208071D02*
D03*
X371063Y96063D02*
D03*
X374803Y88189D02*
D03*
X367323D02*
D03*
X318307Y95866D02*
D03*
X322047Y87992D02*
D03*
X314567D02*
D03*
X477559Y95866D02*
D03*
X481299Y87992D02*
D03*
X473819D02*
D03*
X424016Y95866D02*
D03*
X427756Y87992D02*
D03*
X420276D02*
D03*
D17*
X385630Y108661D02*
D03*
X379724D02*
D03*
X175394Y351181D02*
D03*
X169488D02*
D03*
X16339D02*
D03*
X22244D02*
D03*
X173425Y108661D02*
D03*
X167520D02*
D03*
X120669D02*
D03*
X114764D02*
D03*
X279528D02*
D03*
X273622D02*
D03*
X226575Y108465D02*
D03*
X220669D02*
D03*
X332874Y108661D02*
D03*
X326969D02*
D03*
X492126D02*
D03*
X486221D02*
D03*
X438583D02*
D03*
X432677D02*
D03*
X135630Y244291D02*
D03*
X129724D02*
D03*
D18*
X514173Y338779D02*
D03*
X509449D02*
D03*
X514173Y329921D02*
D03*
X509449D02*
D03*
X168307Y284252D02*
D03*
X173031D02*
D03*
X168307Y274409D02*
D03*
X173031D02*
D03*
X205512Y154528D02*
D03*
X200787D02*
D03*
X164567Y231890D02*
D03*
X169291D02*
D03*
X164567Y194488D02*
D03*
X169291D02*
D03*
X264370Y250984D02*
D03*
X259646D02*
D03*
X264370Y242520D02*
D03*
X259646D02*
D03*
X260827Y180118D02*
D03*
X265551D02*
D03*
X260827Y171850D02*
D03*
X265551D02*
D03*
X50000Y125591D02*
D03*
X54724D02*
D03*
X44094D02*
D03*
X39370D02*
D03*
X28543D02*
D03*
X33268D02*
D03*
D19*
X510433Y320276D02*
D03*
X517913D02*
D03*
D20*
X481299Y60039D02*
D03*
Y54134D02*
D03*
X427756Y60039D02*
D03*
Y54134D02*
D03*
X374803Y60039D02*
D03*
Y54134D02*
D03*
X322047Y60039D02*
D03*
Y54134D02*
D03*
X268701Y60039D02*
D03*
Y54134D02*
D03*
X215551Y60039D02*
D03*
Y54134D02*
D03*
X162598Y60039D02*
D03*
Y54134D02*
D03*
X109646Y60039D02*
D03*
Y54134D02*
D03*
X91339Y310039D02*
D03*
Y304134D02*
D03*
D21*
X245472Y205906D02*
D03*
Y201181D02*
D03*
X317913Y221457D02*
D03*
Y226181D02*
D03*
X309449Y221457D02*
D03*
Y226181D02*
D03*
X100787Y310630D02*
D03*
Y305906D02*
D03*
D22*
X133248Y302224D02*
D03*
Y307224D02*
D03*
Y312224D02*
D03*
Y297224D02*
D03*
D23*
X147854Y304744D02*
D03*
D24*
X137008Y278346D02*
D03*
X111024D02*
D03*
D25*
X95276Y293799D02*
D03*
Y288878D02*
D03*
D26*
X185216Y146260D02*
D03*
X149035D02*
D03*
D27*
X344488Y259429D02*
D03*
Y264429D02*
D03*
Y269429D02*
D03*
Y274429D02*
D03*
X324803Y259429D02*
D03*
Y264429D02*
D03*
Y269429D02*
D03*
Y274429D02*
D03*
D28*
X183858Y274409D02*
D03*
Y284252D02*
D03*
D29*
X262402Y235236D02*
D03*
X264370D02*
D03*
X266339D02*
D03*
X268307D02*
D03*
X270276D02*
D03*
X272244D02*
D03*
X274213D02*
D03*
X276181D02*
D03*
X278150D02*
D03*
X280118D02*
D03*
X282087D02*
D03*
X284055D02*
D03*
X286024D02*
D03*
X287992D02*
D03*
X289961D02*
D03*
X291929D02*
D03*
Y187598D02*
D03*
X289961D02*
D03*
X287992D02*
D03*
X286024D02*
D03*
X284055D02*
D03*
X282087D02*
D03*
X280118D02*
D03*
X278150D02*
D03*
X276181D02*
D03*
X274213D02*
D03*
X272244D02*
D03*
X270276D02*
D03*
X268307D02*
D03*
X266339D02*
D03*
X264370D02*
D03*
X262402D02*
D03*
D30*
X300984Y226181D02*
D03*
Y224213D02*
D03*
Y222244D02*
D03*
Y220276D02*
D03*
Y218307D02*
D03*
Y216338D02*
D03*
Y214370D02*
D03*
Y212402D02*
D03*
Y210433D02*
D03*
Y208465D02*
D03*
Y206496D02*
D03*
Y204527D02*
D03*
Y202559D02*
D03*
Y200591D02*
D03*
Y198622D02*
D03*
Y196653D02*
D03*
X253346D02*
D03*
Y198622D02*
D03*
Y200591D02*
D03*
Y202559D02*
D03*
Y204527D02*
D03*
Y206496D02*
D03*
Y208465D02*
D03*
Y210433D02*
D03*
Y212402D02*
D03*
Y214370D02*
D03*
Y216338D02*
D03*
Y218307D02*
D03*
Y220276D02*
D03*
Y222244D02*
D03*
Y224213D02*
D03*
Y226181D02*
D03*
D31*
X118228Y55118D02*
D03*
X128228D02*
D03*
X118228Y78740D02*
D03*
X128228D02*
D03*
X180984D02*
D03*
X170984D02*
D03*
X180984Y55118D02*
D03*
X170984D02*
D03*
X223937D02*
D03*
X233937D02*
D03*
X223937Y78740D02*
D03*
X233937D02*
D03*
X287087D02*
D03*
X277087D02*
D03*
X287087Y55118D02*
D03*
X277087D02*
D03*
X330433D02*
D03*
X340433D02*
D03*
X330433Y78740D02*
D03*
X340433D02*
D03*
X393189D02*
D03*
X383189D02*
D03*
X393189Y55118D02*
D03*
X383189D02*
D03*
X436142D02*
D03*
X446142D02*
D03*
X436142Y78740D02*
D03*
X446142D02*
D03*
X499685D02*
D03*
X489685D02*
D03*
X499685Y55118D02*
D03*
X489685D02*
D03*
D32*
X517717Y309449D02*
D03*
X512716D02*
D03*
X507717D02*
D03*
X502716D02*
D03*
X497717D02*
D03*
X492717D02*
D03*
X487716D02*
D03*
X482717D02*
D03*
X477716D02*
D03*
X472717D02*
D03*
X467717D02*
D03*
X462716D02*
D03*
X457717D02*
D03*
X452716D02*
D03*
X517717Y242520D02*
D03*
X512716D02*
D03*
X507717D02*
D03*
X502716D02*
D03*
X497717D02*
D03*
X492717D02*
D03*
X487716D02*
D03*
X482717D02*
D03*
X477716D02*
D03*
X472717D02*
D03*
X467717D02*
D03*
X462716D02*
D03*
X457717D02*
D03*
X452716D02*
D03*
D33*
X448779Y298484D02*
D03*
Y293484D02*
D03*
Y288484D02*
D03*
Y283484D02*
D03*
Y278484D02*
D03*
Y273484D02*
D03*
Y253484D02*
D03*
X448740Y258484D02*
D03*
X448779Y263484D02*
D03*
Y268484D02*
D03*
D34*
X488189Y279921D02*
D03*
D35*
X327559Y289173D02*
D03*
Y296654D02*
D03*
X319685Y292913D02*
D03*
X304724Y299016D02*
D03*
Y306496D02*
D03*
X296850Y302756D02*
D03*
D36*
X12992Y333465D02*
D03*
D37*
X547244Y31890D02*
D03*
X78347Y77559D02*
D03*
X364567Y337402D02*
D03*
D38*
X343701Y322835D02*
Y337205D01*
X289961Y306890D02*
X291732Y308661D01*
X289961Y235236D02*
Y306890D01*
X318110Y325590D02*
X324016Y331496D01*
X294882Y325590D02*
X318110D01*
X286024Y316732D02*
X294882Y325590D01*
X324016Y331496D02*
Y337205D01*
X333858Y327559D02*
Y353346D01*
X329528Y323228D02*
X333858Y327559D01*
X297244Y323228D02*
X329528D01*
X287992Y313976D02*
X297244Y323228D01*
X287992Y235236D02*
Y313976D01*
X286024Y235236D02*
Y316732D01*
X313779Y332677D02*
Y353346D01*
X309055Y327953D02*
X313779Y332677D01*
X293307Y327953D02*
X309055D01*
X284055Y318701D02*
X293307Y327953D01*
X284055Y235236D02*
Y318701D01*
X291339Y330315D02*
X301181D01*
X282087Y321063D02*
X291339Y330315D01*
X282087Y235236D02*
Y321063D01*
X303937Y333071D02*
Y337205D01*
X301181Y330315D02*
X303937Y333071D01*
X293701Y336614D02*
Y353346D01*
X280118Y323031D02*
X293701Y336614D01*
X280118Y235236D02*
Y323031D01*
X283858Y330315D02*
Y337205D01*
X278150Y324606D02*
X283858Y330315D01*
X278150Y235236D02*
Y324606D01*
X273622Y335433D02*
Y353346D01*
Y335433D02*
X276181Y332874D01*
Y235236D02*
Y332874D01*
X274213Y235236D02*
Y328937D01*
X263779Y339370D02*
X274213Y328937D01*
X263779Y339370D02*
Y381102D01*
X272244Y235236D02*
Y324606D01*
X243779Y353071D02*
X272244Y324606D01*
X243779Y353071D02*
Y381102D01*
X283780D02*
X283858Y381024D01*
Y344685D02*
Y381024D01*
X303780Y381102D02*
X303937Y380945D01*
Y344685D02*
Y380945D01*
X324016Y344685D02*
Y380866D01*
X343701Y344685D02*
Y381024D01*
X333858Y360827D02*
Y381024D01*
X313779Y360827D02*
Y381102D01*
X293701Y360827D02*
X293779Y360906D01*
Y381102D01*
X273622Y360827D02*
X273780Y360984D01*
Y381102D01*
X58661Y262598D02*
X67323D01*
X55512Y265748D02*
X58661Y262598D01*
X55512Y265748D02*
Y281102D01*
X82776Y293799D02*
X95276D01*
X79134Y290157D02*
X82776Y293799D01*
X79134Y281102D02*
Y290157D01*
X56142Y310039D02*
X91339D01*
X56142D02*
Y330413D01*
Y281733D02*
Y310039D01*
X55512Y281102D02*
X56142Y281733D01*
X277165Y168110D02*
X278150Y169095D01*
X277165Y165354D02*
Y168110D01*
X274213Y161221D02*
Y187598D01*
Y161221D02*
X278346Y157087D01*
X66142Y320472D02*
X68504Y318110D01*
X66142Y320472D02*
Y370866D01*
X205709Y359646D02*
X231102D01*
X198031Y367323D02*
X205709Y359646D01*
X169291Y367323D02*
X198031D01*
X167913Y365945D02*
X169291Y367323D01*
X167913Y361024D02*
Y365945D01*
X163779Y361024D02*
X167913D01*
X162795Y362008D02*
X163779Y361024D01*
X158268Y362008D02*
X162795D01*
X33465Y330315D02*
Y338386D01*
X56142Y330413D02*
Y343071D01*
X53347Y345866D02*
X56142Y343071D01*
X33465Y345866D02*
X53347D01*
X33465D02*
Y354528D01*
X27756D02*
X33465D01*
X24409Y351181D02*
X27756Y354528D01*
X22244Y351181D02*
X24409D01*
X36614Y370866D02*
X66142D01*
X33465Y367717D02*
X36614Y370866D01*
X33465Y362008D02*
Y367717D01*
X28937Y362008D02*
X33465D01*
X27953Y361024D02*
X28937Y362008D01*
X23819Y361024D02*
X27953D01*
X16339Y351181D02*
X16339Y351181D01*
X16339Y351181D02*
Y361024D01*
X84941Y330413D02*
X85039Y330315D01*
X76142Y330413D02*
X84941D01*
X146457D02*
X154823D01*
X135984D02*
X146457D01*
X114961Y297224D02*
X133248D01*
X112224D02*
X114961D01*
X91339Y301181D02*
X93307Y299213D01*
X91339Y301181D02*
Y304134D01*
X104429Y330413D02*
X115984D01*
X100787Y326772D02*
X104429Y330413D01*
X100787Y310630D02*
Y326772D01*
Y292913D02*
Y305906D01*
Y291339D02*
Y292913D01*
X147854Y294311D02*
Y304744D01*
X146457Y292913D02*
X147854Y294311D01*
X100787Y292913D02*
X146457D01*
X98327Y288878D02*
X100787Y291339D01*
X95276Y288878D02*
X98327D01*
X95669Y310630D02*
X100787D01*
X95079Y310039D02*
X95669Y310630D01*
X91339Y310039D02*
X95079D01*
X110433Y299016D02*
Y303937D01*
Y299016D02*
X112224Y297224D01*
X117913Y303937D02*
X122441D01*
X124803Y306299D01*
Y310236D01*
X126791Y312224D01*
X133248D01*
X135984Y319449D02*
Y330413D01*
X133248Y316713D02*
X135984Y319449D01*
X133248Y312224D02*
Y316713D01*
X154823Y330413D02*
X158268Y333858D01*
Y338386D01*
X125984Y370866D02*
X155512D01*
X158268Y368110D01*
Y362008D02*
Y368110D01*
Y351181D02*
Y354528D01*
Y345866D02*
Y351181D01*
X169488D01*
X175394D02*
X175394Y351181D01*
Y361024D01*
X168307Y284252D02*
Y298622D01*
X169488Y299803D01*
Y351181D01*
X148819Y274409D02*
X168307D01*
X144882Y278346D02*
X148819Y274409D01*
X137008Y278346D02*
X144882D01*
X96850D02*
X111024D01*
X95276Y279921D02*
X96850Y278346D01*
X95276Y279921D02*
Y288878D01*
X223622Y229331D02*
X228740Y224213D01*
X223622Y229331D02*
Y287008D01*
X288583Y114567D02*
X300197D01*
X306693Y103937D02*
X307677Y104921D01*
Y114567D01*
X264961Y120866D02*
X318504D01*
X308583Y120945D02*
Y127559D01*
X271260Y135039D02*
X337008D01*
X340158Y138189D01*
X373228D02*
X374410Y137008D01*
X386614D01*
X278150Y169095D02*
Y187598D01*
X423622Y156693D02*
X425984Y154331D01*
X377953Y156693D02*
X423622D01*
X373228Y161417D02*
X377953Y156693D01*
X373228Y161417D02*
Y186614D01*
X370079Y189764D02*
X373228Y186614D01*
X359842Y189764D02*
X370079D01*
X436614Y137008D02*
Y177165D01*
X387992Y323819D02*
X393504Y329331D01*
X387992Y177362D02*
Y323819D01*
X431102Y136811D02*
Y235827D01*
X390945Y184252D02*
Y186614D01*
Y184252D02*
X392126Y183071D01*
X406299D01*
X408071Y184843D01*
X308661Y151969D02*
Y173228D01*
X306299Y149606D02*
X308661Y151969D01*
X305906Y154331D02*
Y176772D01*
X303543Y151969D02*
X305906Y154331D01*
X303543Y179921D02*
X307874Y184252D01*
X303543Y156299D02*
Y179921D01*
X300787Y183071D02*
X304331Y186614D01*
X311024Y150394D02*
Y192717D01*
X307874Y147244D02*
X311024Y150394D01*
X208268Y147244D02*
X307874D01*
X313386D02*
Y195276D01*
X310039Y143898D02*
X313386Y147244D01*
X211417Y143898D02*
X310039D01*
X316142Y144095D02*
Y196653D01*
X312992Y140945D02*
X316142Y144095D01*
X228543Y140945D02*
X312992D01*
X307087Y196653D02*
X311024Y192717D01*
X310039Y198622D02*
X313386Y195276D01*
X312205Y200591D02*
X316142Y196653D01*
X314764Y202559D02*
X319291Y198031D01*
Y142913D02*
Y198031D01*
X314567Y138189D02*
X319291Y142913D01*
X256693Y138189D02*
X314567D01*
X301575Y154331D02*
X303543Y156299D01*
X277165Y154331D02*
X301575D01*
X300787Y159055D02*
Y183071D01*
X298819Y157087D02*
X300787Y159055D01*
X278346Y157087D02*
X298819D01*
X272244Y159252D02*
X277165Y154331D01*
X275197Y151969D02*
X303543D01*
X270276Y156890D02*
X275197Y151969D01*
X273031Y149606D02*
X306299D01*
X268307Y154331D02*
X273031Y149606D01*
X272244Y159252D02*
Y187598D01*
X149035Y140374D02*
Y146260D01*
X144825Y136163D02*
X149035Y140374D01*
X111929Y136163D02*
X144825D01*
X331299Y221457D02*
X332677Y220079D01*
X317913Y221457D02*
X331299D01*
X212795Y154528D02*
X212795Y154527D01*
X205512Y154528D02*
X212795D01*
X200787Y120866D02*
X211614D01*
X158661D02*
X200787D01*
Y154528D01*
X197638Y137795D02*
Y159449D01*
X185216Y146260D02*
X197638D01*
Y159449D02*
X199016Y160827D01*
X204921D01*
X205512Y160236D01*
Y154528D02*
Y160236D01*
X212795Y154527D02*
Y162402D01*
X216910Y166516D01*
X149035Y146260D02*
Y174823D01*
X154528Y180315D01*
X161614D01*
X164567Y183268D01*
Y194488D01*
X216910Y166516D02*
Y211201D01*
X283071Y179331D02*
X284055Y180315D01*
Y187598D01*
X299213Y192126D02*
X301575Y189764D01*
X283465Y192126D02*
X299213D01*
X282087Y190748D02*
X283465Y192126D01*
X282087Y187598D02*
Y190748D01*
X291535Y173228D02*
X297441D01*
X289961Y174803D02*
X291535Y173228D01*
X289961Y174803D02*
Y187598D01*
X292323Y176378D02*
X294094D01*
X291929Y176772D02*
X292323Y176378D01*
X291929Y176772D02*
Y187598D01*
X270276Y156890D02*
Y187598D01*
X268307Y154331D02*
Y187598D01*
X280118Y163386D02*
Y187598D01*
X265551Y164764D02*
Y171850D01*
X260827Y172047D02*
Y180118D01*
X261614Y159646D02*
Y163583D01*
X260827Y164370D02*
X261614Y163583D01*
X260827Y164370D02*
Y171850D01*
X265551Y180118D02*
Y181890D01*
X266339Y182677D01*
Y187598D01*
X260827Y180118D02*
Y182283D01*
X44094Y115551D02*
X54724D01*
X58465Y111811D01*
Y99016D02*
Y111811D01*
Y99016D02*
X61614Y95866D01*
X41535Y87992D02*
X51575D01*
X348031Y164567D02*
X358071Y154528D01*
X348031Y164567D02*
Y204134D01*
X314764Y320276D02*
X337205D01*
X338976Y318504D01*
Y313779D02*
Y318504D01*
X315354Y313976D02*
X327559D01*
X338976Y298819D02*
Y306299D01*
X304528Y306496D02*
X327559D01*
X305709Y281102D02*
X312598D01*
X301575Y276969D02*
X305709Y281102D01*
X301575Y243898D02*
Y276969D01*
X297047Y243701D02*
Y288583D01*
X287402Y224410D02*
X292323D01*
X279528Y216535D02*
X287402Y224410D01*
X271654Y216535D02*
X279528D01*
X270472Y215354D02*
X271654Y216535D01*
X297047Y239370D02*
X301575Y243898D01*
X297047Y229134D02*
Y239370D01*
X292323Y224410D02*
X297047Y229134D01*
X270472Y210433D02*
Y215354D01*
X294291Y240945D02*
X297047Y243701D01*
X294291Y229528D02*
Y240945D01*
X291142Y226378D02*
X294291Y229528D01*
X285827Y226378D02*
X291142D01*
X278346Y218898D02*
X285827Y226378D01*
X269488Y218898D02*
X278346D01*
X267323Y216732D02*
X269488Y218898D01*
X267323Y211811D02*
Y216732D01*
X264567Y209055D02*
X267323Y211811D01*
X260433Y209055D02*
X264567D01*
X324803Y221457D02*
Y259429D01*
X225984Y198031D02*
Y204724D01*
X228543Y207283D01*
X235827D01*
X264370Y235236D02*
Y250984D01*
X264370Y253346D02*
X266732Y255709D01*
X264370Y250984D02*
Y253346D01*
X260039Y204134D02*
X294291D01*
X257677Y206496D02*
X260039Y204134D01*
X253346Y206496D02*
X257677D01*
X266732Y206693D02*
X270472Y210433D01*
X260236Y206693D02*
X266732D01*
X258465Y208465D02*
X260236Y206693D01*
X253346Y208465D02*
X258465D01*
X259055Y210433D02*
X260433Y209055D01*
X253346Y210433D02*
X259055D01*
X228740Y224213D02*
X253346D01*
X247441Y226181D02*
X253346D01*
X244094Y229528D02*
X247441Y226181D01*
X235827Y229528D02*
X244094D01*
X437598Y130315D02*
X461417D01*
X431102Y136811D02*
X437598Y130315D01*
X421850Y126575D02*
X465551D01*
X419685Y128740D02*
X421850Y126575D01*
X375787Y128740D02*
X419685D01*
X462795Y131693D02*
Y138779D01*
X461417Y130315D02*
X462795Y131693D01*
X431102Y243307D02*
Y249213D01*
X435374Y253484D01*
X448779D01*
X471457Y282087D02*
X473622Y279921D01*
X413406Y258484D02*
X448740D01*
X408071Y253150D02*
X413406Y258484D01*
X408071Y184843D02*
Y253150D01*
X357283Y126378D02*
Y139567D01*
X326378Y170473D02*
X357283Y139567D01*
X326378Y170473D02*
Y199409D01*
X322638Y170276D02*
X345079Y147835D01*
Y130905D02*
Y147835D01*
X340689Y126516D02*
X345079Y130905D01*
X252953Y134449D02*
X256693Y138189D01*
X330413Y126516D02*
X340689D01*
X322638Y170276D02*
Y198622D01*
X374902Y125689D02*
X415059D01*
X330118Y170472D02*
X374902Y125689D01*
X330118Y170472D02*
Y201378D01*
X334252Y170276D02*
X375787Y128740D01*
X334252Y170276D02*
Y202165D01*
X286024Y163976D02*
Y187598D01*
X287992Y167323D02*
X294783Y160531D01*
X287992Y167323D02*
Y187598D01*
X235827Y160433D02*
Y199803D01*
Y160236D02*
Y160433D01*
X481299Y32677D02*
Y54134D01*
Y32677D02*
X483071Y30906D01*
Y22047D02*
Y30906D01*
X427756Y33661D02*
Y54134D01*
Y33661D02*
X429724Y31693D01*
Y22047D02*
Y31693D01*
X374803Y32874D02*
Y54134D01*
Y32874D02*
X376575Y31102D01*
Y22047D02*
Y31102D01*
X322047Y34843D02*
Y54134D01*
Y34843D02*
X323425Y33465D01*
Y22047D02*
Y33465D01*
X268701Y33858D02*
Y54134D01*
Y33858D02*
X270276Y32283D01*
Y22047D02*
Y32283D01*
X215551Y36220D02*
Y54134D01*
Y36220D02*
X217126Y34646D01*
Y22047D02*
Y34646D01*
X162598Y31890D02*
Y54134D01*
Y31890D02*
X163976Y30512D01*
Y22047D02*
Y30512D01*
X109646Y31299D02*
Y54134D01*
Y31299D02*
X111024Y29921D01*
Y22047D02*
Y29921D01*
X109646Y23425D02*
X111024Y22047D01*
X162598Y23425D02*
X163976Y22047D01*
X139961Y54134D02*
X162598D01*
X83268Y51968D02*
X86811D01*
X81102Y49803D02*
X83268Y51968D01*
X81102Y42126D02*
Y49803D01*
X60630Y166339D02*
Y196260D01*
X67913Y203543D01*
X153543D01*
X285236Y228346D02*
X290354D01*
X291929Y229921D01*
Y235236D01*
X51181Y50787D02*
X53347Y52953D01*
X51181Y42126D02*
Y50787D01*
X71063Y42126D02*
Y57480D01*
X285039Y215158D02*
X292126Y222244D01*
X300984D01*
Y226181D02*
X317913D01*
X311811Y274606D02*
X317913Y268504D01*
Y226181D02*
Y268504D01*
X245472Y178937D02*
X248031Y176378D01*
X245472Y178937D02*
Y201181D01*
X259646Y226181D02*
X262402Y228937D01*
Y235236D01*
X256299Y260630D02*
Y334449D01*
X231102Y359646D02*
X256299Y334449D01*
X187402Y100591D02*
Y103937D01*
X186221Y99410D02*
X187402Y100591D01*
X183465Y99410D02*
X186221D01*
X182480Y98425D02*
X183465Y99410D01*
X182480Y94882D02*
Y98425D01*
X240354Y100787D02*
Y103937D01*
X238976Y99410D02*
X240354Y100787D01*
X236614Y99410D02*
X238976D01*
X235630Y98425D02*
X236614Y99410D01*
X235630Y94882D02*
Y98425D01*
X293504Y100787D02*
Y103937D01*
X292126Y99410D02*
X293504Y100787D01*
X289764Y99410D02*
X292126D01*
X288583Y98228D02*
X289764Y99410D01*
X288583Y94882D02*
Y98228D01*
X346850Y100787D02*
Y103937D01*
X345472Y99410D02*
X346850Y100787D01*
X342717Y99410D02*
X345472D01*
X341929Y98622D02*
X342717Y99410D01*
X341929Y94882D02*
Y98622D01*
X399606Y100787D02*
Y103937D01*
X398228Y99410D02*
X399606Y100787D01*
X395669Y99410D02*
X398228D01*
X394685Y98425D02*
X395669Y99410D01*
X394685Y95079D02*
Y98425D01*
X452165Y100197D02*
Y103937D01*
X450787Y98819D02*
X452165Y100197D01*
X448819Y98819D02*
X450787D01*
X447638Y97638D02*
X448819Y98819D01*
X447638Y94882D02*
Y97638D01*
X504528Y99410D02*
Y103937D01*
X503937Y98819D02*
X504528Y99410D01*
X502953Y98819D02*
X503937D01*
X501181Y97047D02*
X502953Y98819D01*
X501181Y94882D02*
Y97047D01*
X134449Y100984D02*
Y103937D01*
X133071Y99606D02*
X134449Y100984D01*
X131299Y99606D02*
X133071D01*
X129724Y98032D02*
X131299Y99606D01*
X129724Y94882D02*
Y98032D01*
X112008Y120866D02*
X158661D01*
X109252D02*
X112008D01*
X111929Y120945D02*
X112008Y120866D01*
X111929Y120945D02*
Y136163D01*
X513779Y55118D02*
X513779Y55118D01*
X499685Y55118D02*
X513779D01*
X483071Y11024D02*
Y22047D01*
Y11024D02*
X486221Y7874D01*
X511221D01*
X513779Y10433D01*
X510039Y120866D02*
X513779Y117126D01*
X477559Y120866D02*
X510039D01*
X423819D02*
X477559D01*
X370866D02*
X423819D01*
X424016Y120669D01*
Y95866D02*
Y120669D01*
X318504Y120866D02*
X370866D01*
X371063Y120669D01*
Y96063D02*
Y120669D01*
X318307Y120669D02*
X318504Y120866D01*
X318307Y95866D02*
Y120669D01*
X211614Y120866D02*
X264961D01*
X264961Y120866D01*
Y95866D02*
Y120866D01*
X211614Y120866D02*
X211811Y120669D01*
Y95866D02*
Y120669D01*
X158661Y120866D02*
X158661Y120866D01*
Y95866D02*
Y120866D01*
X477559Y120866D02*
Y136417D01*
Y95866D02*
Y120866D01*
X105905Y95866D02*
Y117520D01*
X109252Y120866D01*
X462795Y141339D02*
X472638D01*
X477559Y136417D01*
X510433Y294291D02*
X512716Y296575D01*
Y309449D01*
X230118Y154527D02*
X235827Y160236D01*
X220276Y154527D02*
X230118D01*
X497717Y196142D02*
Y242520D01*
X493898Y192323D02*
X497717Y196142D01*
X484055Y192323D02*
X493898D01*
X497717Y242520D02*
X497835Y242402D01*
X502716Y242520D02*
X502756Y242480D01*
Y233071D02*
Y242480D01*
X260827Y198228D02*
X262402Y196653D01*
Y187598D02*
Y196653D01*
X253346Y192323D02*
Y196653D01*
X220079Y214370D02*
X253346D01*
X216910Y211201D02*
X220079Y214370D01*
X353543Y274213D02*
X356299D01*
X344705D02*
X353543D01*
X353780Y274449D01*
Y381102D01*
X338386Y259449D02*
X338405Y259429D01*
X344488D01*
X344429Y264370D02*
X344488Y264429D01*
X336417Y264370D02*
X344429D01*
X266339Y227756D02*
X269882Y224213D01*
X266339Y227756D02*
Y235236D01*
X268307Y230315D02*
X270276Y228346D01*
X268307Y230315D02*
Y235236D01*
X324803Y269429D02*
X344488D01*
X324803Y259429D02*
Y264429D01*
Y269429D01*
Y274429D01*
X344488Y259429D02*
X364350D01*
X366732Y261811D01*
Y266732D01*
X344488Y264429D02*
X354980D01*
X356299Y265748D01*
Y266732D01*
Y274213D02*
X366732D01*
X344488Y274429D02*
X344705Y274213D01*
X344488Y274429D02*
X344665Y274606D01*
X517717Y221457D02*
X535039Y204134D01*
X517717Y221457D02*
Y242520D01*
X129724Y87402D02*
X135039D01*
X138386Y90748D01*
Y105709D01*
X135433Y108661D02*
X138386Y105709D01*
X120669Y108661D02*
X135433D01*
X182480Y87402D02*
X187795D01*
X190945Y90551D01*
Y104331D01*
X186614Y108661D02*
X190945Y104331D01*
X173425Y108661D02*
X186614D01*
X235630Y87402D02*
X240945D01*
X243504Y89961D01*
Y106496D01*
X241535Y108465D02*
X243504Y106496D01*
X226575Y108465D02*
X241535D01*
X288583Y87402D02*
X295079D01*
X296654Y88976D01*
Y104724D01*
X292717Y108661D02*
X296654Y104724D01*
X279528Y108661D02*
X292717D01*
X341929Y87402D02*
X348031D01*
X349606Y88976D01*
Y105118D01*
X346063Y108661D02*
X349606Y105118D01*
X332874Y108661D02*
X346063D01*
X394685Y87598D02*
X400000D01*
X402953Y90551D01*
Y104921D01*
X399213Y108661D02*
X402953Y104921D01*
X385630Y108661D02*
X399213D01*
X447638Y87402D02*
X452756D01*
X455512Y90158D01*
Y105709D01*
X452559Y108661D02*
X455512Y105709D01*
X438583Y108661D02*
X452559D01*
X501181Y87402D02*
X506890D01*
X508858Y89370D01*
Y105315D01*
X505512Y108661D02*
X508858Y105315D01*
X492126Y108661D02*
X505512D01*
X475000Y72244D02*
X480512D01*
X473819Y73425D02*
X475000Y72244D01*
X473819Y73425D02*
Y87992D01*
X421654Y72244D02*
X426968D01*
X420276Y73622D02*
X421654Y72244D01*
X420276Y73622D02*
Y87992D01*
X369488Y72244D02*
X374016D01*
X367323Y74409D02*
X369488Y72244D01*
X367323Y74409D02*
Y88189D01*
X316732Y72244D02*
X321260D01*
X314567Y74409D02*
X316732Y72244D01*
X314567Y74409D02*
Y87992D01*
X263189Y72244D02*
X267913D01*
X261221Y74213D02*
X263189Y72244D01*
X261221Y74213D02*
Y87992D01*
X210039Y72244D02*
X214764D01*
X208071Y74213D02*
X210039Y72244D01*
X208071Y74213D02*
Y87992D01*
X157087Y72244D02*
X161811D01*
X154921Y74409D02*
X157087Y72244D01*
X154921Y74409D02*
Y87992D01*
X103937Y72244D02*
X108858D01*
X102165Y74016D02*
X103937Y72244D01*
X102165Y74016D02*
Y87992D01*
X208858Y284449D02*
X211221Y282087D01*
X206102Y284449D02*
X208858D01*
X205512Y283858D02*
X206102Y284449D01*
X197638Y284252D02*
X198031Y283858D01*
X183858Y284252D02*
X197638D01*
X183858Y274409D02*
X184055Y274213D01*
X198031D01*
X173031Y274409D02*
X183858D01*
X173031Y284252D02*
X183858D01*
X211221Y234646D02*
Y282087D01*
Y234646D02*
X223622Y222244D01*
X253346D01*
X205512Y230315D02*
Y274213D01*
Y230315D02*
X215551Y220276D01*
X253346D01*
X184055Y194488D02*
X201575D01*
X208858Y201772D01*
Y214173D01*
X211024Y216338D01*
X253346D01*
X184055Y231890D02*
X197244D01*
X210827Y218307D01*
X253346D01*
X164567Y194488D02*
Y231890D01*
X168307Y274409D02*
Y284252D01*
Y262992D02*
Y274409D01*
X164567Y259252D02*
X168307Y262992D01*
X164567Y231890D02*
Y259252D01*
X169291Y194488D02*
X184055D01*
X169291Y231890D02*
X184055D01*
X233780Y375118D02*
Y381102D01*
X232283Y373622D02*
X233780Y375118D01*
X232283Y368504D02*
Y373622D01*
X223780Y373661D02*
Y381102D01*
Y373661D02*
X224803Y372638D01*
Y368504D02*
Y372638D01*
X309449Y221457D02*
X317913D01*
X306299D02*
X309449D01*
X305512Y222244D02*
X306299Y221457D01*
X305512Y222244D02*
Y223622D01*
X304921Y224213D02*
X305512Y223622D01*
X300984Y224213D02*
X304921D01*
X317913Y226181D02*
X317913Y226181D01*
X270276Y235236D02*
Y258465D01*
X268110Y260630D02*
X270276Y258465D01*
X263779Y260630D02*
X268110D01*
X256299Y255906D02*
Y260630D01*
Y255906D02*
X256693Y255512D01*
X258268D01*
X259646Y254134D01*
Y250984D02*
Y254134D01*
Y242520D02*
Y250984D01*
Y239173D02*
Y242520D01*
Y239173D02*
X260039Y238779D01*
X261614D01*
X262402Y237992D01*
Y235236D02*
Y237992D01*
X264370Y250984D02*
X264370Y250984D01*
X235827Y207283D02*
X240354D01*
X241732Y205906D01*
X245472D01*
X235827Y199803D02*
X240354D01*
X241732Y201181D01*
X245472D01*
Y205906D02*
X248622D01*
X250000Y204527D01*
X253346D01*
X245472Y201181D02*
X248622D01*
X250000Y202559D01*
X253346D01*
X260827Y182283D02*
X262008Y183465D01*
X263779D01*
X264370Y184055D01*
Y187598D01*
X265551Y171850D02*
Y180118D01*
X401358Y293484D02*
X448779D01*
X398031Y290158D02*
X401358Y293484D01*
X398031Y188583D02*
Y290158D01*
X393504Y329331D02*
X449606D01*
X452716Y326220D01*
Y309449D02*
Y326220D01*
X457717Y309449D02*
Y327913D01*
X453937Y331693D02*
X457717Y327913D01*
X390354Y331693D02*
X453937D01*
X377953Y319291D02*
X390354Y331693D01*
X377953Y172835D02*
Y319291D01*
X496654Y338189D02*
X501378D01*
X494488Y336024D02*
X496654Y338189D01*
X494488Y327953D02*
Y336024D01*
Y327953D02*
X496457Y325984D01*
X503740D01*
X505512Y324213D01*
Y316732D02*
Y324213D01*
Y316732D02*
X507717Y314528D01*
Y309449D02*
Y314528D01*
X510433Y315354D02*
Y320276D01*
Y315354D02*
X512716Y313071D01*
Y309449D02*
Y313071D01*
X473622Y279921D02*
X488189D01*
X471457Y282087D02*
Y293307D01*
X466280Y298484D02*
X471457Y293307D01*
X448779Y298484D02*
X466280D01*
X511417Y279921D02*
X517717Y273622D01*
Y242520D02*
Y273622D01*
X517717Y286221D02*
Y309449D01*
X511417Y279921D02*
X517717Y286221D01*
X488189Y279921D02*
X511417D01*
X501378Y338189D02*
X506496D01*
X507087Y338779D01*
X509449D01*
X501378Y330709D02*
X506496D01*
X507283Y329921D01*
X509449D01*
X510433Y320276D02*
Y325197D01*
X509449Y326181D02*
X510433Y325197D01*
X509449Y326181D02*
Y329921D01*
X514173D02*
Y338779D01*
Y326772D02*
Y329921D01*
Y326772D02*
X515748Y325197D01*
X516732D01*
X517913Y324016D01*
Y320276D02*
Y324016D01*
X517717Y320079D02*
X517913Y320276D01*
X517717Y309449D02*
Y320079D01*
X452716Y141417D02*
X452795Y141339D01*
X452716Y141417D02*
Y242520D01*
X437205Y94882D02*
X447638D01*
X394685Y95079D02*
X394685Y95079D01*
X384252Y95079D02*
X394685D01*
X331496Y94882D02*
X341929D01*
X278150D02*
X288583D01*
X225197D02*
X235630D01*
X172047D02*
X182480D01*
X119291D02*
X129724D01*
X114567Y103937D02*
Y108661D01*
X111811Y101181D02*
X114567Y103937D01*
X111811Y93504D02*
Y101181D01*
X109646Y91339D02*
X111811Y93504D01*
X109646Y87992D02*
Y91339D01*
X167323Y103937D02*
Y108661D01*
X164567Y101181D02*
X167323Y103937D01*
X164567Y93504D02*
Y101181D01*
X162402Y91339D02*
X164567Y93504D01*
X162402Y87992D02*
Y91339D01*
X220472Y103937D02*
Y108661D01*
X217717Y101181D02*
X220472Y103937D01*
X217717Y93504D02*
Y101181D01*
X215551Y91339D02*
X217717Y93504D01*
X215551Y87992D02*
Y91339D01*
X273622Y103937D02*
Y108661D01*
X270866Y101181D02*
X273622Y103937D01*
X270866Y93504D02*
Y101181D01*
X268701Y91339D02*
X270866Y93504D01*
X268701Y87992D02*
Y91339D01*
X326969Y103937D02*
Y108661D01*
X324213Y101181D02*
X326969Y103937D01*
X324213Y93504D02*
Y101181D01*
X322047Y91339D02*
X324213Y93504D01*
X322047Y87992D02*
Y91339D01*
X379724Y104134D02*
Y108858D01*
X376969Y101378D02*
X379724Y104134D01*
X376969Y93701D02*
Y101378D01*
X374803Y91535D02*
X376969Y93701D01*
X374803Y88189D02*
Y91535D01*
X432677Y103937D02*
Y108661D01*
X429921Y101181D02*
X432677Y103937D01*
X429921Y93504D02*
Y101181D01*
X427756Y91339D02*
X429921Y93504D01*
X427756Y87992D02*
Y91339D01*
X481299Y87992D02*
Y91339D01*
X483465Y93504D01*
Y101181D01*
X486221Y103937D01*
Y108661D01*
X490748Y94882D02*
X501181D01*
X490748Y83268D02*
Y87402D01*
X489685Y82205D02*
X490748Y83268D01*
X489685Y78740D02*
Y82205D01*
X437205Y83465D02*
Y87402D01*
X436142Y82402D02*
X437205Y83465D01*
X436142Y78740D02*
Y82402D01*
X384252Y83268D02*
Y87598D01*
X383189Y82205D02*
X384252Y83268D01*
X383189Y78740D02*
Y82205D01*
X331496Y83661D02*
Y87402D01*
X330433Y82598D02*
X331496Y83661D01*
X330433Y78740D02*
Y82598D01*
X278150Y83465D02*
Y87402D01*
X277087Y82402D02*
X278150Y83465D01*
X277087Y78740D02*
Y82402D01*
X166929Y78740D02*
X170984D01*
X165945Y79724D02*
X166929Y78740D01*
X161811Y79724D02*
X165945D01*
X172047Y83858D02*
Y87402D01*
X170984Y82795D02*
X172047Y83858D01*
X170984Y78740D02*
Y82795D01*
X119291Y83661D02*
Y87402D01*
X118228Y82598D02*
X119291Y83661D01*
X118228Y78740D02*
Y82598D01*
X114764Y78740D02*
X118228D01*
X113779Y79724D02*
X114764Y78740D01*
X108858Y79724D02*
X113779D01*
X225197Y84055D02*
Y87402D01*
X223937Y82795D02*
X225197Y84055D01*
X223937Y78740D02*
Y82795D01*
X220472Y78740D02*
X223937D01*
X219488Y79724D02*
X220472Y78740D01*
X214764Y79724D02*
X219488D01*
X272638Y78740D02*
X277087D01*
X271654Y79724D02*
X272638Y78740D01*
X267913Y79724D02*
X271654D01*
X326181Y78740D02*
X330433D01*
X325197Y79724D02*
X326181Y78740D01*
X321260Y79724D02*
X325197D01*
X378740Y78740D02*
X383189D01*
X377756Y79724D02*
X378740Y78740D01*
X374016Y79724D02*
X377756D01*
X432283Y78740D02*
X436142D01*
X431299Y79724D02*
X432283Y78740D01*
X426968Y79724D02*
X431299D01*
X427756Y60039D02*
Y66535D01*
X426968Y67323D02*
X427756Y66535D01*
X426968Y67323D02*
Y72244D01*
X486024Y78740D02*
X489685D01*
X485039Y79724D02*
X486024Y78740D01*
X480512Y79724D02*
X485039D01*
X481299Y60039D02*
Y65551D01*
X480512Y66339D02*
X481299Y65551D01*
X480512Y66339D02*
Y72244D01*
X374803Y60039D02*
Y65945D01*
X374016Y66732D02*
X374803Y65945D01*
X374016Y66732D02*
Y72244D01*
X322047Y60039D02*
Y65354D01*
X321260Y66142D02*
X322047Y65354D01*
X321260Y66142D02*
Y72244D01*
X268701Y60039D02*
Y65945D01*
X267913Y66732D02*
X268701Y65945D01*
X267913Y66732D02*
Y72244D01*
X215551Y60039D02*
Y65945D01*
X214764Y66732D02*
X215551Y65945D01*
X214764Y66732D02*
Y72244D01*
X162598Y60039D02*
Y66142D01*
X161811Y66929D02*
X162598Y66142D01*
X161811Y66929D02*
Y72244D01*
X109646Y60039D02*
Y65551D01*
X108858Y66339D02*
X109646Y65551D01*
X108858Y66339D02*
Y72244D01*
X499685Y55118D02*
Y78740D01*
X446142Y55118D02*
Y78740D01*
X393189Y55118D02*
Y78740D01*
X340433Y55118D02*
Y78740D01*
X287087Y55118D02*
Y78740D01*
X233937Y55118D02*
Y78740D01*
X180984Y55118D02*
Y78740D01*
X128228Y55118D02*
Y78740D01*
X61614Y95866D02*
X105905D01*
X44094Y115551D02*
Y125591D01*
X30709Y115551D02*
X44094D01*
X41063Y130236D02*
X52441D01*
X54724Y127953D01*
Y125591D02*
Y127953D01*
X39370Y128543D02*
X41063Y130236D01*
X39370Y125591D02*
Y128543D01*
X33268Y125591D02*
X39370D01*
X28543Y117717D02*
X30709Y115551D01*
X28543Y117717D02*
Y125591D01*
X41063Y130236D02*
Y136163D01*
X44094Y125591D02*
X50000D01*
X117717Y54606D02*
X118228Y55118D01*
X117717Y46457D02*
Y54606D01*
Y46457D02*
X127756D01*
X170472Y54606D02*
X170984Y55118D01*
X170472Y46457D02*
Y54606D01*
Y46457D02*
X180512D01*
X223622Y54803D02*
X223937Y55118D01*
X223622Y46457D02*
Y54803D01*
Y46457D02*
X233661D01*
X276575Y54606D02*
X277087Y55118D01*
X276575Y46457D02*
Y54606D01*
Y46457D02*
X286614D01*
X330118Y54803D02*
X330433Y55118D01*
X330118Y46457D02*
Y54803D01*
Y46457D02*
X340158D01*
X383071Y55000D02*
X383189Y55118D01*
X383071Y46457D02*
Y55000D01*
Y46457D02*
X393110D01*
X436024Y55000D02*
X436142Y55118D01*
X436024Y46457D02*
Y55000D01*
Y46457D02*
X446063D01*
X489685Y46575D02*
X499488D01*
X489685D02*
Y55118D01*
X446142D02*
X461417D01*
X462402Y54134D01*
X481299D01*
X427756Y24016D02*
X429724Y22047D01*
X393189Y55118D02*
X411024D01*
X412008Y54134D01*
X427756D01*
X374803Y23819D02*
X376575Y22047D01*
X340433Y55118D02*
X358465D01*
X359449Y54134D01*
X374803D01*
X322047Y23425D02*
X323425Y22047D01*
X287087Y55118D02*
X304331D01*
X305315Y54134D01*
X322047D01*
X268701Y23622D02*
X270276Y22047D01*
X233937Y55118D02*
X251969D01*
X252953Y54134D01*
X268701D01*
X215551Y23622D02*
X217126Y22047D01*
X180984Y55118D02*
X199213D01*
X200197Y54134D01*
X215551D01*
X128228Y55118D02*
X138976D01*
X139961Y54134D01*
X494882Y22047D02*
Y28150D01*
X489764Y33268D02*
X494882Y28150D01*
X489764Y33268D02*
Y38976D01*
X494882Y28150D02*
X499803Y33071D01*
Y38976D01*
X441535Y22047D02*
Y28150D01*
X436417Y33268D02*
X441535Y28150D01*
X436417Y33268D02*
Y38976D01*
X441535Y28150D02*
X446457Y33071D01*
Y38976D01*
X388386Y22047D02*
Y28150D01*
X383268Y33268D02*
X388386Y28150D01*
X383268Y33268D02*
Y38976D01*
X388386Y28150D02*
X393307Y33071D01*
Y38976D01*
X335236Y22047D02*
Y28150D01*
X330118Y33268D02*
X335236Y28150D01*
X330118Y33268D02*
Y38976D01*
X335236Y28150D02*
X340158Y33071D01*
Y38976D01*
X282087Y22047D02*
Y28150D01*
X276969Y33268D02*
X282087Y28150D01*
X276969Y33268D02*
Y38976D01*
X282087Y28150D02*
X287008Y33071D01*
Y38976D01*
X228937Y22047D02*
Y28150D01*
X223819Y33268D02*
X228937Y28150D01*
X223819Y33268D02*
Y38976D01*
X228937Y28150D02*
X233858Y33071D01*
Y38976D01*
X175787Y22047D02*
Y28150D01*
X170669Y33268D02*
X175787Y28150D01*
X170669Y33268D02*
Y38976D01*
X175787Y28150D02*
X180709Y33071D01*
Y38976D01*
X127756Y33071D02*
Y38976D01*
X122835Y28150D02*
X127756Y33071D01*
X117717Y33268D02*
Y38976D01*
Y33268D02*
X122835Y28150D01*
Y22047D02*
Y28150D01*
X81102Y34646D02*
X81142Y34606D01*
Y22047D02*
Y34606D01*
X71063Y34646D02*
X71142Y34567D01*
Y22047D02*
Y34567D01*
X51142Y34606D02*
X51181Y34646D01*
X51142Y22047D02*
Y34606D01*
X300984Y196653D02*
X307087D01*
X300984Y198622D02*
X310039D01*
X300984Y200591D02*
X312205D01*
X300984Y202559D02*
X314764D01*
X300984Y204527D02*
X316732D01*
X322638Y198622D01*
X300984Y206496D02*
X319291D01*
X326378Y199409D01*
X300984Y208465D02*
X323031D01*
X330118Y201378D01*
X300984Y210433D02*
X325984D01*
X334252Y202165D01*
X204921Y143898D02*
X208268Y147244D01*
X204921Y131102D02*
Y143898D01*
X209055Y141535D02*
X211417Y143898D01*
X209055Y131102D02*
Y141535D01*
X223937Y136339D02*
X228543Y140945D01*
X489685Y67047D02*
Y78740D01*
X436142Y67047D02*
Y78740D01*
X383189Y67047D02*
Y78740D01*
X330433Y67047D02*
Y78740D01*
X277087Y67047D02*
Y78740D01*
X223937Y67047D02*
Y78740D01*
X170984Y67047D02*
Y78740D01*
X118228Y67047D02*
Y78740D01*
X252953Y127362D02*
Y134449D01*
X223937Y125315D02*
Y136339D01*
X534961Y63858D02*
X535039Y63937D01*
X502756Y201575D02*
X506299Y205118D01*
X502756Y191535D02*
Y201575D01*
X225000Y212402D02*
X253346D01*
X220669Y208071D02*
X225000Y212402D01*
X220669Y178543D02*
Y208071D01*
Y178543D02*
X229134Y170079D01*
X21457Y110039D02*
X25591Y105905D01*
X21457Y110039D02*
Y131693D01*
X25927Y136163D01*
X41063D01*
X513779Y47638D02*
X532480D01*
X535039Y50197D01*
Y53937D01*
X513779Y10433D02*
Y47638D01*
Y55118D01*
X522047Y57677D02*
X526378D01*
X527953Y59252D01*
Y62205D01*
X529685Y63937D01*
X534882D01*
X523307Y83937D02*
X535039D01*
X522047Y82677D02*
X523307Y83937D01*
X522047Y80709D02*
Y82677D01*
X518504Y80709D02*
X522047D01*
X516339Y78543D02*
X518504Y80709D01*
X516339Y66732D02*
Y78543D01*
Y66732D02*
X517913Y65158D01*
X522047D01*
Y73228D02*
X534016D01*
X534882Y74094D02*
X535039Y73937D01*
X534882Y63937D02*
X534961Y63858D01*
X534016Y73228D02*
X534882Y74094D01*
X523228Y122638D02*
X527559D01*
X528858Y123937D01*
X535039D01*
X523228Y115157D02*
X527756D01*
X528976Y113937D01*
X535039D01*
Y133937D02*
Y204134D01*
X523228Y122638D02*
Y201772D01*
X519882Y205118D02*
X523228Y201772D01*
X506299Y205118D02*
X519882D01*
X512598Y139567D02*
Y199409D01*
X513779Y103937D02*
X535039D01*
X513779Y55118D02*
Y103937D01*
Y117126D01*
X535039Y103937D02*
X543701D01*
X545866Y106102D01*
Y130512D01*
X542441Y133937D02*
X545866Y130512D01*
X535039Y133937D02*
X542441D01*
X518898Y115157D02*
X523228D01*
X517126Y116929D02*
X518898Y115157D01*
X517126Y116929D02*
Y121063D01*
X510630Y127559D02*
X517126Y121063D01*
X488386Y127559D02*
X510630D01*
X481299Y134646D02*
X488386Y127559D01*
X481299Y134646D02*
Y176378D01*
X475000Y182677D02*
X481299Y176378D01*
X475000Y182677D02*
Y212205D01*
X253346Y226181D02*
X259646D01*
X290551Y216338D02*
X300984D01*
X281890Y207677D02*
X290551Y216338D01*
X292323Y214370D02*
X300984D01*
X288386Y210433D02*
X292323Y214370D01*
X63976Y207087D02*
X153543D01*
X56811Y199921D02*
X63976Y207087D01*
X56811Y136163D02*
Y199921D01*
X153543Y207087D02*
Y212008D01*
X151378Y214173D02*
X153543Y212008D01*
X151378Y214173D02*
Y222638D01*
X161417Y231890D02*
X164567D01*
X159646Y230118D02*
X161417Y231890D01*
X151378Y230118D02*
X159646D01*
X138976D02*
X151378D01*
X135630Y233465D02*
X138976Y230118D01*
X135630Y233465D02*
Y244291D01*
X96063D02*
X129724D01*
X96063Y222896D02*
Y236811D01*
Y222896D02*
X96181Y222778D01*
X294488Y220276D02*
X300984D01*
X293110Y218898D02*
X294488Y220276D01*
X278150Y221260D02*
X285236Y228346D01*
X267913Y221260D02*
X278150D01*
X261221Y212205D02*
X261417Y212402D01*
Y221260D01*
X300984Y218307D02*
X308268D01*
X310039Y216535D01*
X296850Y212402D02*
X300984D01*
X291142Y206693D02*
X296850Y212402D01*
X105905Y144095D02*
X142126D01*
X104055Y142244D02*
X105905Y144095D01*
X104055Y136163D02*
Y142244D01*
X62205Y104528D02*
Y112008D01*
X63976Y113779D01*
X68898D01*
X72559Y117441D01*
Y136163D01*
X253346Y200591D02*
X284646D01*
X286811Y198425D01*
Y195472D02*
Y198425D01*
X492717Y196653D02*
Y242520D01*
X492717Y242520D02*
X492717Y242520D01*
X249213Y198622D02*
X253346D01*
X248031Y197441D02*
X249213Y198622D01*
X248031Y185039D02*
Y197441D01*
Y185039D02*
X251378Y181693D01*
X506299Y219094D02*
Y225787D01*
X507717Y227205D01*
Y242520D01*
X313779Y292913D02*
X320472D01*
X297047Y288583D02*
X300984Y292520D01*
X302362D01*
X304724Y294882D01*
Y299016D01*
X294094Y291732D02*
Y302362D01*
X294488Y302756D01*
X296850D01*
X311811Y274606D02*
X319685Y282480D01*
Y292126D01*
X320472Y292913D01*
X327559Y283465D02*
Y289173D01*
Y296654D02*
X336811D01*
X338976Y298819D01*
X49606Y248583D02*
X68504D01*
X67323Y255906D02*
Y262598D01*
Y255906D02*
X68504Y254724D01*
Y248583D02*
Y254724D01*
X54724Y75591D02*
Y104528D01*
X51181Y72047D02*
X54724Y75591D01*
X39764Y72047D02*
X51181D01*
X37795Y74016D02*
X39764Y72047D01*
X37795Y74016D02*
Y80118D01*
X25787Y87992D02*
X34055D01*
X25591Y63189D02*
Y105905D01*
D39*
X213779Y381102D02*
D03*
X386614Y147953D02*
D03*
Y137008D02*
D03*
X288583Y127559D02*
D03*
X462795Y138779D02*
D03*
X111024Y22047D02*
D03*
X163976D02*
D03*
X270276D02*
D03*
X217126D02*
D03*
X376575D02*
D03*
X323425D02*
D03*
X483071D02*
D03*
X429724D02*
D03*
X41142Y22047D02*
D03*
X41063Y136163D02*
D03*
D40*
X223780Y381102D02*
D03*
X233780D02*
D03*
X243779D02*
D03*
X253780D02*
D03*
X263779D02*
D03*
X273780D02*
D03*
X283780D02*
D03*
X293779D02*
D03*
X303780D02*
D03*
X313779D02*
D03*
X323780D02*
D03*
X333780D02*
D03*
X343779D02*
D03*
X353780D02*
D03*
X363779D02*
D03*
X416614Y147953D02*
D03*
X406614D02*
D03*
X396614D02*
D03*
X416614Y137008D02*
D03*
X406614D02*
D03*
X396614D02*
D03*
X298583Y127559D02*
D03*
X308583D02*
D03*
X452795Y138779D02*
D03*
X134646Y22047D02*
D03*
X122835D02*
D03*
X187598D02*
D03*
X175787D02*
D03*
X293898D02*
D03*
X282087D02*
D03*
X240748D02*
D03*
X228937D02*
D03*
X400197D02*
D03*
X388386D02*
D03*
X347047D02*
D03*
X335236D02*
D03*
X506693D02*
D03*
X494882D02*
D03*
X453346D02*
D03*
X441535D02*
D03*
X51142Y22047D02*
D03*
X61142D02*
D03*
X71142D02*
D03*
X81142D02*
D03*
X48937Y136163D02*
D03*
X56811D02*
D03*
X64685D02*
D03*
X72559D02*
D03*
X80433D02*
D03*
X88307D02*
D03*
X96181D02*
D03*
X104055D02*
D03*
X111929D02*
D03*
X41063Y222778D02*
D03*
X48937D02*
D03*
X56811D02*
D03*
X64685D02*
D03*
X72559D02*
D03*
X80433D02*
D03*
X88307D02*
D03*
X96181D02*
D03*
X104055D02*
D03*
X111929D02*
D03*
D41*
X25591Y63189D02*
D03*
X535039Y133937D02*
D03*
Y83937D02*
D03*
X49606Y238583D02*
D03*
X68504D02*
D03*
D42*
X25591Y53189D02*
D03*
Y43189D02*
D03*
X535039Y103937D02*
D03*
Y113937D02*
D03*
Y123937D02*
D03*
Y53937D02*
D03*
Y63937D02*
D03*
Y73937D02*
D03*
X49606Y248583D02*
D03*
X68504D02*
D03*
D43*
X67323Y262598D02*
D03*
D44*
X55512Y281102D02*
D03*
X79134D02*
D03*
D45*
X343701Y322835D02*
D03*
X291732Y308661D02*
D03*
X277165Y165354D02*
D03*
X68504Y318110D02*
D03*
X33465Y330315D02*
D03*
X36614Y370866D02*
D03*
X85039Y330315D02*
D03*
X146457Y330413D02*
D03*
X93307Y299213D02*
D03*
X114961Y297224D02*
D03*
X223622Y287008D02*
D03*
X288583Y114567D02*
D03*
X306693Y103937D02*
D03*
X271260Y135039D02*
D03*
X373228Y138189D02*
D03*
X340158D02*
D03*
X425984Y154331D02*
D03*
X436614Y137008D02*
D03*
Y177165D02*
D03*
X377953Y172835D02*
D03*
X387795Y176772D02*
D03*
X390945Y186614D02*
D03*
X398031Y188583D02*
D03*
X359842Y189764D02*
D03*
X308661Y173228D02*
D03*
X305906Y176772D02*
D03*
X307874Y184252D02*
D03*
X304331Y186614D02*
D03*
X332677Y220079D02*
D03*
X238189Y255512D02*
D03*
X283071Y179331D02*
D03*
X301575Y189764D02*
D03*
X297441Y173228D02*
D03*
X294094Y176378D02*
D03*
X280118Y163386D02*
D03*
X265551Y164764D02*
D03*
X51575Y87992D02*
D03*
X358071Y154528D02*
D03*
X314764Y320276D02*
D03*
X315354Y313976D02*
D03*
X348031Y204134D02*
D03*
X294291D02*
D03*
X225984Y198031D02*
D03*
X266732Y255709D02*
D03*
X235827Y229528D02*
D03*
X286024Y163976D02*
D03*
X294783Y160531D02*
D03*
X86811Y51968D02*
D03*
X197638Y137795D02*
D03*
X235827Y160433D02*
D03*
X60630Y166339D02*
D03*
X153543Y203543D02*
D03*
X261221Y212205D02*
D03*
X53347Y52953D02*
D03*
X71063Y57480D02*
D03*
X285039Y215158D02*
D03*
X256299Y274606D02*
D03*
X311811D02*
D03*
X248031Y176378D02*
D03*
X187402Y103937D02*
D03*
X240354D02*
D03*
X293504D02*
D03*
X346850D02*
D03*
X399606D02*
D03*
X452165D02*
D03*
X134449D02*
D03*
X512598Y199409D02*
D03*
X510433Y294291D02*
D03*
X512598Y139567D02*
D03*
X504528Y103937D02*
D03*
X484055Y192323D02*
D03*
X502756Y233071D02*
D03*
X260827Y198228D02*
D03*
X253346Y192323D02*
D03*
X338386Y259449D02*
D03*
X336417Y264370D02*
D03*
X270276Y228346D02*
D03*
X269882Y224213D02*
D03*
X204921Y131102D02*
D03*
X209055D02*
D03*
X357283Y126378D02*
D03*
X415059Y125689D02*
D03*
X465551Y126575D02*
D03*
X118228Y67047D02*
D03*
X170984D02*
D03*
X223937D02*
D03*
X277087D02*
D03*
X330433D02*
D03*
X383189D02*
D03*
X436142D02*
D03*
X489685D02*
D03*
X330433Y126496D02*
D03*
X252953Y127362D02*
D03*
X223937Y125315D02*
D03*
X264961Y120866D02*
D03*
X261614Y159646D02*
D03*
X502756Y191535D02*
D03*
X229134Y170079D02*
D03*
X475000Y212205D02*
D03*
X281890Y207677D02*
D03*
X288386Y210433D02*
D03*
X153543Y207087D02*
D03*
X293110Y218898D02*
D03*
X267913Y221260D02*
D03*
X261417D02*
D03*
X310039Y216535D02*
D03*
X291142Y206693D02*
D03*
X142126Y144095D02*
D03*
X286811Y195472D02*
D03*
X492717Y196653D02*
D03*
X251378Y181693D02*
D03*
X506299Y219094D02*
D03*
X313779Y292913D02*
D03*
X294094Y291732D02*
D03*
X312598Y281102D02*
D03*
X327559Y283465D02*
D03*
X119685Y377165D02*
D03*
X122835D02*
D03*
X119685Y374016D02*
D03*
X125984Y377165D02*
D03*
X129134D02*
D03*
X132284D02*
D03*
X119685Y370866D02*
D03*
X122835D02*
D03*
X125984Y374016D02*
D03*
X122835D02*
D03*
X129134D02*
D03*
Y370866D02*
D03*
X132284D02*
D03*
X125984D02*
D03*
X132284Y374016D02*
D03*
X119685Y367717D02*
D03*
X132284D02*
D03*
X122835D02*
D03*
X125984D02*
D03*
X129134D02*
D03*
X119685Y364567D02*
D03*
X122835D02*
D03*
X125984D02*
D03*
X129134D02*
D03*
X132284D02*
D03*
X59843Y377165D02*
D03*
X62992D02*
D03*
X59843Y374016D02*
D03*
X66142Y377165D02*
D03*
X69291D02*
D03*
X72441D02*
D03*
X59843Y370866D02*
D03*
X62992D02*
D03*
X66142Y374016D02*
D03*
X62992D02*
D03*
X69291D02*
D03*
Y370866D02*
D03*
X72441D02*
D03*
X66142D02*
D03*
X72441Y374016D02*
D03*
X59843Y367717D02*
D03*
X72441D02*
D03*
X62992D02*
D03*
X66142D02*
D03*
X69291D02*
D03*
X59843Y364567D02*
D03*
X62992D02*
D03*
X66142D02*
D03*
X69291D02*
D03*
X72441D02*
D03*
X56693D02*
D03*
Y367717D02*
D03*
Y370866D02*
D03*
Y374016D02*
D03*
Y377165D02*
D03*
X75590Y364567D02*
D03*
Y367717D02*
D03*
Y370866D02*
D03*
Y374016D02*
D03*
Y377165D02*
D03*
X116535Y364567D02*
D03*
Y367717D02*
D03*
Y370866D02*
D03*
Y374016D02*
D03*
Y377165D02*
D03*
X135433Y364567D02*
D03*
Y367717D02*
D03*
Y370866D02*
D03*
Y374016D02*
D03*
Y377165D02*
D03*
D46*
X17717Y375984D02*
D03*
X184252Y164567D02*
D03*
X550394D02*
D03*
X536614Y375984D02*
D03*
Y17717D02*
D03*
X17717D02*
D03*
M02*
