G04*
G04 #@! TF.GenerationSoftware,Altium Limited,CircuitStudio,1.5.2 (30)*
G04*
G04 Layer_Physical_Order=2*
G04 Layer_Color=128*
%FSLAX25Y25*%
%MOIN*%
G70*
G01*
G75*
%ADD38C,0.01000*%
%ADD39R,0.06299X0.07874*%
%ADD40O,0.06299X0.07874*%
%ADD41R,0.07874X0.06299*%
%ADD42O,0.07874X0.06299*%
%ADD43O,0.15748X0.07874*%
%ADD44O,0.07874X0.15748*%
%ADD45C,0.01969*%
%ADD46C,0.12598*%
G36*
X550394Y393701D02*
Y393701D01*
X550881Y393671D01*
X551421Y393600D01*
X552379Y393203D01*
X553202Y392572D01*
X553833Y391749D01*
X554229Y390792D01*
X554365Y389764D01*
X554345Y170976D01*
X553917Y170719D01*
X553119Y171146D01*
X551783Y171551D01*
X550394Y171688D01*
X549005Y171551D01*
X547669Y171146D01*
X546438Y170488D01*
X545359Y169602D01*
X544473Y168523D01*
X543815Y167292D01*
X543410Y165956D01*
X543273Y164567D01*
X543410Y163178D01*
X543815Y161842D01*
X544473Y160611D01*
X545359Y159532D01*
X546438Y158646D01*
X547669Y157988D01*
X549005Y157583D01*
X550394Y157446D01*
X551783Y157583D01*
X553119Y157988D01*
X553915Y158414D01*
X554344Y158157D01*
X554331Y3937D01*
X554331D01*
X554360Y3903D01*
X554229Y2909D01*
X553833Y1952D01*
X553202Y1129D01*
X552379Y498D01*
X551421Y101D01*
X550394Y-34D01*
X550394D01*
X3937Y0D01*
Y0D01*
X3449Y30D01*
X2909Y101D01*
X1952Y498D01*
X1129Y1129D01*
X498Y1952D01*
X101Y2909D01*
X-30Y3903D01*
X0Y3937D01*
X0D01*
Y69937D01*
X67Y69950D01*
X458Y70211D01*
X719Y70602D01*
X810Y71063D01*
Y147228D01*
X10055D01*
Y193698D01*
X10555Y193850D01*
X10566Y193833D01*
X10956Y193572D01*
X11417Y193481D01*
X11787Y193554D01*
X11878Y193572D01*
X12269Y193833D01*
X12530Y194224D01*
X12622Y194685D01*
Y194685D01*
X12530Y195146D01*
X12269Y195537D01*
X11878Y195798D01*
X11417Y195889D01*
X10956Y195798D01*
X10800Y195693D01*
X10566Y195537D01*
X10566Y195537D01*
X10555Y195521D01*
X10055Y195672D01*
Y214783D01*
X810D01*
Y300590D01*
X719Y301051D01*
X458Y301442D01*
X67Y301703D01*
X0Y301716D01*
Y389764D01*
X0D01*
X-30Y389797D01*
X101Y390792D01*
X498Y391749D01*
X1129Y392572D01*
X1952Y393203D01*
X2909Y393599D01*
X3937Y393735D01*
X3937D01*
X550394Y393701D01*
D02*
G37*
%LPC*%
G36*
X298583Y132317D02*
X297555Y132182D01*
X296597Y131785D01*
X295775Y131154D01*
X295144Y130332D01*
X294747Y129374D01*
X294612Y128347D01*
Y126772D01*
X294747Y125744D01*
X295144Y124786D01*
X295775Y123964D01*
X296597Y123333D01*
X297555Y122936D01*
X298583Y122801D01*
X299610Y122936D01*
X300568Y123333D01*
X301391Y123964D01*
X302022Y124786D01*
X302418Y125744D01*
X302554Y126772D01*
Y128347D01*
X302418Y129374D01*
X302022Y130332D01*
X301391Y131154D01*
X300568Y131785D01*
X299610Y132182D01*
X298583Y132317D01*
D02*
G37*
G36*
X223937Y127121D02*
X223246Y126984D01*
X222660Y126592D01*
X222268Y126006D01*
X222131Y125315D01*
X222268Y124624D01*
X222660Y124038D01*
X223246Y123646D01*
X223937Y123509D01*
X224628Y123646D01*
X225214Y124038D01*
X225606Y124624D01*
X225743Y125315D01*
X225606Y126006D01*
X225214Y126592D01*
X224628Y126984D01*
X223937Y127121D01*
D02*
G37*
G36*
X292520Y132283D02*
X284646D01*
Y122835D01*
X292520D01*
Y132283D01*
D02*
G37*
G36*
X265461Y122790D02*
Y121366D01*
X266884D01*
X266830Y121640D01*
X266391Y122297D01*
X265735Y122735D01*
X265461Y122790D01*
D02*
G37*
G36*
X264461D02*
X264186Y122735D01*
X263530Y122297D01*
X263091Y121640D01*
X263037Y121366D01*
X264461D01*
Y122790D01*
D02*
G37*
G36*
X312768Y127059D02*
X309083D01*
Y122652D01*
X309666Y122729D01*
X310675Y123147D01*
X311542Y123812D01*
X312207Y124679D01*
X312626Y125688D01*
X312768Y126772D01*
Y127059D01*
D02*
G37*
G36*
X308083D02*
X304397D01*
Y126772D01*
X304540Y125688D01*
X304958Y124679D01*
X305623Y123812D01*
X306490Y123147D01*
X307499Y122729D01*
X308083Y122652D01*
Y127059D01*
D02*
G37*
G36*
X415059Y127495D02*
X414368Y127358D01*
X413782Y126966D01*
X413390Y126380D01*
X413253Y125689D01*
X413390Y124998D01*
X413782Y124412D01*
X414368Y124020D01*
X415059Y123883D01*
X415750Y124020D01*
X416336Y124412D01*
X416728Y124998D01*
X416865Y125689D01*
X416728Y126380D01*
X416336Y126966D01*
X415750Y127358D01*
X415059Y127495D01*
D02*
G37*
G36*
X308083Y132466D02*
X307499Y132389D01*
X306490Y131971D01*
X305623Y131306D01*
X304958Y130439D01*
X304540Y129430D01*
X304397Y128347D01*
Y128059D01*
X308083D01*
Y132466D01*
D02*
G37*
G36*
X309083Y132466D02*
Y128059D01*
X312768D01*
Y128347D01*
X312626Y129430D01*
X312207Y130439D01*
X311542Y131306D01*
X310675Y131971D01*
X309666Y132389D01*
X309083Y132466D01*
D02*
G37*
G36*
X204921Y132909D02*
X204230Y132771D01*
X203644Y132380D01*
X203252Y131794D01*
X203115Y131102D01*
X203252Y130411D01*
X203644Y129825D01*
X204230Y129434D01*
X204921Y129296D01*
X205612Y129434D01*
X206199Y129825D01*
X206590Y130411D01*
X206728Y131102D01*
X206590Y131794D01*
X206199Y132380D01*
X205612Y132771D01*
X204921Y132909D01*
D02*
G37*
G36*
X252953Y129169D02*
X252261Y129031D01*
X251676Y128639D01*
X251284Y128053D01*
X251146Y127362D01*
X251284Y126671D01*
X251676Y126085D01*
X252261Y125693D01*
X252953Y125556D01*
X253644Y125693D01*
X254230Y126085D01*
X254622Y126671D01*
X254759Y127362D01*
X254622Y128053D01*
X254230Y128639D01*
X253644Y129031D01*
X252953Y129169D01*
D02*
G37*
G36*
X357283Y128184D02*
X356592Y128047D01*
X356006Y127655D01*
X355615Y127069D01*
X355477Y126378D01*
X355615Y125687D01*
X356006Y125101D01*
X356592Y124709D01*
X357283Y124572D01*
X357975Y124709D01*
X358561Y125101D01*
X358952Y125687D01*
X359090Y126378D01*
X358952Y127069D01*
X358561Y127655D01*
X357975Y128047D01*
X357283Y128184D01*
D02*
G37*
G36*
X330433Y128302D02*
X329742Y128165D01*
X329156Y127773D01*
X328764Y127187D01*
X328627Y126496D01*
X328764Y125805D01*
X329156Y125219D01*
X329742Y124827D01*
X330433Y124690D01*
X331124Y124827D01*
X331710Y125219D01*
X332102Y125805D01*
X332239Y126496D01*
X332102Y127187D01*
X331710Y127773D01*
X331124Y128165D01*
X330433Y128302D01*
D02*
G37*
G36*
X465551Y128381D02*
X464860Y128244D01*
X464274Y127852D01*
X463882Y127266D01*
X463745Y126575D01*
X463882Y125883D01*
X464274Y125297D01*
X464860Y124906D01*
X465551Y124768D01*
X466242Y124906D01*
X466828Y125297D01*
X467220Y125883D01*
X467357Y126575D01*
X467220Y127266D01*
X466828Y127852D01*
X466242Y128244D01*
X465551Y128381D01*
D02*
G37*
G36*
X346850Y105743D02*
X346159Y105606D01*
X345573Y105214D01*
X345181Y104628D01*
X345044Y103937D01*
X345181Y103246D01*
X345573Y102660D01*
X346159Y102268D01*
X346850Y102131D01*
X347542Y102268D01*
X348128Y102660D01*
X348519Y103246D01*
X348657Y103937D01*
X348519Y104628D01*
X348128Y105214D01*
X347542Y105606D01*
X346850Y105743D01*
D02*
G37*
G36*
X306693D02*
X306002Y105606D01*
X305416Y105214D01*
X305024Y104628D01*
X304887Y103937D01*
X305024Y103246D01*
X305416Y102660D01*
X306002Y102268D01*
X306693Y102131D01*
X307384Y102268D01*
X307970Y102660D01*
X308362Y103246D01*
X308499Y103937D01*
X308362Y104628D01*
X307970Y105214D01*
X307384Y105606D01*
X306693Y105743D01*
D02*
G37*
G36*
X452165D02*
X451474Y105606D01*
X450888Y105214D01*
X450496Y104628D01*
X450359Y103937D01*
X450496Y103246D01*
X450888Y102660D01*
X451474Y102268D01*
X452165Y102131D01*
X452857Y102268D01*
X453443Y102660D01*
X453834Y103246D01*
X453972Y103937D01*
X453834Y104628D01*
X453443Y105214D01*
X452857Y105606D01*
X452165Y105743D01*
D02*
G37*
G36*
X399606D02*
X398915Y105606D01*
X398329Y105214D01*
X397937Y104628D01*
X397800Y103937D01*
X397937Y103246D01*
X398329Y102660D01*
X398915Y102268D01*
X399606Y102131D01*
X400298Y102268D01*
X400884Y102660D01*
X401275Y103246D01*
X401413Y103937D01*
X401275Y104628D01*
X400884Y105214D01*
X400298Y105606D01*
X399606Y105743D01*
D02*
G37*
G36*
X187402D02*
X186710Y105606D01*
X186124Y105214D01*
X185733Y104628D01*
X185595Y103937D01*
X185733Y103246D01*
X186124Y102660D01*
X186710Y102268D01*
X187402Y102131D01*
X188093Y102268D01*
X188679Y102660D01*
X189070Y103246D01*
X189208Y103937D01*
X189070Y104628D01*
X188679Y105214D01*
X188093Y105606D01*
X187402Y105743D01*
D02*
G37*
G36*
X134449D02*
X133758Y105606D01*
X133171Y105214D01*
X132780Y104628D01*
X132642Y103937D01*
X132780Y103246D01*
X133171Y102660D01*
X133758Y102268D01*
X134449Y102131D01*
X135140Y102268D01*
X135726Y102660D01*
X136118Y103246D01*
X136255Y103937D01*
X136118Y104628D01*
X135726Y105214D01*
X135140Y105606D01*
X134449Y105743D01*
D02*
G37*
G36*
X293504D02*
X292813Y105606D01*
X292227Y105214D01*
X291835Y104628D01*
X291698Y103937D01*
X291835Y103246D01*
X292227Y102660D01*
X292813Y102268D01*
X293504Y102131D01*
X294195Y102268D01*
X294781Y102660D01*
X295173Y103246D01*
X295310Y103937D01*
X295173Y104628D01*
X294781Y105214D01*
X294195Y105606D01*
X293504Y105743D01*
D02*
G37*
G36*
X240354D02*
X239663Y105606D01*
X239077Y105214D01*
X238685Y104628D01*
X238548Y103937D01*
X238685Y103246D01*
X239077Y102660D01*
X239663Y102268D01*
X240354Y102131D01*
X241046Y102268D01*
X241632Y102660D01*
X242023Y103246D01*
X242161Y103937D01*
X242023Y104628D01*
X241632Y105214D01*
X241046Y105606D01*
X240354Y105743D01*
D02*
G37*
G36*
X264461Y120366D02*
X263037D01*
X263091Y120092D01*
X263530Y119436D01*
X264186Y118997D01*
X264461Y118942D01*
Y120366D01*
D02*
G37*
G36*
X288583Y116373D02*
X287891Y116236D01*
X287305Y115844D01*
X286914Y115258D01*
X286776Y114567D01*
X286914Y113876D01*
X287305Y113290D01*
X287891Y112898D01*
X288583Y112761D01*
X289274Y112898D01*
X289860Y113290D01*
X290251Y113876D01*
X290389Y114567D01*
X290251Y115258D01*
X289860Y115844D01*
X289274Y116236D01*
X288583Y116373D01*
D02*
G37*
G36*
X535827Y127908D02*
X534252D01*
X533224Y127773D01*
X532267Y127376D01*
X531444Y126745D01*
X530813Y125923D01*
X530416Y124965D01*
X530281Y123937D01*
X530416Y122909D01*
X530813Y121951D01*
X531444Y121129D01*
X532267Y120498D01*
X533224Y120101D01*
X534252Y119966D01*
X535827D01*
X536855Y120101D01*
X537812Y120498D01*
X538635Y121129D01*
X539266Y121951D01*
X539662Y122909D01*
X539798Y123937D01*
X539662Y124965D01*
X539266Y125923D01*
X538635Y126745D01*
X537812Y127376D01*
X536855Y127773D01*
X535827Y127908D01*
D02*
G37*
G36*
X266884Y120366D02*
X265461D01*
Y118942D01*
X265735Y118997D01*
X266391Y119436D01*
X266830Y120092D01*
X266884Y120366D01*
D02*
G37*
G36*
X534539Y108122D02*
X534252D01*
X533169Y107980D01*
X532159Y107562D01*
X531292Y106896D01*
X530627Y106030D01*
X530209Y105020D01*
X530132Y104437D01*
X534539D01*
Y108122D01*
D02*
G37*
G36*
X504528Y105743D02*
X503836Y105606D01*
X503250Y105214D01*
X502859Y104628D01*
X502721Y103937D01*
X502859Y103246D01*
X503250Y102660D01*
X503836Y102268D01*
X504528Y102131D01*
X505219Y102268D01*
X505805Y102660D01*
X506196Y103246D01*
X506334Y103937D01*
X506196Y104628D01*
X505805Y105214D01*
X505219Y105606D01*
X504528Y105743D01*
D02*
G37*
G36*
X535827Y117908D02*
X534252D01*
X533224Y117773D01*
X532267Y117376D01*
X531444Y116745D01*
X530813Y115922D01*
X530416Y114965D01*
X530281Y113937D01*
X530416Y112909D01*
X530813Y111951D01*
X531444Y111129D01*
X532267Y110498D01*
X533224Y110101D01*
X534252Y109966D01*
X535827D01*
X536855Y110101D01*
X537812Y110498D01*
X538635Y111129D01*
X539266Y111951D01*
X539662Y112909D01*
X539798Y113937D01*
X539662Y114965D01*
X539266Y115922D01*
X538635Y116745D01*
X537812Y117376D01*
X536855Y117773D01*
X535827Y117908D01*
D02*
G37*
G36*
Y108122D02*
X535539D01*
Y104437D01*
X539946D01*
X539870Y105020D01*
X539452Y106030D01*
X538786Y106896D01*
X537920Y107562D01*
X536910Y107980D01*
X535827Y108122D01*
D02*
G37*
G36*
X209055Y132909D02*
X208364Y132771D01*
X207778Y132380D01*
X207386Y131794D01*
X207249Y131102D01*
X207386Y130411D01*
X207778Y129825D01*
X208364Y129434D01*
X209055Y129296D01*
X209746Y129434D01*
X210332Y129825D01*
X210724Y130411D01*
X210861Y131102D01*
X210724Y131794D01*
X210332Y132380D01*
X209746Y132771D01*
X209055Y132909D01*
D02*
G37*
G36*
X466945Y143717D02*
X463295D01*
Y139279D01*
X466945D01*
Y143717D01*
D02*
G37*
G36*
X462295D02*
X458646D01*
Y139279D01*
X462295D01*
Y143717D01*
D02*
G37*
G36*
X386114Y147453D02*
X382465D01*
Y143016D01*
X386114D01*
Y147453D01*
D02*
G37*
G36*
X142126Y145901D02*
X141435Y145763D01*
X140849Y145372D01*
X140457Y144786D01*
X140320Y144095D01*
X140457Y143403D01*
X140849Y142817D01*
X141435Y142426D01*
X142126Y142288D01*
X142817Y142426D01*
X143403Y142817D01*
X143795Y143403D01*
X143932Y144095D01*
X143795Y144786D01*
X143403Y145372D01*
X142817Y145763D01*
X142126Y145901D01*
D02*
G37*
G36*
X112429Y141070D02*
Y136663D01*
X116115D01*
Y136951D01*
X115972Y138034D01*
X115554Y139043D01*
X114889Y139910D01*
X114022Y140576D01*
X113012Y140994D01*
X112429Y141070D01*
D02*
G37*
G36*
X373228Y139995D02*
X372537Y139858D01*
X371951Y139466D01*
X371560Y138880D01*
X371422Y138189D01*
X371560Y137498D01*
X371951Y136912D01*
X372537Y136520D01*
X373228Y136383D01*
X373920Y136520D01*
X374506Y136912D01*
X374897Y137498D01*
X375035Y138189D01*
X374897Y138880D01*
X374506Y139466D01*
X373920Y139858D01*
X373228Y139995D01*
D02*
G37*
G36*
X111429Y141070D02*
X110846Y140994D01*
X109836Y140576D01*
X108970Y139910D01*
X108305Y139043D01*
X108148Y138665D01*
X107606D01*
X107494Y138936D01*
X106863Y139759D01*
X106041Y140390D01*
X105083Y140786D01*
X104055Y140922D01*
X103027Y140786D01*
X102070Y140390D01*
X101247Y139759D01*
X100616Y138936D01*
X100389Y138387D01*
X99848D01*
X99620Y138936D01*
X98989Y139759D01*
X98167Y140390D01*
X97209Y140786D01*
X96181Y140922D01*
X95153Y140786D01*
X94196Y140390D01*
X93373Y139759D01*
X92742Y138936D01*
X92515Y138387D01*
X91974D01*
X91746Y138936D01*
X91115Y139759D01*
X90293Y140390D01*
X89335Y140786D01*
X88307Y140922D01*
X87279Y140786D01*
X86322Y140390D01*
X85499Y139759D01*
X84868Y138936D01*
X84641Y138387D01*
X84100D01*
X83872Y138936D01*
X83241Y139759D01*
X82419Y140390D01*
X81461Y140786D01*
X80433Y140922D01*
X79405Y140786D01*
X78448Y140390D01*
X77625Y139759D01*
X76994Y138936D01*
X76767Y138387D01*
X76226D01*
X75998Y138936D01*
X75367Y139759D01*
X74545Y140390D01*
X73587Y140786D01*
X72559Y140922D01*
X71531Y140786D01*
X70574Y140390D01*
X69751Y139759D01*
X69120Y138936D01*
X68893Y138387D01*
X68352D01*
X68124Y138936D01*
X67493Y139759D01*
X66671Y140390D01*
X65713Y140786D01*
X64685Y140922D01*
X63657Y140786D01*
X62700Y140390D01*
X61877Y139759D01*
X61246Y138936D01*
X61019Y138387D01*
X60477D01*
X60250Y138936D01*
X59619Y139759D01*
X58797Y140390D01*
X57839Y140786D01*
X56811Y140922D01*
X55783Y140786D01*
X54826Y140390D01*
X54003Y139759D01*
X53372Y138936D01*
X53145Y138387D01*
X52603D01*
X52376Y138936D01*
X51745Y139759D01*
X50923Y140390D01*
X49965Y140786D01*
X48937Y140922D01*
X47909Y140786D01*
X46951Y140390D01*
X46129Y139759D01*
X45498Y138936D01*
X45000Y139040D01*
Y140888D01*
X37126D01*
Y131439D01*
X45000D01*
Y133286D01*
X45498Y133390D01*
X46129Y132568D01*
X46951Y131937D01*
X47909Y131540D01*
X48937Y131405D01*
X49965Y131540D01*
X50923Y131937D01*
X51745Y132568D01*
X52376Y133390D01*
X52603Y133940D01*
X53145D01*
X53372Y133390D01*
X54003Y132568D01*
X54826Y131937D01*
X55783Y131540D01*
X56811Y131405D01*
X57839Y131540D01*
X58797Y131937D01*
X59619Y132568D01*
X60250Y133390D01*
X60477Y133940D01*
X61019D01*
X61246Y133390D01*
X61877Y132568D01*
X62700Y131937D01*
X63657Y131540D01*
X64685Y131405D01*
X65713Y131540D01*
X66671Y131937D01*
X67493Y132568D01*
X68124Y133390D01*
X68352Y133940D01*
X68893D01*
X69120Y133390D01*
X69751Y132568D01*
X70574Y131937D01*
X71531Y131540D01*
X72559Y131405D01*
X73587Y131540D01*
X74545Y131937D01*
X75367Y132568D01*
X75998Y133390D01*
X76226Y133940D01*
X76767D01*
X76994Y133390D01*
X77625Y132568D01*
X78448Y131937D01*
X79405Y131540D01*
X80433Y131405D01*
X81461Y131540D01*
X82419Y131937D01*
X83241Y132568D01*
X83872Y133390D01*
X84100Y133940D01*
X84641D01*
X84868Y133390D01*
X85499Y132568D01*
X86322Y131937D01*
X87279Y131540D01*
X88307Y131405D01*
X89335Y131540D01*
X90293Y131937D01*
X91115Y132568D01*
X91746Y133390D01*
X91974Y133940D01*
X92515D01*
X92742Y133390D01*
X93373Y132568D01*
X94196Y131937D01*
X95153Y131540D01*
X96181Y131405D01*
X97209Y131540D01*
X98167Y131937D01*
X98989Y132568D01*
X99620Y133390D01*
X99848Y133940D01*
X100389D01*
X100616Y133390D01*
X101247Y132568D01*
X102070Y131937D01*
X103027Y131540D01*
X104055Y131405D01*
X105083Y131540D01*
X106041Y131937D01*
X106863Y132568D01*
X107494Y133390D01*
X107606Y133662D01*
X108148D01*
X108305Y133283D01*
X108970Y132416D01*
X109836Y131751D01*
X110846Y131333D01*
X111429Y131256D01*
Y136163D01*
Y141070D01*
D02*
G37*
G36*
X512598Y141373D02*
X511907Y141236D01*
X511321Y140844D01*
X510930Y140258D01*
X510792Y139567D01*
X510930Y138876D01*
X511321Y138290D01*
X511907Y137898D01*
X512598Y137761D01*
X513290Y137898D01*
X513876Y138290D01*
X514267Y138876D01*
X514405Y139567D01*
X514267Y140258D01*
X513876Y140844D01*
X513290Y141236D01*
X512598Y141373D01*
D02*
G37*
G36*
X420800Y147453D02*
X417114D01*
Y143046D01*
X417697Y143122D01*
X418707Y143541D01*
X419574Y144206D01*
X420239Y145073D01*
X420657Y146082D01*
X420800Y147165D01*
Y147453D01*
D02*
G37*
G36*
X400800D02*
X397114D01*
Y143046D01*
X397697Y143122D01*
X398707Y143541D01*
X399574Y144206D01*
X400239Y145073D01*
X400657Y146082D01*
X400800Y147165D01*
Y147453D01*
D02*
G37*
G36*
X396114Y152860D02*
X395531Y152783D01*
X394521Y152365D01*
X393655Y151700D01*
X392989Y150833D01*
X392571Y149823D01*
X392429Y148740D01*
Y148453D01*
X396114D01*
Y152860D01*
D02*
G37*
G36*
X410800Y147453D02*
X407114D01*
Y143046D01*
X407697Y143122D01*
X408707Y143541D01*
X409574Y144206D01*
X410239Y145073D01*
X410657Y146082D01*
X410800Y147165D01*
Y147453D01*
D02*
G37*
G36*
X396114D02*
X392429D01*
Y147165D01*
X392571Y146082D01*
X392989Y145073D01*
X393655Y144206D01*
X394521Y143541D01*
X395531Y143122D01*
X396114Y143046D01*
Y147453D01*
D02*
G37*
G36*
X390764D02*
X387114D01*
Y143016D01*
X390764D01*
Y147453D01*
D02*
G37*
G36*
X416114D02*
X412429D01*
Y147165D01*
X412571Y146082D01*
X412990Y145073D01*
X413655Y144206D01*
X414522Y143541D01*
X415531Y143122D01*
X416114Y143046D01*
Y147453D01*
D02*
G37*
G36*
X406114D02*
X402429D01*
Y147165D01*
X402571Y146082D01*
X402989Y145073D01*
X403655Y144206D01*
X404522Y143541D01*
X405531Y143122D01*
X406114Y143046D01*
Y147453D01*
D02*
G37*
G36*
X416614Y141766D02*
X415586Y141631D01*
X414629Y141234D01*
X413806Y140603D01*
X413175Y139781D01*
X412779Y138823D01*
X412643Y137795D01*
Y136221D01*
X412779Y135193D01*
X413175Y134235D01*
X413806Y133413D01*
X414629Y132782D01*
X415586Y132385D01*
X416614Y132249D01*
X417642Y132385D01*
X418600Y132782D01*
X419422Y133413D01*
X420053Y134235D01*
X420450Y135193D01*
X420585Y136221D01*
Y137795D01*
X420450Y138823D01*
X420053Y139781D01*
X419422Y140603D01*
X418600Y141234D01*
X417642Y141631D01*
X416614Y141766D01*
D02*
G37*
G36*
X406614D02*
X405586Y141631D01*
X404629Y141234D01*
X403806Y140603D01*
X403175Y139781D01*
X402778Y138823D01*
X402643Y137795D01*
Y136221D01*
X402778Y135193D01*
X403175Y134235D01*
X403806Y133413D01*
X404629Y132782D01*
X405586Y132385D01*
X406614Y132249D01*
X407642Y132385D01*
X408600Y132782D01*
X409422Y133413D01*
X410053Y134235D01*
X410450Y135193D01*
X410585Y136221D01*
Y137795D01*
X410450Y138823D01*
X410053Y139781D01*
X409422Y140603D01*
X408600Y141234D01*
X407642Y141631D01*
X406614Y141766D01*
D02*
G37*
G36*
X271260Y136846D02*
X270569Y136708D01*
X269983Y136317D01*
X269591Y135731D01*
X269454Y135039D01*
X269591Y134348D01*
X269983Y133762D01*
X270569Y133370D01*
X271260Y133233D01*
X271951Y133370D01*
X272537Y133762D01*
X272929Y134348D01*
X273066Y135039D01*
X272929Y135731D01*
X272537Y136317D01*
X271951Y136708D01*
X271260Y136846D01*
D02*
G37*
G36*
X390551Y141732D02*
X382677D01*
Y132283D01*
X390551D01*
Y141732D01*
D02*
G37*
G36*
X539976Y133437D02*
X535539D01*
Y129787D01*
X539976D01*
Y133437D01*
D02*
G37*
G36*
X534539D02*
X530102D01*
Y129787D01*
X534539D01*
Y133437D01*
D02*
G37*
G36*
X396614Y141766D02*
X395586Y141631D01*
X394629Y141234D01*
X393806Y140603D01*
X393175Y139781D01*
X392778Y138823D01*
X392643Y137795D01*
Y136221D01*
X392778Y135193D01*
X393175Y134235D01*
X393806Y133413D01*
X394629Y132782D01*
X395586Y132385D01*
X396614Y132249D01*
X397642Y132385D01*
X398600Y132782D01*
X399422Y133413D01*
X400053Y134235D01*
X400450Y135193D01*
X400585Y136221D01*
Y137795D01*
X400450Y138823D01*
X400053Y139781D01*
X399422Y140603D01*
X398600Y141234D01*
X397642Y141631D01*
X396614Y141766D01*
D02*
G37*
G36*
X116115Y135663D02*
X112429D01*
Y131256D01*
X113012Y131333D01*
X114022Y131751D01*
X114889Y132416D01*
X115554Y133283D01*
X115972Y134293D01*
X116115Y135376D01*
Y135663D01*
D02*
G37*
G36*
X436614Y138814D02*
X435923Y138677D01*
X435337Y138285D01*
X434945Y137699D01*
X434808Y137008D01*
X434945Y136317D01*
X435337Y135731D01*
X435923Y135339D01*
X436614Y135202D01*
X437305Y135339D01*
X437891Y135731D01*
X438283Y136317D01*
X438420Y137008D01*
X438283Y137699D01*
X437891Y138285D01*
X437305Y138677D01*
X436614Y138814D01*
D02*
G37*
G36*
X539976Y138087D02*
X535539D01*
Y134437D01*
X539976D01*
Y138087D01*
D02*
G37*
G36*
X340158Y139995D02*
X339466Y139858D01*
X338880Y139466D01*
X338489Y138880D01*
X338351Y138189D01*
X338489Y137498D01*
X338880Y136912D01*
X339466Y136520D01*
X340158Y136383D01*
X340849Y136520D01*
X341435Y136912D01*
X341826Y137498D01*
X341964Y138189D01*
X341826Y138880D01*
X341435Y139466D01*
X340849Y139858D01*
X340158Y139995D01*
D02*
G37*
G36*
X197638Y139602D02*
X196947Y139464D01*
X196361Y139073D01*
X195969Y138487D01*
X195831Y137795D01*
X195969Y137104D01*
X196361Y136518D01*
X196947Y136126D01*
X197638Y135989D01*
X198329Y136126D01*
X198915Y136518D01*
X199307Y137104D01*
X199444Y137795D01*
X199307Y138487D01*
X198915Y139073D01*
X198329Y139464D01*
X197638Y139602D01*
D02*
G37*
G36*
X466945Y138279D02*
X463295D01*
Y133843D01*
X466945D01*
Y138279D01*
D02*
G37*
G36*
X462295D02*
X458646D01*
Y133843D01*
X462295D01*
Y138279D01*
D02*
G37*
G36*
X534539Y138087D02*
X530102D01*
Y134437D01*
X534539D01*
Y138087D01*
D02*
G37*
G36*
X452795Y143538D02*
X451767Y143403D01*
X450810Y143006D01*
X449987Y142375D01*
X449356Y141552D01*
X448960Y140595D01*
X448824Y139567D01*
Y137992D01*
X448960Y136964D01*
X449356Y136007D01*
X449987Y135184D01*
X450810Y134553D01*
X451767Y134157D01*
X452795Y134021D01*
X453823Y134157D01*
X454781Y134553D01*
X455603Y135184D01*
X456234Y136007D01*
X456631Y136964D01*
X456766Y137992D01*
Y139567D01*
X456631Y140595D01*
X456234Y141552D01*
X455603Y142375D01*
X454781Y143006D01*
X453823Y143403D01*
X452795Y143538D01*
D02*
G37*
G36*
X506693Y26806D02*
X505665Y26670D01*
X504707Y26274D01*
X503885Y25642D01*
X503254Y24820D01*
X502857Y23862D01*
X502722Y22835D01*
Y21260D01*
X502857Y20232D01*
X503254Y19274D01*
X503885Y18452D01*
X504707Y17821D01*
X505665Y17424D01*
X506693Y17289D01*
X507721Y17424D01*
X508678Y17821D01*
X509501Y18452D01*
X510132Y19274D01*
X510529Y20232D01*
X510664Y21260D01*
Y22835D01*
X510529Y23862D01*
X510132Y24820D01*
X509501Y25642D01*
X508678Y26274D01*
X507721Y26670D01*
X506693Y26806D01*
D02*
G37*
G36*
X494882D02*
X493854Y26670D01*
X492896Y26274D01*
X492074Y25642D01*
X491443Y24820D01*
X491046Y23862D01*
X490911Y22835D01*
Y21260D01*
X491046Y20232D01*
X491443Y19274D01*
X492074Y18452D01*
X492896Y17821D01*
X493854Y17424D01*
X494882Y17289D01*
X495910Y17424D01*
X496867Y17821D01*
X497690Y18452D01*
X498321Y19274D01*
X498718Y20232D01*
X498853Y21260D01*
Y22835D01*
X498718Y23862D01*
X498321Y24820D01*
X497690Y25642D01*
X496867Y26274D01*
X495910Y26670D01*
X494882Y26806D01*
D02*
G37*
G36*
X60642Y26954D02*
X60058Y26877D01*
X59049Y26459D01*
X58182Y25794D01*
X57517Y24927D01*
X57099Y23918D01*
X56956Y22835D01*
Y22547D01*
X60642D01*
Y26954D01*
D02*
G37*
G36*
X45079Y26772D02*
X37205D01*
Y17323D01*
X45079D01*
Y26772D01*
D02*
G37*
G36*
X400197Y26806D02*
X399169Y26670D01*
X398211Y26274D01*
X397389Y25642D01*
X396758Y24820D01*
X396361Y23862D01*
X396226Y22835D01*
Y21260D01*
X396361Y20232D01*
X396758Y19274D01*
X397389Y18452D01*
X398211Y17821D01*
X399169Y17424D01*
X400197Y17289D01*
X401225Y17424D01*
X402182Y17821D01*
X403005Y18452D01*
X403636Y19274D01*
X404033Y20232D01*
X404168Y21260D01*
Y22835D01*
X404033Y23862D01*
X403636Y24820D01*
X403005Y25642D01*
X402182Y26274D01*
X401225Y26670D01*
X400197Y26806D01*
D02*
G37*
G36*
X388386D02*
X387358Y26670D01*
X386400Y26274D01*
X385578Y25642D01*
X384947Y24820D01*
X384550Y23862D01*
X384415Y22835D01*
Y21260D01*
X384550Y20232D01*
X384947Y19274D01*
X385578Y18452D01*
X386400Y17821D01*
X387358Y17424D01*
X388386Y17289D01*
X389414Y17424D01*
X390371Y17821D01*
X391194Y18452D01*
X391825Y19274D01*
X392221Y20232D01*
X392357Y21260D01*
Y22835D01*
X392221Y23862D01*
X391825Y24820D01*
X391194Y25642D01*
X390371Y26274D01*
X389414Y26670D01*
X388386Y26806D01*
D02*
G37*
G36*
X453346D02*
X452319Y26670D01*
X451361Y26274D01*
X450539Y25642D01*
X449907Y24820D01*
X449511Y23862D01*
X449375Y22835D01*
Y21260D01*
X449511Y20232D01*
X449907Y19274D01*
X450539Y18452D01*
X451361Y17821D01*
X452319Y17424D01*
X453346Y17289D01*
X454374Y17424D01*
X455332Y17821D01*
X456154Y18452D01*
X456785Y19274D01*
X457182Y20232D01*
X457317Y21260D01*
Y22835D01*
X457182Y23862D01*
X456785Y24820D01*
X456154Y25642D01*
X455332Y26274D01*
X454374Y26670D01*
X453346Y26806D01*
D02*
G37*
G36*
X441535D02*
X440508Y26670D01*
X439550Y26274D01*
X438728Y25642D01*
X438097Y24820D01*
X437700Y23862D01*
X437565Y22835D01*
Y21260D01*
X437700Y20232D01*
X438097Y19274D01*
X438728Y18452D01*
X439550Y17821D01*
X440508Y17424D01*
X441535Y17289D01*
X442563Y17424D01*
X443521Y17821D01*
X444343Y18452D01*
X444974Y19274D01*
X445371Y20232D01*
X445506Y21260D01*
Y22835D01*
X445371Y23862D01*
X444974Y24820D01*
X444343Y25642D01*
X443521Y26274D01*
X442563Y26670D01*
X441535Y26806D01*
D02*
G37*
G36*
X429224Y26984D02*
X425575D01*
Y22547D01*
X429224D01*
Y26984D01*
D02*
G37*
G36*
X380724D02*
X377075D01*
Y22547D01*
X380724D01*
Y26984D01*
D02*
G37*
G36*
X110524D02*
X106874D01*
Y22547D01*
X110524D01*
Y26984D01*
D02*
G37*
G36*
X433874D02*
X430224D01*
Y22547D01*
X433874D01*
Y26984D01*
D02*
G37*
G36*
X376075D02*
X372425D01*
Y22547D01*
X376075D01*
Y26984D01*
D02*
G37*
G36*
X322925D02*
X319276D01*
Y22547D01*
X322925D01*
Y26984D01*
D02*
G37*
G36*
X327575D02*
X323925D01*
Y22547D01*
X327575D01*
Y26984D01*
D02*
G37*
G36*
X61642Y26954D02*
Y22547D01*
X65327D01*
Y22835D01*
X65184Y23918D01*
X64766Y24927D01*
X64101Y25794D01*
X63234Y26459D01*
X62225Y26877D01*
X61642Y26954D01*
D02*
G37*
G36*
X81142Y26806D02*
X80114Y26670D01*
X79156Y26274D01*
X78334Y25642D01*
X77703Y24820D01*
X77306Y23862D01*
X77171Y22835D01*
Y21260D01*
X77306Y20232D01*
X77703Y19274D01*
X78334Y18452D01*
X79156Y17821D01*
X80114Y17424D01*
X81142Y17289D01*
X82170Y17424D01*
X83127Y17821D01*
X83950Y18452D01*
X84581Y19274D01*
X84977Y20232D01*
X85113Y21260D01*
Y22835D01*
X84977Y23862D01*
X84581Y24820D01*
X83950Y25642D01*
X83127Y26274D01*
X82170Y26670D01*
X81142Y26806D01*
D02*
G37*
G36*
X71142D02*
X70114Y26670D01*
X69156Y26274D01*
X68334Y25642D01*
X67703Y24820D01*
X67306Y23862D01*
X67171Y22835D01*
Y21260D01*
X67306Y20232D01*
X67703Y19274D01*
X68334Y18452D01*
X69156Y17821D01*
X70114Y17424D01*
X71142Y17289D01*
X72170Y17424D01*
X73127Y17821D01*
X73950Y18452D01*
X74581Y19274D01*
X74977Y20232D01*
X75113Y21260D01*
Y22835D01*
X74977Y23862D01*
X74581Y24820D01*
X73950Y25642D01*
X73127Y26274D01*
X72170Y26670D01*
X71142Y26806D01*
D02*
G37*
G36*
X134646Y26806D02*
X133618Y26670D01*
X132660Y26274D01*
X131838Y25642D01*
X131207Y24820D01*
X130810Y23862D01*
X130675Y22835D01*
Y21260D01*
X130810Y20232D01*
X131207Y19274D01*
X131838Y18452D01*
X132660Y17821D01*
X133618Y17424D01*
X134646Y17289D01*
X135673Y17424D01*
X136631Y17821D01*
X137454Y18452D01*
X138085Y19274D01*
X138481Y20232D01*
X138617Y21260D01*
Y22835D01*
X138481Y23862D01*
X138085Y24820D01*
X137454Y25642D01*
X136631Y26274D01*
X135673Y26670D01*
X134646Y26806D01*
D02*
G37*
G36*
X122835D02*
X121807Y26670D01*
X120849Y26274D01*
X120027Y25642D01*
X119396Y24820D01*
X118999Y23862D01*
X118864Y22835D01*
Y21260D01*
X118999Y20232D01*
X119396Y19274D01*
X120027Y18452D01*
X120849Y17821D01*
X121807Y17424D01*
X122835Y17289D01*
X123862Y17424D01*
X124820Y17821D01*
X125643Y18452D01*
X126274Y19274D01*
X126670Y20232D01*
X126806Y21260D01*
Y22835D01*
X126670Y23862D01*
X126274Y24820D01*
X125643Y25642D01*
X124820Y26274D01*
X123862Y26670D01*
X122835Y26806D01*
D02*
G37*
G36*
X17717Y24944D02*
X16307Y24805D01*
X14951Y24394D01*
X13701Y23726D01*
X12606Y22827D01*
X11707Y21732D01*
X11039Y20482D01*
X10628Y19127D01*
X10489Y17717D01*
X10628Y16307D01*
X11039Y14951D01*
X11707Y13701D01*
X12606Y12606D01*
X13701Y11707D01*
X14951Y11039D01*
X16307Y10628D01*
X17717Y10489D01*
X19127Y10628D01*
X20482Y11039D01*
X21732Y11707D01*
X22827Y12606D01*
X23726Y13701D01*
X24394Y14951D01*
X24805Y16307D01*
X24944Y17717D01*
X24805Y19127D01*
X24394Y20482D01*
X23726Y21732D01*
X22827Y22827D01*
X21732Y23726D01*
X20482Y24394D01*
X19127Y24805D01*
X17717Y24944D01*
D02*
G37*
G36*
X111024Y22047D02*
D01*
Y21547D01*
X106874D01*
Y17110D01*
X109711D01*
Y9580D01*
X64717D01*
X62454Y11843D01*
Y17312D01*
X63234Y17635D01*
X64101Y18300D01*
X64766Y19167D01*
X65184Y20177D01*
X65327Y21260D01*
Y21547D01*
X61142D01*
X56956D01*
Y21260D01*
X57099Y20177D01*
X57517Y19167D01*
X58182Y18300D01*
X59049Y17635D01*
X59829Y17312D01*
Y11299D01*
X59929Y10797D01*
X60214Y10371D01*
X63245Y7340D01*
X63671Y7055D01*
X64173Y6955D01*
X477756D01*
X478258Y7055D01*
X478684Y7340D01*
X483999Y12654D01*
X484284Y13080D01*
X484383Y13583D01*
Y17110D01*
X487220D01*
Y21547D01*
X483071D01*
X478921D01*
Y17110D01*
X481758D01*
Y14126D01*
X477212Y9580D01*
X431037D01*
Y17110D01*
X433874D01*
Y21547D01*
X429724D01*
X425575D01*
Y17110D01*
X428412D01*
Y9580D01*
X377887D01*
Y17110D01*
X380724D01*
Y21547D01*
X376575D01*
X372425D01*
Y17110D01*
X375262D01*
Y9580D01*
X324738D01*
Y17110D01*
X327575D01*
Y21547D01*
X323425D01*
X319276D01*
Y17110D01*
X322113D01*
Y9580D01*
X271588D01*
Y17110D01*
X274425D01*
Y21547D01*
X270276D01*
X266126D01*
Y17110D01*
X268963D01*
Y9580D01*
X218439D01*
Y17110D01*
X221276D01*
Y21547D01*
X217126D01*
X212976D01*
Y17110D01*
X215813D01*
Y9580D01*
X165289D01*
Y17110D01*
X168126D01*
Y21547D01*
X163976D01*
X159827D01*
Y17110D01*
X162664D01*
Y9580D01*
X112336D01*
Y17110D01*
X115173D01*
Y21547D01*
X111024D01*
Y22047D01*
D02*
G37*
G36*
X51142Y26806D02*
X50114Y26670D01*
X49156Y26274D01*
X48334Y25642D01*
X47703Y24820D01*
X47306Y23862D01*
X47171Y22835D01*
Y21260D01*
X47306Y20232D01*
X47703Y19274D01*
X48334Y18452D01*
X49156Y17821D01*
X50114Y17424D01*
X51142Y17289D01*
X52170Y17424D01*
X53127Y17821D01*
X53950Y18452D01*
X54581Y19274D01*
X54977Y20232D01*
X55113Y21260D01*
Y22835D01*
X54977Y23862D01*
X54581Y24820D01*
X53950Y25642D01*
X53127Y26274D01*
X52170Y26670D01*
X51142Y26806D01*
D02*
G37*
G36*
X536614Y24944D02*
X535204Y24805D01*
X533848Y24394D01*
X532599Y23726D01*
X531503Y22827D01*
X530605Y21732D01*
X529937Y20482D01*
X529525Y19127D01*
X529387Y17717D01*
X529525Y16307D01*
X529937Y14951D01*
X530605Y13701D01*
X531503Y12606D01*
X532599Y11707D01*
X533848Y11039D01*
X535204Y10628D01*
X536614Y10489D01*
X538024Y10628D01*
X539380Y11039D01*
X540630Y11707D01*
X541725Y12606D01*
X542624Y13701D01*
X543292Y14951D01*
X543703Y16307D01*
X543842Y17717D01*
X543703Y19127D01*
X543292Y20482D01*
X542624Y21732D01*
X541725Y22827D01*
X540630Y23726D01*
X539380Y24394D01*
X538024Y24805D01*
X536614Y24944D01*
D02*
G37*
G36*
X293898Y26806D02*
X292870Y26670D01*
X291912Y26274D01*
X291090Y25642D01*
X290459Y24820D01*
X290062Y23862D01*
X289927Y22835D01*
Y21260D01*
X290062Y20232D01*
X290459Y19274D01*
X291090Y18452D01*
X291912Y17821D01*
X292870Y17424D01*
X293898Y17289D01*
X294925Y17424D01*
X295883Y17821D01*
X296706Y18452D01*
X297337Y19274D01*
X297733Y20232D01*
X297869Y21260D01*
Y22835D01*
X297733Y23862D01*
X297337Y24820D01*
X296706Y25642D01*
X295883Y26274D01*
X294925Y26670D01*
X293898Y26806D01*
D02*
G37*
G36*
X282087D02*
X281059Y26670D01*
X280101Y26274D01*
X279279Y25642D01*
X278648Y24820D01*
X278251Y23862D01*
X278116Y22835D01*
Y21260D01*
X278251Y20232D01*
X278648Y19274D01*
X279279Y18452D01*
X280101Y17821D01*
X281059Y17424D01*
X282087Y17289D01*
X283114Y17424D01*
X284072Y17821D01*
X284894Y18452D01*
X285526Y19274D01*
X285922Y20232D01*
X286058Y21260D01*
Y22835D01*
X285922Y23862D01*
X285526Y24820D01*
X284894Y25642D01*
X284072Y26274D01*
X283114Y26670D01*
X282087Y26806D01*
D02*
G37*
G36*
X347047D02*
X346020Y26670D01*
X345062Y26274D01*
X344239Y25642D01*
X343608Y24820D01*
X343212Y23862D01*
X343076Y22835D01*
Y21260D01*
X343212Y20232D01*
X343608Y19274D01*
X344239Y18452D01*
X345062Y17821D01*
X346020Y17424D01*
X347047Y17289D01*
X348075Y17424D01*
X349033Y17821D01*
X349855Y18452D01*
X350486Y19274D01*
X350883Y20232D01*
X351018Y21260D01*
Y22835D01*
X350883Y23862D01*
X350486Y24820D01*
X349855Y25642D01*
X349033Y26274D01*
X348075Y26670D01*
X347047Y26806D01*
D02*
G37*
G36*
X335236D02*
X334208Y26670D01*
X333251Y26274D01*
X332428Y25642D01*
X331797Y24820D01*
X331401Y23862D01*
X331265Y22835D01*
Y21260D01*
X331401Y20232D01*
X331797Y19274D01*
X332428Y18452D01*
X333251Y17821D01*
X334208Y17424D01*
X335236Y17289D01*
X336264Y17424D01*
X337222Y17821D01*
X338044Y18452D01*
X338675Y19274D01*
X339072Y20232D01*
X339207Y21260D01*
Y22835D01*
X339072Y23862D01*
X338675Y24820D01*
X338044Y25642D01*
X337222Y26274D01*
X336264Y26670D01*
X335236Y26806D01*
D02*
G37*
G36*
X187598D02*
X186571Y26670D01*
X185613Y26274D01*
X184791Y25642D01*
X184160Y24820D01*
X183763Y23862D01*
X183627Y22835D01*
Y21260D01*
X183763Y20232D01*
X184160Y19274D01*
X184791Y18452D01*
X185613Y17821D01*
X186571Y17424D01*
X187598Y17289D01*
X188626Y17424D01*
X189584Y17821D01*
X190406Y18452D01*
X191037Y19274D01*
X191434Y20232D01*
X191569Y21260D01*
Y22835D01*
X191434Y23862D01*
X191037Y24820D01*
X190406Y25642D01*
X189584Y26274D01*
X188626Y26670D01*
X187598Y26806D01*
D02*
G37*
G36*
X175787D02*
X174760Y26670D01*
X173802Y26274D01*
X172979Y25642D01*
X172348Y24820D01*
X171952Y23862D01*
X171816Y22835D01*
Y21260D01*
X171952Y20232D01*
X172348Y19274D01*
X172979Y18452D01*
X173802Y17821D01*
X174760Y17424D01*
X175787Y17289D01*
X176815Y17424D01*
X177773Y17821D01*
X178595Y18452D01*
X179226Y19274D01*
X179623Y20232D01*
X179758Y21260D01*
Y22835D01*
X179623Y23862D01*
X179226Y24820D01*
X178595Y25642D01*
X177773Y26274D01*
X176815Y26670D01*
X175787Y26806D01*
D02*
G37*
G36*
X240748D02*
X239720Y26670D01*
X238762Y26274D01*
X237940Y25642D01*
X237309Y24820D01*
X236912Y23862D01*
X236777Y22835D01*
Y21260D01*
X236912Y20232D01*
X237309Y19274D01*
X237940Y18452D01*
X238762Y17821D01*
X239720Y17424D01*
X240748Y17289D01*
X241776Y17424D01*
X242734Y17821D01*
X243556Y18452D01*
X244187Y19274D01*
X244584Y20232D01*
X244719Y21260D01*
Y22835D01*
X244584Y23862D01*
X244187Y24820D01*
X243556Y25642D01*
X242734Y26274D01*
X241776Y26670D01*
X240748Y26806D01*
D02*
G37*
G36*
X228937D02*
X227909Y26670D01*
X226952Y26274D01*
X226129Y25642D01*
X225498Y24820D01*
X225101Y23862D01*
X224966Y22835D01*
Y21260D01*
X225101Y20232D01*
X225498Y19274D01*
X226129Y18452D01*
X226952Y17821D01*
X227909Y17424D01*
X228937Y17289D01*
X229965Y17424D01*
X230923Y17821D01*
X231745Y18452D01*
X232376Y19274D01*
X232773Y20232D01*
X232908Y21260D01*
Y22835D01*
X232773Y23862D01*
X232376Y24820D01*
X231745Y25642D01*
X230923Y26274D01*
X229965Y26670D01*
X228937Y26806D01*
D02*
G37*
G36*
X163476Y26984D02*
X159827D01*
Y22547D01*
X163476D01*
Y26984D01*
D02*
G37*
G36*
X223937Y68854D02*
X223246Y68716D01*
X222660Y68325D01*
X222268Y67738D01*
X222131Y67047D01*
X222268Y66356D01*
X222660Y65770D01*
X223246Y65378D01*
X223937Y65241D01*
X224628Y65378D01*
X225214Y65770D01*
X225606Y66356D01*
X225743Y67047D01*
X225606Y67738D01*
X225214Y68325D01*
X224628Y68716D01*
X223937Y68854D01*
D02*
G37*
G36*
X170984D02*
X170293Y68716D01*
X169707Y68325D01*
X169315Y67738D01*
X169178Y67047D01*
X169315Y66356D01*
X169707Y65770D01*
X170293Y65378D01*
X170984Y65241D01*
X171676Y65378D01*
X172262Y65770D01*
X172653Y66356D01*
X172791Y67047D01*
X172653Y67738D01*
X172262Y68325D01*
X171676Y68716D01*
X170984Y68854D01*
D02*
G37*
G36*
X330433D02*
X329742Y68716D01*
X329156Y68325D01*
X328764Y67738D01*
X328627Y67047D01*
X328764Y66356D01*
X329156Y65770D01*
X329742Y65378D01*
X330433Y65241D01*
X331124Y65378D01*
X331710Y65770D01*
X332102Y66356D01*
X332239Y67047D01*
X332102Y67738D01*
X331710Y68325D01*
X331124Y68716D01*
X330433Y68854D01*
D02*
G37*
G36*
X277087D02*
X276395Y68716D01*
X275809Y68325D01*
X275418Y67738D01*
X275280Y67047D01*
X275418Y66356D01*
X275809Y65770D01*
X276395Y65378D01*
X277087Y65241D01*
X277778Y65378D01*
X278364Y65770D01*
X278755Y66356D01*
X278893Y67047D01*
X278755Y67738D01*
X278364Y68325D01*
X277778Y68716D01*
X277087Y68854D01*
D02*
G37*
G36*
X30315Y67126D02*
X20866D01*
Y59252D01*
X30315D01*
Y67126D01*
D02*
G37*
G36*
X71063Y59287D02*
X70372Y59149D01*
X69786Y58758D01*
X69394Y58172D01*
X69257Y57480D01*
X69394Y56789D01*
X69786Y56203D01*
X70372Y55812D01*
X71063Y55674D01*
X71754Y55812D01*
X72340Y56203D01*
X72732Y56789D01*
X72869Y57480D01*
X72732Y58172D01*
X72340Y58758D01*
X71754Y59149D01*
X71063Y59287D01*
D02*
G37*
G36*
X118228Y68854D02*
X117537Y68716D01*
X116951Y68325D01*
X116560Y67738D01*
X116422Y67047D01*
X116560Y66356D01*
X116951Y65770D01*
X117537Y65378D01*
X118228Y65241D01*
X118920Y65378D01*
X119506Y65770D01*
X119897Y66356D01*
X120035Y67047D01*
X119897Y67738D01*
X119506Y68325D01*
X118920Y68716D01*
X118228Y68854D01*
D02*
G37*
G36*
X535827Y67908D02*
X534252D01*
X533224Y67773D01*
X532267Y67376D01*
X531444Y66745D01*
X530813Y65922D01*
X530416Y64965D01*
X530281Y63937D01*
X530416Y62909D01*
X530813Y61952D01*
X531444Y61129D01*
X532267Y60498D01*
X533224Y60101D01*
X534252Y59966D01*
X535827D01*
X536855Y60101D01*
X537812Y60498D01*
X538635Y61129D01*
X539266Y61952D01*
X539662Y62909D01*
X539798Y63937D01*
X539662Y64965D01*
X539266Y65922D01*
X538635Y66745D01*
X537812Y67376D01*
X536855Y67773D01*
X535827Y67908D01*
D02*
G37*
G36*
X51575Y89798D02*
X50884Y89661D01*
X50297Y89269D01*
X49906Y88683D01*
X49768Y87992D01*
X49906Y87301D01*
X50297Y86715D01*
X50884Y86323D01*
X51575Y86186D01*
X52266Y86323D01*
X52852Y86715D01*
X53244Y87301D01*
X53381Y87992D01*
X53244Y88683D01*
X52852Y89269D01*
X52266Y89661D01*
X51575Y89798D01*
D02*
G37*
G36*
X539764Y87874D02*
X530315D01*
Y80000D01*
X539764D01*
Y87874D01*
D02*
G37*
G36*
X539946Y103437D02*
X535539D01*
Y99752D01*
X535827D01*
X536910Y99894D01*
X537920Y100312D01*
X538786Y100978D01*
X539452Y101844D01*
X539870Y102854D01*
X539946Y103437D01*
D02*
G37*
G36*
X534539D02*
X530132D01*
X530209Y102854D01*
X530627Y101844D01*
X531292Y100978D01*
X532159Y100312D01*
X533169Y99894D01*
X534252Y99752D01*
X534539D01*
Y103437D01*
D02*
G37*
G36*
X436142Y68854D02*
X435451Y68716D01*
X434864Y68325D01*
X434473Y67738D01*
X434335Y67047D01*
X434473Y66356D01*
X434864Y65770D01*
X435451Y65378D01*
X436142Y65241D01*
X436833Y65378D01*
X437419Y65770D01*
X437811Y66356D01*
X437948Y67047D01*
X437811Y67738D01*
X437419Y68325D01*
X436833Y68716D01*
X436142Y68854D01*
D02*
G37*
G36*
X383189D02*
X382498Y68716D01*
X381912Y68325D01*
X381520Y67738D01*
X381383Y67047D01*
X381520Y66356D01*
X381912Y65770D01*
X382498Y65378D01*
X383189Y65241D01*
X383880Y65378D01*
X384466Y65770D01*
X384858Y66356D01*
X384995Y67047D01*
X384858Y67738D01*
X384466Y68325D01*
X383880Y68716D01*
X383189Y68854D01*
D02*
G37*
G36*
X535827Y77908D02*
X534252D01*
X533224Y77773D01*
X532267Y77376D01*
X531444Y76745D01*
X530813Y75923D01*
X530416Y74965D01*
X530281Y73937D01*
X530416Y72909D01*
X530813Y71952D01*
X531444Y71129D01*
X532267Y70498D01*
X533224Y70101D01*
X534252Y69966D01*
X535827D01*
X536855Y70101D01*
X537812Y70498D01*
X538635Y71129D01*
X539266Y71952D01*
X539662Y72909D01*
X539798Y73937D01*
X539662Y74965D01*
X539266Y75923D01*
X538635Y76745D01*
X537812Y77376D01*
X536855Y77773D01*
X535827Y77908D01*
D02*
G37*
G36*
X489685Y68854D02*
X488994Y68716D01*
X488408Y68325D01*
X488016Y67738D01*
X487879Y67047D01*
X488016Y66356D01*
X488408Y65770D01*
X488994Y65378D01*
X489685Y65241D01*
X490376Y65378D01*
X490962Y65770D01*
X491354Y66356D01*
X491491Y67047D01*
X491354Y67738D01*
X490962Y68325D01*
X490376Y68716D01*
X489685Y68854D01*
D02*
G37*
G36*
X482571Y26984D02*
X478921D01*
Y22547D01*
X482571D01*
Y26984D01*
D02*
G37*
G36*
X269776D02*
X266126D01*
Y22547D01*
X269776D01*
Y26984D01*
D02*
G37*
G36*
X487220D02*
X483571D01*
Y22547D01*
X487220D01*
Y26984D01*
D02*
G37*
G36*
X274425D02*
X270776D01*
Y22547D01*
X274425D01*
Y26984D01*
D02*
G37*
G36*
X115173D02*
X111524D01*
Y22547D01*
X115173D01*
Y26984D01*
D02*
G37*
G36*
X216626D02*
X212976D01*
Y22547D01*
X216626D01*
Y26984D01*
D02*
G37*
G36*
X221276D02*
X217626D01*
Y22547D01*
X221276D01*
Y26984D01*
D02*
G37*
G36*
X168126D02*
X164476D01*
Y22547D01*
X168126D01*
Y26984D01*
D02*
G37*
G36*
X53347Y54759D02*
X52655Y54622D01*
X52069Y54230D01*
X51678Y53644D01*
X51540Y52953D01*
X51678Y52262D01*
X52069Y51675D01*
X52655Y51284D01*
X53347Y51146D01*
X54038Y51284D01*
X54624Y51675D01*
X55015Y52262D01*
X55153Y52953D01*
X55015Y53644D01*
X54624Y54230D01*
X54038Y54622D01*
X53347Y54759D01*
D02*
G37*
G36*
X86811Y53775D02*
X86120Y53637D01*
X85534Y53246D01*
X85142Y52660D01*
X85005Y51968D01*
X85142Y51277D01*
X85534Y50691D01*
X86120Y50300D01*
X86811Y50162D01*
X87502Y50300D01*
X88088Y50691D01*
X88480Y51277D01*
X88617Y51968D01*
X88480Y52660D01*
X88088Y53246D01*
X87502Y53637D01*
X86811Y53775D01*
D02*
G37*
G36*
X535827Y58122D02*
X535539D01*
Y54437D01*
X539946D01*
X539870Y55020D01*
X539452Y56030D01*
X538786Y56897D01*
X537920Y57562D01*
X536910Y57980D01*
X535827Y58122D01*
D02*
G37*
G36*
X534539D02*
X534252D01*
X533169Y57980D01*
X532159Y57562D01*
X531292Y56897D01*
X530627Y56030D01*
X530209Y55020D01*
X530132Y54437D01*
X534539D01*
Y58122D01*
D02*
G37*
G36*
X26378Y57160D02*
X24803D01*
X23775Y57025D01*
X22818Y56628D01*
X21995Y55997D01*
X21364Y55174D01*
X20967Y54217D01*
X20832Y53189D01*
X20967Y52161D01*
X21364Y51204D01*
X21995Y50381D01*
X22818Y49750D01*
X23775Y49353D01*
X24803Y49218D01*
X26378D01*
X27406Y49353D01*
X28363Y49750D01*
X29186Y50381D01*
X29817Y51204D01*
X30214Y52161D01*
X30349Y53189D01*
X30214Y54217D01*
X29817Y55174D01*
X29186Y55997D01*
X28363Y56628D01*
X27406Y57025D01*
X26378Y57160D01*
D02*
G37*
G36*
Y47160D02*
X24803D01*
X23775Y47025D01*
X22818Y46628D01*
X21995Y45997D01*
X21364Y45175D01*
X20967Y44217D01*
X20832Y43189D01*
X20967Y42161D01*
X21364Y41203D01*
X21995Y40381D01*
X22818Y39750D01*
X23775Y39353D01*
X24803Y39218D01*
X26378D01*
X27406Y39353D01*
X28363Y39750D01*
X29186Y40381D01*
X29817Y41203D01*
X30214Y42161D01*
X30349Y43189D01*
X30214Y44217D01*
X29817Y45175D01*
X29186Y45997D01*
X28363Y46628D01*
X27406Y47025D01*
X26378Y47160D01*
D02*
G37*
G36*
X539946Y53437D02*
X535539D01*
Y49752D01*
X535827D01*
X536910Y49894D01*
X537920Y50312D01*
X538786Y50977D01*
X539452Y51844D01*
X539870Y52854D01*
X539946Y53437D01*
D02*
G37*
G36*
X534539D02*
X530132D01*
X530209Y52854D01*
X530627Y51844D01*
X531292Y50977D01*
X532159Y50312D01*
X533169Y49894D01*
X534252Y49752D01*
X534539D01*
Y53437D01*
D02*
G37*
G36*
X312598Y282909D02*
X311907Y282771D01*
X311321Y282380D01*
X310930Y281794D01*
X310792Y281102D01*
X310930Y280411D01*
X311321Y279825D01*
X311907Y279433D01*
X312598Y279296D01*
X313290Y279433D01*
X313876Y279825D01*
X314267Y280411D01*
X314405Y281102D01*
X314267Y281794D01*
X313876Y282380D01*
X313290Y282771D01*
X312598Y282909D01*
D02*
G37*
G36*
X311811Y276413D02*
X311120Y276275D01*
X310534Y275884D01*
X310142Y275298D01*
X310005Y274606D01*
X310142Y273915D01*
X310534Y273329D01*
X311120Y272937D01*
X311811Y272800D01*
X312502Y272937D01*
X313088Y273329D01*
X313480Y273915D01*
X313617Y274606D01*
X313480Y275298D01*
X313088Y275884D01*
X312502Y276275D01*
X311811Y276413D01*
D02*
G37*
G36*
X56012Y289953D02*
Y281602D01*
X60491D01*
Y285039D01*
X60322Y286328D01*
X59824Y287529D01*
X59033Y288561D01*
X58002Y289352D01*
X56801Y289849D01*
X56012Y289953D01*
D02*
G37*
G36*
X55012D02*
X54223Y289849D01*
X53022Y289352D01*
X51991Y288561D01*
X51199Y287529D01*
X50702Y286328D01*
X50532Y285039D01*
Y281602D01*
X55012D01*
Y289953D01*
D02*
G37*
G36*
X60491Y280602D02*
X56012D01*
Y272252D01*
X56801Y272356D01*
X58002Y272853D01*
X59033Y273644D01*
X59824Y274676D01*
X60322Y275877D01*
X60491Y277165D01*
Y280602D01*
D02*
G37*
G36*
X55012D02*
X50532D01*
Y277165D01*
X50702Y275877D01*
X51199Y274676D01*
X51991Y273644D01*
X53022Y272853D01*
X54223Y272356D01*
X55012Y272252D01*
Y280602D01*
D02*
G37*
G36*
X256299Y276413D02*
X255608Y276275D01*
X255022Y275884D01*
X254630Y275298D01*
X254493Y274606D01*
X254630Y273915D01*
X255022Y273329D01*
X255608Y272937D01*
X256299Y272800D01*
X256991Y272937D01*
X257576Y273329D01*
X257968Y273915D01*
X258106Y274606D01*
X257968Y275298D01*
X257576Y275884D01*
X256991Y276275D01*
X256299Y276413D01*
D02*
G37*
G36*
X79134Y289805D02*
X77900Y289642D01*
X76751Y289166D01*
X75764Y288409D01*
X75007Y287422D01*
X74531Y286273D01*
X74369Y285039D01*
Y277165D01*
X74531Y275932D01*
X75007Y274783D01*
X75764Y273796D01*
X76751Y273039D01*
X77900Y272563D01*
X79134Y272400D01*
X80367Y272563D01*
X81516Y273039D01*
X82503Y273796D01*
X83261Y274783D01*
X83737Y275932D01*
X83899Y277165D01*
Y285039D01*
X83737Y286273D01*
X83261Y287422D01*
X82503Y288409D01*
X81516Y289166D01*
X80367Y289642D01*
X79134Y289805D01*
D02*
G37*
G36*
X114961Y299031D02*
X114269Y298893D01*
X113683Y298502D01*
X113292Y297916D01*
X113154Y297224D01*
X113292Y296533D01*
X113683Y295947D01*
X114269Y295555D01*
X114961Y295418D01*
X115652Y295555D01*
X116238Y295947D01*
X116630Y296533D01*
X116767Y297224D01*
X116630Y297916D01*
X116238Y298502D01*
X115652Y298893D01*
X114961Y299031D01*
D02*
G37*
G36*
X510433Y296098D02*
X509742Y295960D01*
X509156Y295569D01*
X508764Y294983D01*
X508627Y294291D01*
X508764Y293600D01*
X509156Y293014D01*
X509742Y292622D01*
X510433Y292485D01*
X511124Y292622D01*
X511710Y293014D01*
X512102Y293600D01*
X512239Y294291D01*
X512102Y294983D01*
X511710Y295569D01*
X511124Y295960D01*
X510433Y296098D01*
D02*
G37*
G36*
X291732Y310468D02*
X291041Y310330D01*
X290455Y309939D01*
X290063Y309353D01*
X289926Y308661D01*
X290063Y307970D01*
X290455Y307384D01*
X291041Y306993D01*
X291732Y306855D01*
X292424Y306993D01*
X293010Y307384D01*
X293401Y307970D01*
X293539Y308661D01*
X293401Y309353D01*
X293010Y309939D01*
X292424Y310330D01*
X291732Y310468D01*
D02*
G37*
G36*
X93307Y301019D02*
X92616Y300882D01*
X92030Y300490D01*
X91638Y299904D01*
X91501Y299213D01*
X91638Y298521D01*
X92030Y297935D01*
X92616Y297544D01*
X93307Y297406D01*
X93998Y297544D01*
X94584Y297935D01*
X94976Y298521D01*
X95113Y299213D01*
X94976Y299904D01*
X94584Y300490D01*
X93998Y300882D01*
X93307Y301019D01*
D02*
G37*
G36*
X223622Y288814D02*
X222931Y288677D01*
X222345Y288285D01*
X221953Y287699D01*
X221816Y287008D01*
X221953Y286317D01*
X222345Y285731D01*
X222931Y285339D01*
X223622Y285202D01*
X224313Y285339D01*
X224899Y285731D01*
X225291Y286317D01*
X225428Y287008D01*
X225291Y287699D01*
X224899Y288285D01*
X224313Y288677D01*
X223622Y288814D01*
D02*
G37*
G36*
X327559Y285271D02*
X326868Y285133D01*
X326282Y284742D01*
X325890Y284156D01*
X325753Y283465D01*
X325890Y282773D01*
X326282Y282187D01*
X326868Y281796D01*
X327559Y281658D01*
X328250Y281796D01*
X328836Y282187D01*
X329228Y282773D01*
X329365Y283465D01*
X329228Y284156D01*
X328836Y284742D01*
X328250Y285133D01*
X327559Y285271D01*
D02*
G37*
G36*
X313779Y294720D02*
X313088Y294582D01*
X312502Y294191D01*
X312111Y293605D01*
X311973Y292913D01*
X312111Y292222D01*
X312502Y291636D01*
X313088Y291245D01*
X313779Y291107D01*
X314471Y291245D01*
X315057Y291636D01*
X315448Y292222D01*
X315586Y292913D01*
X315448Y293605D01*
X315057Y294191D01*
X314471Y294582D01*
X313779Y294720D01*
D02*
G37*
G36*
X294094Y293539D02*
X293403Y293401D01*
X292817Y293010D01*
X292426Y292424D01*
X292288Y291732D01*
X292426Y291041D01*
X292817Y290455D01*
X293403Y290063D01*
X294094Y289926D01*
X294786Y290063D01*
X295372Y290455D01*
X295763Y291041D01*
X295901Y291732D01*
X295763Y292424D01*
X295372Y293010D01*
X294786Y293401D01*
X294094Y293539D01*
D02*
G37*
G36*
X69291Y252768D02*
X69004D01*
Y249083D01*
X73411D01*
X73334Y249666D01*
X72916Y250675D01*
X72251Y251542D01*
X71384Y252207D01*
X70375Y252625D01*
X69291Y252768D01*
D02*
G37*
G36*
X68004D02*
X67716D01*
X66633Y252625D01*
X65624Y252207D01*
X64757Y251542D01*
X64092Y250675D01*
X63674Y249666D01*
X63597Y249083D01*
X68004D01*
Y252768D01*
D02*
G37*
G36*
X268656Y255209D02*
X267232D01*
Y253785D01*
X267507Y253839D01*
X268163Y254278D01*
X268601Y254935D01*
X268656Y255209D01*
D02*
G37*
G36*
X50394Y252768D02*
X50106D01*
Y249083D01*
X54513D01*
X54436Y249666D01*
X54018Y250675D01*
X53353Y251542D01*
X52486Y252207D01*
X51477Y252625D01*
X50394Y252768D01*
D02*
G37*
G36*
X68004Y248083D02*
X63597D01*
X63674Y247499D01*
X64092Y246490D01*
X64757Y245623D01*
X65624Y244958D01*
X66633Y244540D01*
X67716Y244397D01*
X68004D01*
Y248083D01*
D02*
G37*
G36*
X54513D02*
X50106D01*
Y244397D01*
X50394D01*
X51477Y244540D01*
X52486Y244958D01*
X53353Y245623D01*
X54018Y246490D01*
X54436Y247499D01*
X54513Y248083D01*
D02*
G37*
G36*
X49106Y252768D02*
X48819D01*
X47736Y252625D01*
X46726Y252207D01*
X45859Y251542D01*
X45194Y250675D01*
X44776Y249666D01*
X44699Y249083D01*
X49106D01*
Y252768D01*
D02*
G37*
G36*
X73411Y248083D02*
X69004D01*
Y244397D01*
X69291D01*
X70375Y244540D01*
X71384Y244958D01*
X72251Y245623D01*
X72916Y246490D01*
X73334Y247499D01*
X73411Y248083D01*
D02*
G37*
G36*
X336417Y266176D02*
X335726Y266039D01*
X335140Y265647D01*
X334749Y265061D01*
X334611Y264370D01*
X334749Y263679D01*
X335140Y263093D01*
X335726Y262701D01*
X336417Y262564D01*
X337109Y262701D01*
X337695Y263093D01*
X338086Y263679D01*
X338224Y264370D01*
X338086Y265061D01*
X337695Y265647D01*
X337109Y266039D01*
X336417Y266176D01*
D02*
G37*
G36*
X338386Y261255D02*
X337695Y261118D01*
X337108Y260726D01*
X336717Y260140D01*
X336579Y259449D01*
X336717Y258758D01*
X337108Y258172D01*
X337695Y257780D01*
X338386Y257643D01*
X339077Y257780D01*
X339663Y258172D01*
X340055Y258758D01*
X340192Y259449D01*
X340055Y260140D01*
X339663Y260726D01*
X339077Y261118D01*
X338386Y261255D01*
D02*
G37*
G36*
X71260Y267578D02*
X67823D01*
Y263099D01*
X76174D01*
X76070Y263887D01*
X75572Y265088D01*
X74781Y266120D01*
X73750Y266911D01*
X72549Y267408D01*
X71260Y267578D01*
D02*
G37*
G36*
X66823D02*
X63386D01*
X62097Y267408D01*
X60896Y266911D01*
X59865Y266120D01*
X59073Y265088D01*
X58576Y263887D01*
X58472Y263099D01*
X66823D01*
Y267578D01*
D02*
G37*
G36*
X257965Y380602D02*
X253780D01*
X249594D01*
Y380315D01*
X249737Y379232D01*
X250155Y378222D01*
X250820Y377355D01*
X251687Y376690D01*
X252467Y376367D01*
Y361804D01*
X244741Y354078D01*
X244457Y353652D01*
X244357Y353150D01*
Y257021D01*
X239501D01*
X238963Y257381D01*
X238689Y257435D01*
Y255512D01*
Y253588D01*
X238963Y253643D01*
X239619Y254081D01*
X239830Y254396D01*
X265223D01*
X265302Y254278D01*
X265958Y253839D01*
X266232Y253785D01*
Y255709D01*
Y257632D01*
X265958Y257578D01*
X265302Y257139D01*
X265223Y257021D01*
X246982D01*
Y352606D01*
X254708Y360332D01*
X254992Y360757D01*
X255092Y361260D01*
Y376367D01*
X255872Y376690D01*
X256739Y377355D01*
X257404Y378222D01*
X257822Y379232D01*
X257965Y380315D01*
Y380602D01*
D02*
G37*
G36*
X267232Y257632D02*
Y256209D01*
X268656D01*
X268601Y256483D01*
X268163Y257139D01*
X267507Y257578D01*
X267232Y257632D01*
D02*
G37*
G36*
X76174Y262099D02*
X67823D01*
Y257619D01*
X71260D01*
X72549Y257788D01*
X73750Y258286D01*
X74781Y259077D01*
X75572Y260109D01*
X76070Y261310D01*
X76174Y262099D01*
D02*
G37*
G36*
X66823D02*
X58472D01*
X58576Y261310D01*
X59073Y260109D01*
X59865Y259077D01*
X60896Y258286D01*
X62097Y257788D01*
X63386Y257619D01*
X66823D01*
Y262099D01*
D02*
G37*
G36*
X303780Y385861D02*
X302752Y385725D01*
X301794Y385329D01*
X300972Y384698D01*
X300341Y383875D01*
X299944Y382917D01*
X299809Y381890D01*
Y380315D01*
X299944Y379287D01*
X300341Y378329D01*
X300972Y377507D01*
X301794Y376876D01*
X302752Y376479D01*
X303780Y376344D01*
X304807Y376479D01*
X305765Y376876D01*
X306587Y377507D01*
X307219Y378329D01*
X307615Y379287D01*
X307751Y380315D01*
Y381890D01*
X307615Y382917D01*
X307219Y383875D01*
X306587Y384698D01*
X305765Y385329D01*
X304807Y385725D01*
X303780Y385861D01*
D02*
G37*
G36*
X293779D02*
X292752Y385725D01*
X291794Y385329D01*
X290972Y384698D01*
X290341Y383875D01*
X289944Y382917D01*
X289809Y381890D01*
Y380315D01*
X289944Y379287D01*
X290341Y378329D01*
X290972Y377507D01*
X291794Y376876D01*
X292752Y376479D01*
X293779Y376344D01*
X294807Y376479D01*
X295765Y376876D01*
X296587Y377507D01*
X297218Y378329D01*
X297615Y379287D01*
X297750Y380315D01*
Y381890D01*
X297615Y382917D01*
X297218Y383875D01*
X296587Y384698D01*
X295765Y385329D01*
X294807Y385725D01*
X293779Y385861D01*
D02*
G37*
G36*
X323780D02*
X322752Y385725D01*
X321794Y385329D01*
X320972Y384698D01*
X320341Y383875D01*
X319944Y382917D01*
X319809Y381890D01*
Y380315D01*
X319944Y379287D01*
X320341Y378329D01*
X320972Y377507D01*
X321794Y376876D01*
X322752Y376479D01*
X323780Y376344D01*
X324807Y376479D01*
X325765Y376876D01*
X326587Y377507D01*
X327219Y378329D01*
X327615Y379287D01*
X327750Y380315D01*
Y381890D01*
X327615Y382917D01*
X327219Y383875D01*
X326587Y384698D01*
X325765Y385329D01*
X324807Y385725D01*
X323780Y385861D01*
D02*
G37*
G36*
X313779D02*
X312752Y385725D01*
X311794Y385329D01*
X310972Y384698D01*
X310341Y383875D01*
X309944Y382917D01*
X309809Y381890D01*
Y380315D01*
X309944Y379287D01*
X310341Y378329D01*
X310972Y377507D01*
X311794Y376876D01*
X312752Y376479D01*
X313779Y376344D01*
X314807Y376479D01*
X315765Y376876D01*
X316587Y377507D01*
X317218Y378329D01*
X317615Y379287D01*
X317751Y380315D01*
Y381890D01*
X317615Y382917D01*
X317218Y383875D01*
X316587Y384698D01*
X315765Y385329D01*
X314807Y385725D01*
X313779Y385861D01*
D02*
G37*
G36*
X263779D02*
X262752Y385725D01*
X261794Y385329D01*
X260972Y384698D01*
X260341Y383875D01*
X259944Y382917D01*
X259809Y381890D01*
Y380315D01*
X259944Y379287D01*
X260341Y378329D01*
X260972Y377507D01*
X261794Y376876D01*
X262752Y376479D01*
X263779Y376344D01*
X264807Y376479D01*
X265765Y376876D01*
X266587Y377507D01*
X267218Y378329D01*
X267615Y379287D01*
X267751Y380315D01*
Y381890D01*
X267615Y382917D01*
X267218Y383875D01*
X266587Y384698D01*
X265765Y385329D01*
X264807Y385725D01*
X263779Y385861D01*
D02*
G37*
G36*
X243779D02*
X242752Y385725D01*
X241794Y385329D01*
X240972Y384698D01*
X240341Y383875D01*
X239944Y382917D01*
X239809Y381890D01*
Y380315D01*
X239944Y379287D01*
X240341Y378329D01*
X240972Y377507D01*
X241794Y376876D01*
X242752Y376479D01*
X243779Y376344D01*
X244807Y376479D01*
X245765Y376876D01*
X246587Y377507D01*
X247218Y378329D01*
X247615Y379287D01*
X247750Y380315D01*
Y381890D01*
X247615Y382917D01*
X247218Y383875D01*
X246587Y384698D01*
X245765Y385329D01*
X244807Y385725D01*
X243779Y385861D01*
D02*
G37*
G36*
X283780D02*
X282752Y385725D01*
X281794Y385329D01*
X280972Y384698D01*
X280341Y383875D01*
X279944Y382917D01*
X279809Y381890D01*
Y380315D01*
X279944Y379287D01*
X280341Y378329D01*
X280972Y377507D01*
X281794Y376876D01*
X282752Y376479D01*
X283780Y376344D01*
X284807Y376479D01*
X285765Y376876D01*
X286587Y377507D01*
X287218Y378329D01*
X287615Y379287D01*
X287751Y380315D01*
Y381890D01*
X287615Y382917D01*
X287218Y383875D01*
X286587Y384698D01*
X285765Y385329D01*
X284807Y385725D01*
X283780Y385861D01*
D02*
G37*
G36*
X273780D02*
X272752Y385725D01*
X271794Y385329D01*
X270972Y384698D01*
X270341Y383875D01*
X269944Y382917D01*
X269809Y381890D01*
Y380315D01*
X269944Y379287D01*
X270341Y378329D01*
X270972Y377507D01*
X271794Y376876D01*
X272752Y376479D01*
X273780Y376344D01*
X274807Y376479D01*
X275765Y376876D01*
X276587Y377507D01*
X277219Y378329D01*
X277615Y379287D01*
X277750Y380315D01*
Y381890D01*
X277615Y382917D01*
X277219Y383875D01*
X276587Y384698D01*
X275765Y385329D01*
X274807Y385725D01*
X273780Y385861D01*
D02*
G37*
G36*
X359646Y392848D02*
X213779D01*
X213277Y392748D01*
X212851Y392464D01*
X212567Y392038D01*
X212467Y391535D01*
X212567Y391033D01*
X212851Y390607D01*
X213277Y390323D01*
X213779Y390223D01*
X252467D01*
Y385838D01*
X251687Y385514D01*
X250820Y384849D01*
X250155Y383982D01*
X249737Y382973D01*
X249594Y381890D01*
Y381602D01*
X253780D01*
X257965D01*
Y381890D01*
X257822Y382973D01*
X257404Y383982D01*
X256739Y384849D01*
X255872Y385514D01*
X255092Y385838D01*
Y390223D01*
X359102D01*
X362467Y386858D01*
Y385838D01*
X361687Y385514D01*
X360820Y384849D01*
X360155Y383982D01*
X359737Y382973D01*
X359594Y381890D01*
Y381602D01*
X363779D01*
X367965D01*
Y381890D01*
X367822Y382973D01*
X367404Y383982D01*
X366739Y384849D01*
X365872Y385514D01*
X365092Y385838D01*
Y387402D01*
X364992Y387904D01*
X364708Y388330D01*
X360574Y392464D01*
X360148Y392748D01*
X359646Y392848D01*
D02*
G37*
G36*
X75590Y378972D02*
X74899Y378834D01*
X74318Y378446D01*
X74200Y378372D01*
X73831D01*
X73714Y378446D01*
X73132Y378834D01*
X72441Y378972D01*
X71750Y378834D01*
X71168Y378446D01*
X71051Y378372D01*
X70682D01*
X70564Y378446D01*
X69983Y378834D01*
X69291Y378972D01*
X68600Y378834D01*
X68019Y378446D01*
X67901Y378372D01*
X67532D01*
X67415Y378446D01*
X66833Y378834D01*
X66142Y378972D01*
X65451Y378834D01*
X64869Y378446D01*
X64752Y378372D01*
X64382D01*
X64265Y378446D01*
X63683Y378834D01*
X62992Y378972D01*
X62301Y378834D01*
X61719Y378446D01*
X61602Y378372D01*
X61233D01*
X61115Y378446D01*
X60534Y378834D01*
X59843Y378972D01*
X59151Y378834D01*
X58570Y378446D01*
X58453Y378372D01*
X58083D01*
X57966Y378446D01*
X57384Y378834D01*
X56693Y378972D01*
X56002Y378834D01*
X55416Y378443D01*
X55024Y377857D01*
X54887Y377165D01*
X55024Y376474D01*
X55416Y375888D01*
X55487Y375841D01*
Y375341D01*
X55416Y375293D01*
X55024Y374707D01*
X54887Y374016D01*
X55024Y373324D01*
X55416Y372739D01*
X55487Y372691D01*
Y372191D01*
X55416Y372143D01*
X55024Y371557D01*
X54887Y370866D01*
X55024Y370175D01*
X55416Y369589D01*
X55487Y369541D01*
Y369041D01*
X55416Y368994D01*
X55024Y368408D01*
X54887Y367717D01*
X55024Y367025D01*
X55416Y366439D01*
X55487Y366392D01*
Y365892D01*
X55416Y365844D01*
X55024Y365258D01*
X54887Y364567D01*
X55024Y363876D01*
X55416Y363290D01*
X56002Y362898D01*
X56693Y362761D01*
X57384Y362898D01*
X57966Y363287D01*
X58083Y363361D01*
X58453D01*
X58570Y363287D01*
X59151Y362898D01*
X59843Y362761D01*
X60534Y362898D01*
X61115Y363287D01*
X61233Y363361D01*
X61602D01*
X61719Y363287D01*
X62301Y362898D01*
X62992Y362761D01*
X63683Y362898D01*
X64265Y363287D01*
X64382Y363361D01*
X64752D01*
X64869Y363287D01*
X65451Y362898D01*
X66142Y362761D01*
X66833Y362898D01*
X67415Y363287D01*
X67532Y363361D01*
X67901D01*
X68019Y363287D01*
X68600Y362898D01*
X69291Y362761D01*
X69983Y362898D01*
X70564Y363287D01*
X70682Y363361D01*
X71051D01*
X71168Y363287D01*
X71750Y362898D01*
X72441Y362761D01*
X73132Y362898D01*
X73714Y363287D01*
X73831Y363361D01*
X74200D01*
X74318Y363287D01*
X74899Y362898D01*
X75590Y362761D01*
X76282Y362898D01*
X76868Y363290D01*
X77259Y363876D01*
X77397Y364567D01*
X77259Y365258D01*
X76871Y365840D01*
X76797Y365957D01*
Y366326D01*
X76871Y366444D01*
X77259Y367025D01*
X77397Y367717D01*
X77259Y368408D01*
X76868Y368994D01*
X76797Y369041D01*
Y369541D01*
X76868Y369589D01*
X77259Y370175D01*
X77397Y370866D01*
X77259Y371557D01*
X76868Y372143D01*
X76797Y372191D01*
Y372691D01*
X76868Y372739D01*
X77259Y373324D01*
X77397Y374016D01*
X77259Y374707D01*
X76871Y375289D01*
X76797Y375406D01*
Y375775D01*
X76871Y375892D01*
X77259Y376474D01*
X77397Y377165D01*
X77259Y377857D01*
X76868Y378443D01*
X76282Y378834D01*
X75590Y378972D01*
D02*
G37*
G36*
X217929Y386039D02*
X214280D01*
Y381602D01*
X217929D01*
Y386039D01*
D02*
G37*
G36*
X213280D02*
X209630D01*
Y381602D01*
X213280D01*
Y386039D01*
D02*
G37*
G36*
X343779Y385861D02*
X342752Y385725D01*
X341794Y385329D01*
X340972Y384698D01*
X340341Y383875D01*
X339944Y382917D01*
X339809Y381890D01*
Y380315D01*
X339944Y379287D01*
X340341Y378329D01*
X340972Y377507D01*
X341794Y376876D01*
X342752Y376479D01*
X343779Y376344D01*
X344807Y376479D01*
X345765Y376876D01*
X346587Y377507D01*
X347218Y378329D01*
X347615Y379287D01*
X347750Y380315D01*
Y381890D01*
X347615Y382917D01*
X347218Y383875D01*
X346587Y384698D01*
X345765Y385329D01*
X344807Y385725D01*
X343779Y385861D01*
D02*
G37*
G36*
X333780D02*
X332752Y385725D01*
X331794Y385329D01*
X330972Y384698D01*
X330341Y383875D01*
X329944Y382917D01*
X329809Y381890D01*
Y380315D01*
X329944Y379287D01*
X330341Y378329D01*
X330972Y377507D01*
X331794Y376876D01*
X332752Y376479D01*
X333780Y376344D01*
X334807Y376479D01*
X335765Y376876D01*
X336587Y377507D01*
X337218Y378329D01*
X337615Y379287D01*
X337751Y380315D01*
Y381890D01*
X337615Y382917D01*
X337218Y383875D01*
X336587Y384698D01*
X335765Y385329D01*
X334807Y385725D01*
X333780Y385861D01*
D02*
G37*
G36*
X135433Y378972D02*
X134742Y378834D01*
X134160Y378446D01*
X134043Y378372D01*
X133674D01*
X133556Y378446D01*
X132975Y378834D01*
X132284Y378972D01*
X131592Y378834D01*
X131011Y378446D01*
X130894Y378372D01*
X130524D01*
X130407Y378446D01*
X129825Y378834D01*
X129134Y378972D01*
X128443Y378834D01*
X127861Y378446D01*
X127744Y378372D01*
X127374D01*
X127257Y378446D01*
X126676Y378834D01*
X125984Y378972D01*
X125293Y378834D01*
X124711Y378446D01*
X124594Y378372D01*
X124225D01*
X124108Y378446D01*
X123526Y378834D01*
X122835Y378972D01*
X122143Y378834D01*
X121562Y378446D01*
X121445Y378372D01*
X121075D01*
X120958Y378446D01*
X120376Y378834D01*
X119685Y378972D01*
X118994Y378834D01*
X118412Y378446D01*
X118295Y378372D01*
X117926D01*
X117808Y378446D01*
X117227Y378834D01*
X116535Y378972D01*
X115844Y378834D01*
X115258Y378443D01*
X114867Y377857D01*
X114729Y377165D01*
X114867Y376474D01*
X115255Y375892D01*
X115329Y375775D01*
Y375406D01*
X115255Y375289D01*
X114867Y374707D01*
X114729Y374016D01*
X114867Y373324D01*
X115258Y372739D01*
X115329Y372691D01*
Y372191D01*
X115258Y372143D01*
X114867Y371557D01*
X114729Y370866D01*
X114867Y370175D01*
X115258Y369589D01*
X115329Y369541D01*
Y369041D01*
X115258Y368994D01*
X114867Y368408D01*
X114729Y367717D01*
X114867Y367025D01*
X115255Y366444D01*
X115329Y366326D01*
Y365957D01*
X115255Y365840D01*
X114867Y365258D01*
X114729Y364567D01*
X114867Y363876D01*
X115258Y363290D01*
X115844Y362898D01*
X116535Y362761D01*
X117227Y362898D01*
X117808Y363287D01*
X117926Y363361D01*
X118295D01*
X118412Y363287D01*
X118994Y362898D01*
X119685Y362761D01*
X120376Y362898D01*
X120958Y363287D01*
X121075Y363361D01*
X121445D01*
X121562Y363287D01*
X122143Y362898D01*
X122835Y362761D01*
X123526Y362898D01*
X124108Y363287D01*
X124225Y363361D01*
X124594D01*
X124711Y363287D01*
X125293Y362898D01*
X125984Y362761D01*
X126676Y362898D01*
X127257Y363287D01*
X127374Y363361D01*
X127744D01*
X127861Y363287D01*
X128443Y362898D01*
X129134Y362761D01*
X129825Y362898D01*
X130407Y363287D01*
X130524Y363361D01*
X130894D01*
X131011Y363287D01*
X131592Y362898D01*
X132284Y362761D01*
X132975Y362898D01*
X133556Y363287D01*
X133674Y363361D01*
X134043D01*
X134160Y363287D01*
X134742Y362898D01*
X135433Y362761D01*
X136124Y362898D01*
X136710Y363290D01*
X137102Y363876D01*
X137239Y364567D01*
X137102Y365258D01*
X136713Y365840D01*
X136639Y365957D01*
Y366326D01*
X136713Y366444D01*
X137102Y367025D01*
X137239Y367717D01*
X137102Y368408D01*
X136710Y368994D01*
X136639Y369041D01*
Y369541D01*
X136710Y369589D01*
X137102Y370175D01*
X137239Y370866D01*
X137102Y371557D01*
X136710Y372143D01*
X136639Y372191D01*
Y372691D01*
X136710Y372739D01*
X137102Y373324D01*
X137239Y374016D01*
X137102Y374707D01*
X136710Y375293D01*
X136639Y375341D01*
Y375841D01*
X136710Y375888D01*
X137102Y376474D01*
X137239Y377165D01*
X137102Y377857D01*
X136710Y378443D01*
X136124Y378834D01*
X135433Y378972D01*
D02*
G37*
G36*
X353780Y385861D02*
X352752Y385725D01*
X351794Y385329D01*
X350972Y384698D01*
X350341Y383875D01*
X349944Y382917D01*
X349809Y381890D01*
Y380315D01*
X349944Y379287D01*
X350341Y378329D01*
X350972Y377507D01*
X351794Y376876D01*
X352752Y376479D01*
X353780Y376344D01*
X354807Y376479D01*
X355765Y376876D01*
X356587Y377507D01*
X357219Y378329D01*
X357615Y379287D01*
X357751Y380315D01*
Y381890D01*
X357615Y382917D01*
X357219Y383875D01*
X356587Y384698D01*
X355765Y385329D01*
X354807Y385725D01*
X353780Y385861D01*
D02*
G37*
G36*
X85039Y332121D02*
X84348Y331984D01*
X83762Y331592D01*
X83371Y331006D01*
X83233Y330315D01*
X83371Y329624D01*
X83762Y329038D01*
X84348Y328646D01*
X85039Y328509D01*
X85731Y328646D01*
X86317Y329038D01*
X86708Y329624D01*
X86846Y330315D01*
X86708Y331006D01*
X86317Y331592D01*
X85731Y331984D01*
X85039Y332121D01*
D02*
G37*
G36*
X33465D02*
X32773Y331984D01*
X32187Y331592D01*
X31796Y331006D01*
X31658Y330315D01*
X31796Y329624D01*
X32187Y329038D01*
X32773Y328646D01*
X33465Y328509D01*
X34156Y328646D01*
X34742Y329038D01*
X35133Y329624D01*
X35271Y330315D01*
X35133Y331006D01*
X34742Y331592D01*
X34156Y331984D01*
X33465Y332121D01*
D02*
G37*
G36*
X536614Y383212D02*
X535204Y383073D01*
X533848Y382662D01*
X532599Y381994D01*
X531503Y381095D01*
X530605Y380000D01*
X529937Y378750D01*
X529525Y377394D01*
X529387Y375984D01*
X529525Y374574D01*
X529937Y373218D01*
X530605Y371969D01*
X531503Y370873D01*
X532599Y369975D01*
X533848Y369307D01*
X535204Y368895D01*
X536614Y368757D01*
X538024Y368895D01*
X539380Y369307D01*
X540630Y369975D01*
X541725Y370873D01*
X542624Y371969D01*
X543292Y373218D01*
X543703Y374574D01*
X543842Y375984D01*
X543703Y377394D01*
X543292Y378750D01*
X542624Y380000D01*
X541725Y381095D01*
X540630Y381994D01*
X539380Y382662D01*
X538024Y383073D01*
X536614Y383212D01*
D02*
G37*
G36*
X146457Y332220D02*
X145765Y332082D01*
X145179Y331691D01*
X144788Y331105D01*
X144650Y330413D01*
X144788Y329722D01*
X145179Y329136D01*
X145765Y328745D01*
X146457Y328607D01*
X147148Y328745D01*
X147734Y329136D01*
X148126Y329722D01*
X148263Y330413D01*
X148126Y331105D01*
X147734Y331691D01*
X147148Y332082D01*
X146457Y332220D01*
D02*
G37*
G36*
X68504Y319917D02*
X67813Y319779D01*
X67227Y319388D01*
X66835Y318801D01*
X66698Y318110D01*
X66835Y317419D01*
X67227Y316833D01*
X67813Y316441D01*
X68504Y316304D01*
X69195Y316441D01*
X69781Y316833D01*
X70173Y317419D01*
X70310Y318110D01*
X70173Y318801D01*
X69781Y319388D01*
X69195Y319779D01*
X68504Y319917D01*
D02*
G37*
G36*
X315354Y315783D02*
X314663Y315645D01*
X314077Y315254D01*
X313685Y314668D01*
X313548Y313976D01*
X313685Y313285D01*
X314077Y312699D01*
X314663Y312308D01*
X315354Y312170D01*
X316046Y312308D01*
X316632Y312699D01*
X317023Y313285D01*
X317161Y313976D01*
X317023Y314668D01*
X316632Y315254D01*
X316046Y315645D01*
X315354Y315783D01*
D02*
G37*
G36*
X343701Y324641D02*
X343009Y324503D01*
X342424Y324112D01*
X342032Y323526D01*
X341894Y322835D01*
X342032Y322143D01*
X342424Y321557D01*
X343009Y321166D01*
X343701Y321028D01*
X344392Y321166D01*
X344978Y321557D01*
X345370Y322143D01*
X345507Y322835D01*
X345370Y323526D01*
X344978Y324112D01*
X344392Y324503D01*
X343701Y324641D01*
D02*
G37*
G36*
X314764Y322082D02*
X314072Y321944D01*
X313487Y321553D01*
X313095Y320967D01*
X312957Y320276D01*
X313095Y319584D01*
X313487Y318998D01*
X314072Y318607D01*
X314764Y318469D01*
X315455Y318607D01*
X316041Y318998D01*
X316433Y319584D01*
X316570Y320276D01*
X316433Y320967D01*
X316041Y321553D01*
X315455Y321944D01*
X314764Y322082D01*
D02*
G37*
G36*
X367965Y380602D02*
X364280D01*
Y376195D01*
X364863Y376272D01*
X365872Y376690D01*
X366739Y377355D01*
X367404Y378222D01*
X367822Y379232D01*
X367965Y380315D01*
Y380602D01*
D02*
G37*
G36*
X363280D02*
X359594D01*
Y380315D01*
X359737Y379232D01*
X360155Y378222D01*
X360820Y377355D01*
X361687Y376690D01*
X362696Y376272D01*
X363280Y376195D01*
Y380602D01*
D02*
G37*
G36*
X233780Y385861D02*
X232752Y385725D01*
X231794Y385329D01*
X230972Y384698D01*
X230341Y383875D01*
X229944Y382917D01*
X229809Y381890D01*
Y380315D01*
X229944Y379287D01*
X230341Y378329D01*
X230972Y377507D01*
X231794Y376876D01*
X232752Y376479D01*
X233780Y376344D01*
X234807Y376479D01*
X235765Y376876D01*
X236587Y377507D01*
X237218Y378329D01*
X237615Y379287D01*
X237751Y380315D01*
Y381890D01*
X237615Y382917D01*
X237218Y383875D01*
X236587Y384698D01*
X235765Y385329D01*
X234807Y385725D01*
X233780Y385861D01*
D02*
G37*
G36*
X223780D02*
X222752Y385725D01*
X221794Y385329D01*
X220972Y384698D01*
X220341Y383875D01*
X219944Y382917D01*
X219809Y381890D01*
Y380315D01*
X219944Y379287D01*
X220341Y378329D01*
X220972Y377507D01*
X221794Y376876D01*
X222752Y376479D01*
X223780Y376344D01*
X224807Y376479D01*
X225765Y376876D01*
X226587Y377507D01*
X227219Y378329D01*
X227615Y379287D01*
X227750Y380315D01*
Y381890D01*
X227615Y382917D01*
X227219Y383875D01*
X226587Y384698D01*
X225765Y385329D01*
X224807Y385725D01*
X223780Y385861D01*
D02*
G37*
G36*
X36614Y372673D02*
X35923Y372535D01*
X35337Y372143D01*
X34945Y371557D01*
X34808Y370866D01*
X34945Y370175D01*
X35337Y369589D01*
X35923Y369197D01*
X36614Y369060D01*
X37305Y369197D01*
X37892Y369589D01*
X38283Y370175D01*
X38421Y370866D01*
X38283Y371557D01*
X37892Y372143D01*
X37305Y372535D01*
X36614Y372673D01*
D02*
G37*
G36*
X17717Y383105D02*
X16327Y382968D01*
X14991Y382563D01*
X13760Y381905D01*
X12681Y381019D01*
X11796Y379940D01*
X11138Y378709D01*
X10733Y377374D01*
X10596Y375984D01*
X10733Y374595D01*
X11138Y373259D01*
X11796Y372028D01*
X12681Y370949D01*
X13760Y370063D01*
X14991Y369405D01*
X16327Y369000D01*
X17717Y368863D01*
X19106Y369000D01*
X20442Y369405D01*
X21673Y370063D01*
X22752Y370949D01*
X23637Y372028D01*
X24295Y373259D01*
X24701Y374595D01*
X24837Y375984D01*
X24701Y377374D01*
X24295Y378709D01*
X23637Y379940D01*
X22752Y381019D01*
X21673Y381905D01*
X20442Y382563D01*
X19106Y382968D01*
X17717Y383105D01*
D02*
G37*
G36*
X217929Y380602D02*
X214280D01*
Y376165D01*
X217929D01*
Y380602D01*
D02*
G37*
G36*
X213280D02*
X209630D01*
Y376165D01*
X213280D01*
Y380602D01*
D02*
G37*
G36*
X49106Y248083D02*
X44699D01*
X44776Y247499D01*
X45194Y246490D01*
X45859Y245623D01*
X46726Y244958D01*
X47736Y244540D01*
X48819Y244397D01*
X49106D01*
Y248083D01*
D02*
G37*
G36*
X308661Y175035D02*
X307970Y174897D01*
X307384Y174506D01*
X306993Y173920D01*
X306855Y173228D01*
X306993Y172537D01*
X307384Y171951D01*
X307970Y171560D01*
X308661Y171422D01*
X309353Y171560D01*
X309939Y171951D01*
X310330Y172537D01*
X310468Y173228D01*
X310330Y173920D01*
X309939Y174506D01*
X309353Y174897D01*
X308661Y175035D01*
D02*
G37*
G36*
X377953Y174641D02*
X377261Y174504D01*
X376676Y174112D01*
X376284Y173526D01*
X376146Y172835D01*
X376284Y172143D01*
X376676Y171557D01*
X377261Y171166D01*
X377953Y171028D01*
X378644Y171166D01*
X379230Y171557D01*
X379622Y172143D01*
X379759Y172835D01*
X379622Y173526D01*
X379230Y174112D01*
X378644Y174504D01*
X377953Y174641D01*
D02*
G37*
G36*
X305906Y178578D02*
X305214Y178440D01*
X304628Y178049D01*
X304237Y177463D01*
X304099Y176772D01*
X304237Y176080D01*
X304628Y175494D01*
X305214Y175103D01*
X305906Y174965D01*
X306597Y175103D01*
X307183Y175494D01*
X307574Y176080D01*
X307712Y176772D01*
X307574Y177463D01*
X307183Y178049D01*
X306597Y178440D01*
X305906Y178578D01*
D02*
G37*
G36*
X248031Y178184D02*
X247340Y178047D01*
X246754Y177655D01*
X246363Y177069D01*
X246225Y176378D01*
X246363Y175687D01*
X246754Y175101D01*
X247340Y174709D01*
X248031Y174572D01*
X248723Y174709D01*
X249309Y175101D01*
X249700Y175687D01*
X249838Y176378D01*
X249700Y177069D01*
X249309Y177655D01*
X248723Y178047D01*
X248031Y178184D01*
D02*
G37*
G36*
X265551Y166570D02*
X264860Y166433D01*
X264274Y166041D01*
X263882Y165455D01*
X263745Y164764D01*
X263882Y164073D01*
X264274Y163487D01*
X264860Y163095D01*
X265551Y162957D01*
X266243Y163095D01*
X266828Y163487D01*
X267220Y164073D01*
X267357Y164764D01*
X267220Y165455D01*
X266828Y166041D01*
X266243Y166433D01*
X265551Y166570D01*
D02*
G37*
G36*
X286024Y165783D02*
X285332Y165645D01*
X284746Y165254D01*
X284355Y164668D01*
X284217Y163976D01*
X284355Y163285D01*
X284746Y162699D01*
X285332Y162308D01*
X286024Y162170D01*
X286715Y162308D01*
X287301Y162699D01*
X287692Y163285D01*
X287830Y163976D01*
X287692Y164668D01*
X287301Y165254D01*
X286715Y165645D01*
X286024Y165783D01*
D02*
G37*
G36*
X229134Y171885D02*
X228443Y171748D01*
X227857Y171356D01*
X227465Y170770D01*
X227327Y170079D01*
X227465Y169387D01*
X227857Y168801D01*
X228443Y168410D01*
X229134Y168272D01*
X229825Y168410D01*
X230411Y168801D01*
X230803Y169387D01*
X230940Y170079D01*
X230803Y170770D01*
X230411Y171356D01*
X229825Y171748D01*
X229134Y171885D01*
D02*
G37*
G36*
X60630Y168145D02*
X59939Y168007D01*
X59353Y167616D01*
X58961Y167030D01*
X58824Y166339D01*
X58961Y165647D01*
X59353Y165061D01*
X59939Y164670D01*
X60630Y164532D01*
X61321Y164670D01*
X61907Y165061D01*
X62299Y165647D01*
X62436Y166339D01*
X62299Y167030D01*
X61907Y167616D01*
X61321Y168007D01*
X60630Y168145D01*
D02*
G37*
G36*
X307874Y186058D02*
X307183Y185921D01*
X306597Y185529D01*
X306205Y184943D01*
X306068Y184252D01*
X306205Y183561D01*
X306597Y182975D01*
X307183Y182583D01*
X307874Y182446D01*
X308565Y182583D01*
X309151Y182975D01*
X309543Y183561D01*
X309680Y184252D01*
X309543Y184943D01*
X309151Y185529D01*
X308565Y185921D01*
X307874Y186058D01*
D02*
G37*
G36*
X251378Y183499D02*
X250687Y183362D01*
X250101Y182970D01*
X249709Y182384D01*
X249572Y181693D01*
X249709Y181002D01*
X250101Y180416D01*
X250687Y180024D01*
X251378Y179887D01*
X252069Y180024D01*
X252655Y180416D01*
X253047Y181002D01*
X253184Y181693D01*
X253047Y182384D01*
X252655Y182970D01*
X252069Y183362D01*
X251378Y183499D01*
D02*
G37*
G36*
X390945Y188420D02*
X390254Y188283D01*
X389668Y187891D01*
X389276Y187305D01*
X389139Y186614D01*
X389276Y185923D01*
X389668Y185337D01*
X390254Y184945D01*
X390945Y184808D01*
X391636Y184945D01*
X392222Y185337D01*
X392614Y185923D01*
X392751Y186614D01*
X392614Y187305D01*
X392222Y187891D01*
X391636Y188283D01*
X390945Y188420D01*
D02*
G37*
G36*
X304331D02*
X303639Y188283D01*
X303053Y187891D01*
X302662Y187305D01*
X302524Y186614D01*
X302662Y185923D01*
X303053Y185337D01*
X303639Y184945D01*
X304331Y184808D01*
X305022Y184945D01*
X305608Y185337D01*
X306000Y185923D01*
X306137Y186614D01*
X306000Y187305D01*
X305608Y187891D01*
X305022Y188283D01*
X304331Y188420D01*
D02*
G37*
G36*
X436614Y178972D02*
X435923Y178834D01*
X435337Y178443D01*
X434945Y177857D01*
X434808Y177165D01*
X434945Y176474D01*
X435337Y175888D01*
X435923Y175496D01*
X436614Y175359D01*
X437305Y175496D01*
X437891Y175888D01*
X438283Y176474D01*
X438420Y177165D01*
X438283Y177857D01*
X437891Y178443D01*
X437305Y178834D01*
X436614Y178972D01*
D02*
G37*
G36*
X387795Y178578D02*
X387104Y178440D01*
X386518Y178049D01*
X386126Y177463D01*
X385989Y176772D01*
X386126Y176080D01*
X386518Y175494D01*
X387104Y175103D01*
X387795Y174965D01*
X388487Y175103D01*
X389073Y175494D01*
X389464Y176080D01*
X389602Y176772D01*
X389464Y177463D01*
X389073Y178049D01*
X388487Y178440D01*
X387795Y178578D01*
D02*
G37*
G36*
X283071Y181137D02*
X282380Y181000D01*
X281794Y180608D01*
X281402Y180022D01*
X281264Y179331D01*
X281402Y178639D01*
X281794Y178053D01*
X282380Y177662D01*
X283071Y177524D01*
X283762Y177662D01*
X284348Y178053D01*
X284740Y178639D01*
X284877Y179331D01*
X284740Y180022D01*
X284348Y180608D01*
X283762Y181000D01*
X283071Y181137D01*
D02*
G37*
G36*
X334601Y219579D02*
X330753D01*
X330808Y219304D01*
X331247Y218648D01*
X331365Y218569D01*
Y208024D01*
X329378Y206037D01*
X301181D01*
X300679Y205937D01*
X300253Y205653D01*
X296513Y201912D01*
X296228Y201487D01*
X296128Y200984D01*
Y177423D01*
X295628Y177271D01*
X295372Y177655D01*
X294786Y178047D01*
X294094Y178184D01*
X293403Y178047D01*
X292817Y177655D01*
X292426Y177069D01*
X292288Y176378D01*
X292426Y175687D01*
X292817Y175101D01*
X293403Y174709D01*
X294094Y174572D01*
X294786Y174709D01*
X295372Y175101D01*
X295628Y175485D01*
X296128Y175333D01*
Y174738D01*
X296010Y174659D01*
X295572Y174003D01*
X295517Y173728D01*
X299365D01*
X299310Y174003D01*
X298871Y174659D01*
X298754Y174738D01*
Y200441D01*
X301725Y203412D01*
X329921D01*
X330424Y203512D01*
X330849Y203796D01*
X333605Y206552D01*
X333890Y206978D01*
X333990Y207480D01*
Y218569D01*
X334108Y218648D01*
X334546Y219304D01*
X334601Y219579D01*
D02*
G37*
G36*
X407114Y152860D02*
Y148453D01*
X410800D01*
Y148740D01*
X410657Y149823D01*
X410239Y150833D01*
X409574Y151700D01*
X408707Y152365D01*
X407697Y152783D01*
X407114Y152860D01*
D02*
G37*
G36*
X397114D02*
Y148453D01*
X400800D01*
Y148740D01*
X400657Y149823D01*
X400239Y150833D01*
X399574Y151700D01*
X398707Y152365D01*
X397697Y152783D01*
X397114Y152860D01*
D02*
G37*
G36*
X425984Y156137D02*
X425293Y156000D01*
X424707Y155608D01*
X424315Y155022D01*
X424178Y154331D01*
X424315Y153639D01*
X424707Y153053D01*
X425293Y152662D01*
X425984Y152524D01*
X426676Y152662D01*
X427261Y153053D01*
X427653Y153639D01*
X427791Y154331D01*
X427653Y155022D01*
X427261Y155608D01*
X426676Y156000D01*
X425984Y156137D01*
D02*
G37*
G36*
X417114Y152860D02*
Y148453D01*
X420800D01*
Y148740D01*
X420657Y149823D01*
X420239Y150833D01*
X419574Y151700D01*
X418707Y152365D01*
X417697Y152783D01*
X417114Y152860D01*
D02*
G37*
G36*
X416114D02*
X415531Y152783D01*
X414522Y152365D01*
X413655Y151700D01*
X412990Y150833D01*
X412571Y149823D01*
X412429Y148740D01*
Y148453D01*
X416114D01*
Y152860D01*
D02*
G37*
G36*
X406114D02*
X405531Y152783D01*
X404522Y152365D01*
X403655Y151700D01*
X402989Y150833D01*
X402571Y149823D01*
X402429Y148740D01*
Y148453D01*
X406114D01*
Y152860D01*
D02*
G37*
G36*
X390764Y152890D02*
X387114D01*
Y148453D01*
X390764D01*
Y152890D01*
D02*
G37*
G36*
X386114D02*
X382465D01*
Y148453D01*
X386114D01*
Y152890D01*
D02*
G37*
G36*
X227908Y197531D02*
X224061D01*
X224115Y197257D01*
X224554Y196601D01*
X224672Y196522D01*
Y185827D01*
X224771Y185325D01*
X225056Y184899D01*
X245135Y164820D01*
X245561Y164535D01*
X246063Y164435D01*
X254968D01*
X259258Y160146D01*
X261114D01*
Y162002D01*
X256440Y166676D01*
X256014Y166961D01*
X255512Y167061D01*
X246607D01*
X227297Y186371D01*
Y196522D01*
X227415Y196601D01*
X227853Y197257D01*
X227908Y197531D01*
D02*
G37*
G36*
X294783Y162338D02*
X294092Y162200D01*
X293506Y161809D01*
X293115Y161223D01*
X292977Y160531D01*
X293115Y159840D01*
X293506Y159254D01*
X294092Y158863D01*
X294783Y158725D01*
X295475Y158863D01*
X296061Y159254D01*
X296452Y159840D01*
X296590Y160531D01*
X296452Y161223D01*
X296061Y161809D01*
X295475Y162200D01*
X294783Y162338D01*
D02*
G37*
G36*
X277165Y167161D02*
X276474Y167023D01*
X275888Y166632D01*
X275497Y166046D01*
X275359Y165354D01*
X275497Y164663D01*
X275888Y164077D01*
X276474Y163686D01*
X277165Y163548D01*
X277857Y163686D01*
X277862Y163689D01*
X278312Y163389D01*
X278312Y163386D01*
X278449Y162695D01*
X278841Y162109D01*
X279427Y161717D01*
X280118Y161580D01*
X280809Y161717D01*
X281395Y162109D01*
X281787Y162695D01*
X281925Y163386D01*
X281787Y164077D01*
X281395Y164663D01*
X280809Y165055D01*
X280118Y165192D01*
X279427Y165055D01*
X279421Y165051D01*
X278971Y165352D01*
X278972Y165354D01*
X278834Y166046D01*
X278443Y166632D01*
X277857Y167023D01*
X277165Y167161D01*
D02*
G37*
G36*
X299365Y172728D02*
X295517D01*
X295572Y172454D01*
X296010Y171798D01*
X296128Y171719D01*
Y169638D01*
X287448Y160958D01*
X263123D01*
X263045Y161076D01*
X262388Y161515D01*
X262114Y161569D01*
Y159646D01*
Y157722D01*
X262388Y157776D01*
X263045Y158215D01*
X263123Y158333D01*
X287992D01*
X288494Y158433D01*
X288920Y158718D01*
X298369Y168166D01*
X298654Y168592D01*
X298754Y169095D01*
Y171719D01*
X298871Y171798D01*
X299310Y172454D01*
X299365Y172728D01*
D02*
G37*
G36*
X184252Y171688D02*
X182863Y171551D01*
X181527Y171146D01*
X180296Y170488D01*
X179217Y169602D01*
X178331Y168523D01*
X177673Y167292D01*
X177268Y165956D01*
X177131Y164567D01*
X177268Y163178D01*
X177673Y161842D01*
X178331Y160611D01*
X179217Y159532D01*
X180296Y158646D01*
X181527Y157988D01*
X182863Y157583D01*
X184252Y157446D01*
X185641Y157583D01*
X186977Y157988D01*
X188208Y158646D01*
X189287Y159532D01*
X190173Y160611D01*
X190831Y161842D01*
X191236Y163178D01*
X191373Y164567D01*
X191236Y165956D01*
X190831Y167292D01*
X190173Y168523D01*
X189287Y169602D01*
X188208Y170488D01*
X186977Y171146D01*
X185641Y171551D01*
X184252Y171688D01*
D02*
G37*
G36*
X358071Y156334D02*
X357380Y156196D01*
X356794Y155805D01*
X356402Y155219D01*
X356264Y154528D01*
X356402Y153836D01*
X356794Y153250D01*
X357380Y152859D01*
X358071Y152721D01*
X358762Y152859D01*
X359348Y153250D01*
X359740Y153836D01*
X359877Y154528D01*
X359740Y155219D01*
X359348Y155805D01*
X358762Y156196D01*
X358071Y156334D01*
D02*
G37*
G36*
X235827Y162239D02*
X235136Y162102D01*
X234549Y161710D01*
X234158Y161124D01*
X234020Y160433D01*
X234158Y159742D01*
X234549Y159156D01*
X235136Y158764D01*
X235827Y158627D01*
X236518Y158764D01*
X237104Y159156D01*
X237496Y159742D01*
X237633Y160433D01*
X237496Y161124D01*
X237104Y161710D01*
X236518Y162102D01*
X235827Y162239D01*
D02*
G37*
G36*
X261114Y159146D02*
X259690D01*
X259745Y158871D01*
X260184Y158215D01*
X260840Y157776D01*
X261114Y157722D01*
Y159146D01*
D02*
G37*
G36*
X506299Y220901D02*
X505608Y220763D01*
X505022Y220372D01*
X504630Y219786D01*
X504493Y219094D01*
X504630Y218403D01*
X505022Y217817D01*
X505608Y217426D01*
X506299Y217288D01*
X506990Y217426D01*
X507577Y217817D01*
X507968Y218403D01*
X508106Y219094D01*
X507968Y219786D01*
X507577Y220372D01*
X506990Y220763D01*
X506299Y220901D01*
D02*
G37*
G36*
X293110Y220704D02*
X292419Y220567D01*
X291833Y220175D01*
X291441Y219589D01*
X291304Y218898D01*
X291441Y218206D01*
X291833Y217620D01*
X292419Y217229D01*
X293110Y217091D01*
X293801Y217229D01*
X294388Y217620D01*
X294779Y218206D01*
X294917Y218898D01*
X294779Y219589D01*
X294388Y220175D01*
X293801Y220567D01*
X293110Y220704D01*
D02*
G37*
G36*
X332177Y222002D02*
X331903Y221948D01*
X331247Y221509D01*
X330808Y220853D01*
X330753Y220579D01*
X332177D01*
Y222002D01*
D02*
G37*
G36*
X261417Y223066D02*
X260726Y222929D01*
X260140Y222537D01*
X259749Y221951D01*
X259611Y221260D01*
X259749Y220569D01*
X260140Y219983D01*
X260726Y219591D01*
X261417Y219454D01*
X262109Y219591D01*
X262695Y219983D01*
X263086Y220569D01*
X263224Y221260D01*
X263086Y221951D01*
X262695Y222537D01*
X262109Y222929D01*
X261417Y223066D01*
D02*
G37*
G36*
X475000Y214011D02*
X474309Y213874D01*
X473723Y213482D01*
X473331Y212896D01*
X473194Y212205D01*
X473331Y211513D01*
X473723Y210927D01*
X474309Y210536D01*
X475000Y210398D01*
X475691Y210536D01*
X476277Y210927D01*
X476669Y211513D01*
X476806Y212205D01*
X476669Y212896D01*
X476277Y213482D01*
X475691Y213874D01*
X475000Y214011D01*
D02*
G37*
G36*
X261221D02*
X260529Y213874D01*
X259943Y213482D01*
X259552Y212896D01*
X259414Y212205D01*
X259552Y211513D01*
X259943Y210927D01*
X260529Y210536D01*
X261221Y210398D01*
X261912Y210536D01*
X262498Y210927D01*
X262889Y211513D01*
X263027Y212205D01*
X262889Y212896D01*
X262498Y213482D01*
X261912Y213874D01*
X261221Y214011D01*
D02*
G37*
G36*
X310039Y218342D02*
X309348Y218204D01*
X308762Y217813D01*
X308370Y217227D01*
X308233Y216535D01*
X308370Y215844D01*
X308762Y215258D01*
X309348Y214867D01*
X310039Y214729D01*
X310731Y214867D01*
X311317Y215258D01*
X311708Y215844D01*
X311846Y216535D01*
X311708Y217227D01*
X311317Y217813D01*
X310731Y218204D01*
X310039Y218342D01*
D02*
G37*
G36*
X285039Y216964D02*
X284348Y216826D01*
X283762Y216435D01*
X283370Y215849D01*
X283233Y215158D01*
X283370Y214466D01*
X283762Y213880D01*
X284348Y213489D01*
X285039Y213351D01*
X285731Y213489D01*
X286317Y213880D01*
X286708Y214466D01*
X286846Y215158D01*
X286708Y215849D01*
X286317Y216435D01*
X285731Y216826D01*
X285039Y216964D01*
D02*
G37*
G36*
X502756Y234877D02*
X502065Y234740D01*
X501479Y234348D01*
X501087Y233762D01*
X500949Y233071D01*
X501087Y232380D01*
X501479Y231794D01*
X502065Y231402D01*
X502756Y231264D01*
X503447Y231402D01*
X504033Y231794D01*
X504425Y232380D01*
X504562Y233071D01*
X504425Y233762D01*
X504033Y234348D01*
X503447Y234740D01*
X502756Y234877D01*
D02*
G37*
G36*
X235827Y231334D02*
X235136Y231196D01*
X234549Y230805D01*
X234158Y230219D01*
X234020Y229528D01*
X234158Y228836D01*
X234549Y228250D01*
X235136Y227859D01*
X235827Y227721D01*
X236518Y227859D01*
X237104Y228250D01*
X237496Y228836D01*
X237633Y229528D01*
X237496Y230219D01*
X237104Y230805D01*
X236518Y231196D01*
X235827Y231334D01*
D02*
G37*
G36*
X73228Y242520D02*
X63779D01*
Y234646D01*
X73228D01*
Y242520D01*
D02*
G37*
G36*
X54331D02*
X44882D01*
Y234646D01*
X54331D01*
Y242520D01*
D02*
G37*
G36*
X269882Y226019D02*
X269191Y225882D01*
X268605Y225490D01*
X268213Y224904D01*
X268075Y224213D01*
X268213Y223521D01*
X268217Y223516D01*
X267916Y223066D01*
X267913Y223066D01*
X267222Y222929D01*
X266636Y222537D01*
X266245Y221951D01*
X266107Y221260D01*
X266245Y220569D01*
X266636Y219983D01*
X267222Y219591D01*
X267913Y219454D01*
X268605Y219591D01*
X269191Y219983D01*
X269582Y220569D01*
X269720Y221260D01*
X269582Y221951D01*
X269578Y221957D01*
X269879Y222407D01*
X269882Y222406D01*
X270573Y222544D01*
X271159Y222935D01*
X271551Y223521D01*
X271688Y224213D01*
X271551Y224904D01*
X271159Y225490D01*
X270573Y225882D01*
X269882Y226019D01*
D02*
G37*
G36*
X333177Y222002D02*
Y220579D01*
X334601D01*
X334546Y220853D01*
X334108Y221509D01*
X333451Y221948D01*
X333177Y222002D01*
D02*
G37*
G36*
X270276Y230153D02*
X269584Y230015D01*
X268998Y229624D01*
X268607Y229038D01*
X268469Y228346D01*
X268607Y227655D01*
X268998Y227069D01*
X269584Y226678D01*
X270276Y226540D01*
X270967Y226678D01*
X271553Y227069D01*
X271944Y227655D01*
X272082Y228346D01*
X271944Y229038D01*
X271553Y229624D01*
X270967Y230015D01*
X270276Y230153D01*
D02*
G37*
G36*
X111929Y227536D02*
X110901Y227401D01*
X109944Y227004D01*
X109121Y226373D01*
X108490Y225550D01*
X108263Y225001D01*
X107722D01*
X107494Y225550D01*
X106863Y226373D01*
X106041Y227004D01*
X105083Y227401D01*
X104055Y227536D01*
X103027Y227401D01*
X102070Y227004D01*
X101247Y226373D01*
X100616Y225550D01*
X100389Y225001D01*
X99848D01*
X99620Y225550D01*
X98989Y226373D01*
X98167Y227004D01*
X97209Y227401D01*
X96181Y227536D01*
X95153Y227401D01*
X94196Y227004D01*
X93373Y226373D01*
X92742Y225550D01*
X92515Y225001D01*
X91974D01*
X91746Y225550D01*
X91115Y226373D01*
X90293Y227004D01*
X89335Y227401D01*
X88307Y227536D01*
X87279Y227401D01*
X86322Y227004D01*
X85499Y226373D01*
X84868Y225550D01*
X84641Y225001D01*
X84100D01*
X83872Y225550D01*
X83241Y226373D01*
X82419Y227004D01*
X81461Y227401D01*
X80433Y227536D01*
X79405Y227401D01*
X78448Y227004D01*
X77625Y226373D01*
X76994Y225550D01*
X76767Y225001D01*
X76226D01*
X75998Y225550D01*
X75367Y226373D01*
X74545Y227004D01*
X73587Y227401D01*
X72559Y227536D01*
X71531Y227401D01*
X70574Y227004D01*
X69751Y226373D01*
X69120Y225550D01*
X68893Y225001D01*
X68352D01*
X68124Y225550D01*
X67493Y226373D01*
X66671Y227004D01*
X65713Y227401D01*
X64685Y227536D01*
X63657Y227401D01*
X62700Y227004D01*
X61877Y226373D01*
X61246Y225550D01*
X61019Y225001D01*
X60477D01*
X60250Y225550D01*
X59619Y226373D01*
X58797Y227004D01*
X57839Y227401D01*
X56811Y227536D01*
X55783Y227401D01*
X54826Y227004D01*
X54003Y226373D01*
X53372Y225550D01*
X53145Y225001D01*
X52603D01*
X52376Y225550D01*
X51745Y226373D01*
X50923Y227004D01*
X49965Y227401D01*
X48937Y227536D01*
X47909Y227401D01*
X46951Y227004D01*
X46129Y226373D01*
X45498Y225550D01*
X45271Y225001D01*
X44729D01*
X44502Y225550D01*
X43871Y226373D01*
X43049Y227004D01*
X42091Y227401D01*
X41063Y227536D01*
X40035Y227401D01*
X39077Y227004D01*
X38255Y226373D01*
X37624Y225550D01*
X37227Y224593D01*
X37092Y223565D01*
Y221990D01*
X37227Y220962D01*
X37624Y220005D01*
X38255Y219182D01*
X39077Y218551D01*
X40035Y218155D01*
X41063Y218019D01*
X42091Y218155D01*
X43049Y218551D01*
X43871Y219182D01*
X44502Y220005D01*
X44729Y220554D01*
X45271D01*
X45498Y220005D01*
X46129Y219182D01*
X46951Y218551D01*
X47909Y218155D01*
X48937Y218019D01*
X49965Y218155D01*
X50923Y218551D01*
X51745Y219182D01*
X52376Y220005D01*
X52603Y220554D01*
X53145D01*
X53372Y220005D01*
X54003Y219182D01*
X54826Y218551D01*
X55783Y218155D01*
X56811Y218019D01*
X57839Y218155D01*
X58797Y218551D01*
X59619Y219182D01*
X60250Y220005D01*
X60477Y220554D01*
X61019D01*
X61246Y220005D01*
X61877Y219182D01*
X62700Y218551D01*
X63657Y218155D01*
X64685Y218019D01*
X65713Y218155D01*
X66671Y218551D01*
X67493Y219182D01*
X68124Y220005D01*
X68352Y220554D01*
X68893D01*
X69120Y220005D01*
X69751Y219182D01*
X70574Y218551D01*
X71531Y218155D01*
X72559Y218019D01*
X73587Y218155D01*
X74545Y218551D01*
X75367Y219182D01*
X75998Y220005D01*
X76226Y220554D01*
X76767D01*
X76994Y220005D01*
X77625Y219182D01*
X78448Y218551D01*
X79405Y218155D01*
X80433Y218019D01*
X81461Y218155D01*
X82419Y218551D01*
X83241Y219182D01*
X83872Y220005D01*
X84100Y220554D01*
X84641D01*
X84868Y220005D01*
X85499Y219182D01*
X86322Y218551D01*
X87279Y218155D01*
X88307Y218019D01*
X89335Y218155D01*
X90293Y218551D01*
X91115Y219182D01*
X91746Y220005D01*
X91974Y220554D01*
X92515D01*
X92742Y220005D01*
X93373Y219182D01*
X94196Y218551D01*
X95153Y218155D01*
X96181Y218019D01*
X97209Y218155D01*
X98167Y218551D01*
X98989Y219182D01*
X99620Y220005D01*
X99848Y220554D01*
X100389D01*
X100616Y220005D01*
X101247Y219182D01*
X102070Y218551D01*
X103027Y218155D01*
X104055Y218019D01*
X105083Y218155D01*
X106041Y218551D01*
X106863Y219182D01*
X107494Y220005D01*
X107722Y220554D01*
X108263D01*
X108490Y220005D01*
X109121Y219182D01*
X109944Y218551D01*
X110901Y218155D01*
X111929Y218019D01*
X112957Y218155D01*
X113915Y218551D01*
X114737Y219182D01*
X115368Y220005D01*
X115765Y220962D01*
X115900Y221990D01*
Y223565D01*
X115765Y224593D01*
X115368Y225550D01*
X114737Y226373D01*
X113915Y227004D01*
X112957Y227401D01*
X111929Y227536D01*
D02*
G37*
G36*
X484055Y194129D02*
X483364Y193992D01*
X482778Y193600D01*
X482386Y193014D01*
X482249Y192323D01*
X482386Y191632D01*
X482778Y191045D01*
X483364Y190654D01*
X484055Y190516D01*
X484746Y190654D01*
X485332Y191045D01*
X485724Y191632D01*
X485861Y192323D01*
X485724Y193014D01*
X485332Y193600D01*
X484746Y193992D01*
X484055Y194129D01*
D02*
G37*
G36*
X253346Y194129D02*
X252655Y193992D01*
X252069Y193600D01*
X251678Y193014D01*
X251540Y192323D01*
X251678Y191631D01*
X252069Y191045D01*
X252655Y190654D01*
X253346Y190516D01*
X254038Y190654D01*
X254624Y191045D01*
X255015Y191631D01*
X255153Y192323D01*
X255015Y193014D01*
X254624Y193600D01*
X254038Y193992D01*
X253346Y194129D01*
D02*
G37*
G36*
X492717Y198460D02*
X492025Y198322D01*
X491439Y197931D01*
X491048Y197345D01*
X490910Y196653D01*
X491048Y195962D01*
X491439Y195376D01*
X492025Y194985D01*
X492717Y194847D01*
X493408Y194985D01*
X493994Y195376D01*
X494385Y195962D01*
X494523Y196653D01*
X494385Y197345D01*
X493994Y197931D01*
X493408Y198322D01*
X492717Y198460D01*
D02*
G37*
G36*
X286811Y197279D02*
X286120Y197141D01*
X285534Y196750D01*
X285142Y196164D01*
X285005Y195472D01*
X285142Y194781D01*
X285534Y194195D01*
X286120Y193804D01*
X286811Y193666D01*
X287502Y193804D01*
X288088Y194195D01*
X288480Y194781D01*
X288617Y195472D01*
X288480Y196164D01*
X288088Y196750D01*
X287502Y197141D01*
X286811Y197279D01*
D02*
G37*
G36*
X301575Y191570D02*
X300884Y191433D01*
X300297Y191041D01*
X299906Y190455D01*
X299768Y189764D01*
X299906Y189073D01*
X300297Y188487D01*
X300884Y188095D01*
X301575Y187957D01*
X302266Y188095D01*
X302852Y188487D01*
X303244Y189073D01*
X303381Y189764D01*
X303244Y190455D01*
X302852Y191041D01*
X302266Y191433D01*
X301575Y191570D01*
D02*
G37*
G36*
X398031Y190389D02*
X397340Y190252D01*
X396754Y189860D01*
X396363Y189274D01*
X396225Y188583D01*
X396363Y187891D01*
X396754Y187305D01*
X397340Y186914D01*
X398031Y186776D01*
X398723Y186914D01*
X399309Y187305D01*
X399700Y187891D01*
X399838Y188583D01*
X399700Y189274D01*
X399309Y189860D01*
X398723Y190252D01*
X398031Y190389D01*
D02*
G37*
G36*
X502756Y193342D02*
X502065Y193204D01*
X501479Y192813D01*
X501087Y192227D01*
X500949Y191535D01*
X501087Y190844D01*
X501479Y190258D01*
X502065Y189867D01*
X502756Y189729D01*
X503447Y189867D01*
X504033Y190258D01*
X504425Y190844D01*
X504562Y191535D01*
X504425Y192227D01*
X504033Y192813D01*
X503447Y193204D01*
X502756Y193342D01*
D02*
G37*
G36*
X359842Y191570D02*
X359151Y191433D01*
X358565Y191041D01*
X358174Y190455D01*
X358036Y189764D01*
X358174Y189073D01*
X358565Y188487D01*
X359151Y188095D01*
X359842Y187957D01*
X360534Y188095D01*
X361120Y188487D01*
X361511Y189073D01*
X361649Y189764D01*
X361511Y190455D01*
X361120Y191041D01*
X360534Y191433D01*
X359842Y191570D01*
D02*
G37*
G36*
X348031Y205940D02*
X347340Y205803D01*
X346754Y205411D01*
X346363Y204825D01*
X346225Y204134D01*
X346363Y203443D01*
X346754Y202857D01*
X347340Y202465D01*
X348031Y202327D01*
X348723Y202465D01*
X349309Y202857D01*
X349700Y203443D01*
X349838Y204134D01*
X349700Y204825D01*
X349309Y205411D01*
X348723Y205803D01*
X348031Y205940D01*
D02*
G37*
G36*
X291142Y208499D02*
X290451Y208362D01*
X289864Y207970D01*
X289473Y207384D01*
X289335Y206693D01*
X289473Y206002D01*
X289864Y205416D01*
X290451Y205024D01*
X291142Y204887D01*
X291833Y205024D01*
X292290Y205329D01*
X292290Y205329D01*
X292419Y205416D01*
X292419Y205416D01*
X292452Y205393D01*
X292778Y205169D01*
X292797Y205156D01*
X292824Y205137D01*
X292829Y205134D01*
X292738Y204998D01*
D01*
X292622Y204825D01*
X292485Y204134D01*
X292622Y203443D01*
X293014Y202857D01*
X293600Y202465D01*
X294291Y202327D01*
X294983Y202465D01*
X295569Y202857D01*
X295960Y203443D01*
X296098Y204134D01*
X295960Y204825D01*
X295569Y205411D01*
X294983Y205803D01*
X294291Y205940D01*
X293600Y205803D01*
X293143Y205498D01*
X293143Y205498D01*
X293014Y205411D01*
X293014Y205411D01*
X292981Y205434D01*
X292655Y205658D01*
X292636Y205671D01*
X292609Y205690D01*
X292604Y205693D01*
X292695Y205829D01*
Y205829D01*
X292811Y206002D01*
X292948Y206693D01*
X292811Y207384D01*
X292419Y207970D01*
X291833Y208362D01*
X291142Y208499D01*
D02*
G37*
G36*
X288386Y212239D02*
X287695Y212102D01*
X287108Y211710D01*
X286717Y211124D01*
X286579Y210433D01*
X286717Y209742D01*
X287108Y209156D01*
X287695Y208764D01*
X288386Y208627D01*
X289077Y208764D01*
X289663Y209156D01*
X290055Y209742D01*
X290192Y210433D01*
X290055Y211124D01*
X289663Y211710D01*
X289077Y212102D01*
X288386Y212239D01*
D02*
G37*
G36*
X281890Y209484D02*
X281199Y209346D01*
X280612Y208955D01*
X280221Y208368D01*
X280083Y207677D01*
X280221Y206986D01*
X280612Y206400D01*
X281199Y206008D01*
X281890Y205871D01*
X282581Y206008D01*
X283167Y206400D01*
X283559Y206986D01*
X283696Y207677D01*
X283559Y208368D01*
X283167Y208955D01*
X282581Y209346D01*
X281890Y209484D01*
D02*
G37*
G36*
X512598Y201216D02*
X511907Y201078D01*
X511321Y200687D01*
X510930Y200101D01*
X510792Y199409D01*
X510930Y198718D01*
X511321Y198132D01*
X511907Y197741D01*
X512598Y197603D01*
X513290Y197741D01*
X513876Y198132D01*
X514267Y198718D01*
X514405Y199409D01*
X514267Y200101D01*
X513876Y200687D01*
X513290Y201078D01*
X512598Y201216D01*
D02*
G37*
G36*
X260827Y200035D02*
X260136Y199897D01*
X259549Y199506D01*
X259158Y198920D01*
X259020Y198228D01*
X259158Y197537D01*
X259549Y196951D01*
X260136Y196560D01*
X260827Y196422D01*
X261518Y196560D01*
X262104Y196951D01*
X262496Y197537D01*
X262633Y198228D01*
X262496Y198920D01*
X262104Y199506D01*
X261518Y199897D01*
X260827Y200035D01*
D02*
G37*
G36*
X153543Y208893D02*
X152852Y208755D01*
X152266Y208364D01*
X151874Y207778D01*
X151737Y207087D01*
X151874Y206395D01*
X152266Y205809D01*
X152556Y205616D01*
Y205014D01*
X152266Y204821D01*
X151874Y204235D01*
X151737Y203543D01*
X151874Y202852D01*
X152266Y202266D01*
X152852Y201874D01*
X153543Y201737D01*
X154235Y201874D01*
X154821Y202266D01*
X155212Y202852D01*
X155350Y203543D01*
X155212Y204235D01*
X154821Y204821D01*
X154531Y205014D01*
Y205616D01*
X154821Y205809D01*
X155212Y206395D01*
X155350Y207087D01*
X155212Y207778D01*
X154821Y208364D01*
X154235Y208755D01*
X153543Y208893D01*
D02*
G37*
G36*
X237689Y257435D02*
X237415Y257381D01*
X236758Y256942D01*
X236320Y256286D01*
X236173Y255549D01*
X225056Y244432D01*
X224771Y244006D01*
X224672Y243504D01*
Y199541D01*
X224554Y199462D01*
X224115Y198806D01*
X224061Y198531D01*
X227908D01*
X227853Y198806D01*
X227415Y199462D01*
X227297Y199541D01*
Y242960D01*
X237689Y253352D01*
Y255512D01*
Y257435D01*
D02*
G37*
%LPD*%
D38*
X261614Y159646D02*
X287992D01*
X332677Y207480D02*
Y220079D01*
X329921Y204724D02*
X332677Y207480D01*
X301181Y204724D02*
X329921D01*
X297441Y169095D02*
Y173228D01*
Y200984D02*
X301181Y204724D01*
X297441Y173228D02*
Y200984D01*
X245669Y255709D02*
X266732D01*
X238189D02*
X245669D01*
X253780Y361260D02*
Y381102D01*
X245669Y353150D02*
X253780Y361260D01*
X245669Y255709D02*
Y353150D01*
X225984Y243504D02*
X238189Y255709D01*
X287992Y159646D02*
X297441Y169095D01*
X255512Y165748D02*
X261614Y159646D01*
X246063Y165748D02*
X255512D01*
X225984Y185827D02*
X246063Y165748D01*
X225984Y185827D02*
Y198031D01*
Y243504D01*
X213779Y391535D02*
X359646D01*
X253780Y381102D02*
Y391378D01*
X64173Y8268D02*
X163976D01*
Y22047D01*
X359646Y391535D02*
X363779Y387402D01*
Y381102D02*
Y387402D01*
X163976Y8268D02*
X270276D01*
X217126Y8465D02*
Y22047D01*
X270276Y8268D02*
X323425D01*
X270276D02*
Y22047D01*
X323425Y8268D02*
X376575D01*
X323425D02*
Y22047D01*
X376575Y8268D02*
X429921D01*
X376575D02*
Y22047D01*
X429921Y8268D02*
X477756D01*
X429724Y8465D02*
X429921Y8268D01*
X429724Y8465D02*
Y22047D01*
X483071Y13583D02*
Y22047D01*
X477756Y8268D02*
X483071Y13583D01*
X111024Y8268D02*
Y22047D01*
X61142Y11299D02*
X64173Y8268D01*
X61142Y11299D02*
Y22047D01*
D39*
X213779Y381102D02*
D03*
X386614Y147953D02*
D03*
Y137008D02*
D03*
X288583Y127559D02*
D03*
X462795Y138779D02*
D03*
X111024Y22047D02*
D03*
X163976D02*
D03*
X270276D02*
D03*
X217126D02*
D03*
X376575D02*
D03*
X323425D02*
D03*
X483071D02*
D03*
X429724D02*
D03*
X41142Y22047D02*
D03*
X41063Y136163D02*
D03*
D40*
X223780Y381102D02*
D03*
X233780D02*
D03*
X243779D02*
D03*
X253780D02*
D03*
X263779D02*
D03*
X273780D02*
D03*
X283780D02*
D03*
X293779D02*
D03*
X303780D02*
D03*
X313779D02*
D03*
X323780D02*
D03*
X333780D02*
D03*
X343779D02*
D03*
X353780D02*
D03*
X363779D02*
D03*
X416614Y147953D02*
D03*
X406614D02*
D03*
X396614D02*
D03*
X416614Y137008D02*
D03*
X406614D02*
D03*
X396614D02*
D03*
X298583Y127559D02*
D03*
X308583D02*
D03*
X452795Y138779D02*
D03*
X134646Y22047D02*
D03*
X122835D02*
D03*
X187598D02*
D03*
X175787D02*
D03*
X293898D02*
D03*
X282087D02*
D03*
X240748D02*
D03*
X228937D02*
D03*
X400197D02*
D03*
X388386D02*
D03*
X347047D02*
D03*
X335236D02*
D03*
X506693D02*
D03*
X494882D02*
D03*
X453346D02*
D03*
X441535D02*
D03*
X51142Y22047D02*
D03*
X61142D02*
D03*
X71142D02*
D03*
X81142D02*
D03*
X48937Y136163D02*
D03*
X56811D02*
D03*
X64685D02*
D03*
X72559D02*
D03*
X80433D02*
D03*
X88307D02*
D03*
X96181D02*
D03*
X104055D02*
D03*
X111929D02*
D03*
X41063Y222778D02*
D03*
X48937D02*
D03*
X56811D02*
D03*
X64685D02*
D03*
X72559D02*
D03*
X80433D02*
D03*
X88307D02*
D03*
X96181D02*
D03*
X104055D02*
D03*
X111929D02*
D03*
D41*
X25591Y63189D02*
D03*
X535039Y133937D02*
D03*
Y83937D02*
D03*
X49606Y238583D02*
D03*
X68504D02*
D03*
D42*
X25591Y53189D02*
D03*
Y43189D02*
D03*
X535039Y103937D02*
D03*
Y113937D02*
D03*
Y123937D02*
D03*
Y53937D02*
D03*
Y63937D02*
D03*
Y73937D02*
D03*
X49606Y248583D02*
D03*
X68504D02*
D03*
D43*
X67323Y262598D02*
D03*
D44*
X55512Y281102D02*
D03*
X79134D02*
D03*
D45*
X343701Y322835D02*
D03*
X291732Y308661D02*
D03*
X277165Y165354D02*
D03*
X68504Y318110D02*
D03*
X33465Y330315D02*
D03*
X36614Y370866D02*
D03*
X85039Y330315D02*
D03*
X146457Y330413D02*
D03*
X93307Y299213D02*
D03*
X114961Y297224D02*
D03*
X223622Y287008D02*
D03*
X288583Y114567D02*
D03*
X306693Y103937D02*
D03*
X271260Y135039D02*
D03*
X373228Y138189D02*
D03*
X340158D02*
D03*
X425984Y154331D02*
D03*
X436614Y137008D02*
D03*
Y177165D02*
D03*
X377953Y172835D02*
D03*
X387795Y176772D02*
D03*
X390945Y186614D02*
D03*
X398031Y188583D02*
D03*
X359842Y189764D02*
D03*
X308661Y173228D02*
D03*
X305906Y176772D02*
D03*
X307874Y184252D02*
D03*
X304331Y186614D02*
D03*
X332677Y220079D02*
D03*
X238189Y255512D02*
D03*
X283071Y179331D02*
D03*
X301575Y189764D02*
D03*
X297441Y173228D02*
D03*
X294094Y176378D02*
D03*
X280118Y163386D02*
D03*
X265551Y164764D02*
D03*
X51575Y87992D02*
D03*
X358071Y154528D02*
D03*
X314764Y320276D02*
D03*
X315354Y313976D02*
D03*
X348031Y204134D02*
D03*
X294291D02*
D03*
X225984Y198031D02*
D03*
X266732Y255709D02*
D03*
X235827Y229528D02*
D03*
X286024Y163976D02*
D03*
X294783Y160531D02*
D03*
X86811Y51968D02*
D03*
X197638Y137795D02*
D03*
X235827Y160433D02*
D03*
X60630Y166339D02*
D03*
X153543Y203543D02*
D03*
X261221Y212205D02*
D03*
X53347Y52953D02*
D03*
X71063Y57480D02*
D03*
X285039Y215158D02*
D03*
X256299Y274606D02*
D03*
X311811D02*
D03*
X248031Y176378D02*
D03*
X187402Y103937D02*
D03*
X240354D02*
D03*
X293504D02*
D03*
X346850D02*
D03*
X399606D02*
D03*
X452165D02*
D03*
X134449D02*
D03*
X512598Y199409D02*
D03*
X510433Y294291D02*
D03*
X512598Y139567D02*
D03*
X504528Y103937D02*
D03*
X484055Y192323D02*
D03*
X502756Y233071D02*
D03*
X260827Y198228D02*
D03*
X253346Y192323D02*
D03*
X338386Y259449D02*
D03*
X336417Y264370D02*
D03*
X270276Y228346D02*
D03*
X269882Y224213D02*
D03*
X204921Y131102D02*
D03*
X209055D02*
D03*
X357283Y126378D02*
D03*
X415059Y125689D02*
D03*
X465551Y126575D02*
D03*
X118228Y67047D02*
D03*
X170984D02*
D03*
X223937D02*
D03*
X277087D02*
D03*
X330433D02*
D03*
X383189D02*
D03*
X436142D02*
D03*
X489685D02*
D03*
X330433Y126496D02*
D03*
X252953Y127362D02*
D03*
X223937Y125315D02*
D03*
X264961Y120866D02*
D03*
X261614Y159646D02*
D03*
X502756Y191535D02*
D03*
X229134Y170079D02*
D03*
X475000Y212205D02*
D03*
X281890Y207677D02*
D03*
X288386Y210433D02*
D03*
X153543Y207087D02*
D03*
X293110Y218898D02*
D03*
X267913Y221260D02*
D03*
X261417D02*
D03*
X310039Y216535D02*
D03*
X291142Y206693D02*
D03*
X142126Y144095D02*
D03*
X286811Y195472D02*
D03*
X492717Y196653D02*
D03*
X251378Y181693D02*
D03*
X506299Y219094D02*
D03*
X313779Y292913D02*
D03*
X294094Y291732D02*
D03*
X312598Y281102D02*
D03*
X327559Y283465D02*
D03*
X119685Y377165D02*
D03*
X122835D02*
D03*
X119685Y374016D02*
D03*
X125984Y377165D02*
D03*
X129134D02*
D03*
X132284D02*
D03*
X119685Y370866D02*
D03*
X122835D02*
D03*
X125984Y374016D02*
D03*
X122835D02*
D03*
X129134D02*
D03*
Y370866D02*
D03*
X132284D02*
D03*
X125984D02*
D03*
X132284Y374016D02*
D03*
X119685Y367717D02*
D03*
X132284D02*
D03*
X122835D02*
D03*
X125984D02*
D03*
X129134D02*
D03*
X119685Y364567D02*
D03*
X122835D02*
D03*
X125984D02*
D03*
X129134D02*
D03*
X132284D02*
D03*
X59843Y377165D02*
D03*
X62992D02*
D03*
X59843Y374016D02*
D03*
X66142Y377165D02*
D03*
X69291D02*
D03*
X72441D02*
D03*
X59843Y370866D02*
D03*
X62992D02*
D03*
X66142Y374016D02*
D03*
X62992D02*
D03*
X69291D02*
D03*
Y370866D02*
D03*
X72441D02*
D03*
X66142D02*
D03*
X72441Y374016D02*
D03*
X59843Y367717D02*
D03*
X72441D02*
D03*
X62992D02*
D03*
X66142D02*
D03*
X69291D02*
D03*
X59843Y364567D02*
D03*
X62992D02*
D03*
X66142D02*
D03*
X69291D02*
D03*
X72441D02*
D03*
X56693D02*
D03*
Y367717D02*
D03*
Y370866D02*
D03*
Y374016D02*
D03*
Y377165D02*
D03*
X75590Y364567D02*
D03*
Y367717D02*
D03*
Y370866D02*
D03*
Y374016D02*
D03*
Y377165D02*
D03*
X116535Y364567D02*
D03*
Y367717D02*
D03*
Y370866D02*
D03*
Y374016D02*
D03*
Y377165D02*
D03*
X135433Y364567D02*
D03*
Y367717D02*
D03*
Y370866D02*
D03*
Y374016D02*
D03*
Y377165D02*
D03*
D46*
X17717Y375984D02*
D03*
X184252Y164567D02*
D03*
X550394D02*
D03*
X536614Y375984D02*
D03*
Y17717D02*
D03*
X17717D02*
D03*
M02*
