G04*
G04 #@! TF.GenerationSoftware,Altium Limited,CircuitStudio,1.5.2 (30)*
G04*
G04 Layer_Physical_Order=4*
G04 Layer_Color=16711680*
%FSLAX25Y25*%
%MOIN*%
G70*
G01*
G75*
%ADD38C,0.01000*%
%ADD39R,0.06299X0.07874*%
%ADD40O,0.06299X0.07874*%
%ADD41R,0.07874X0.06299*%
%ADD42O,0.07874X0.06299*%
%ADD43O,0.15748X0.07874*%
%ADD44O,0.07874X0.15748*%
%ADD45C,0.01969*%
%ADD46C,0.12598*%
G36*
X187402Y313102D02*
X96086D01*
X96067Y313124D01*
Y393701D01*
X187402D01*
Y313102D01*
D02*
G37*
G36*
X95276Y313124D02*
X45276D01*
X44773Y313024D01*
X44347Y312739D01*
X41451Y309842D01*
X20604D01*
Y364417D01*
X25741Y369553D01*
X35105D01*
X35184Y369436D01*
X35840Y368997D01*
X36114Y368942D01*
Y370866D01*
Y372790D01*
X35840Y372735D01*
X35184Y372297D01*
X35105Y372179D01*
X25197D01*
X24694Y372079D01*
X24269Y371794D01*
X23285Y370811D01*
X22914Y371147D01*
X23637Y372028D01*
X24295Y373259D01*
X24701Y374595D01*
X24837Y375984D01*
X24701Y377374D01*
X24295Y378709D01*
X23637Y379940D01*
X22752Y381019D01*
X21673Y381905D01*
X20442Y382563D01*
X19106Y382968D01*
X17717Y383105D01*
X16327Y382968D01*
X14991Y382563D01*
X13760Y381905D01*
X12681Y381019D01*
X11796Y379940D01*
X11138Y378709D01*
X10733Y377374D01*
X10596Y375984D01*
X10733Y374595D01*
X11138Y373259D01*
X11796Y372028D01*
X12681Y370949D01*
X13760Y370063D01*
X14991Y369405D01*
X16327Y369000D01*
X17717Y368863D01*
X19106Y369000D01*
X20442Y369405D01*
X21673Y370063D01*
X22554Y370787D01*
X22890Y370416D01*
X18363Y365889D01*
X18079Y365463D01*
X17979Y364961D01*
Y309842D01*
X0D01*
Y389764D01*
X0D01*
X-30Y389797D01*
X101Y390792D01*
X498Y391749D01*
X1129Y392572D01*
X1952Y393203D01*
X2909Y393600D01*
X3449Y393671D01*
X3937Y393701D01*
Y393701D01*
X95276D01*
Y313124D01*
D02*
G37*
G36*
X551421Y393599D02*
X552379Y393203D01*
X553202Y392572D01*
X553833Y391749D01*
X554229Y390792D01*
X554360Y389797D01*
X554331Y389764D01*
X554331D01*
X554349Y170975D01*
X553920Y170718D01*
X553119Y171146D01*
X551783Y171551D01*
X550394Y171688D01*
X549005Y171551D01*
X547669Y171146D01*
X546438Y170488D01*
X545359Y169602D01*
X544473Y168523D01*
X543815Y167292D01*
X543410Y165956D01*
X543273Y164567D01*
X543410Y163178D01*
X543815Y161842D01*
X544473Y160611D01*
X545359Y159532D01*
X546438Y158646D01*
X547669Y157988D01*
X549005Y157583D01*
X550394Y157446D01*
X551783Y157583D01*
X553119Y157988D01*
X553921Y158417D01*
X554350Y158160D01*
X554362Y3937D01*
X554365Y3920D01*
X554230Y2897D01*
X553835Y1943D01*
X553206Y1124D01*
X552388Y496D01*
X551434Y101D01*
X550905Y31D01*
X550428Y-0D01*
X550428D01*
D01*
X549929Y-0D01*
X3937Y-34D01*
X2909Y101D01*
X1952Y498D01*
X1129Y1129D01*
X498Y1952D01*
X101Y2909D01*
X-30Y3903D01*
X-0Y3937D01*
X-0D01*
Y69937D01*
X67Y69950D01*
X458Y70211D01*
X719Y70602D01*
X810Y71063D01*
Y147228D01*
X10055D01*
Y193698D01*
X10555Y193850D01*
X10566Y193833D01*
X10956Y193572D01*
X11417Y193481D01*
X11787Y193554D01*
X11878Y193572D01*
X12269Y193833D01*
X12530Y194224D01*
X12622Y194685D01*
Y194685D01*
X12530Y195146D01*
X12269Y195537D01*
X11878Y195798D01*
X11417Y195889D01*
X10956Y195798D01*
X10800Y195693D01*
X10566Y195537D01*
X10566Y195537D01*
X10555Y195521D01*
X10055Y195672D01*
Y214783D01*
X810D01*
Y300590D01*
X719Y301051D01*
X458Y301442D01*
X67Y301703D01*
X-0Y301716D01*
Y309040D01*
X0Y309040D01*
X17979D01*
Y213976D01*
X18079Y213474D01*
X18363Y213048D01*
X39750Y191661D01*
Y140888D01*
X37126D01*
Y131439D01*
X45000D01*
Y133286D01*
X45498Y133390D01*
X46129Y132568D01*
X46951Y131937D01*
X47909Y131540D01*
X48937Y131405D01*
X49965Y131540D01*
X50923Y131937D01*
X51745Y132568D01*
X52376Y133390D01*
X52603Y133940D01*
X53145D01*
X53372Y133390D01*
X54003Y132568D01*
X54826Y131937D01*
X55783Y131540D01*
X56811Y131405D01*
X57839Y131540D01*
X58797Y131937D01*
X59619Y132568D01*
X60250Y133390D01*
X60477Y133940D01*
X61019D01*
X61246Y133390D01*
X61877Y132568D01*
X62700Y131937D01*
X63657Y131540D01*
X64685Y131405D01*
X65713Y131540D01*
X66671Y131937D01*
X67493Y132568D01*
X68124Y133390D01*
X68352Y133940D01*
X68893D01*
X69120Y133390D01*
X69751Y132568D01*
X70574Y131937D01*
X71531Y131540D01*
X72559Y131405D01*
X73587Y131540D01*
X74545Y131937D01*
X75367Y132568D01*
X75998Y133390D01*
X76226Y133940D01*
X76767D01*
X76994Y133390D01*
X77625Y132568D01*
X78448Y131937D01*
X79405Y131540D01*
X80433Y131405D01*
X81461Y131540D01*
X82419Y131937D01*
X83241Y132568D01*
X83872Y133390D01*
X84100Y133940D01*
X84641D01*
X84868Y133390D01*
X85499Y132568D01*
X86322Y131937D01*
X87279Y131540D01*
X88307Y131405D01*
X89335Y131540D01*
X90293Y131937D01*
X91115Y132568D01*
X91746Y133390D01*
X91974Y133940D01*
X92515D01*
X92742Y133390D01*
X93373Y132568D01*
X94196Y131937D01*
X95153Y131540D01*
X96181Y131405D01*
X97209Y131540D01*
X98167Y131937D01*
X98989Y132568D01*
X99620Y133390D01*
X99848Y133940D01*
X100389D01*
X100616Y133390D01*
X101247Y132568D01*
X102070Y131937D01*
X103027Y131540D01*
X104055Y131405D01*
X105083Y131540D01*
X106041Y131937D01*
X106863Y132568D01*
X107494Y133390D01*
X107606Y133662D01*
X108148D01*
X108305Y133283D01*
X108970Y132416D01*
X109836Y131751D01*
X110846Y131333D01*
X111429Y131256D01*
Y136163D01*
Y141070D01*
X110846Y140994D01*
X109836Y140576D01*
X108970Y139910D01*
X108305Y139043D01*
X108148Y138665D01*
X107606D01*
X107494Y138936D01*
X106863Y139759D01*
X106041Y140390D01*
X105083Y140786D01*
X104055Y140922D01*
X103027Y140786D01*
X102070Y140390D01*
X101247Y139759D01*
X100616Y138936D01*
X100389Y138387D01*
X99848D01*
X99620Y138936D01*
X98989Y139759D01*
X98167Y140390D01*
X97209Y140786D01*
X96181Y140922D01*
X95153Y140786D01*
X94196Y140390D01*
X93373Y139759D01*
X92742Y138936D01*
X92515Y138387D01*
X91974D01*
X91746Y138936D01*
X91115Y139759D01*
X90293Y140390D01*
X89335Y140786D01*
X88307Y140922D01*
X87279Y140786D01*
X86322Y140390D01*
X85499Y139759D01*
X84868Y138936D01*
X84641Y138387D01*
X84100D01*
X83872Y138936D01*
X83241Y139759D01*
X82419Y140390D01*
X81461Y140786D01*
X80433Y140922D01*
X79405Y140786D01*
X78448Y140390D01*
X77625Y139759D01*
X76994Y138936D01*
X76767Y138387D01*
X76226D01*
X75998Y138936D01*
X75367Y139759D01*
X74545Y140390D01*
X73587Y140786D01*
X72559Y140922D01*
X71531Y140786D01*
X70574Y140390D01*
X69751Y139759D01*
X69120Y138936D01*
X68893Y138387D01*
X68352D01*
X68124Y138936D01*
X67493Y139759D01*
X66671Y140390D01*
X65713Y140786D01*
X64685Y140922D01*
X63657Y140786D01*
X62700Y140390D01*
X61877Y139759D01*
X61246Y138936D01*
X61019Y138387D01*
X60477D01*
X60250Y138936D01*
X59619Y139759D01*
X58797Y140390D01*
X57839Y140786D01*
X56811Y140922D01*
X55783Y140786D01*
X54826Y140390D01*
X54003Y139759D01*
X53372Y138936D01*
X53145Y138387D01*
X52603D01*
X52376Y138936D01*
X51745Y139759D01*
X50923Y140390D01*
X50250Y140668D01*
Y160992D01*
X54284Y165026D01*
X59405D01*
X59939Y164670D01*
X60630Y164532D01*
X61321Y164670D01*
X61907Y165061D01*
X62299Y165647D01*
X62436Y166339D01*
X62299Y167030D01*
X61907Y167616D01*
X61321Y168007D01*
X60630Y168145D01*
X59939Y168007D01*
X59405Y167651D01*
X53740D01*
X53238Y167551D01*
X52812Y167267D01*
X48009Y162464D01*
X47724Y162038D01*
X47624Y161535D01*
Y140668D01*
X46951Y140390D01*
X46129Y139759D01*
X45498Y138936D01*
X45000Y139040D01*
Y140888D01*
X42376D01*
Y192205D01*
X42276Y192707D01*
X41991Y193133D01*
X20604Y214520D01*
Y309040D01*
X39995D01*
X40186Y308578D01*
X30962Y299353D01*
X30677Y298927D01*
X30577Y298425D01*
Y243701D01*
X30677Y243198D01*
X30962Y242773D01*
X36080Y237654D01*
X36505Y237370D01*
X37008Y237270D01*
X44882D01*
Y234646D01*
X54331D01*
Y242520D01*
X44882D01*
Y239895D01*
X37552D01*
X33202Y244245D01*
Y297882D01*
X45163Y309842D01*
X187402D01*
Y310498D01*
X206693D01*
X207195Y310598D01*
X207621Y310883D01*
X216489Y319750D01*
X283118D01*
X283521Y319347D01*
X283946Y319063D01*
X284449Y318963D01*
X313539D01*
X314072Y318607D01*
X314764Y318469D01*
X315455Y318607D01*
X316041Y318998D01*
X316433Y319584D01*
X316570Y320276D01*
X316433Y320967D01*
X316041Y321553D01*
X315455Y321944D01*
X314764Y322082D01*
X314072Y321944D01*
X313539Y321588D01*
X284993D01*
X284590Y321991D01*
X284164Y322276D01*
X283661Y322376D01*
X215945D01*
X215443Y322276D01*
X215017Y321991D01*
X206149Y313124D01*
X188204D01*
Y393701D01*
X550394D01*
X550394Y393701D01*
Y393701D01*
X550427Y393730D01*
X551421Y393599D01*
D02*
G37*
%LPC*%
G36*
X209055Y132909D02*
X208364Y132771D01*
X207778Y132380D01*
X207386Y131794D01*
X207249Y131102D01*
X207386Y130411D01*
X207743Y129878D01*
Y79678D01*
X196425Y68360D01*
X172209D01*
X171676Y68716D01*
X170984Y68854D01*
X170293Y68716D01*
X169707Y68325D01*
X169315Y67738D01*
X169178Y67047D01*
X169315Y66356D01*
X169707Y65770D01*
X170293Y65378D01*
X170984Y65241D01*
X171676Y65378D01*
X172209Y65735D01*
X196968D01*
X197471Y65834D01*
X197897Y66119D01*
X209983Y78206D01*
X210268Y78632D01*
X210368Y79134D01*
Y129878D01*
X210724Y130411D01*
X210861Y131102D01*
X210724Y131794D01*
X210332Y132380D01*
X209746Y132771D01*
X209055Y132909D01*
D02*
G37*
G36*
X277165Y167161D02*
X276474Y167023D01*
X275888Y166632D01*
X275497Y166046D01*
X275359Y165354D01*
X275497Y164663D01*
X275853Y164130D01*
Y155268D01*
X270332Y149747D01*
X270047Y149321D01*
X269947Y148819D01*
Y136264D01*
X269591Y135731D01*
X269454Y135039D01*
X269591Y134348D01*
X269983Y133762D01*
X270569Y133370D01*
X271260Y133233D01*
X271951Y133370D01*
X272537Y133762D01*
X272929Y134348D01*
X273066Y135039D01*
X272929Y135731D01*
X272572Y136264D01*
Y148275D01*
X278094Y153796D01*
X278378Y154222D01*
X278478Y154724D01*
Y159318D01*
X278978Y159428D01*
X279190Y159111D01*
X281749Y156552D01*
X282175Y156268D01*
X282317Y156239D01*
X282362Y155832D01*
X282347Y155724D01*
X281946Y155456D01*
X275844Y149353D01*
X275559Y148927D01*
X275459Y148425D01*
Y119245D01*
X270716Y114502D01*
X260780D01*
X259580Y115701D01*
Y132874D01*
X259480Y133376D01*
X259196Y133802D01*
X252700Y140298D01*
X252274Y140583D01*
X251772Y140683D01*
X206299D01*
X205797Y140583D01*
X205371Y140298D01*
X195323Y130250D01*
X158268D01*
X157765Y130150D01*
X157340Y129865D01*
X138236Y110761D01*
X99410D01*
X98907Y110661D01*
X98481Y110377D01*
X94151Y106046D01*
X93866Y105620D01*
X93766Y105118D01*
Y44441D01*
X89220Y39895D01*
X49756D01*
X45801Y43851D01*
Y66189D01*
X52503Y72891D01*
X52788Y73317D01*
X52887Y73819D01*
Y86768D01*
X53244Y87301D01*
X53381Y87992D01*
X53244Y88683D01*
X52852Y89269D01*
X52266Y89661D01*
X51575Y89798D01*
X50884Y89661D01*
X50297Y89269D01*
X49906Y88683D01*
X49768Y87992D01*
X49906Y87301D01*
X50262Y86768D01*
Y74363D01*
X43560Y67660D01*
X43275Y67235D01*
X43176Y66732D01*
Y43307D01*
X43275Y42805D01*
X43560Y42379D01*
X48284Y37655D01*
X48710Y37370D01*
X49213Y37270D01*
X89764D01*
X90266Y37370D01*
X90692Y37655D01*
X96007Y42970D01*
X96291Y43395D01*
X96391Y43898D01*
Y104574D01*
X99953Y108136D01*
X138779D01*
X139282Y108236D01*
X139708Y108521D01*
X158811Y127624D01*
X195866D01*
X196369Y127724D01*
X196794Y128009D01*
X206843Y138057D01*
X251228D01*
X256955Y132330D01*
Y115157D01*
X257055Y114655D01*
X257340Y114229D01*
X259308Y112261D01*
X259734Y111976D01*
X260236Y111876D01*
X271260D01*
X271762Y111976D01*
X272188Y112261D01*
X277700Y117773D01*
X277870Y118028D01*
X277984Y118199D01*
X278084Y118701D01*
Y147881D01*
X283418Y153215D01*
X356846D01*
X357380Y152859D01*
X358071Y152721D01*
X358762Y152859D01*
X359348Y153250D01*
X359740Y153836D01*
X359877Y154528D01*
X359740Y155219D01*
X359440Y155668D01*
X359637Y156168D01*
X373472D01*
X376640Y153000D01*
Y131890D01*
X376740Y131387D01*
X377025Y130962D01*
X380568Y127418D01*
X380994Y127134D01*
X381496Y127034D01*
X394488D01*
X394990Y127134D01*
X395416Y127418D01*
X397542Y129544D01*
X397827Y129970D01*
X397927Y130472D01*
Y132503D01*
X398600Y132782D01*
X399422Y133413D01*
X400053Y134235D01*
X400450Y135193D01*
X400585Y136221D01*
Y137795D01*
X400450Y138823D01*
X400053Y139781D01*
X399422Y140603D01*
X398600Y141234D01*
X397642Y141631D01*
X396614Y141766D01*
X395586Y141631D01*
X394629Y141234D01*
X393806Y140603D01*
X393175Y139781D01*
X392778Y138823D01*
X392643Y137795D01*
Y136221D01*
X392778Y135193D01*
X393175Y134235D01*
X393806Y133413D01*
X394629Y132782D01*
X395302Y132503D01*
Y131016D01*
X393945Y129659D01*
X382040D01*
X379265Y132433D01*
Y153543D01*
X379166Y154046D01*
X378881Y154472D01*
X374944Y158408D01*
X374627Y158621D01*
X374737Y159121D01*
X499850D01*
X507743Y151228D01*
Y131693D01*
X507842Y131191D01*
X508127Y130765D01*
X511483Y127409D01*
Y66535D01*
X511583Y66033D01*
X511867Y65607D01*
X514466Y63009D01*
X514891Y62724D01*
X515394Y62624D01*
X530534D01*
X530813Y61952D01*
X531444Y61129D01*
X532267Y60498D01*
X533224Y60101D01*
X534252Y59966D01*
X535827D01*
X536855Y60101D01*
X537812Y60498D01*
X538635Y61129D01*
X539266Y61952D01*
X539662Y62909D01*
X539798Y63937D01*
X539662Y64965D01*
X539266Y65922D01*
X538635Y66745D01*
X537812Y67376D01*
X536855Y67773D01*
X535827Y67908D01*
X534252D01*
X533224Y67773D01*
X532267Y67376D01*
X531444Y66745D01*
X530813Y65922D01*
X530534Y65250D01*
X515937D01*
X514108Y67079D01*
Y127953D01*
X514008Y128455D01*
X513723Y128881D01*
X510368Y132237D01*
Y139137D01*
X510868Y139187D01*
X510930Y138876D01*
X511321Y138290D01*
X511907Y137898D01*
X512598Y137761D01*
X513290Y137898D01*
X513876Y138290D01*
X514267Y138876D01*
X514405Y139567D01*
X514267Y140258D01*
X513876Y140844D01*
X513290Y141236D01*
X512598Y141373D01*
X511907Y141236D01*
X511321Y140844D01*
X510930Y140258D01*
X510868Y139947D01*
X510368Y139997D01*
Y151772D01*
X510304Y152094D01*
X510765Y152340D01*
X515813Y147291D01*
Y76575D01*
X515913Y76073D01*
X516198Y75647D01*
X518836Y73009D01*
X519262Y72724D01*
X519764Y72624D01*
X530534D01*
X530813Y71952D01*
X531444Y71129D01*
X532267Y70498D01*
X533224Y70101D01*
X534252Y69966D01*
X535827D01*
X536855Y70101D01*
X537812Y70498D01*
X538635Y71129D01*
X539266Y71952D01*
X539662Y72909D01*
X539798Y73937D01*
X539662Y74965D01*
X539266Y75923D01*
X538635Y76745D01*
X537812Y77376D01*
X536855Y77773D01*
X535827Y77908D01*
X534252D01*
X533224Y77773D01*
X532267Y77376D01*
X531444Y76745D01*
X530813Y75923D01*
X530534Y75250D01*
X520307D01*
X518439Y77118D01*
Y147835D01*
X518339Y148337D01*
X518054Y148763D01*
X501912Y164904D01*
X501487Y165189D01*
X500984Y165289D01*
X287248D01*
X286715Y165645D01*
X286024Y165783D01*
X285332Y165645D01*
X284746Y165254D01*
X284355Y164668D01*
X284217Y163976D01*
X284355Y163285D01*
X284746Y162699D01*
X285332Y162308D01*
X286024Y162170D01*
X286715Y162308D01*
X287248Y162664D01*
X293674D01*
X293747Y162571D01*
X293639Y161898D01*
X293506Y161809D01*
X293115Y161223D01*
X292977Y160531D01*
X293115Y159840D01*
X293480Y159293D01*
X293436Y159099D01*
X293297Y158793D01*
X283221D01*
X281431Y160583D01*
Y162161D01*
X281787Y162695D01*
X281925Y163386D01*
X281787Y164077D01*
X281395Y164663D01*
X280809Y165055D01*
X280118Y165192D01*
X279427Y165055D01*
X279421Y165051D01*
X278971Y165352D01*
X278972Y165354D01*
X278834Y166046D01*
X278443Y166632D01*
X277857Y167023D01*
X277165Y167161D01*
D02*
G37*
G36*
X539764Y87874D02*
X530315D01*
Y80000D01*
X539764D01*
Y87874D01*
D02*
G37*
G36*
X204921Y132909D02*
X204230Y132771D01*
X203644Y132380D01*
X203252Y131794D01*
X203115Y131102D01*
X203252Y130411D01*
X203609Y129878D01*
Y86174D01*
X194732Y77297D01*
X151181D01*
X150679Y77197D01*
X150253Y76912D01*
X141700Y68360D01*
X119453D01*
X118920Y68716D01*
X118228Y68854D01*
X117537Y68716D01*
X116951Y68325D01*
X116560Y67738D01*
X116422Y67047D01*
X116560Y66356D01*
X116951Y65770D01*
X117537Y65378D01*
X118228Y65241D01*
X118920Y65378D01*
X119453Y65735D01*
X142244D01*
X142746Y65834D01*
X143172Y66119D01*
X151725Y74672D01*
X195276D01*
X195778Y74772D01*
X196204Y75056D01*
X205849Y84702D01*
X206134Y85128D01*
X206234Y85630D01*
Y129878D01*
X206590Y130411D01*
X206728Y131102D01*
X206590Y131794D01*
X206199Y132380D01*
X205612Y132771D01*
X204921Y132909D01*
D02*
G37*
G36*
X415059Y127495D02*
X414368Y127358D01*
X413782Y126966D01*
X413390Y126380D01*
X413253Y125689D01*
X413390Y124998D01*
X413746Y124465D01*
Y69587D01*
X413846Y69084D01*
X414131Y68659D01*
X416670Y66119D01*
X417096Y65834D01*
X417598Y65735D01*
X434917D01*
X435451Y65378D01*
X436142Y65241D01*
X436833Y65378D01*
X437419Y65770D01*
X437811Y66356D01*
X437948Y67047D01*
X437811Y67738D01*
X437419Y68325D01*
X436833Y68716D01*
X436142Y68854D01*
X435451Y68716D01*
X434917Y68360D01*
X418142D01*
X416372Y70130D01*
Y124465D01*
X416728Y124998D01*
X416865Y125689D01*
X416728Y126380D01*
X416336Y126966D01*
X415750Y127358D01*
X415059Y127495D01*
D02*
G37*
G36*
X465551Y128381D02*
X464860Y128244D01*
X464274Y127852D01*
X463882Y127266D01*
X463745Y126575D01*
X463882Y125883D01*
X464239Y125350D01*
Y75394D01*
X464338Y74891D01*
X464623Y74466D01*
X472969Y66119D01*
X473395Y65834D01*
X473898Y65735D01*
X488461D01*
X488994Y65378D01*
X489685Y65241D01*
X490376Y65378D01*
X490962Y65770D01*
X491354Y66356D01*
X491491Y67047D01*
X491354Y67738D01*
X490962Y68325D01*
X490376Y68716D01*
X489685Y68854D01*
X488994Y68716D01*
X488461Y68360D01*
X474441D01*
X466864Y75937D01*
Y125350D01*
X467220Y125883D01*
X467357Y126575D01*
X467220Y127266D01*
X466828Y127852D01*
X466242Y128244D01*
X465551Y128381D01*
D02*
G37*
G36*
X240354Y105743D02*
X239663Y105606D01*
X239077Y105214D01*
X238685Y104628D01*
X238548Y103937D01*
X238685Y103246D01*
X239077Y102660D01*
X239663Y102268D01*
X240354Y102131D01*
X241046Y102268D01*
X241632Y102660D01*
X242023Y103246D01*
X242161Y103937D01*
X242023Y104628D01*
X241632Y105214D01*
X241046Y105606D01*
X240354Y105743D01*
D02*
G37*
G36*
X293504D02*
X292813Y105606D01*
X292227Y105214D01*
X291835Y104628D01*
X291698Y103937D01*
X291835Y103246D01*
X292227Y102660D01*
X292813Y102268D01*
X293504Y102131D01*
X294195Y102268D01*
X294781Y102660D01*
X295173Y103246D01*
X295310Y103937D01*
X295173Y104628D01*
X294781Y105214D01*
X294195Y105606D01*
X293504Y105743D01*
D02*
G37*
G36*
X306693D02*
X306002Y105606D01*
X305416Y105214D01*
X305024Y104628D01*
X304887Y103937D01*
X305024Y103246D01*
X305416Y102660D01*
X306002Y102268D01*
X306693Y102131D01*
X307384Y102268D01*
X307970Y102660D01*
X308362Y103246D01*
X308499Y103937D01*
X308362Y104628D01*
X307970Y105214D01*
X307384Y105606D01*
X306693Y105743D01*
D02*
G37*
G36*
X187402D02*
X186710Y105606D01*
X186124Y105214D01*
X185733Y104628D01*
X185595Y103937D01*
X185733Y103246D01*
X186124Y102660D01*
X186710Y102268D01*
X187402Y102131D01*
X188093Y102268D01*
X188679Y102660D01*
X189070Y103246D01*
X189208Y103937D01*
X189070Y104628D01*
X188679Y105214D01*
X188093Y105606D01*
X187402Y105743D01*
D02*
G37*
G36*
X534539Y103437D02*
X530132D01*
X530209Y102854D01*
X530627Y101844D01*
X531292Y100978D01*
X532159Y100312D01*
X533169Y99894D01*
X534252Y99752D01*
X534539D01*
Y103437D01*
D02*
G37*
G36*
X539946D02*
X535539D01*
Y99752D01*
X535827D01*
X536910Y99894D01*
X537920Y100312D01*
X538786Y100978D01*
X539452Y101844D01*
X539870Y102854D01*
X539946Y103437D01*
D02*
G37*
G36*
X134449Y105743D02*
X133758Y105606D01*
X133171Y105214D01*
X132780Y104628D01*
X132642Y103937D01*
X132780Y103246D01*
X133171Y102660D01*
X133758Y102268D01*
X134449Y102131D01*
X135140Y102268D01*
X135726Y102660D01*
X136118Y103246D01*
X136255Y103937D01*
X136118Y104628D01*
X135726Y105214D01*
X135140Y105606D01*
X134449Y105743D01*
D02*
G37*
G36*
X26378Y57160D02*
X24803D01*
X23775Y57025D01*
X22818Y56628D01*
X21995Y55997D01*
X21364Y55174D01*
X20967Y54217D01*
X20832Y53189D01*
X20967Y52161D01*
X21364Y51204D01*
X21995Y50381D01*
X22818Y49750D01*
X23775Y49353D01*
X24803Y49218D01*
X26378D01*
X27406Y49353D01*
X28363Y49750D01*
X29186Y50381D01*
X29817Y51204D01*
X30214Y52161D01*
X30349Y53189D01*
X30214Y54217D01*
X29817Y55174D01*
X29186Y55997D01*
X28363Y56628D01*
X27406Y57025D01*
X26378Y57160D01*
D02*
G37*
G36*
X534539Y53437D02*
X530132D01*
X530209Y52854D01*
X530627Y51844D01*
X531292Y50977D01*
X532159Y50312D01*
X533169Y49894D01*
X534252Y49752D01*
X534539D01*
Y53437D01*
D02*
G37*
G36*
X539946D02*
X535539D01*
Y49752D01*
X535827D01*
X536910Y49894D01*
X537920Y50312D01*
X538786Y50977D01*
X539452Y51844D01*
X539870Y52854D01*
X539946Y53437D01*
D02*
G37*
G36*
X522047Y308005D02*
X339764D01*
X339262Y307906D01*
X338836Y307621D01*
X319535Y288320D01*
X224847D01*
X224313Y288677D01*
X223622Y288814D01*
X222931Y288677D01*
X222345Y288285D01*
X221953Y287699D01*
X221816Y287008D01*
X221953Y286317D01*
X222345Y285731D01*
X222931Y285339D01*
X223622Y285202D01*
X224313Y285339D01*
X224847Y285695D01*
X320079D01*
X320581Y285795D01*
X321007Y286080D01*
X340307Y305380D01*
X521503D01*
X526640Y300244D01*
Y160630D01*
X526740Y160128D01*
X527025Y159702D01*
X546325Y140401D01*
Y47394D01*
X540401Y41470D01*
X312748D01*
X299895Y54323D01*
Y123054D01*
X300568Y123333D01*
X301391Y123964D01*
X302022Y124786D01*
X302418Y125744D01*
X302554Y126772D01*
Y128347D01*
X302418Y129374D01*
X302022Y130332D01*
X301391Y131154D01*
X300568Y131785D01*
X299610Y132182D01*
X298583Y132317D01*
X297555Y132182D01*
X296597Y131785D01*
X295775Y131154D01*
X295144Y130332D01*
X294747Y129374D01*
X294612Y128347D01*
Y126772D01*
X294747Y125744D01*
X295144Y124786D01*
X295775Y123964D01*
X296597Y123333D01*
X297270Y123054D01*
Y53780D01*
X297370Y53277D01*
X297655Y52851D01*
X311277Y39229D01*
X311702Y38945D01*
X312205Y38845D01*
X540945D01*
X541447Y38945D01*
X541873Y39229D01*
X548566Y45922D01*
X548850Y46348D01*
X548950Y46850D01*
Y140945D01*
X548850Y141447D01*
X548566Y141873D01*
X529265Y161174D01*
Y300787D01*
X529166Y301290D01*
X528881Y301716D01*
X522975Y307621D01*
X522550Y307906D01*
X522047Y308005D01*
D02*
G37*
G36*
X274425Y26984D02*
X270776D01*
Y22547D01*
X274425D01*
Y26984D01*
D02*
G37*
G36*
X487220D02*
X483571D01*
Y22547D01*
X487220D01*
Y26984D01*
D02*
G37*
G36*
X26378Y47160D02*
X24803D01*
X23775Y47025D01*
X22818Y46628D01*
X21995Y45997D01*
X21364Y45175D01*
X20967Y44217D01*
X20832Y43189D01*
X20967Y42161D01*
X21364Y41203D01*
X21995Y40381D01*
X22818Y39750D01*
X23775Y39353D01*
X24803Y39218D01*
X26378D01*
X27406Y39353D01*
X28363Y39750D01*
X29186Y40381D01*
X29817Y41203D01*
X30214Y42161D01*
X30349Y43189D01*
X30214Y44217D01*
X29817Y45175D01*
X29186Y45997D01*
X28363Y46628D01*
X27406Y47025D01*
X26378Y47160D01*
D02*
G37*
G36*
X252953Y129169D02*
X252261Y129031D01*
X251676Y128639D01*
X251284Y128053D01*
X251146Y127362D01*
X251284Y126671D01*
X251640Y126138D01*
Y76772D01*
X251740Y76269D01*
X252025Y75844D01*
X261749Y66119D01*
X262175Y65834D01*
X262677Y65735D01*
X275862D01*
X276395Y65378D01*
X277087Y65241D01*
X277778Y65378D01*
X278364Y65770D01*
X278755Y66356D01*
X278893Y67047D01*
X278755Y67738D01*
X278364Y68325D01*
X277778Y68716D01*
X277087Y68854D01*
X276395Y68716D01*
X275862Y68360D01*
X263221D01*
X254265Y77315D01*
Y126138D01*
X254622Y126671D01*
X254759Y127362D01*
X254622Y128053D01*
X254230Y128639D01*
X253644Y129031D01*
X252953Y129169D01*
D02*
G37*
G36*
X330433Y128302D02*
X329742Y128165D01*
X329156Y127773D01*
X328764Y127187D01*
X328627Y126496D01*
X328764Y125805D01*
X329120Y125272D01*
Y68272D01*
X328764Y67738D01*
X328627Y67047D01*
X328764Y66356D01*
X329156Y65770D01*
X329742Y65378D01*
X330433Y65241D01*
X331124Y65378D01*
X331710Y65770D01*
X332102Y66356D01*
X332239Y67047D01*
X332102Y67738D01*
X331746Y68272D01*
Y125272D01*
X332102Y125805D01*
X332239Y126496D01*
X332102Y127187D01*
X331710Y127773D01*
X331124Y128165D01*
X330433Y128302D01*
D02*
G37*
G36*
X357283Y128184D02*
X356592Y128047D01*
X356006Y127655D01*
X355615Y127069D01*
X355477Y126378D01*
X355615Y125687D01*
X355971Y125154D01*
Y74803D01*
X356071Y74301D01*
X356355Y73875D01*
X364111Y66119D01*
X364537Y65834D01*
X365039Y65735D01*
X381965D01*
X382498Y65378D01*
X383189Y65241D01*
X383880Y65378D01*
X384466Y65770D01*
X384858Y66356D01*
X384995Y67047D01*
X384858Y67738D01*
X384466Y68325D01*
X383880Y68716D01*
X383189Y68854D01*
X382498Y68716D01*
X381965Y68360D01*
X365583D01*
X358596Y75347D01*
Y125154D01*
X358952Y125687D01*
X359090Y126378D01*
X358952Y127069D01*
X358561Y127655D01*
X357975Y128047D01*
X357283Y128184D01*
D02*
G37*
G36*
X223937Y127121D02*
X223246Y126984D01*
X222660Y126592D01*
X222268Y126006D01*
X222131Y125315D01*
X222268Y124624D01*
X222624Y124091D01*
Y68272D01*
X222268Y67738D01*
X222131Y67047D01*
X222268Y66356D01*
X222660Y65770D01*
X223246Y65378D01*
X223937Y65241D01*
X224628Y65378D01*
X225214Y65770D01*
X225606Y66356D01*
X225743Y67047D01*
X225606Y67738D01*
X225250Y68272D01*
Y124091D01*
X225606Y124624D01*
X225743Y125315D01*
X225606Y126006D01*
X225214Y126592D01*
X224628Y126984D01*
X223937Y127121D01*
D02*
G37*
G36*
X534539Y58122D02*
X534252D01*
X533169Y57980D01*
X532159Y57562D01*
X531292Y56897D01*
X530627Y56030D01*
X530209Y55020D01*
X530132Y54437D01*
X534539D01*
Y58122D01*
D02*
G37*
G36*
X535827D02*
X535539D01*
Y54437D01*
X539946D01*
X539870Y55020D01*
X539452Y56030D01*
X538786Y56897D01*
X537920Y57562D01*
X536910Y57980D01*
X535827Y58122D01*
D02*
G37*
G36*
X30315Y67126D02*
X20866D01*
Y59252D01*
X30315D01*
Y67126D01*
D02*
G37*
G36*
X425984Y156137D02*
X425293Y156000D01*
X424707Y155608D01*
X424315Y155022D01*
X424178Y154331D01*
X424315Y153639D01*
X424707Y153053D01*
X425293Y152662D01*
X425984Y152524D01*
X426676Y152662D01*
X427209Y153018D01*
X440007D01*
X441994Y151031D01*
Y132827D01*
X440795Y131628D01*
X408418D01*
X408004Y132041D01*
X408067Y132561D01*
X408600Y132782D01*
X409422Y133413D01*
X410053Y134235D01*
X410450Y135193D01*
X410585Y136221D01*
Y137795D01*
X410450Y138823D01*
X410053Y139781D01*
X409422Y140603D01*
X408600Y141234D01*
X407642Y141631D01*
X406614Y141766D01*
X405586Y141631D01*
X404629Y141234D01*
X403806Y140603D01*
X403175Y139781D01*
X402778Y138823D01*
X402643Y137795D01*
Y136221D01*
X402778Y135193D01*
X403175Y134235D01*
X403806Y133413D01*
X404629Y132782D01*
X405302Y132503D01*
Y131575D01*
X405402Y131072D01*
X405686Y130647D01*
X406946Y129387D01*
X407372Y129102D01*
X407874Y129002D01*
X441339D01*
X441841Y129102D01*
X442267Y129387D01*
X444235Y131355D01*
X444520Y131781D01*
X444620Y132283D01*
Y151575D01*
X444520Y152077D01*
X444235Y152503D01*
X441479Y155259D01*
X441053Y155543D01*
X440551Y155643D01*
X427209D01*
X426676Y156000D01*
X425984Y156137D01*
D02*
G37*
G36*
X390551Y141732D02*
X382677D01*
Y132283D01*
X390551D01*
Y141732D01*
D02*
G37*
G36*
X462295Y138279D02*
X458646D01*
Y133843D01*
X462295D01*
Y138279D01*
D02*
G37*
G36*
X116115Y135663D02*
X112429D01*
Y131256D01*
X113012Y131333D01*
X114022Y131751D01*
X114889Y132416D01*
X115554Y133283D01*
X115972Y134293D01*
X116115Y135376D01*
Y135663D01*
D02*
G37*
G36*
X309083Y132466D02*
Y128059D01*
X312768D01*
Y128347D01*
X312626Y129430D01*
X312207Y130439D01*
X311542Y131306D01*
X310675Y131971D01*
X309666Y132389D01*
X309083Y132466D01*
D02*
G37*
G36*
X534539Y133437D02*
X530102D01*
Y129787D01*
X534539D01*
Y133437D01*
D02*
G37*
G36*
X539976D02*
X535539D01*
Y129787D01*
X539976D01*
Y133437D01*
D02*
G37*
G36*
X416614Y141766D02*
X415586Y141631D01*
X414629Y141234D01*
X413806Y140603D01*
X413175Y139781D01*
X412779Y138823D01*
X412643Y137795D01*
Y136221D01*
X412779Y135193D01*
X413175Y134235D01*
X413806Y133413D01*
X414629Y132782D01*
X415586Y132385D01*
X416614Y132249D01*
X417642Y132385D01*
X418600Y132782D01*
X419422Y133413D01*
X420053Y134235D01*
X420450Y135193D01*
X420516Y135695D01*
X435390D01*
X435923Y135339D01*
X436614Y135202D01*
X437305Y135339D01*
X437891Y135731D01*
X438283Y136317D01*
X438420Y137008D01*
X438283Y137699D01*
X437891Y138285D01*
X437305Y138677D01*
X436614Y138814D01*
X435923Y138677D01*
X435390Y138321D01*
X420516D01*
X420450Y138823D01*
X420053Y139781D01*
X419422Y140603D01*
X418600Y141234D01*
X417642Y141631D01*
X416614Y141766D01*
D02*
G37*
G36*
X197638Y139602D02*
X196947Y139464D01*
X196413Y139108D01*
X153543D01*
X153041Y139008D01*
X152615Y138724D01*
X131543Y117651D01*
X91339D01*
X90836Y117551D01*
X90410Y117267D01*
X85883Y112739D01*
X85598Y112313D01*
X85498Y111811D01*
Y53193D01*
X85142Y52660D01*
X85005Y51968D01*
X85142Y51277D01*
X85534Y50691D01*
X86120Y50300D01*
X86811Y50162D01*
X87502Y50300D01*
X88088Y50691D01*
X88480Y51277D01*
X88617Y51968D01*
X88480Y52660D01*
X88124Y53193D01*
Y111267D01*
X91882Y115026D01*
X132087D01*
X132589Y115126D01*
X133015Y115410D01*
X154087Y136483D01*
X196413D01*
X196947Y136126D01*
X197638Y135989D01*
X198329Y136126D01*
X198915Y136518D01*
X199307Y137104D01*
X199444Y137795D01*
X199307Y138487D01*
X198915Y139073D01*
X198329Y139464D01*
X197638Y139602D01*
D02*
G37*
G36*
X112429Y141070D02*
Y136663D01*
X116115D01*
Y136951D01*
X115972Y138034D01*
X115554Y139043D01*
X114889Y139910D01*
X114022Y140576D01*
X113012Y140994D01*
X112429Y141070D01*
D02*
G37*
G36*
X539976Y138087D02*
X535539D01*
Y134437D01*
X539976D01*
Y138087D01*
D02*
G37*
G36*
X466945Y138279D02*
X463295D01*
Y133843D01*
X466945D01*
Y138279D01*
D02*
G37*
G36*
X452795Y143538D02*
X451767Y143403D01*
X450810Y143006D01*
X449987Y142375D01*
X449356Y141552D01*
X448960Y140595D01*
X448824Y139567D01*
Y137992D01*
X448960Y136964D01*
X449356Y136007D01*
X449987Y135184D01*
X450810Y134553D01*
X451767Y134157D01*
X452795Y134021D01*
X453823Y134157D01*
X454781Y134553D01*
X455603Y135184D01*
X456234Y136007D01*
X456631Y136964D01*
X456766Y137992D01*
Y139567D01*
X456631Y140595D01*
X456234Y141552D01*
X455603Y142375D01*
X454781Y143006D01*
X453823Y143403D01*
X452795Y143538D01*
D02*
G37*
G36*
X534539Y138087D02*
X530102D01*
Y134437D01*
X534539D01*
Y138087D01*
D02*
G37*
G36*
X308083Y132466D02*
X307499Y132389D01*
X306490Y131971D01*
X305623Y131306D01*
X304958Y130439D01*
X304540Y129430D01*
X304397Y128347D01*
Y128059D01*
X308083D01*
Y132466D01*
D02*
G37*
G36*
X534539Y108122D02*
X534252D01*
X533169Y107980D01*
X532159Y107562D01*
X531292Y106896D01*
X530627Y106030D01*
X530209Y105020D01*
X530132Y104437D01*
X534539D01*
Y108122D01*
D02*
G37*
G36*
X535827D02*
X535539D01*
Y104437D01*
X539946D01*
X539870Y105020D01*
X539452Y106030D01*
X538786Y106896D01*
X537920Y107562D01*
X536910Y107980D01*
X535827Y108122D01*
D02*
G37*
G36*
Y117908D02*
X534252D01*
X533224Y117773D01*
X532267Y117376D01*
X531444Y116745D01*
X530813Y115922D01*
X530416Y114965D01*
X530281Y113937D01*
X530416Y112909D01*
X530813Y111951D01*
X531444Y111129D01*
X532267Y110498D01*
X533224Y110101D01*
X534252Y109966D01*
X535827D01*
X536855Y110101D01*
X537812Y110498D01*
X538635Y111129D01*
X539266Y111951D01*
X539662Y112909D01*
X539798Y113937D01*
X539662Y114965D01*
X539266Y115922D01*
X538635Y116745D01*
X537812Y117376D01*
X536855Y117773D01*
X535827Y117908D01*
D02*
G37*
G36*
X504528Y105743D02*
X503836Y105606D01*
X503250Y105214D01*
X502859Y104628D01*
X502721Y103937D01*
X502859Y103246D01*
X503250Y102660D01*
X503836Y102268D01*
X504528Y102131D01*
X505219Y102268D01*
X505805Y102660D01*
X506196Y103246D01*
X506334Y103937D01*
X506196Y104628D01*
X505805Y105214D01*
X505219Y105606D01*
X504528Y105743D01*
D02*
G37*
G36*
X346850D02*
X346159Y105606D01*
X345573Y105214D01*
X345181Y104628D01*
X345044Y103937D01*
X345181Y103246D01*
X345573Y102660D01*
X346159Y102268D01*
X346850Y102131D01*
X347542Y102268D01*
X348128Y102660D01*
X348519Y103246D01*
X348657Y103937D01*
X348519Y104628D01*
X348128Y105214D01*
X347542Y105606D01*
X346850Y105743D01*
D02*
G37*
G36*
X399606D02*
X398915Y105606D01*
X398329Y105214D01*
X397937Y104628D01*
X397800Y103937D01*
X397937Y103246D01*
X398329Y102660D01*
X398915Y102268D01*
X399606Y102131D01*
X400298Y102268D01*
X400884Y102660D01*
X401275Y103246D01*
X401413Y103937D01*
X401275Y104628D01*
X400884Y105214D01*
X400298Y105606D01*
X399606Y105743D01*
D02*
G37*
G36*
X452165D02*
X451474Y105606D01*
X450888Y105214D01*
X450496Y104628D01*
X450359Y103937D01*
X450496Y103246D01*
X450888Y102660D01*
X451474Y102268D01*
X452165Y102131D01*
X452857Y102268D01*
X453443Y102660D01*
X453834Y103246D01*
X453972Y103937D01*
X453834Y104628D01*
X453443Y105214D01*
X452857Y105606D01*
X452165Y105743D01*
D02*
G37*
G36*
X263538Y159146D02*
X259690D01*
X259745Y158871D01*
X260184Y158215D01*
X260301Y158136D01*
Y143898D01*
X260402Y143395D01*
X260686Y142970D01*
X263648Y140007D01*
Y122376D01*
X263530Y122297D01*
X263091Y121640D01*
X263037Y121366D01*
X266884D01*
X266830Y121640D01*
X266391Y122297D01*
X266273Y122376D01*
Y140551D01*
X266173Y141053D01*
X265889Y141479D01*
X262927Y144441D01*
Y158136D01*
X263045Y158215D01*
X263483Y158871D01*
X263538Y159146D01*
D02*
G37*
G36*
X308083Y127059D02*
X304397D01*
Y126772D01*
X304540Y125688D01*
X304958Y124679D01*
X305623Y123812D01*
X306490Y123147D01*
X307499Y122729D01*
X308083Y122652D01*
Y127059D01*
D02*
G37*
G36*
X312768D02*
X309083D01*
Y122652D01*
X309666Y122729D01*
X310675Y123147D01*
X311542Y123812D01*
X312207Y124679D01*
X312626Y125688D01*
X312768Y126772D01*
Y127059D01*
D02*
G37*
G36*
X535827Y127908D02*
X534252D01*
X533224Y127773D01*
X532267Y127376D01*
X531444Y126745D01*
X530813Y125923D01*
X530416Y124965D01*
X530281Y123937D01*
X530416Y122909D01*
X530813Y121951D01*
X531444Y121129D01*
X532267Y120498D01*
X533224Y120101D01*
X534252Y119966D01*
X535827D01*
X536855Y120101D01*
X537812Y120498D01*
X538635Y121129D01*
X539266Y121951D01*
X539662Y122909D01*
X539798Y123937D01*
X539662Y124965D01*
X539266Y125923D01*
X538635Y126745D01*
X537812Y127376D01*
X536855Y127773D01*
X535827Y127908D01*
D02*
G37*
G36*
X292520Y132283D02*
X284646D01*
Y122835D01*
X287270D01*
Y115791D01*
X286914Y115258D01*
X286776Y114567D01*
X286914Y113876D01*
X287305Y113290D01*
X287891Y112898D01*
X288583Y112761D01*
X289274Y112898D01*
X289860Y113290D01*
X290251Y113876D01*
X290389Y114567D01*
X290251Y115258D01*
X289895Y115791D01*
Y122835D01*
X292520D01*
Y132283D01*
D02*
G37*
G36*
X264461Y120366D02*
X263037D01*
X263091Y120092D01*
X263530Y119436D01*
X264186Y118997D01*
X264461Y118942D01*
Y120366D01*
D02*
G37*
G36*
X266884D02*
X265461D01*
Y118942D01*
X265735Y118997D01*
X266391Y119436D01*
X266830Y120092D01*
X266884Y120366D01*
D02*
G37*
G36*
X60642Y21547D02*
X56956D01*
Y21260D01*
X57099Y20177D01*
X57517Y19167D01*
X58182Y18300D01*
X59049Y17635D01*
X60058Y17217D01*
X60642Y17140D01*
Y21547D01*
D02*
G37*
G36*
X65327D02*
X61642D01*
Y17140D01*
X62225Y17217D01*
X63234Y17635D01*
X64101Y18300D01*
X64766Y19167D01*
X65184Y20177D01*
X65327Y21260D01*
Y21547D01*
D02*
G37*
G36*
X51142Y26806D02*
X50114Y26670D01*
X49156Y26274D01*
X48334Y25642D01*
X47703Y24820D01*
X47306Y23862D01*
X47171Y22835D01*
Y21260D01*
X47306Y20232D01*
X47703Y19274D01*
X48334Y18452D01*
X49156Y17821D01*
X50114Y17424D01*
X51142Y17289D01*
X52170Y17424D01*
X53127Y17821D01*
X53950Y18452D01*
X54581Y19274D01*
X54977Y20232D01*
X55113Y21260D01*
Y22835D01*
X54977Y23862D01*
X54581Y24820D01*
X53950Y25642D01*
X53127Y26274D01*
X52170Y26670D01*
X51142Y26806D01*
D02*
G37*
G36*
X487220Y21547D02*
X483571D01*
Y17110D01*
X487220D01*
Y21547D01*
D02*
G37*
G36*
X429224Y21547D02*
X425575D01*
Y17110D01*
X429224D01*
Y21547D01*
D02*
G37*
G36*
X433874D02*
X430224D01*
Y17110D01*
X433874D01*
Y21547D01*
D02*
G37*
G36*
X482571Y21547D02*
X478921D01*
Y17110D01*
X482571D01*
Y21547D01*
D02*
G37*
G36*
X175787Y26806D02*
X174760Y26670D01*
X173802Y26274D01*
X172979Y25642D01*
X172348Y24820D01*
X171952Y23862D01*
X171816Y22835D01*
Y21260D01*
X171952Y20232D01*
X172348Y19274D01*
X172979Y18452D01*
X173802Y17821D01*
X174760Y17424D01*
X175787Y17289D01*
X176815Y17424D01*
X177773Y17821D01*
X178595Y18452D01*
X179226Y19274D01*
X179623Y20232D01*
X179758Y21260D01*
Y22835D01*
X179623Y23862D01*
X179226Y24820D01*
X178595Y25642D01*
X177773Y26274D01*
X176815Y26670D01*
X175787Y26806D01*
D02*
G37*
G36*
X187598D02*
X186571Y26670D01*
X185613Y26274D01*
X184791Y25642D01*
X184160Y24820D01*
X183763Y23862D01*
X183627Y22835D01*
Y21260D01*
X183763Y20232D01*
X184160Y19274D01*
X184791Y18452D01*
X185613Y17821D01*
X186571Y17424D01*
X187598Y17289D01*
X188626Y17424D01*
X189584Y17821D01*
X190406Y18452D01*
X191037Y19274D01*
X191434Y20232D01*
X191569Y21260D01*
Y22835D01*
X191434Y23862D01*
X191037Y24820D01*
X190406Y25642D01*
X189584Y26274D01*
X188626Y26670D01*
X187598Y26806D01*
D02*
G37*
G36*
X228937D02*
X227909Y26670D01*
X226952Y26274D01*
X226129Y25642D01*
X225498Y24820D01*
X225101Y23862D01*
X224966Y22835D01*
Y21260D01*
X225101Y20232D01*
X225498Y19274D01*
X226129Y18452D01*
X226952Y17821D01*
X227909Y17424D01*
X228937Y17289D01*
X229965Y17424D01*
X230923Y17821D01*
X231745Y18452D01*
X232376Y19274D01*
X232773Y20232D01*
X232908Y21260D01*
Y22835D01*
X232773Y23862D01*
X232376Y24820D01*
X231745Y25642D01*
X230923Y26274D01*
X229965Y26670D01*
X228937Y26806D01*
D02*
G37*
G36*
X134646D02*
X133618Y26670D01*
X132660Y26274D01*
X131838Y25642D01*
X131207Y24820D01*
X130810Y23862D01*
X130675Y22835D01*
Y21260D01*
X130810Y20232D01*
X131207Y19274D01*
X131838Y18452D01*
X132660Y17821D01*
X133618Y17424D01*
X134646Y17289D01*
X135673Y17424D01*
X136631Y17821D01*
X137454Y18452D01*
X138085Y19274D01*
X138481Y20232D01*
X138617Y21260D01*
Y22835D01*
X138481Y23862D01*
X138085Y24820D01*
X137454Y25642D01*
X136631Y26274D01*
X135673Y26670D01*
X134646Y26806D01*
D02*
G37*
G36*
X71142Y26806D02*
X70114Y26670D01*
X69156Y26274D01*
X68334Y25642D01*
X67703Y24820D01*
X67306Y23862D01*
X67171Y22835D01*
Y21260D01*
X67306Y20232D01*
X67703Y19274D01*
X68334Y18452D01*
X69156Y17821D01*
X70114Y17424D01*
X71142Y17289D01*
X72170Y17424D01*
X73127Y17821D01*
X73950Y18452D01*
X74581Y19274D01*
X74977Y20232D01*
X75113Y21260D01*
Y22835D01*
X74977Y23862D01*
X74581Y24820D01*
X73950Y25642D01*
X73127Y26274D01*
X72170Y26670D01*
X71142Y26806D01*
D02*
G37*
G36*
X81142D02*
X80114Y26670D01*
X79156Y26274D01*
X78334Y25642D01*
X77703Y24820D01*
X77306Y23862D01*
X77171Y22835D01*
Y21260D01*
X77306Y20232D01*
X77703Y19274D01*
X78334Y18452D01*
X79156Y17821D01*
X80114Y17424D01*
X81142Y17289D01*
X82170Y17424D01*
X83127Y17821D01*
X83950Y18452D01*
X84581Y19274D01*
X84977Y20232D01*
X85113Y21260D01*
Y22835D01*
X84977Y23862D01*
X84581Y24820D01*
X83950Y25642D01*
X83127Y26274D01*
X82170Y26670D01*
X81142Y26806D01*
D02*
G37*
G36*
X122835Y26806D02*
X121807Y26670D01*
X120849Y26274D01*
X120027Y25642D01*
X119396Y24820D01*
X118999Y23862D01*
X118864Y22835D01*
Y21260D01*
X118999Y20232D01*
X119396Y19274D01*
X120027Y18452D01*
X120849Y17821D01*
X121807Y17424D01*
X122835Y17289D01*
X123862Y17424D01*
X124820Y17821D01*
X125643Y18452D01*
X126274Y19274D01*
X126670Y20232D01*
X126806Y21260D01*
Y22835D01*
X126670Y23862D01*
X126274Y24820D01*
X125643Y25642D01*
X124820Y26274D01*
X123862Y26670D01*
X122835Y26806D01*
D02*
G37*
G36*
X163476Y21547D02*
X159827D01*
Y17110D01*
X163476D01*
Y21547D01*
D02*
G37*
G36*
X168126D02*
X164476D01*
Y17110D01*
X168126D01*
Y21547D01*
D02*
G37*
G36*
X216626D02*
X212976D01*
Y17110D01*
X216626D01*
Y21547D01*
D02*
G37*
G36*
X115173D02*
X111524D01*
Y17110D01*
X115173D01*
Y21547D01*
D02*
G37*
G36*
X17717Y24944D02*
X16307Y24805D01*
X14951Y24394D01*
X13701Y23726D01*
X12606Y22827D01*
X11707Y21732D01*
X11039Y20482D01*
X10628Y19127D01*
X10489Y17717D01*
X10628Y16307D01*
X11039Y14951D01*
X11707Y13701D01*
X12606Y12606D01*
X13701Y11707D01*
X14951Y11039D01*
X16307Y10628D01*
X17717Y10489D01*
X19127Y10628D01*
X20482Y11039D01*
X21732Y11707D01*
X22827Y12606D01*
X23726Y13701D01*
X24394Y14951D01*
X24805Y16307D01*
X24944Y17717D01*
X24805Y19127D01*
X24394Y20482D01*
X23726Y21732D01*
X22827Y22827D01*
X21732Y23726D01*
X20482Y24394D01*
X19127Y24805D01*
X17717Y24944D01*
D02*
G37*
G36*
X536614D02*
X535204Y24805D01*
X533848Y24394D01*
X532599Y23726D01*
X531503Y22827D01*
X530605Y21732D01*
X529937Y20482D01*
X529525Y19127D01*
X529387Y17717D01*
X529525Y16307D01*
X529937Y14951D01*
X530605Y13701D01*
X531503Y12606D01*
X532599Y11707D01*
X533848Y11039D01*
X535204Y10628D01*
X536614Y10489D01*
X538024Y10628D01*
X539380Y11039D01*
X540630Y11707D01*
X541725Y12606D01*
X542624Y13701D01*
X543292Y14951D01*
X543703Y16307D01*
X543842Y17717D01*
X543703Y19127D01*
X543292Y20482D01*
X542624Y21732D01*
X541725Y22827D01*
X540630Y23726D01*
X539380Y24394D01*
X538024Y24805D01*
X536614Y24944D01*
D02*
G37*
G36*
X110524Y21547D02*
X106874D01*
Y17110D01*
X110524D01*
Y21547D01*
D02*
G37*
G36*
X327575Y21547D02*
X323925D01*
Y17110D01*
X327575D01*
Y21547D01*
D02*
G37*
G36*
X376075D02*
X372425D01*
Y17110D01*
X376075D01*
Y21547D01*
D02*
G37*
G36*
X380724D02*
X377075D01*
Y17110D01*
X380724D01*
Y21547D01*
D02*
G37*
G36*
X322925D02*
X319276D01*
Y17110D01*
X322925D01*
Y21547D01*
D02*
G37*
G36*
X221276Y21547D02*
X217626D01*
Y17110D01*
X221276D01*
Y21547D01*
D02*
G37*
G36*
X269776Y21547D02*
X266126D01*
Y17110D01*
X269776D01*
Y21547D01*
D02*
G37*
G36*
X274425D02*
X270776D01*
Y17110D01*
X274425D01*
Y21547D01*
D02*
G37*
G36*
X429224Y26984D02*
X425575D01*
Y22547D01*
X429224D01*
Y26984D01*
D02*
G37*
G36*
X433874D02*
X430224D01*
Y22547D01*
X433874D01*
Y26984D01*
D02*
G37*
G36*
X110524D02*
X106874D01*
Y22547D01*
X110524D01*
Y26984D01*
D02*
G37*
G36*
X380724D02*
X377075D01*
Y22547D01*
X380724D01*
Y26984D01*
D02*
G37*
G36*
X376075D02*
X372425D01*
Y22547D01*
X376075D01*
Y26984D01*
D02*
G37*
G36*
X61642Y26954D02*
Y22547D01*
X65327D01*
Y22835D01*
X65184Y23918D01*
X64766Y24927D01*
X64101Y25794D01*
X63234Y26459D01*
X62225Y26877D01*
X61642Y26954D01*
D02*
G37*
G36*
X327575Y26984D02*
X323925D01*
Y22547D01*
X327575D01*
Y26984D01*
D02*
G37*
G36*
X221276D02*
X217626D01*
Y22547D01*
X221276D01*
Y26984D01*
D02*
G37*
G36*
X269776D02*
X266126D01*
Y22547D01*
X269776D01*
Y26984D01*
D02*
G37*
G36*
X482571D02*
X478921D01*
Y22547D01*
X482571D01*
Y26984D01*
D02*
G37*
G36*
X168126D02*
X164476D01*
Y22547D01*
X168126D01*
Y26984D01*
D02*
G37*
G36*
X163476D02*
X159827D01*
Y22547D01*
X163476D01*
Y26984D01*
D02*
G37*
G36*
X216626D02*
X212976D01*
Y22547D01*
X216626D01*
Y26984D01*
D02*
G37*
G36*
X115173D02*
X111524D01*
Y22547D01*
X115173D01*
Y26984D01*
D02*
G37*
G36*
X347047Y26806D02*
X346020Y26670D01*
X345062Y26274D01*
X344239Y25642D01*
X343608Y24820D01*
X343212Y23862D01*
X343076Y22835D01*
Y21260D01*
X343212Y20232D01*
X343608Y19274D01*
X344239Y18452D01*
X345062Y17821D01*
X346020Y17424D01*
X347047Y17289D01*
X348075Y17424D01*
X349033Y17821D01*
X349855Y18452D01*
X350486Y19274D01*
X350883Y20232D01*
X351018Y21260D01*
Y22835D01*
X350883Y23862D01*
X350486Y24820D01*
X349855Y25642D01*
X349033Y26274D01*
X348075Y26670D01*
X347047Y26806D01*
D02*
G37*
G36*
X388386D02*
X387358Y26670D01*
X386400Y26274D01*
X385578Y25642D01*
X384947Y24820D01*
X384550Y23862D01*
X384415Y22835D01*
Y21260D01*
X384550Y20232D01*
X384947Y19274D01*
X385578Y18452D01*
X386400Y17821D01*
X387358Y17424D01*
X388386Y17289D01*
X389414Y17424D01*
X390371Y17821D01*
X391194Y18452D01*
X391825Y19274D01*
X392221Y20232D01*
X392357Y21260D01*
Y22835D01*
X392221Y23862D01*
X391825Y24820D01*
X391194Y25642D01*
X390371Y26274D01*
X389414Y26670D01*
X388386Y26806D01*
D02*
G37*
G36*
X400197D02*
X399169Y26670D01*
X398211Y26274D01*
X397389Y25642D01*
X396758Y24820D01*
X396361Y23862D01*
X396226Y22835D01*
Y21260D01*
X396361Y20232D01*
X396758Y19274D01*
X397389Y18452D01*
X398211Y17821D01*
X399169Y17424D01*
X400197Y17289D01*
X401225Y17424D01*
X402182Y17821D01*
X403005Y18452D01*
X403636Y19274D01*
X404033Y20232D01*
X404168Y21260D01*
Y22835D01*
X404033Y23862D01*
X403636Y24820D01*
X403005Y25642D01*
X402182Y26274D01*
X401225Y26670D01*
X400197Y26806D01*
D02*
G37*
G36*
X335236D02*
X334208Y26670D01*
X333251Y26274D01*
X332428Y25642D01*
X331797Y24820D01*
X331401Y23862D01*
X331265Y22835D01*
Y21260D01*
X331401Y20232D01*
X331797Y19274D01*
X332428Y18452D01*
X333251Y17821D01*
X334208Y17424D01*
X335236Y17289D01*
X336264Y17424D01*
X337222Y17821D01*
X338044Y18452D01*
X338675Y19274D01*
X339072Y20232D01*
X339207Y21260D01*
Y22835D01*
X339072Y23862D01*
X338675Y24820D01*
X338044Y25642D01*
X337222Y26274D01*
X336264Y26670D01*
X335236Y26806D01*
D02*
G37*
G36*
X240748D02*
X239720Y26670D01*
X238762Y26274D01*
X237940Y25642D01*
X237309Y24820D01*
X236912Y23862D01*
X236777Y22835D01*
Y21260D01*
X236912Y20232D01*
X237309Y19274D01*
X237940Y18452D01*
X238762Y17821D01*
X239720Y17424D01*
X240748Y17289D01*
X241776Y17424D01*
X242734Y17821D01*
X243556Y18452D01*
X244187Y19274D01*
X244584Y20232D01*
X244719Y21260D01*
Y22835D01*
X244584Y23862D01*
X244187Y24820D01*
X243556Y25642D01*
X242734Y26274D01*
X241776Y26670D01*
X240748Y26806D01*
D02*
G37*
G36*
X282087D02*
X281059Y26670D01*
X280101Y26274D01*
X279279Y25642D01*
X278648Y24820D01*
X278251Y23862D01*
X278116Y22835D01*
Y21260D01*
X278251Y20232D01*
X278648Y19274D01*
X279279Y18452D01*
X280101Y17821D01*
X281059Y17424D01*
X282087Y17289D01*
X283114Y17424D01*
X284072Y17821D01*
X284894Y18452D01*
X285526Y19274D01*
X285922Y20232D01*
X286058Y21260D01*
Y22835D01*
X285922Y23862D01*
X285526Y24820D01*
X284894Y25642D01*
X284072Y26274D01*
X283114Y26670D01*
X282087Y26806D01*
D02*
G37*
G36*
X293898D02*
X292870Y26670D01*
X291912Y26274D01*
X291090Y25642D01*
X290459Y24820D01*
X290062Y23862D01*
X289927Y22835D01*
Y21260D01*
X290062Y20232D01*
X290459Y19274D01*
X291090Y18452D01*
X291912Y17821D01*
X292870Y17424D01*
X293898Y17289D01*
X294925Y17424D01*
X295883Y17821D01*
X296706Y18452D01*
X297337Y19274D01*
X297733Y20232D01*
X297869Y21260D01*
Y22835D01*
X297733Y23862D01*
X297337Y24820D01*
X296706Y25642D01*
X295883Y26274D01*
X294925Y26670D01*
X293898Y26806D01*
D02*
G37*
G36*
X45079Y26772D02*
X37205D01*
Y17323D01*
X45079D01*
Y26772D01*
D02*
G37*
G36*
X60642Y26954D02*
X60058Y26877D01*
X59049Y26459D01*
X58182Y25794D01*
X57517Y24927D01*
X57099Y23918D01*
X56956Y22835D01*
Y22547D01*
X60642D01*
Y26954D01*
D02*
G37*
G36*
X322925Y26984D02*
X319276D01*
Y22547D01*
X322925D01*
Y26984D01*
D02*
G37*
G36*
X506693Y26806D02*
X505665Y26670D01*
X504707Y26274D01*
X503885Y25642D01*
X503254Y24820D01*
X502857Y23862D01*
X502722Y22835D01*
Y21260D01*
X502857Y20232D01*
X503254Y19274D01*
X503885Y18452D01*
X504707Y17821D01*
X505665Y17424D01*
X506693Y17289D01*
X507721Y17424D01*
X508678Y17821D01*
X509501Y18452D01*
X510132Y19274D01*
X510529Y20232D01*
X510664Y21260D01*
Y22835D01*
X510529Y23862D01*
X510132Y24820D01*
X509501Y25642D01*
X508678Y26274D01*
X507721Y26670D01*
X506693Y26806D01*
D02*
G37*
G36*
X441535D02*
X440508Y26670D01*
X439550Y26274D01*
X438728Y25642D01*
X438097Y24820D01*
X437700Y23862D01*
X437565Y22835D01*
Y21260D01*
X437700Y20232D01*
X438097Y19274D01*
X438728Y18452D01*
X439550Y17821D01*
X440508Y17424D01*
X441535Y17289D01*
X442563Y17424D01*
X443521Y17821D01*
X444343Y18452D01*
X444974Y19274D01*
X445371Y20232D01*
X445506Y21260D01*
Y22835D01*
X445371Y23862D01*
X444974Y24820D01*
X444343Y25642D01*
X443521Y26274D01*
X442563Y26670D01*
X441535Y26806D01*
D02*
G37*
G36*
X453346D02*
X452319Y26670D01*
X451361Y26274D01*
X450539Y25642D01*
X449907Y24820D01*
X449511Y23862D01*
X449375Y22835D01*
Y21260D01*
X449511Y20232D01*
X449907Y19274D01*
X450539Y18452D01*
X451361Y17821D01*
X452319Y17424D01*
X453346Y17289D01*
X454374Y17424D01*
X455332Y17821D01*
X456154Y18452D01*
X456785Y19274D01*
X457182Y20232D01*
X457317Y21260D01*
Y22835D01*
X457182Y23862D01*
X456785Y24820D01*
X456154Y25642D01*
X455332Y26274D01*
X454374Y26670D01*
X453346Y26806D01*
D02*
G37*
G36*
X494882D02*
X493854Y26670D01*
X492896Y26274D01*
X492074Y25642D01*
X491443Y24820D01*
X491046Y23862D01*
X490911Y22835D01*
Y21260D01*
X491046Y20232D01*
X491443Y19274D01*
X492074Y18452D01*
X492896Y17821D01*
X493854Y17424D01*
X494882Y17289D01*
X495910Y17424D01*
X496867Y17821D01*
X497690Y18452D01*
X498321Y19274D01*
X498718Y20232D01*
X498853Y21260D01*
Y22835D01*
X498718Y23862D01*
X498321Y24820D01*
X497690Y25642D01*
X496867Y26274D01*
X495910Y26670D01*
X494882Y26806D01*
D02*
G37*
G36*
X116035Y364067D02*
X114612D01*
X114615Y364052D01*
X114698Y363806D01*
X114813Y363573D01*
X114958Y363356D01*
X115129Y363161D01*
X115325Y362989D01*
X115541Y362845D01*
X115775Y362730D01*
X116021Y362646D01*
X116035Y362643D01*
Y364067D01*
D02*
G37*
G36*
X137357D02*
X135933D01*
Y362643D01*
X135948Y362646D01*
X136194Y362730D01*
X136427Y362845D01*
X136644Y362989D01*
X136839Y363161D01*
X137011Y363356D01*
X137155Y363573D01*
X137270Y363806D01*
X137354Y364052D01*
X137357Y364067D01*
D02*
G37*
G36*
X56193D02*
X54769D01*
X54824Y363793D01*
X55262Y363136D01*
X55919Y362698D01*
X56193Y362643D01*
Y364067D01*
D02*
G37*
G36*
X146457Y332189D02*
X146225Y332174D01*
X145997Y332128D01*
X145777Y332054D01*
X145569Y331951D01*
X145376Y331822D01*
X145201Y331669D01*
X145048Y331494D01*
X144919Y331301D01*
X144816Y331093D01*
X144742Y330873D01*
X144696Y330645D01*
X144681Y330413D01*
X144696Y330182D01*
X144742Y329954D01*
X144816Y329734D01*
X144919Y329526D01*
X145048Y329332D01*
X145201Y329158D01*
X145376Y329005D01*
X145569Y328876D01*
X145777Y328773D01*
X145997Y328698D01*
X146225Y328653D01*
X146457Y328638D01*
X146688Y328653D01*
X146916Y328698D01*
X147136Y328773D01*
X147344Y328876D01*
X147538Y329005D01*
X147712Y329158D01*
X147865Y329332D01*
X147994Y329526D01*
X148097Y329734D01*
X148172Y329954D01*
X148217Y330182D01*
X148232Y330413D01*
X148217Y330645D01*
X148172Y330873D01*
X148097Y331093D01*
X147994Y331301D01*
X147865Y331494D01*
X147712Y331669D01*
X147538Y331822D01*
X147344Y331951D01*
X147136Y332054D01*
X146916Y332128D01*
X146688Y332174D01*
X146457Y332189D01*
D02*
G37*
G36*
X69004Y320034D02*
Y318610D01*
X70428D01*
X70373Y318884D01*
X69934Y319541D01*
X69278Y319979D01*
X69004Y320034D01*
D02*
G37*
G36*
X33465Y332121D02*
X32773Y331984D01*
X32187Y331592D01*
X31796Y331006D01*
X31658Y330315D01*
X31796Y329624D01*
X32187Y329038D01*
X32773Y328646D01*
X33465Y328509D01*
X34156Y328646D01*
X34742Y329038D01*
X35133Y329624D01*
X35271Y330315D01*
X35133Y331006D01*
X34742Y331592D01*
X34156Y331984D01*
X33465Y332121D01*
D02*
G37*
G36*
X85039D02*
X84348Y331984D01*
X83762Y331592D01*
X83371Y331006D01*
X83233Y330315D01*
X83371Y329624D01*
X83762Y329038D01*
X84348Y328646D01*
X85039Y328509D01*
X85731Y328646D01*
X86317Y329038D01*
X86708Y329624D01*
X86846Y330315D01*
X86708Y331006D01*
X86317Y331592D01*
X85731Y331984D01*
X85039Y332121D01*
D02*
G37*
G36*
X213280Y380602D02*
X209630D01*
Y376165D01*
X213280D01*
Y380602D01*
D02*
G37*
G36*
X217929D02*
X214280D01*
Y376165D01*
X217929D01*
Y380602D01*
D02*
G37*
G36*
X253279D02*
X249594D01*
Y380315D01*
X249737Y379232D01*
X250155Y378222D01*
X250820Y377355D01*
X251687Y376690D01*
X252696Y376272D01*
X253279Y376195D01*
Y380602D01*
D02*
G37*
G36*
X37114Y372790D02*
Y371366D01*
X38538D01*
X38483Y371640D01*
X38045Y372297D01*
X37388Y372735D01*
X37114Y372790D01*
D02*
G37*
G36*
X77514Y364067D02*
X76091D01*
Y362643D01*
X76365Y362698D01*
X77021Y363136D01*
X77460Y363793D01*
X77514Y364067D01*
D02*
G37*
G36*
X536614Y383212D02*
X535204Y383073D01*
X533848Y382662D01*
X532599Y381994D01*
X531503Y381095D01*
X530605Y380000D01*
X529937Y378750D01*
X529525Y377394D01*
X529387Y375984D01*
X529525Y374574D01*
X529937Y373218D01*
X530605Y371969D01*
X531503Y370873D01*
X532599Y369975D01*
X533848Y369307D01*
X535204Y368895D01*
X536614Y368757D01*
X538024Y368895D01*
X539380Y369307D01*
X540630Y369975D01*
X541725Y370873D01*
X542624Y371969D01*
X543292Y373218D01*
X543703Y374574D01*
X543842Y375984D01*
X543703Y377394D01*
X543292Y378750D01*
X542624Y380000D01*
X541725Y381095D01*
X540630Y381994D01*
X539380Y382662D01*
X538024Y383073D01*
X536614Y383212D01*
D02*
G37*
G36*
X38538Y370366D02*
X37114D01*
Y368942D01*
X37388Y368997D01*
X38045Y369436D01*
X38483Y370092D01*
X38538Y370366D01*
D02*
G37*
G36*
X55012Y289953D02*
X54223Y289849D01*
X53022Y289352D01*
X51991Y288561D01*
X51199Y287529D01*
X50702Y286328D01*
X50532Y285039D01*
Y281602D01*
X55012D01*
Y289953D01*
D02*
G37*
G36*
X56012D02*
Y281602D01*
X60491D01*
Y285039D01*
X60322Y286328D01*
X59824Y287529D01*
X59033Y288561D01*
X58002Y289352D01*
X56801Y289849D01*
X56012Y289953D01*
D02*
G37*
G36*
X327559Y285271D02*
X326868Y285133D01*
X326282Y284742D01*
X325890Y284156D01*
X325765Y283527D01*
X324653Y282415D01*
X313823D01*
X313290Y282771D01*
X312598Y282909D01*
X311907Y282771D01*
X311321Y282380D01*
X310930Y281794D01*
X310792Y281102D01*
X310930Y280411D01*
X311321Y279825D01*
X311907Y279433D01*
X312598Y279296D01*
X313290Y279433D01*
X313823Y279790D01*
X325197D01*
X325699Y279890D01*
X326125Y280174D01*
X327621Y281671D01*
X328250Y281796D01*
X328836Y282187D01*
X329228Y282773D01*
X329365Y283465D01*
X329228Y284156D01*
X328836Y284742D01*
X328250Y285133D01*
X327559Y285271D01*
D02*
G37*
G36*
X311811Y276413D02*
X311120Y276275D01*
X310587Y275919D01*
X257524D01*
X256991Y276275D01*
X256299Y276413D01*
X255608Y276275D01*
X255022Y275884D01*
X254630Y275298D01*
X254493Y274606D01*
X254630Y273915D01*
X255022Y273329D01*
X255608Y272937D01*
X256299Y272800D01*
X256991Y272937D01*
X257524Y273294D01*
X310587D01*
X311120Y272937D01*
X311811Y272800D01*
X312502Y272937D01*
X313088Y273329D01*
X313480Y273915D01*
X313617Y274606D01*
X313480Y275298D01*
X313088Y275884D01*
X312502Y276275D01*
X311811Y276413D01*
D02*
G37*
G36*
X55012Y280602D02*
X50532D01*
Y277165D01*
X50702Y275877D01*
X51199Y274676D01*
X51991Y273644D01*
X53022Y272853D01*
X54223Y272356D01*
X55012Y272252D01*
Y280602D01*
D02*
G37*
G36*
X60491D02*
X56012D01*
Y272252D01*
X56801Y272356D01*
X58002Y272853D01*
X59033Y273644D01*
X59824Y274676D01*
X60322Y275877D01*
X60491Y277165D01*
Y280602D01*
D02*
G37*
G36*
X79134Y289805D02*
X77900Y289642D01*
X76751Y289166D01*
X75764Y288409D01*
X75007Y287422D01*
X74531Y286273D01*
X74369Y285039D01*
Y277165D01*
X74531Y275932D01*
X75007Y274783D01*
X75764Y273796D01*
X76751Y273039D01*
X77900Y272563D01*
X79134Y272400D01*
X80367Y272563D01*
X81516Y273039D01*
X82503Y273796D01*
X83261Y274783D01*
X83737Y275932D01*
X83899Y277165D01*
Y285039D01*
X83737Y286273D01*
X83261Y287422D01*
X82503Y288409D01*
X81516Y289166D01*
X80367Y289642D01*
X79134Y289805D01*
D02*
G37*
G36*
X68004Y317610D02*
X66580D01*
X66635Y317336D01*
X67073Y316680D01*
X67730Y316241D01*
X68004Y316187D01*
Y317610D01*
D02*
G37*
G36*
X70428D02*
X69004D01*
Y316187D01*
X69278Y316241D01*
X69934Y316680D01*
X70373Y317336D01*
X70428Y317610D01*
D02*
G37*
G36*
X68004Y320034D02*
X67730Y319979D01*
X67073Y319541D01*
X66635Y318884D01*
X66580Y318610D01*
X68004D01*
Y320034D01*
D02*
G37*
G36*
X315354Y315783D02*
X314663Y315645D01*
X314130Y315289D01*
X280906D01*
X280403Y315189D01*
X279977Y314904D01*
X277212Y312139D01*
X218701D01*
X218198Y312039D01*
X217773Y311755D01*
X205755Y299738D01*
X132283D01*
X131781Y299638D01*
X131355Y299353D01*
X83718Y251716D01*
X83433Y251290D01*
X83333Y250787D01*
Y241095D01*
X82134Y239895D01*
X73228D01*
Y242520D01*
X63779D01*
Y234646D01*
X73228D01*
Y237270D01*
X82677D01*
X83179Y237370D01*
X83605Y237654D01*
X85574Y239623D01*
X85858Y240049D01*
X85958Y240551D01*
Y250244D01*
X132827Y297113D01*
X206299D01*
X206802Y297213D01*
X207227Y297497D01*
X219245Y309514D01*
X277756D01*
X278258Y309614D01*
X278684Y309899D01*
X281449Y312664D01*
X314130D01*
X314663Y312308D01*
X315354Y312170D01*
X316046Y312308D01*
X316632Y312699D01*
X317023Y313285D01*
X317161Y313976D01*
X317023Y314668D01*
X316632Y315254D01*
X316046Y315645D01*
X315354Y315783D01*
D02*
G37*
G36*
X313779Y294720D02*
X313088Y294582D01*
X312555Y294226D01*
X295276D01*
X294773Y294126D01*
X294347Y293842D01*
X294032Y293526D01*
X293403Y293401D01*
X292817Y293010D01*
X292426Y292424D01*
X292288Y291732D01*
X292426Y291041D01*
X292817Y290455D01*
X293403Y290063D01*
X294094Y289926D01*
X294786Y290063D01*
X295372Y290455D01*
X295763Y291041D01*
X295875Y291601D01*
X312555D01*
X313088Y291245D01*
X313779Y291107D01*
X314471Y291245D01*
X315057Y291636D01*
X315448Y292222D01*
X315586Y292913D01*
X315448Y293605D01*
X315057Y294191D01*
X314471Y294582D01*
X313779Y294720D01*
D02*
G37*
G36*
X93307Y301019D02*
X92616Y300882D01*
X92030Y300490D01*
X91638Y299904D01*
X91501Y299213D01*
X91638Y298521D01*
X92030Y297935D01*
X92616Y297544D01*
X93307Y297406D01*
X93998Y297544D01*
X94532Y297900D01*
X102606D01*
X104210Y296296D01*
X104636Y296012D01*
X105138Y295912D01*
X113736D01*
X114269Y295555D01*
X114961Y295418D01*
X115652Y295555D01*
X116238Y295947D01*
X116630Y296533D01*
X116767Y297224D01*
X116630Y297916D01*
X116238Y298502D01*
X115652Y298893D01*
X114961Y299031D01*
X114269Y298893D01*
X113736Y298537D01*
X105682D01*
X104078Y300141D01*
X103652Y300425D01*
X103150Y300525D01*
X94532D01*
X93998Y300882D01*
X93307Y301019D01*
D02*
G37*
G36*
X343701Y324641D02*
X343009Y324503D01*
X342424Y324112D01*
X342032Y323526D01*
X341894Y322835D01*
X342032Y322143D01*
X342388Y321610D01*
Y319835D01*
X332527Y309974D01*
X292957D01*
X292424Y310330D01*
X291732Y310468D01*
X291041Y310330D01*
X290455Y309939D01*
X290063Y309353D01*
X289926Y308661D01*
X290063Y307970D01*
X290455Y307384D01*
X291041Y306993D01*
X291732Y306855D01*
X292424Y306993D01*
X292957Y307349D01*
X333071D01*
X333573Y307449D01*
X333999Y307733D01*
X344629Y318363D01*
X344914Y318789D01*
X345013Y319291D01*
Y321610D01*
X345370Y322143D01*
X345507Y322835D01*
X345370Y323526D01*
X344978Y324112D01*
X344392Y324503D01*
X343701Y324641D01*
D02*
G37*
G36*
X116035Y379089D02*
X116021Y379086D01*
X115775Y379002D01*
X115541Y378888D01*
X115325Y378743D01*
X115129Y378572D01*
X114958Y378376D01*
X114813Y378160D01*
X114698Y377926D01*
X114615Y377680D01*
X114612Y377665D01*
X116035D01*
Y379089D01*
D02*
G37*
G36*
X135933D02*
Y377665D01*
X137357D01*
X137354Y377680D01*
X137270Y377926D01*
X137155Y378160D01*
X137011Y378376D01*
X136839Y378572D01*
X136644Y378743D01*
X136427Y378888D01*
X136194Y379002D01*
X135948Y379086D01*
X135933Y379089D01*
D02*
G37*
G36*
X134933D02*
X134918Y379086D01*
X134672Y379002D01*
X134439Y378888D01*
X134222Y378743D01*
X134212Y378734D01*
X133858Y378624D01*
X133504Y378734D01*
X133494Y378743D01*
X133278Y378888D01*
X133045Y379002D01*
X132798Y379086D01*
X132784Y379089D01*
Y377165D01*
X131784D01*
Y379089D01*
X131769Y379086D01*
X131523Y379002D01*
X131289Y378888D01*
X131073Y378743D01*
X131063Y378734D01*
X130709Y378624D01*
X130355Y378734D01*
X130344Y378743D01*
X130128Y378888D01*
X129895Y379002D01*
X129649Y379086D01*
X129634Y379089D01*
Y377165D01*
X128634D01*
Y379089D01*
X128619Y379086D01*
X128373Y379002D01*
X128140Y378888D01*
X127923Y378743D01*
X127913Y378734D01*
X127559Y378624D01*
X127205Y378734D01*
X127195Y378743D01*
X126979Y378888D01*
X126745Y379002D01*
X126499Y379086D01*
X126484Y379089D01*
Y377165D01*
X125484D01*
Y379089D01*
X125470Y379086D01*
X125223Y379002D01*
X124990Y378888D01*
X124774Y378743D01*
X124763Y378734D01*
X124409Y378624D01*
X124056Y378734D01*
X124045Y378743D01*
X123829Y378888D01*
X123596Y379002D01*
X123349Y379086D01*
X123335Y379089D01*
Y377165D01*
X122335D01*
Y379089D01*
X122320Y379086D01*
X122074Y379002D01*
X121841Y378888D01*
X121624Y378743D01*
X121614Y378734D01*
X121260Y378624D01*
X120906Y378734D01*
X120896Y378743D01*
X120679Y378888D01*
X120446Y379002D01*
X120200Y379086D01*
X120185Y379089D01*
Y377165D01*
X119185D01*
Y379089D01*
X119170Y379086D01*
X118924Y379002D01*
X118691Y378888D01*
X118475Y378743D01*
X118464Y378734D01*
X118110Y378624D01*
X117756Y378734D01*
X117746Y378743D01*
X117530Y378888D01*
X117296Y379002D01*
X117050Y379086D01*
X117035Y379089D01*
Y377165D01*
X116535D01*
Y376665D01*
X114612D01*
X114615Y376651D01*
X114698Y376404D01*
X114813Y376171D01*
X114958Y375955D01*
X114967Y375944D01*
X115077Y375590D01*
X114967Y375237D01*
X114958Y375226D01*
X114813Y375010D01*
X114698Y374777D01*
X114615Y374530D01*
X114612Y374516D01*
X116535D01*
Y373516D01*
X114612D01*
X114615Y373501D01*
X114698Y373255D01*
X114813Y373022D01*
X114958Y372805D01*
X114967Y372795D01*
X115077Y372441D01*
X114967Y372087D01*
X114958Y372077D01*
X114813Y371860D01*
X114698Y371627D01*
X114615Y371381D01*
X114612Y371366D01*
X116535D01*
Y370366D01*
X114612D01*
X114615Y370352D01*
X114698Y370105D01*
X114813Y369872D01*
X114958Y369656D01*
X114967Y369645D01*
X115077Y369291D01*
X114967Y368937D01*
X114958Y368927D01*
X114813Y368711D01*
X114698Y368478D01*
X114615Y368231D01*
X114612Y368216D01*
X116535D01*
Y367216D01*
X114612D01*
X114615Y367202D01*
X114698Y366956D01*
X114813Y366722D01*
X114958Y366506D01*
X114967Y366496D01*
X115077Y366142D01*
X114967Y365788D01*
X114958Y365777D01*
X114813Y365561D01*
X114698Y365328D01*
X114615Y365082D01*
X114612Y365067D01*
X116535D01*
Y364567D01*
X117035D01*
Y362643D01*
X117050Y362646D01*
X117296Y362730D01*
X117530Y362845D01*
X117746Y362989D01*
X117756Y362999D01*
X118110Y363108D01*
X118464Y362999D01*
X118475Y362989D01*
X118691Y362845D01*
X118924Y362730D01*
X119170Y362646D01*
X119185Y362643D01*
Y364567D01*
X120185D01*
Y362643D01*
X120200Y362646D01*
X120446Y362730D01*
X120679Y362845D01*
X120896Y362989D01*
X120906Y362998D01*
X121260Y363108D01*
X121614Y362998D01*
X121624Y362989D01*
X121841Y362845D01*
X122074Y362730D01*
X122320Y362646D01*
X122335Y362643D01*
Y364567D01*
X123335D01*
Y362643D01*
X123349Y362646D01*
X123596Y362730D01*
X123829Y362845D01*
X124045Y362989D01*
X124056Y362998D01*
X124409Y363108D01*
X124763Y362998D01*
X124774Y362989D01*
X124990Y362845D01*
X125223Y362730D01*
X125470Y362646D01*
X125484Y362643D01*
Y364567D01*
X126484D01*
Y362643D01*
X126499Y362646D01*
X126745Y362730D01*
X126979Y362845D01*
X127195Y362989D01*
X127205Y362998D01*
X127559Y363108D01*
X127913Y362998D01*
X127923Y362989D01*
X128140Y362845D01*
X128373Y362730D01*
X128619Y362646D01*
X128634Y362643D01*
Y364567D01*
X129634D01*
Y362643D01*
X129649Y362646D01*
X129895Y362730D01*
X130128Y362845D01*
X130344Y362989D01*
X130355Y362998D01*
X130709Y363108D01*
X131063Y362998D01*
X131073Y362989D01*
X131289Y362845D01*
X131523Y362730D01*
X131769Y362646D01*
X131784Y362643D01*
Y364567D01*
X132784D01*
Y362643D01*
X132798Y362646D01*
X133045Y362730D01*
X133278Y362845D01*
X133494Y362989D01*
X133504Y362998D01*
X133858Y363108D01*
X134212Y362998D01*
X134222Y362989D01*
X134439Y362845D01*
X134672Y362730D01*
X134918Y362646D01*
X134933Y362643D01*
Y364567D01*
X135433D01*
Y365067D01*
X137357D01*
X137354Y365082D01*
X137270Y365328D01*
X137155Y365561D01*
X137011Y365777D01*
X137002Y365788D01*
X136892Y366142D01*
X137002Y366496D01*
X137011Y366506D01*
X137155Y366722D01*
X137270Y366956D01*
X137354Y367202D01*
X137357Y367216D01*
X135433D01*
Y368216D01*
X137357D01*
X137354Y368231D01*
X137270Y368478D01*
X137155Y368711D01*
X137011Y368927D01*
X136839Y369123D01*
Y369460D01*
X137011Y369656D01*
X137155Y369872D01*
X137270Y370105D01*
X137354Y370352D01*
X137357Y370366D01*
X135433D01*
Y371366D01*
X137357D01*
X137354Y371381D01*
X137270Y371627D01*
X137155Y371860D01*
X137011Y372077D01*
X137002Y372087D01*
X136892Y372441D01*
X137002Y372795D01*
X137011Y372805D01*
X137155Y373022D01*
X137270Y373255D01*
X137354Y373501D01*
X137357Y373516D01*
X135433D01*
Y374516D01*
X137357D01*
X137354Y374530D01*
X137270Y374777D01*
X137155Y375010D01*
X137011Y375226D01*
X137002Y375237D01*
X136892Y375591D01*
X137002Y375944D01*
X137011Y375955D01*
X137155Y376171D01*
X137270Y376404D01*
X137354Y376651D01*
X137357Y376665D01*
X135433D01*
Y377165D01*
X134933D01*
Y379089D01*
D02*
G37*
G36*
X76091Y379089D02*
Y377665D01*
X77514D01*
X77460Y377940D01*
X77021Y378596D01*
X76365Y379034D01*
X76091Y379089D01*
D02*
G37*
G36*
X343779Y385861D02*
X342752Y385725D01*
X341794Y385329D01*
X340972Y384698D01*
X340341Y383875D01*
X339944Y382917D01*
X339809Y381890D01*
Y380315D01*
X339944Y379287D01*
X340341Y378329D01*
X340972Y377507D01*
X341794Y376876D01*
X342752Y376479D01*
X343779Y376344D01*
X344807Y376479D01*
X345765Y376876D01*
X346587Y377507D01*
X347218Y378329D01*
X347615Y379287D01*
X347750Y380315D01*
Y381890D01*
X347615Y382917D01*
X347218Y383875D01*
X346587Y384698D01*
X345765Y385329D01*
X344807Y385725D01*
X343779Y385861D01*
D02*
G37*
G36*
X353780D02*
X352752Y385725D01*
X351794Y385329D01*
X350972Y384698D01*
X350341Y383875D01*
X349944Y382917D01*
X349809Y381890D01*
Y380315D01*
X349944Y379287D01*
X350341Y378329D01*
X350972Y377507D01*
X351794Y376876D01*
X352752Y376479D01*
X353780Y376344D01*
X354807Y376479D01*
X355765Y376876D01*
X356587Y377507D01*
X357219Y378329D01*
X357615Y379287D01*
X357751Y380315D01*
Y381890D01*
X357615Y382917D01*
X357219Y383875D01*
X356587Y384698D01*
X355765Y385329D01*
X354807Y385725D01*
X353780Y385861D01*
D02*
G37*
G36*
X56193Y379089D02*
X55919Y379034D01*
X55262Y378596D01*
X54824Y377940D01*
X54769Y377665D01*
X56193D01*
Y379089D01*
D02*
G37*
G36*
X217929Y386039D02*
X214280D01*
Y381602D01*
X217929D01*
Y386039D01*
D02*
G37*
G36*
X254279Y386009D02*
Y381602D01*
X257965D01*
Y381890D01*
X257822Y382973D01*
X257404Y383982D01*
X256739Y384849D01*
X255872Y385514D01*
X254863Y385933D01*
X254279Y386009D01*
D02*
G37*
G36*
X364280D02*
Y381602D01*
X367965D01*
Y381890D01*
X367822Y382973D01*
X367404Y383982D01*
X366739Y384849D01*
X365872Y385514D01*
X364863Y385933D01*
X364280Y386009D01*
D02*
G37*
G36*
X213280Y386039D02*
X209630D01*
Y381602D01*
X213280D01*
Y386039D01*
D02*
G37*
G36*
X75090Y379089D02*
X74816Y379034D01*
X74376Y378741D01*
X74016Y378637D01*
X73655Y378741D01*
X73215Y379034D01*
X72941Y379089D01*
Y377165D01*
X71941D01*
Y379089D01*
X71667Y379034D01*
X71227Y378740D01*
X70866Y378637D01*
X70506Y378740D01*
X70066Y379034D01*
X69791Y379089D01*
Y377165D01*
X68791D01*
Y379089D01*
X68517Y379034D01*
X68077Y378740D01*
X67717Y378637D01*
X67356Y378740D01*
X66916Y379034D01*
X66642Y379089D01*
Y377165D01*
X65642D01*
Y379089D01*
X65368Y379034D01*
X64928Y378741D01*
X64567Y378637D01*
X64206Y378741D01*
X63766Y379034D01*
X63492Y379089D01*
Y377165D01*
X62492D01*
Y379089D01*
X62218Y379034D01*
X61778Y378740D01*
X61417Y378637D01*
X61057Y378740D01*
X60617Y379034D01*
X60343Y379089D01*
Y377165D01*
X59343D01*
Y379089D01*
X59068Y379034D01*
X58628Y378740D01*
X58268Y378637D01*
X57907Y378740D01*
X57467Y379034D01*
X57193Y379089D01*
Y377165D01*
X56693D01*
Y376665D01*
X54769D01*
X54824Y376391D01*
X55262Y375735D01*
Y375446D01*
X54824Y374790D01*
X54769Y374516D01*
X56693D01*
Y373516D01*
X54769D01*
X54824Y373241D01*
X55118Y372801D01*
X55221Y372441D01*
X55118Y372080D01*
X54824Y371640D01*
X54769Y371366D01*
X56693D01*
Y370366D01*
X54769D01*
X54824Y370092D01*
X55118Y369652D01*
X55221Y369291D01*
X55118Y368931D01*
X54824Y368491D01*
X54769Y368216D01*
X56693D01*
Y367216D01*
X54769D01*
X54824Y366942D01*
X55118Y366502D01*
X55221Y366142D01*
X55118Y365781D01*
X54824Y365341D01*
X54769Y365067D01*
X56693D01*
Y364567D01*
X57193D01*
Y362643D01*
X57467Y362698D01*
X57907Y362992D01*
X58268Y363095D01*
X58628Y362992D01*
X59068Y362698D01*
X59343Y362643D01*
Y364567D01*
X60343D01*
Y362643D01*
X60617Y362698D01*
X61057Y362992D01*
X61417Y363095D01*
X61778Y362992D01*
X62218Y362698D01*
X62492Y362643D01*
Y364567D01*
X63492D01*
Y362643D01*
X63766Y362698D01*
X64206Y362992D01*
X64567Y363095D01*
X64928Y362992D01*
X65368Y362698D01*
X65642Y362643D01*
Y364567D01*
X66642D01*
Y362643D01*
X66916Y362698D01*
X67356Y362992D01*
X67717Y363095D01*
X68077Y362992D01*
X68517Y362698D01*
X68791Y362643D01*
Y364567D01*
X69791D01*
Y362643D01*
X70066Y362698D01*
X70506Y362992D01*
X70866Y363095D01*
X71227Y362992D01*
X71667Y362698D01*
X71941Y362643D01*
Y364567D01*
X72941D01*
Y362643D01*
X73215Y362698D01*
X73655Y362992D01*
X74016Y363095D01*
X74376Y362992D01*
X74816Y362698D01*
X75090Y362643D01*
Y364567D01*
X75590D01*
Y365067D01*
X77514D01*
X77460Y365341D01*
X77166Y365781D01*
X77062Y366142D01*
X77166Y366502D01*
X77460Y366942D01*
X77514Y367216D01*
X75590D01*
Y368216D01*
X77514D01*
X77460Y368491D01*
X77166Y368931D01*
X77062Y369291D01*
X77166Y369652D01*
X77460Y370092D01*
X77514Y370366D01*
X75590D01*
Y371366D01*
X77514D01*
X77460Y371640D01*
X77166Y372080D01*
X77062Y372441D01*
X77166Y372801D01*
X77460Y373241D01*
X77514Y373516D01*
X75590D01*
Y374516D01*
X77514D01*
X77460Y374790D01*
X77166Y375230D01*
X77062Y375591D01*
X77166Y375951D01*
X77460Y376391D01*
X77514Y376665D01*
X75590D01*
Y377165D01*
X75090D01*
Y379089D01*
D02*
G37*
G36*
X253279Y386009D02*
X252696Y385933D01*
X251687Y385514D01*
X250820Y384849D01*
X250155Y383982D01*
X249737Y382973D01*
X249594Y381890D01*
Y381602D01*
X253279D01*
Y386009D01*
D02*
G37*
G36*
X363280D02*
X362696Y385933D01*
X361687Y385514D01*
X360820Y384849D01*
X360155Y383982D01*
X359737Y382973D01*
X359594Y381890D01*
Y381602D01*
X363280D01*
Y386009D01*
D02*
G37*
G36*
X233780Y385861D02*
X232752Y385725D01*
X231794Y385329D01*
X230972Y384698D01*
X230341Y383875D01*
X229944Y382917D01*
X229809Y381890D01*
Y380315D01*
X229944Y379287D01*
X230341Y378329D01*
X230972Y377507D01*
X231794Y376876D01*
X232752Y376479D01*
X233780Y376344D01*
X234807Y376479D01*
X235765Y376876D01*
X236587Y377507D01*
X237218Y378329D01*
X237615Y379287D01*
X237751Y380315D01*
Y381890D01*
X237615Y382917D01*
X237218Y383875D01*
X236587Y384698D01*
X235765Y385329D01*
X234807Y385725D01*
X233780Y385861D01*
D02*
G37*
G36*
X243779D02*
X242752Y385725D01*
X241794Y385329D01*
X240972Y384698D01*
X240341Y383875D01*
X239944Y382917D01*
X239809Y381890D01*
Y380315D01*
X239944Y379287D01*
X240341Y378329D01*
X240972Y377507D01*
X241794Y376876D01*
X242752Y376479D01*
X243779Y376344D01*
X244807Y376479D01*
X245765Y376876D01*
X246587Y377507D01*
X247218Y378329D01*
X247615Y379287D01*
X247750Y380315D01*
Y381890D01*
X247615Y382917D01*
X247218Y383875D01*
X246587Y384698D01*
X245765Y385329D01*
X244807Y385725D01*
X243779Y385861D01*
D02*
G37*
G36*
X263779D02*
X262752Y385725D01*
X261794Y385329D01*
X260972Y384698D01*
X260341Y383875D01*
X259944Y382917D01*
X259809Y381890D01*
Y380315D01*
X259944Y379287D01*
X260341Y378329D01*
X260972Y377507D01*
X261794Y376876D01*
X262752Y376479D01*
X263779Y376344D01*
X264807Y376479D01*
X265765Y376876D01*
X266587Y377507D01*
X267218Y378329D01*
X267615Y379287D01*
X267751Y380315D01*
Y381890D01*
X267615Y382917D01*
X267218Y383875D01*
X266587Y384698D01*
X265765Y385329D01*
X264807Y385725D01*
X263779Y385861D01*
D02*
G37*
G36*
X223780D02*
X222752Y385725D01*
X221794Y385329D01*
X220972Y384698D01*
X220341Y383875D01*
X219944Y382917D01*
X219809Y381890D01*
Y380315D01*
X219944Y379287D01*
X220341Y378329D01*
X220972Y377507D01*
X221794Y376876D01*
X222752Y376479D01*
X223780Y376344D01*
X224807Y376479D01*
X225765Y376876D01*
X226587Y377507D01*
X227219Y378329D01*
X227615Y379287D01*
X227750Y380315D01*
Y381890D01*
X227615Y382917D01*
X227219Y383875D01*
X226587Y384698D01*
X225765Y385329D01*
X224807Y385725D01*
X223780Y385861D01*
D02*
G37*
G36*
X363280Y380602D02*
X359594D01*
Y380315D01*
X359737Y379232D01*
X360155Y378222D01*
X360820Y377355D01*
X361687Y376690D01*
X362696Y376272D01*
X363280Y376195D01*
Y380602D01*
D02*
G37*
G36*
X257965D02*
X254279D01*
Y376195D01*
X254863Y376272D01*
X255872Y376690D01*
X256739Y377355D01*
X257404Y378222D01*
X257822Y379232D01*
X257965Y380315D01*
Y380602D01*
D02*
G37*
G36*
X367965D02*
X364280D01*
Y376195D01*
X364863Y376272D01*
X365872Y376690D01*
X366739Y377355D01*
X367404Y378222D01*
X367822Y379232D01*
X367965Y380315D01*
Y380602D01*
D02*
G37*
G36*
X313779Y385861D02*
X312752Y385725D01*
X311794Y385329D01*
X310972Y384698D01*
X310341Y383875D01*
X309944Y382917D01*
X309809Y381890D01*
Y380315D01*
X309944Y379287D01*
X310341Y378329D01*
X310972Y377507D01*
X311794Y376876D01*
X312752Y376479D01*
X313779Y376344D01*
X314807Y376479D01*
X315765Y376876D01*
X316587Y377507D01*
X317218Y378329D01*
X317615Y379287D01*
X317751Y380315D01*
Y381890D01*
X317615Y382917D01*
X317218Y383875D01*
X316587Y384698D01*
X315765Y385329D01*
X314807Y385725D01*
X313779Y385861D01*
D02*
G37*
G36*
X323780D02*
X322752Y385725D01*
X321794Y385329D01*
X320972Y384698D01*
X320341Y383875D01*
X319944Y382917D01*
X319809Y381890D01*
Y380315D01*
X319944Y379287D01*
X320341Y378329D01*
X320972Y377507D01*
X321794Y376876D01*
X322752Y376479D01*
X323780Y376344D01*
X324807Y376479D01*
X325765Y376876D01*
X326587Y377507D01*
X327219Y378329D01*
X327615Y379287D01*
X327750Y380315D01*
Y381890D01*
X327615Y382917D01*
X327219Y383875D01*
X326587Y384698D01*
X325765Y385329D01*
X324807Y385725D01*
X323780Y385861D01*
D02*
G37*
G36*
X333780D02*
X332752Y385725D01*
X331794Y385329D01*
X330972Y384698D01*
X330341Y383875D01*
X329944Y382917D01*
X329809Y381890D01*
Y380315D01*
X329944Y379287D01*
X330341Y378329D01*
X330972Y377507D01*
X331794Y376876D01*
X332752Y376479D01*
X333780Y376344D01*
X334807Y376479D01*
X335765Y376876D01*
X336587Y377507D01*
X337218Y378329D01*
X337615Y379287D01*
X337751Y380315D01*
Y381890D01*
X337615Y382917D01*
X337218Y383875D01*
X336587Y384698D01*
X335765Y385329D01*
X334807Y385725D01*
X333780Y385861D01*
D02*
G37*
G36*
X303780D02*
X302752Y385725D01*
X301794Y385329D01*
X300972Y384698D01*
X300341Y383875D01*
X299944Y382917D01*
X299809Y381890D01*
Y380315D01*
X299944Y379287D01*
X300341Y378329D01*
X300972Y377507D01*
X301794Y376876D01*
X302752Y376479D01*
X303780Y376344D01*
X304807Y376479D01*
X305765Y376876D01*
X306587Y377507D01*
X307219Y378329D01*
X307615Y379287D01*
X307751Y380315D01*
Y381890D01*
X307615Y382917D01*
X307219Y383875D01*
X306587Y384698D01*
X305765Y385329D01*
X304807Y385725D01*
X303780Y385861D01*
D02*
G37*
G36*
X273780D02*
X272752Y385725D01*
X271794Y385329D01*
X270972Y384698D01*
X270341Y383875D01*
X269944Y382917D01*
X269809Y381890D01*
Y380315D01*
X269944Y379287D01*
X270341Y378329D01*
X270972Y377507D01*
X271794Y376876D01*
X272752Y376479D01*
X273780Y376344D01*
X274807Y376479D01*
X275765Y376876D01*
X276587Y377507D01*
X277219Y378329D01*
X277615Y379287D01*
X277750Y380315D01*
Y381890D01*
X277615Y382917D01*
X277219Y383875D01*
X276587Y384698D01*
X275765Y385329D01*
X274807Y385725D01*
X273780Y385861D01*
D02*
G37*
G36*
X283780D02*
X282752Y385725D01*
X281794Y385329D01*
X280972Y384698D01*
X280341Y383875D01*
X279944Y382917D01*
X279809Y381890D01*
Y380315D01*
X279944Y379287D01*
X280341Y378329D01*
X280972Y377507D01*
X281794Y376876D01*
X282752Y376479D01*
X283780Y376344D01*
X284807Y376479D01*
X285765Y376876D01*
X286587Y377507D01*
X287218Y378329D01*
X287615Y379287D01*
X287751Y380315D01*
Y381890D01*
X287615Y382917D01*
X287218Y383875D01*
X286587Y384698D01*
X285765Y385329D01*
X284807Y385725D01*
X283780Y385861D01*
D02*
G37*
G36*
X293779D02*
X292752Y385725D01*
X291794Y385329D01*
X290972Y384698D01*
X290341Y383875D01*
X289944Y382917D01*
X289809Y381890D01*
Y380315D01*
X289944Y379287D01*
X290341Y378329D01*
X290972Y377507D01*
X291794Y376876D01*
X292752Y376479D01*
X293779Y376344D01*
X294807Y376479D01*
X295765Y376876D01*
X296587Y377507D01*
X297218Y378329D01*
X297615Y379287D01*
X297750Y380315D01*
Y381890D01*
X297615Y382917D01*
X297218Y383875D01*
X296587Y384698D01*
X295765Y385329D01*
X294807Y385725D01*
X293779Y385861D01*
D02*
G37*
G36*
X417114Y152860D02*
Y148453D01*
X420800D01*
Y148740D01*
X420657Y149823D01*
X420239Y150833D01*
X419574Y151700D01*
X418707Y152365D01*
X417697Y152783D01*
X417114Y152860D01*
D02*
G37*
G36*
X184252Y171688D02*
X182863Y171551D01*
X181527Y171146D01*
X180296Y170488D01*
X179217Y169602D01*
X178331Y168523D01*
X177673Y167292D01*
X177268Y165956D01*
X177131Y164567D01*
X177268Y163178D01*
X177673Y161842D01*
X178331Y160611D01*
X179217Y159532D01*
X180296Y158646D01*
X181527Y157988D01*
X182863Y157583D01*
X184252Y157446D01*
X185641Y157583D01*
X186977Y157988D01*
X188208Y158646D01*
X189287Y159532D01*
X190173Y160611D01*
X190831Y161842D01*
X191236Y163178D01*
X191373Y164567D01*
X191236Y165956D01*
X190831Y167292D01*
X190173Y168523D01*
X189287Y169602D01*
X188208Y170488D01*
X186977Y171146D01*
X185641Y171551D01*
X184252Y171688D01*
D02*
G37*
G36*
X261114Y161569D02*
X260840Y161515D01*
X260184Y161076D01*
X259745Y160420D01*
X259690Y160146D01*
X261114D01*
Y161569D01*
D02*
G37*
G36*
X407114Y152860D02*
Y148453D01*
X410800D01*
Y148740D01*
X410657Y149823D01*
X410239Y150833D01*
X409574Y151700D01*
X408707Y152365D01*
X407697Y152783D01*
X407114Y152860D01*
D02*
G37*
G36*
X386114Y152890D02*
X382465D01*
Y148453D01*
X386114D01*
Y152890D01*
D02*
G37*
G36*
X390764D02*
X387114D01*
Y148453D01*
X390764D01*
Y152890D01*
D02*
G37*
G36*
X397114Y152860D02*
Y148453D01*
X400800D01*
Y148740D01*
X400657Y149823D01*
X400239Y150833D01*
X399574Y151700D01*
X398707Y152365D01*
X397697Y152783D01*
X397114Y152860D01*
D02*
G37*
G36*
X225484Y197531D02*
X224061D01*
X224115Y197257D01*
X224554Y196601D01*
X225210Y196162D01*
X225484Y196108D01*
Y197531D01*
D02*
G37*
G36*
X227908D02*
X226484D01*
Y196108D01*
X226759Y196162D01*
X227415Y196601D01*
X227853Y197257D01*
X227908Y197531D01*
D02*
G37*
G36*
X510433Y296098D02*
X509742Y295960D01*
X509156Y295569D01*
X508764Y294983D01*
X508627Y294291D01*
X508764Y293600D01*
X509120Y293067D01*
Y201575D01*
X509220Y201073D01*
X509505Y200647D01*
X510805Y199347D01*
X510930Y198718D01*
X511321Y198132D01*
X511907Y197741D01*
X512598Y197603D01*
X513290Y197741D01*
X513876Y198132D01*
X514267Y198718D01*
X514405Y199409D01*
X514267Y200101D01*
X513876Y200687D01*
X513290Y201078D01*
X512661Y201203D01*
X511746Y202118D01*
Y293067D01*
X512102Y293600D01*
X512239Y294291D01*
X512102Y294983D01*
X511710Y295569D01*
X511124Y295960D01*
X510433Y296098D01*
D02*
G37*
G36*
X297941Y175152D02*
Y173728D01*
X299365D01*
X299310Y174003D01*
X298871Y174659D01*
X298215Y175098D01*
X297941Y175152D01*
D02*
G37*
G36*
X262114Y161569D02*
Y160146D01*
X263538D01*
X263483Y160420D01*
X263045Y161076D01*
X262388Y161515D01*
X262114Y161569D01*
D02*
G37*
G36*
X265551Y166570D02*
X264860Y166433D01*
X264327Y166076D01*
X245472D01*
X244970Y165977D01*
X244544Y165692D01*
X240598Y161746D01*
X237051D01*
X236518Y162102D01*
X235827Y162239D01*
X235136Y162102D01*
X234549Y161710D01*
X234158Y161124D01*
X234020Y160433D01*
X234158Y159742D01*
X234549Y159156D01*
X235136Y158764D01*
X235827Y158627D01*
X236518Y158764D01*
X237051Y159121D01*
X241142D01*
X241644Y159220D01*
X242070Y159505D01*
X246016Y163451D01*
X264327D01*
X264860Y163095D01*
X265551Y162957D01*
X266243Y163095D01*
X266828Y163487D01*
X267220Y164073D01*
X267357Y164764D01*
X267220Y165455D01*
X266828Y166041D01*
X266243Y166433D01*
X265551Y166570D01*
D02*
G37*
G36*
X296941Y175152D02*
X296667Y175098D01*
X296010Y174659D01*
X295572Y174003D01*
X295517Y173728D01*
X296941D01*
Y175152D01*
D02*
G37*
G36*
X390764Y147453D02*
X387114D01*
Y143016D01*
X390764D01*
Y147453D01*
D02*
G37*
G36*
X396114D02*
X392429D01*
Y147165D01*
X392571Y146082D01*
X392989Y145073D01*
X393655Y144206D01*
X394521Y143541D01*
X395531Y143122D01*
X396114Y143046D01*
Y147453D01*
D02*
G37*
G36*
X406114D02*
X402429D01*
Y147165D01*
X402571Y146082D01*
X402989Y145073D01*
X403655Y144206D01*
X404522Y143541D01*
X405531Y143122D01*
X406114Y143046D01*
Y147453D01*
D02*
G37*
G36*
X386114D02*
X382465D01*
Y143016D01*
X386114D01*
Y147453D01*
D02*
G37*
G36*
X462295Y143717D02*
X458646D01*
Y139279D01*
X462295D01*
Y143717D01*
D02*
G37*
G36*
X466945D02*
X463295D01*
Y139279D01*
X466945D01*
Y143717D01*
D02*
G37*
G36*
X373228Y139995D02*
X372537Y139858D01*
X372004Y139502D01*
X341382D01*
X340849Y139858D01*
X340158Y139995D01*
X339466Y139858D01*
X338880Y139466D01*
X338489Y138880D01*
X338351Y138189D01*
X338489Y137498D01*
X338880Y136912D01*
X339466Y136520D01*
X340158Y136383D01*
X340849Y136520D01*
X341382Y136876D01*
X372004D01*
X372537Y136520D01*
X373228Y136383D01*
X373920Y136520D01*
X374506Y136912D01*
X374897Y137498D01*
X375035Y138189D01*
X374897Y138880D01*
X374506Y139466D01*
X373920Y139858D01*
X373228Y139995D01*
D02*
G37*
G36*
X396114Y152860D02*
X395531Y152783D01*
X394521Y152365D01*
X393655Y151700D01*
X392989Y150833D01*
X392571Y149823D01*
X392429Y148740D01*
Y148453D01*
X396114D01*
Y152860D01*
D02*
G37*
G36*
X406114D02*
X405531Y152783D01*
X404522Y152365D01*
X403655Y151700D01*
X402989Y150833D01*
X402571Y149823D01*
X402429Y148740D01*
Y148453D01*
X406114D01*
Y152860D01*
D02*
G37*
G36*
X416114D02*
X415531Y152783D01*
X414522Y152365D01*
X413655Y151700D01*
X412990Y150833D01*
X412571Y149823D01*
X412429Y148740D01*
Y148453D01*
X416114D01*
Y152860D01*
D02*
G37*
G36*
X410800Y147453D02*
X407114D01*
Y143046D01*
X407697Y143122D01*
X408707Y143541D01*
X409574Y144206D01*
X410239Y145073D01*
X410657Y146082D01*
X410800Y147165D01*
Y147453D01*
D02*
G37*
G36*
X416114D02*
X412429D01*
Y147165D01*
X412571Y146082D01*
X412990Y145073D01*
X413655Y144206D01*
X414522Y143541D01*
X415531Y143122D01*
X416114Y143046D01*
Y147453D01*
D02*
G37*
G36*
X400800D02*
X397114D01*
Y143046D01*
X397697Y143122D01*
X398707Y143541D01*
X399574Y144206D01*
X400239Y145073D01*
X400657Y146082D01*
X400800Y147165D01*
Y147453D01*
D02*
G37*
G36*
X420800D02*
X417114D01*
Y143046D01*
X417697Y143122D01*
X418707Y143541D01*
X419574Y144206D01*
X420239Y145073D01*
X420657Y146082D01*
X420800Y147165D01*
Y147453D01*
D02*
G37*
G36*
X266232Y255209D02*
X264809D01*
X264863Y254935D01*
X265302Y254278D01*
X265958Y253839D01*
X266232Y253785D01*
Y255209D01*
D02*
G37*
G36*
X268656D02*
X267232D01*
Y253785D01*
X267507Y253839D01*
X268163Y254278D01*
X268601Y254935D01*
X268656Y255209D01*
D02*
G37*
G36*
X237689Y257435D02*
X237415Y257381D01*
X236758Y256942D01*
X236320Y256286D01*
X236265Y256012D01*
X237689D01*
Y257435D01*
D02*
G37*
G36*
X240113Y255012D02*
X238689D01*
Y253588D01*
X238963Y253643D01*
X239619Y254081D01*
X240058Y254738D01*
X240113Y255012D01*
D02*
G37*
G36*
X69291Y252768D02*
X69004D01*
Y249083D01*
X73411D01*
X73334Y249666D01*
X72916Y250675D01*
X72251Y251542D01*
X71384Y252207D01*
X70375Y252625D01*
X69291Y252768D01*
D02*
G37*
G36*
X50394D02*
X50106D01*
Y249083D01*
X54513D01*
X54436Y249666D01*
X54018Y250675D01*
X53353Y251542D01*
X52486Y252207D01*
X51477Y252625D01*
X50394Y252768D01*
D02*
G37*
G36*
X237689Y255012D02*
X236265D01*
X236320Y254738D01*
X236758Y254081D01*
X237415Y253643D01*
X237689Y253588D01*
Y255012D01*
D02*
G37*
G36*
X76174Y262099D02*
X67823D01*
Y257619D01*
X71260D01*
X72549Y257788D01*
X73750Y258286D01*
X74781Y259077D01*
X75572Y260109D01*
X76070Y261310D01*
X76174Y262099D01*
D02*
G37*
G36*
X66823Y267578D02*
X63386D01*
X62097Y267408D01*
X60896Y266911D01*
X59865Y266120D01*
X59073Y265088D01*
X58576Y263887D01*
X58472Y263099D01*
X66823D01*
Y267578D01*
D02*
G37*
G36*
X71260D02*
X67823D01*
Y263099D01*
X76174D01*
X76070Y263887D01*
X75572Y265088D01*
X74781Y266120D01*
X73750Y266911D01*
X72549Y267408D01*
X71260Y267578D01*
D02*
G37*
G36*
X66823Y262099D02*
X58472D01*
X58576Y261310D01*
X59073Y260109D01*
X59865Y259077D01*
X60896Y258286D01*
X62097Y257788D01*
X63386Y257619D01*
X66823D01*
Y262099D01*
D02*
G37*
G36*
X238689Y257435D02*
Y256012D01*
X240113D01*
X240058Y256286D01*
X239619Y256942D01*
X238963Y257381D01*
X238689Y257435D01*
D02*
G37*
G36*
X266232Y257632D02*
X265958Y257578D01*
X265302Y257139D01*
X264863Y256483D01*
X264809Y256209D01*
X266232D01*
Y257632D01*
D02*
G37*
G36*
X267232D02*
Y256209D01*
X268656D01*
X268601Y256483D01*
X268163Y257139D01*
X267507Y257578D01*
X267232Y257632D01*
D02*
G37*
G36*
X332177Y222002D02*
X331903Y221948D01*
X331247Y221509D01*
X330808Y220853D01*
X330753Y220579D01*
X332177D01*
Y222002D01*
D02*
G37*
G36*
X333177D02*
Y220579D01*
X334601D01*
X334546Y220853D01*
X334108Y221509D01*
X333451Y221948D01*
X333177Y222002D01*
D02*
G37*
G36*
X235827Y231334D02*
X235136Y231196D01*
X234549Y230805D01*
X234158Y230219D01*
X234020Y229528D01*
X234158Y228836D01*
X234549Y228250D01*
X235136Y227859D01*
X235827Y227721D01*
X236518Y227859D01*
X237104Y228250D01*
X237496Y228836D01*
X237633Y229528D01*
X237496Y230219D01*
X237104Y230805D01*
X236518Y231196D01*
X235827Y231334D01*
D02*
G37*
G36*
X338976Y271195D02*
X125984D01*
X125482Y271095D01*
X125056Y270810D01*
X103127Y248881D01*
X102842Y248455D01*
X102743Y247953D01*
Y227283D01*
X102070Y227004D01*
X101247Y226373D01*
X100616Y225550D01*
X100389Y225001D01*
X99848D01*
X99620Y225550D01*
X98989Y226373D01*
X98167Y227004D01*
X97209Y227401D01*
X96181Y227536D01*
X95153Y227401D01*
X94196Y227004D01*
X93373Y226373D01*
X92742Y225550D01*
X92515Y225001D01*
X91974D01*
X91746Y225550D01*
X91115Y226373D01*
X90293Y227004D01*
X89335Y227401D01*
X88307Y227536D01*
X87279Y227401D01*
X86322Y227004D01*
X85499Y226373D01*
X84868Y225550D01*
X84641Y225001D01*
X84100D01*
X83872Y225550D01*
X83241Y226373D01*
X82419Y227004D01*
X81461Y227401D01*
X80433Y227536D01*
X79405Y227401D01*
X78448Y227004D01*
X77625Y226373D01*
X76994Y225550D01*
X76767Y225001D01*
X76226D01*
X75998Y225550D01*
X75367Y226373D01*
X74545Y227004D01*
X73587Y227401D01*
X72559Y227536D01*
X71531Y227401D01*
X70574Y227004D01*
X69751Y226373D01*
X69120Y225550D01*
X68893Y225001D01*
X68352D01*
X68124Y225550D01*
X67493Y226373D01*
X66671Y227004D01*
X65713Y227401D01*
X64685Y227536D01*
X63657Y227401D01*
X62700Y227004D01*
X61877Y226373D01*
X61246Y225550D01*
X61019Y225001D01*
X60477D01*
X60250Y225550D01*
X59619Y226373D01*
X58797Y227004D01*
X57839Y227401D01*
X56811Y227536D01*
X55783Y227401D01*
X54826Y227004D01*
X54003Y226373D01*
X53372Y225550D01*
X53145Y225001D01*
X52603D01*
X52376Y225550D01*
X51745Y226373D01*
X50923Y227004D01*
X49965Y227401D01*
X48937Y227536D01*
X47909Y227401D01*
X46951Y227004D01*
X46129Y226373D01*
X45498Y225550D01*
X45271Y225001D01*
X44729D01*
X44502Y225550D01*
X43871Y226373D01*
X43049Y227004D01*
X42091Y227401D01*
X41063Y227536D01*
X40035Y227401D01*
X39077Y227004D01*
X38255Y226373D01*
X37624Y225550D01*
X37227Y224593D01*
X37092Y223565D01*
Y221990D01*
X37227Y220962D01*
X37624Y220005D01*
X38255Y219182D01*
X39077Y218551D01*
X40035Y218155D01*
X41063Y218019D01*
X42091Y218155D01*
X43049Y218551D01*
X43871Y219182D01*
X44502Y220005D01*
X44729Y220554D01*
X45271D01*
X45498Y220005D01*
X46129Y219182D01*
X46951Y218551D01*
X47909Y218155D01*
X48937Y218019D01*
X49965Y218155D01*
X50923Y218551D01*
X51745Y219182D01*
X52376Y220005D01*
X52603Y220554D01*
X53145D01*
X53372Y220005D01*
X54003Y219182D01*
X54826Y218551D01*
X55783Y218155D01*
X56811Y218019D01*
X57839Y218155D01*
X58797Y218551D01*
X59619Y219182D01*
X60250Y220005D01*
X60477Y220554D01*
X61019D01*
X61246Y220005D01*
X61877Y219182D01*
X62700Y218551D01*
X63657Y218155D01*
X64685Y218019D01*
X65713Y218155D01*
X66671Y218551D01*
X67493Y219182D01*
X68124Y220005D01*
X68352Y220554D01*
X68893D01*
X69120Y220005D01*
X69751Y219182D01*
X70574Y218551D01*
X71246Y218272D01*
Y214646D01*
X71346Y214143D01*
X71631Y213718D01*
X74072Y211277D01*
X74498Y210992D01*
X75000Y210892D01*
X131890D01*
X132392Y210992D01*
X132818Y211277D01*
X139126Y217585D01*
X291886D01*
X292419Y217229D01*
X293110Y217091D01*
X293801Y217229D01*
X294388Y217620D01*
X294779Y218206D01*
X294917Y218898D01*
X294779Y219589D01*
X294388Y220175D01*
X293801Y220567D01*
X293110Y220704D01*
X292419Y220567D01*
X291886Y220210D01*
X269898D01*
X269610Y220710D01*
X269720Y221260D01*
X269582Y221951D01*
X269578Y221957D01*
X269879Y222407D01*
X269882Y222406D01*
X270573Y222544D01*
X271106Y222900D01*
X332087D01*
X332589Y223000D01*
X333015Y223284D01*
X337739Y228009D01*
X338024Y228435D01*
X338124Y228937D01*
Y257330D01*
X338448Y257655D01*
X339077Y257780D01*
X339663Y258172D01*
X340055Y258758D01*
X340192Y259449D01*
X340055Y260140D01*
X339663Y260726D01*
X339077Y261118D01*
X338386Y261255D01*
X337695Y261118D01*
X337108Y260726D01*
X336717Y260140D01*
X336592Y259511D01*
X335883Y258802D01*
X335598Y258376D01*
X335498Y257874D01*
Y229481D01*
X331543Y225525D01*
X271106D01*
X270573Y225882D01*
X269882Y226019D01*
X269191Y225882D01*
X268605Y225490D01*
X268213Y224904D01*
X268075Y224213D01*
X268213Y223521D01*
X268217Y223516D01*
X267916Y223066D01*
X267913Y223066D01*
X267222Y222929D01*
X266689Y222572D01*
X262642D01*
X262109Y222929D01*
X261417Y223066D01*
X260726Y222929D01*
X260140Y222537D01*
X259749Y221951D01*
X259611Y221260D01*
X259720Y220710D01*
X259432Y220210D01*
X138583D01*
X138080Y220110D01*
X137654Y219826D01*
X131346Y213517D01*
X75544D01*
X73872Y215189D01*
Y218272D01*
X74545Y218551D01*
X75367Y219182D01*
X75998Y220005D01*
X76226Y220554D01*
X76767D01*
X76994Y220005D01*
X77625Y219182D01*
X78448Y218551D01*
X79405Y218155D01*
X80433Y218019D01*
X81461Y218155D01*
X82419Y218551D01*
X83241Y219182D01*
X83872Y220005D01*
X84100Y220554D01*
X84641D01*
X84868Y220005D01*
X85499Y219182D01*
X86322Y218551D01*
X87279Y218155D01*
X88307Y218019D01*
X89335Y218155D01*
X90293Y218551D01*
X91115Y219182D01*
X91746Y220005D01*
X91974Y220554D01*
X92515D01*
X92742Y220005D01*
X93373Y219182D01*
X94196Y218551D01*
X95153Y218155D01*
X96181Y218019D01*
X97209Y218155D01*
X98167Y218551D01*
X98989Y219182D01*
X99620Y220005D01*
X99848Y220554D01*
X100389D01*
X100616Y220005D01*
X101247Y219182D01*
X102070Y218551D01*
X103027Y218155D01*
X104055Y218019D01*
X105083Y218155D01*
X106041Y218551D01*
X106863Y219182D01*
X107494Y220005D01*
X107722Y220554D01*
X108263D01*
X108490Y220005D01*
X109121Y219182D01*
X109944Y218551D01*
X110901Y218155D01*
X111929Y218019D01*
X112957Y218155D01*
X113915Y218551D01*
X114737Y219182D01*
X115368Y220005D01*
X115765Y220962D01*
X115900Y221990D01*
Y223565D01*
X115765Y224593D01*
X115368Y225550D01*
X114737Y226373D01*
X113915Y227004D01*
X112957Y227401D01*
X111929Y227536D01*
X110901Y227401D01*
X109944Y227004D01*
X109121Y226373D01*
X108490Y225550D01*
X108263Y225001D01*
X107722D01*
X107494Y225550D01*
X106863Y226373D01*
X106041Y227004D01*
X105368Y227283D01*
Y247409D01*
X126528Y268569D01*
X338433D01*
X342585Y264417D01*
Y223575D01*
X336858Y217848D01*
X333810D01*
X333659Y218348D01*
X334108Y218648D01*
X334546Y219304D01*
X334601Y219579D01*
X330753D01*
X330808Y219304D01*
X331247Y218648D01*
X331696Y218348D01*
X331544Y217848D01*
X311264D01*
X310731Y218204D01*
X310039Y218342D01*
X309348Y218204D01*
X308762Y217813D01*
X308370Y217227D01*
X308233Y216535D01*
X308370Y215844D01*
X308762Y215258D01*
X309348Y214867D01*
X310039Y214729D01*
X310731Y214867D01*
X311264Y215223D01*
X337402D01*
X337904Y215323D01*
X338330Y215607D01*
X344826Y222103D01*
X345110Y222529D01*
X345210Y223031D01*
Y264961D01*
X345110Y265463D01*
X344826Y265889D01*
X339904Y270810D01*
X339479Y271095D01*
X338976Y271195D01*
D02*
G37*
G36*
X502756Y234877D02*
X502065Y234740D01*
X501479Y234348D01*
X501087Y233762D01*
X500949Y233071D01*
X501087Y232380D01*
X501443Y231846D01*
Y212355D01*
X488629Y199541D01*
X287734D01*
X287527Y200041D01*
X292070Y204584D01*
X292533Y204377D01*
X292485Y204134D01*
X292622Y203443D01*
X293014Y202857D01*
X293600Y202465D01*
X294291Y202327D01*
X294983Y202465D01*
X295516Y202821D01*
X346807D01*
X347340Y202465D01*
X348031Y202327D01*
X348723Y202465D01*
X349309Y202857D01*
X349700Y203443D01*
X349838Y204134D01*
X349700Y204825D01*
X349309Y205411D01*
X348723Y205803D01*
X348031Y205940D01*
X347340Y205803D01*
X346807Y205447D01*
X295516D01*
X294983Y205803D01*
X294291Y205940D01*
X293600Y205803D01*
X293014Y205411D01*
X292604Y205693D01*
X292811Y206002D01*
X292948Y206693D01*
X292811Y207384D01*
X292419Y207970D01*
X291833Y208362D01*
X291142Y208499D01*
X290451Y208362D01*
X289864Y207970D01*
X289473Y207384D01*
X289335Y206693D01*
X289473Y206002D01*
X289594Y205820D01*
X285874Y202100D01*
X275073D01*
X274921Y202600D01*
X274944Y202615D01*
X278693Y206365D01*
X280665D01*
X281199Y206008D01*
X281890Y205871D01*
X282581Y206008D01*
X283167Y206400D01*
X283559Y206986D01*
X283696Y207677D01*
X283559Y208368D01*
X283390Y208620D01*
X283658Y209120D01*
X287161D01*
X287695Y208764D01*
X288386Y208627D01*
X289077Y208764D01*
X289663Y209156D01*
X290055Y209742D01*
X290192Y210433D01*
X290055Y211124D01*
X289663Y211710D01*
X289077Y212102D01*
X288386Y212239D01*
X287695Y212102D01*
X287161Y211746D01*
X276969D01*
X276466Y211646D01*
X276040Y211361D01*
X273078Y208399D01*
X154768D01*
X154235Y208755D01*
X153543Y208893D01*
X152852Y208755D01*
X152266Y208364D01*
X151874Y207778D01*
X151737Y207087D01*
X151874Y206395D01*
X152266Y205809D01*
X152556Y205616D01*
Y205014D01*
X152266Y204821D01*
X151874Y204235D01*
X151737Y203543D01*
X151874Y202852D01*
X152043Y202600D01*
X151776Y202100D01*
X148425D01*
X147923Y202000D01*
X147497Y201716D01*
X141198Y195416D01*
X140913Y194991D01*
X140813Y194488D01*
Y145319D01*
X140457Y144786D01*
X140320Y144095D01*
X140457Y143403D01*
X140849Y142817D01*
X141435Y142426D01*
X142126Y142288D01*
X142817Y142426D01*
X143403Y142817D01*
X143795Y143403D01*
X143932Y144095D01*
X143795Y144786D01*
X143439Y145319D01*
Y193945D01*
X148969Y199475D01*
X223961D01*
X224228Y198975D01*
X224115Y198806D01*
X224061Y198531D01*
X227908D01*
X227853Y198806D01*
X227740Y198975D01*
X228008Y199475D01*
X258998D01*
X259234Y199034D01*
X259158Y198920D01*
X259020Y198228D01*
X259158Y197537D01*
X259549Y196951D01*
X260136Y196560D01*
X260827Y196422D01*
X261518Y196560D01*
X262051Y196916D01*
X285043D01*
X285311Y196416D01*
X285142Y196164D01*
X285005Y195472D01*
X285142Y194781D01*
X285534Y194195D01*
X285623Y194135D01*
X285471Y193635D01*
X254571D01*
X254038Y193992D01*
X253346Y194129D01*
X252655Y193992D01*
X252069Y193600D01*
X251678Y193014D01*
X251540Y192323D01*
X251678Y191631D01*
X252069Y191045D01*
X252655Y190654D01*
X253346Y190516D01*
X254038Y190654D01*
X254571Y191010D01*
X299746D01*
X299982Y190569D01*
X299906Y190455D01*
X299768Y189764D01*
X299906Y189073D01*
X300297Y188487D01*
X300884Y188095D01*
X301575Y187957D01*
X302266Y188095D01*
X302524Y188268D01*
X302699Y188210D01*
X302876Y187626D01*
X302662Y187305D01*
X302524Y186614D01*
X302662Y185923D01*
X303053Y185337D01*
X303639Y184945D01*
X304331Y184808D01*
X305022Y184945D01*
X305434Y185220D01*
X305853Y185148D01*
X306154Y184686D01*
X306068Y184252D01*
X306205Y183561D01*
X306281Y183447D01*
X306046Y183005D01*
X252602D01*
X252069Y183362D01*
X251378Y183499D01*
X250687Y183362D01*
X250101Y182970D01*
X249709Y182384D01*
X249572Y181693D01*
X249709Y181002D01*
X250101Y180416D01*
X250687Y180024D01*
X251378Y179887D01*
X252069Y180024D01*
X252602Y180380D01*
X281086D01*
X281374Y179880D01*
X281264Y179331D01*
X281402Y178639D01*
X281702Y178191D01*
X281505Y177691D01*
X249256D01*
X248723Y178047D01*
X248031Y178184D01*
X247340Y178047D01*
X246754Y177655D01*
X246363Y177069D01*
X246225Y176378D01*
X246363Y175687D01*
X246754Y175101D01*
X247340Y174709D01*
X248031Y174572D01*
X248723Y174709D01*
X249256Y175065D01*
X292870D01*
X293403Y174709D01*
X294094Y174572D01*
X294786Y174709D01*
X295372Y175101D01*
X295763Y175687D01*
X295901Y176378D01*
X295763Y177069D01*
X295463Y177518D01*
X295660Y178018D01*
X304077D01*
X304313Y177577D01*
X304237Y177463D01*
X304099Y176772D01*
X304237Y176080D01*
X304628Y175494D01*
X305214Y175103D01*
X305906Y174965D01*
X306597Y175103D01*
X307130Y175459D01*
X308232D01*
X308281Y174959D01*
X307970Y174897D01*
X307384Y174506D01*
X306993Y173920D01*
X306855Y173228D01*
X306993Y172537D01*
X307384Y171951D01*
X307473Y171891D01*
X307322Y171391D01*
X299095D01*
X298934Y171891D01*
X299310Y172454D01*
X299365Y172728D01*
X295517D01*
X295572Y172454D01*
X295948Y171891D01*
X295787Y171391D01*
X230358D01*
X229825Y171748D01*
X229134Y171885D01*
X228443Y171748D01*
X227857Y171356D01*
X227465Y170770D01*
X227327Y170079D01*
X227465Y169387D01*
X227857Y168801D01*
X228443Y168410D01*
X229134Y168272D01*
X229825Y168410D01*
X230358Y168766D01*
X497835D01*
X498337Y168866D01*
X498763Y169151D01*
X503684Y174072D01*
X503969Y174498D01*
X504069Y175000D01*
Y190311D01*
X504425Y190844D01*
X504562Y191535D01*
X504425Y192227D01*
X504033Y192813D01*
X503447Y193204D01*
X502756Y193342D01*
X502065Y193204D01*
X501479Y192813D01*
X501087Y192227D01*
X500949Y191535D01*
X501087Y190844D01*
X501443Y190311D01*
Y175544D01*
X497291Y171391D01*
X379720D01*
X379453Y171891D01*
X379622Y172143D01*
X379759Y172835D01*
X379622Y173526D01*
X379230Y174112D01*
X378644Y174504D01*
X377953Y174641D01*
X377450Y174541D01*
X309886D01*
X309353Y174897D01*
X309042Y174959D01*
X309091Y175459D01*
X386571D01*
X387104Y175103D01*
X387795Y174965D01*
X388487Y175103D01*
X389073Y175494D01*
X389464Y176080D01*
X389602Y176772D01*
X389464Y177463D01*
X389388Y177577D01*
X389623Y178018D01*
X433905D01*
X434820Y177103D01*
X434945Y176474D01*
X435337Y175888D01*
X435923Y175496D01*
X436614Y175359D01*
X437305Y175496D01*
X437891Y175888D01*
X438283Y176474D01*
X438420Y177165D01*
X438283Y177857D01*
X437891Y178443D01*
X437305Y178834D01*
X436677Y178959D01*
X435756Y179880D01*
X435963Y180380D01*
X487008D01*
X487510Y180480D01*
X487936Y180765D01*
X507227Y200056D01*
X507512Y200482D01*
X507612Y200984D01*
Y217870D01*
X507968Y218403D01*
X508106Y219094D01*
X507968Y219786D01*
X507577Y220372D01*
X506990Y220763D01*
X506299Y220901D01*
X505608Y220763D01*
X505022Y220372D01*
X504630Y219786D01*
X504568Y219475D01*
X504069Y219524D01*
Y231846D01*
X504425Y232380D01*
X504562Y233071D01*
X504425Y233762D01*
X504033Y234348D01*
X503447Y234740D01*
X502756Y234877D01*
D02*
G37*
G36*
X475000Y214011D02*
X474309Y213874D01*
X473723Y213482D01*
X473331Y212896D01*
X473194Y212205D01*
X473331Y211513D01*
X473723Y210927D01*
X474309Y210536D01*
X475000Y210398D01*
X475691Y210536D01*
X476277Y210927D01*
X476669Y211513D01*
X476806Y212205D01*
X476669Y212896D01*
X476277Y213482D01*
X475691Y213874D01*
X475000Y214011D01*
D02*
G37*
G36*
X285039Y216964D02*
X284348Y216826D01*
X283815Y216470D01*
X144291D01*
X143789Y216370D01*
X143363Y216086D01*
X129780Y202503D01*
X129496Y202077D01*
X129396Y201575D01*
Y133811D01*
X123078Y127494D01*
X77756D01*
X77254Y127394D01*
X76828Y127109D01*
X70135Y120416D01*
X69850Y119991D01*
X69750Y119488D01*
Y58705D01*
X69394Y58172D01*
X69257Y57480D01*
X69394Y56789D01*
X69786Y56203D01*
X70372Y55812D01*
X71063Y55674D01*
X71754Y55812D01*
X72340Y56203D01*
X72732Y56789D01*
X72869Y57480D01*
X72732Y58172D01*
X72376Y58705D01*
Y118945D01*
X78300Y124869D01*
X83137D01*
X83247Y124369D01*
X82930Y124156D01*
X80174Y121401D01*
X79890Y120975D01*
X79790Y120472D01*
Y56646D01*
X77409Y54265D01*
X54571D01*
X54038Y54622D01*
X53347Y54759D01*
X52655Y54622D01*
X52069Y54230D01*
X51678Y53644D01*
X51540Y52953D01*
X51678Y52262D01*
X52069Y51675D01*
X52655Y51284D01*
X53347Y51146D01*
X54038Y51284D01*
X54571Y51640D01*
X77953D01*
X78455Y51740D01*
X78881Y52025D01*
X82030Y55174D01*
X82315Y55600D01*
X82415Y56102D01*
Y119929D01*
X84402Y121916D01*
X129331D01*
X129833Y122016D01*
X130259Y122300D01*
X136755Y128796D01*
X136925Y129051D01*
X137039Y129222D01*
X137139Y129724D01*
Y196307D01*
X151725Y210892D01*
X259996D01*
X260529Y210536D01*
X261221Y210398D01*
X261912Y210536D01*
X262498Y210927D01*
X262889Y211513D01*
X263027Y212205D01*
X262889Y212896D01*
X262589Y213345D01*
X262786Y213845D01*
X283815D01*
X284348Y213489D01*
X285039Y213351D01*
X285731Y213489D01*
X286317Y213880D01*
X286708Y214466D01*
X286846Y215158D01*
X286708Y215849D01*
X286317Y216435D01*
X285731Y216826D01*
X285039Y216964D01*
D02*
G37*
G36*
X73411Y248083D02*
X69004D01*
Y244397D01*
X69291D01*
X70375Y244540D01*
X71384Y244958D01*
X72251Y245623D01*
X72916Y246490D01*
X73334Y247499D01*
X73411Y248083D01*
D02*
G37*
G36*
X49106Y252768D02*
X48819D01*
X47736Y252625D01*
X46726Y252207D01*
X45859Y251542D01*
X45194Y250675D01*
X44776Y249666D01*
X44699Y249083D01*
X49106D01*
Y252768D01*
D02*
G37*
G36*
X68004D02*
X67716D01*
X66633Y252625D01*
X65624Y252207D01*
X64757Y251542D01*
X64092Y250675D01*
X63674Y249666D01*
X63597Y249083D01*
X68004D01*
Y252768D01*
D02*
G37*
G36*
Y248083D02*
X63597D01*
X63674Y247499D01*
X64092Y246490D01*
X64757Y245623D01*
X65624Y244958D01*
X66633Y244540D01*
X67716Y244397D01*
X68004D01*
Y248083D01*
D02*
G37*
G36*
X336417Y266176D02*
X335726Y266039D01*
X335140Y265647D01*
X334749Y265061D01*
X334623Y264433D01*
X332733Y262542D01*
X332449Y262117D01*
X332349Y261614D01*
Y233024D01*
X328984Y229659D01*
X271500D01*
X270967Y230015D01*
X270276Y230153D01*
X269584Y230015D01*
X268998Y229624D01*
X268607Y229038D01*
X268469Y228346D01*
X268607Y227655D01*
X268998Y227069D01*
X269584Y226678D01*
X270276Y226540D01*
X270967Y226678D01*
X271500Y227034D01*
X329528D01*
X330030Y227134D01*
X330456Y227418D01*
X334590Y231552D01*
X334874Y231978D01*
X334974Y232480D01*
Y261070D01*
X336480Y262576D01*
X337109Y262701D01*
X337695Y263093D01*
X338086Y263679D01*
X338224Y264370D01*
X338086Y265061D01*
X337695Y265647D01*
X337109Y266039D01*
X336417Y266176D01*
D02*
G37*
G36*
X49106Y248083D02*
X44699D01*
X44776Y247499D01*
X45194Y246490D01*
X45859Y245623D01*
X46726Y244958D01*
X47736Y244540D01*
X48819Y244397D01*
X49106D01*
Y248083D01*
D02*
G37*
G36*
X54513D02*
X50106D01*
Y244397D01*
X50394D01*
X51477Y244540D01*
X52486Y244958D01*
X53353Y245623D01*
X54018Y246490D01*
X54436Y247499D01*
X54513Y248083D01*
D02*
G37*
%LPD*%
D38*
X343701Y319291D02*
Y322835D01*
X333071Y308661D02*
X343701Y319291D01*
X291732Y308661D02*
X333071D01*
X277165Y154724D02*
Y165354D01*
X271260Y148819D02*
X277165Y154724D01*
X25197Y370866D02*
X36614D01*
X19291Y364961D02*
X25197Y370866D01*
X19291Y213976D02*
Y364961D01*
X105138Y297224D02*
X114961D01*
X103150Y299213D02*
X105138Y297224D01*
X93307Y299213D02*
X103150D01*
X223622Y287008D02*
X320079D01*
X339764Y306693D01*
X522047D01*
X527953Y300787D01*
Y160630D02*
Y300787D01*
Y160630D02*
X547638Y140945D01*
Y46850D02*
Y140945D01*
X540945Y40157D02*
X547638Y46850D01*
X312205Y40157D02*
X540945D01*
X298583Y53780D02*
X312205Y40157D01*
X298583Y53780D02*
Y127559D01*
X288583Y114567D02*
Y127559D01*
X271260Y135039D02*
Y148819D01*
X340158Y138189D02*
X373228D01*
X396614Y130472D02*
Y137008D01*
X394488Y128347D02*
X396614Y130472D01*
X381496Y128347D02*
X394488D01*
X377953Y131890D02*
X381496Y128347D01*
X377953Y131890D02*
Y153543D01*
X374016Y157480D02*
X377953Y153543D01*
X282677Y157480D02*
X374016D01*
X280118Y160039D02*
X282677Y157480D01*
X280118Y160039D02*
Y163386D01*
X406614Y131575D02*
Y137008D01*
Y131575D02*
X407874Y130315D01*
X441339D01*
X443307Y132283D01*
Y151575D01*
X440551Y154331D02*
X443307Y151575D01*
X425984Y154331D02*
X440551D01*
X416614Y137008D02*
X436614D01*
X387402Y176772D02*
X387795Y177165D01*
X305906Y176772D02*
X387402D01*
X434449Y179331D02*
X436614Y177165D01*
X283071Y179331D02*
X434449D01*
X377559Y173228D02*
X377953Y172835D01*
X308661Y173228D02*
X377559D01*
X304331Y186614D02*
X390945D01*
X393701Y184252D02*
X398031Y188583D01*
X307874Y184252D02*
X393701D01*
X301575Y189764D02*
X359842D01*
X218701Y310827D02*
X277756D01*
X280906Y313976D01*
X315354D01*
X284449Y320276D02*
X314764D01*
X283661Y321063D02*
X284449Y320276D01*
X215945Y321063D02*
X283661D01*
X19291Y213976D02*
X41063Y192205D01*
X248031Y176378D02*
X294094D01*
X235827Y160433D02*
X241142D01*
X245472Y164764D01*
X265551D01*
X51575Y73819D02*
Y87992D01*
X44488Y66732D02*
X51575Y73819D01*
X44488Y43307D02*
Y66732D01*
Y43307D02*
X49213Y38583D01*
X89764D01*
X95079Y43898D01*
Y105118D01*
X99410Y109449D01*
X138779D01*
X158268Y128937D01*
X195866D01*
X206299Y139370D01*
X251772D01*
X258268Y132874D01*
Y115157D02*
Y132874D01*
Y115157D02*
X260236Y113189D01*
X271260D01*
X276772Y118701D01*
Y148425D01*
X282874Y154528D01*
X358071D01*
X294291Y204134D02*
X348031D01*
X509055Y131693D02*
Y151772D01*
X500394Y160433D02*
X509055Y151772D01*
X294783Y160433D02*
X500394D01*
X509055Y131693D02*
X512795Y127953D01*
X500984Y163976D02*
X517126Y147835D01*
X286024Y163976D02*
X500984D01*
X86811Y51968D02*
Y111811D01*
X91339Y116339D01*
X132087D01*
X153543Y137795D01*
X197638D01*
X41063Y136163D02*
Y192205D01*
X48937Y136163D02*
Y161535D01*
X53740Y166339D01*
X60630D01*
X151181Y212205D02*
X261221D01*
X135827Y196850D02*
X151181Y212205D01*
X135827Y129724D02*
Y196850D01*
X129331Y123228D02*
X135827Y129724D01*
X83858Y123228D02*
X129331D01*
X81102Y120472D02*
X83858Y123228D01*
X81102Y56102D02*
Y120472D01*
X77953Y52953D02*
X81102Y56102D01*
X53347Y52953D02*
X77953D01*
X71063Y57480D02*
Y119488D01*
X77756Y126181D01*
X123622D01*
X130709Y133268D01*
Y201575D01*
X144291Y215158D01*
X285039D01*
X256299Y274606D02*
X311811D01*
X510433Y201575D02*
X512598Y199409D01*
X512598D01*
X510433Y201575D02*
Y294291D01*
X484055Y192323D02*
X484055Y192323D01*
X253346Y192323D02*
X484055D01*
X502756Y211811D02*
Y233071D01*
X489173Y198228D02*
X502756Y211811D01*
X260827Y198228D02*
X489173D01*
X336811Y257874D02*
X338386Y259449D01*
X336811Y228937D02*
Y257874D01*
X332087Y224213D02*
X336811Y228937D01*
X269882Y224213D02*
X332087D01*
X333661Y261614D02*
X336417Y264370D01*
X333661Y232480D02*
Y261614D01*
X329528Y228346D02*
X333661Y232480D01*
X270276Y228346D02*
X329528D01*
X473898Y67047D02*
X489685D01*
X465551Y75394D02*
X473898Y67047D01*
X465551Y75394D02*
Y126575D01*
X417598Y67047D02*
X436142D01*
X415059Y69587D02*
X417598Y67047D01*
X415059Y69587D02*
Y125689D01*
X365039Y67047D02*
X383189D01*
X357283Y74803D02*
X365039Y67047D01*
X357283Y74803D02*
Y126378D01*
X330433Y67047D02*
Y126496D01*
X262677Y67047D02*
X277087D01*
X252953Y76772D02*
X262677Y67047D01*
X252953Y76772D02*
Y127362D01*
X223937Y67047D02*
Y125315D01*
X170984Y67047D02*
X196968D01*
X209055Y79134D01*
Y131102D01*
X204921Y85630D02*
Y131102D01*
X195276Y75984D02*
X204921Y85630D01*
X151181Y75984D02*
X195276D01*
X142244Y67047D02*
X151181Y75984D01*
X118228Y67047D02*
X142244D01*
X264961Y120866D02*
Y140551D01*
X261614Y143898D02*
X264961Y140551D01*
X261614Y143898D02*
Y159646D01*
X502756Y175000D02*
Y191535D01*
X497835Y170079D02*
X502756Y175000D01*
X229134Y170079D02*
X497835D01*
X512795Y66535D02*
Y127953D01*
Y66535D02*
X515394Y63937D01*
X535039D01*
X517126Y76575D02*
Y147835D01*
Y76575D02*
X519764Y73937D01*
X535039D01*
X153543Y203543D02*
X274016D01*
X278150Y207677D01*
X281890D01*
X276969Y210433D02*
X288386D01*
X273622Y207087D02*
X276969Y210433D01*
X153543Y207087D02*
X273622D01*
X261417Y221260D02*
X267913D01*
X138583Y218898D02*
X293110D01*
X131890Y212205D02*
X138583Y218898D01*
X75000Y212205D02*
X131890D01*
X72559Y214646D02*
X75000Y212205D01*
X72559Y214646D02*
Y222778D01*
X310039Y216535D02*
X337402D01*
X343898Y223031D01*
X104055Y222778D02*
Y247953D01*
X291142Y205512D02*
Y206693D01*
X286417Y200787D02*
X291142Y205512D01*
X148425Y200787D02*
X286417D01*
X142126Y194488D02*
X148425Y200787D01*
X142126Y144095D02*
Y194488D01*
X286811Y195472D02*
X491535D01*
X492717Y196653D01*
X251378Y181693D02*
X487008D01*
X506299Y200984D01*
Y219094D01*
X104055Y247953D02*
X125984Y269882D01*
X343898Y223031D02*
Y264961D01*
X338976Y269882D02*
X343898Y264961D01*
X125984Y269882D02*
X338976D01*
X295276Y292913D02*
X313779D01*
X294094Y291732D02*
X295276Y292913D01*
X312598Y281102D02*
X325197D01*
X327559Y283465D01*
X37008Y238583D02*
X49606D01*
X31890Y243701D02*
X37008Y238583D01*
X31890Y243701D02*
Y298425D01*
X45276Y311811D01*
X206693D01*
X215945Y321063D01*
X206299Y298425D02*
X218701Y310827D01*
X132283Y298425D02*
X206299D01*
X84646Y250787D02*
X132283Y298425D01*
X84646Y240551D02*
Y250787D01*
X82677Y238583D02*
X84646Y240551D01*
X68504Y238583D02*
X82677D01*
D39*
X213779Y381102D02*
D03*
X386614Y147953D02*
D03*
Y137008D02*
D03*
X288583Y127559D02*
D03*
X462795Y138779D02*
D03*
X111024Y22047D02*
D03*
X163976D02*
D03*
X270276D02*
D03*
X217126D02*
D03*
X376575D02*
D03*
X323425D02*
D03*
X483071D02*
D03*
X429724D02*
D03*
X41142Y22047D02*
D03*
X41063Y136163D02*
D03*
D40*
X223780Y381102D02*
D03*
X233780D02*
D03*
X243779D02*
D03*
X253780D02*
D03*
X263779D02*
D03*
X273780D02*
D03*
X283780D02*
D03*
X293779D02*
D03*
X303780D02*
D03*
X313779D02*
D03*
X323780D02*
D03*
X333780D02*
D03*
X343779D02*
D03*
X353780D02*
D03*
X363779D02*
D03*
X416614Y147953D02*
D03*
X406614D02*
D03*
X396614D02*
D03*
X416614Y137008D02*
D03*
X406614D02*
D03*
X396614D02*
D03*
X298583Y127559D02*
D03*
X308583D02*
D03*
X452795Y138779D02*
D03*
X134646Y22047D02*
D03*
X122835D02*
D03*
X187598D02*
D03*
X175787D02*
D03*
X293898D02*
D03*
X282087D02*
D03*
X240748D02*
D03*
X228937D02*
D03*
X400197D02*
D03*
X388386D02*
D03*
X347047D02*
D03*
X335236D02*
D03*
X506693D02*
D03*
X494882D02*
D03*
X453346D02*
D03*
X441535D02*
D03*
X51142Y22047D02*
D03*
X61142D02*
D03*
X71142D02*
D03*
X81142D02*
D03*
X48937Y136163D02*
D03*
X56811D02*
D03*
X64685D02*
D03*
X72559D02*
D03*
X80433D02*
D03*
X88307D02*
D03*
X96181D02*
D03*
X104055D02*
D03*
X111929D02*
D03*
X41063Y222778D02*
D03*
X48937D02*
D03*
X56811D02*
D03*
X64685D02*
D03*
X72559D02*
D03*
X80433D02*
D03*
X88307D02*
D03*
X96181D02*
D03*
X104055D02*
D03*
X111929D02*
D03*
D41*
X25591Y63189D02*
D03*
X535039Y133937D02*
D03*
Y83937D02*
D03*
X49606Y238583D02*
D03*
X68504D02*
D03*
D42*
X25591Y53189D02*
D03*
Y43189D02*
D03*
X535039Y103937D02*
D03*
Y113937D02*
D03*
Y123937D02*
D03*
Y53937D02*
D03*
Y63937D02*
D03*
Y73937D02*
D03*
X49606Y248583D02*
D03*
X68504D02*
D03*
D43*
X67323Y262598D02*
D03*
D44*
X55512Y281102D02*
D03*
X79134D02*
D03*
D45*
X343701Y322835D02*
D03*
X291732Y308661D02*
D03*
X277165Y165354D02*
D03*
X68504Y318110D02*
D03*
X33465Y330315D02*
D03*
X36614Y370866D02*
D03*
X85039Y330315D02*
D03*
X146457Y330413D02*
D03*
X93307Y299213D02*
D03*
X114961Y297224D02*
D03*
X223622Y287008D02*
D03*
X288583Y114567D02*
D03*
X306693Y103937D02*
D03*
X271260Y135039D02*
D03*
X373228Y138189D02*
D03*
X340158D02*
D03*
X425984Y154331D02*
D03*
X436614Y137008D02*
D03*
Y177165D02*
D03*
X377953Y172835D02*
D03*
X387795Y176772D02*
D03*
X390945Y186614D02*
D03*
X398031Y188583D02*
D03*
X359842Y189764D02*
D03*
X308661Y173228D02*
D03*
X305906Y176772D02*
D03*
X307874Y184252D02*
D03*
X304331Y186614D02*
D03*
X332677Y220079D02*
D03*
X238189Y255512D02*
D03*
X283071Y179331D02*
D03*
X301575Y189764D02*
D03*
X297441Y173228D02*
D03*
X294094Y176378D02*
D03*
X280118Y163386D02*
D03*
X265551Y164764D02*
D03*
X51575Y87992D02*
D03*
X358071Y154528D02*
D03*
X314764Y320276D02*
D03*
X315354Y313976D02*
D03*
X348031Y204134D02*
D03*
X294291D02*
D03*
X225984Y198031D02*
D03*
X266732Y255709D02*
D03*
X235827Y229528D02*
D03*
X286024Y163976D02*
D03*
X294783Y160531D02*
D03*
X86811Y51968D02*
D03*
X197638Y137795D02*
D03*
X235827Y160433D02*
D03*
X60630Y166339D02*
D03*
X153543Y203543D02*
D03*
X261221Y212205D02*
D03*
X53347Y52953D02*
D03*
X71063Y57480D02*
D03*
X285039Y215158D02*
D03*
X256299Y274606D02*
D03*
X311811D02*
D03*
X248031Y176378D02*
D03*
X187402Y103937D02*
D03*
X240354D02*
D03*
X293504D02*
D03*
X346850D02*
D03*
X399606D02*
D03*
X452165D02*
D03*
X134449D02*
D03*
X512598Y199409D02*
D03*
X510433Y294291D02*
D03*
X512598Y139567D02*
D03*
X504528Y103937D02*
D03*
X484055Y192323D02*
D03*
X502756Y233071D02*
D03*
X260827Y198228D02*
D03*
X253346Y192323D02*
D03*
X338386Y259449D02*
D03*
X336417Y264370D02*
D03*
X270276Y228346D02*
D03*
X269882Y224213D02*
D03*
X204921Y131102D02*
D03*
X209055D02*
D03*
X357283Y126378D02*
D03*
X415059Y125689D02*
D03*
X465551Y126575D02*
D03*
X118228Y67047D02*
D03*
X170984D02*
D03*
X223937D02*
D03*
X277087D02*
D03*
X330433D02*
D03*
X383189D02*
D03*
X436142D02*
D03*
X489685D02*
D03*
X330433Y126496D02*
D03*
X252953Y127362D02*
D03*
X223937Y125315D02*
D03*
X264961Y120866D02*
D03*
X261614Y159646D02*
D03*
X502756Y191535D02*
D03*
X229134Y170079D02*
D03*
X475000Y212205D02*
D03*
X281890Y207677D02*
D03*
X288386Y210433D02*
D03*
X153543Y207087D02*
D03*
X293110Y218898D02*
D03*
X267913Y221260D02*
D03*
X261417D02*
D03*
X310039Y216535D02*
D03*
X291142Y206693D02*
D03*
X142126Y144095D02*
D03*
X286811Y195472D02*
D03*
X492717Y196653D02*
D03*
X251378Y181693D02*
D03*
X506299Y219094D02*
D03*
X313779Y292913D02*
D03*
X294094Y291732D02*
D03*
X312598Y281102D02*
D03*
X327559Y283465D02*
D03*
X119685Y377165D02*
D03*
X122835D02*
D03*
X119685Y374016D02*
D03*
X125984Y377165D02*
D03*
X129134D02*
D03*
X132284D02*
D03*
X119685Y370866D02*
D03*
X122835D02*
D03*
X125984Y374016D02*
D03*
X122835D02*
D03*
X129134D02*
D03*
Y370866D02*
D03*
X132284D02*
D03*
X125984D02*
D03*
X132284Y374016D02*
D03*
X119685Y367717D02*
D03*
X132284D02*
D03*
X122835D02*
D03*
X125984D02*
D03*
X129134D02*
D03*
X119685Y364567D02*
D03*
X122835D02*
D03*
X125984D02*
D03*
X129134D02*
D03*
X132284D02*
D03*
X59843Y377165D02*
D03*
X62992D02*
D03*
X59843Y374016D02*
D03*
X66142Y377165D02*
D03*
X69291D02*
D03*
X72441D02*
D03*
X59843Y370866D02*
D03*
X62992D02*
D03*
X66142Y374016D02*
D03*
X62992D02*
D03*
X69291D02*
D03*
Y370866D02*
D03*
X72441D02*
D03*
X66142D02*
D03*
X72441Y374016D02*
D03*
X59843Y367717D02*
D03*
X72441D02*
D03*
X62992D02*
D03*
X66142D02*
D03*
X69291D02*
D03*
X59843Y364567D02*
D03*
X62992D02*
D03*
X66142D02*
D03*
X69291D02*
D03*
X72441D02*
D03*
X56693D02*
D03*
Y367717D02*
D03*
Y370866D02*
D03*
Y374016D02*
D03*
Y377165D02*
D03*
X75590Y364567D02*
D03*
Y367717D02*
D03*
Y370866D02*
D03*
Y374016D02*
D03*
Y377165D02*
D03*
X116535Y364567D02*
D03*
Y367717D02*
D03*
Y370866D02*
D03*
Y374016D02*
D03*
Y377165D02*
D03*
X135433Y364567D02*
D03*
Y367717D02*
D03*
Y370866D02*
D03*
Y374016D02*
D03*
Y377165D02*
D03*
D46*
X17717Y375984D02*
D03*
X184252Y164567D02*
D03*
X550394D02*
D03*
X536614Y375984D02*
D03*
Y17717D02*
D03*
X17717D02*
D03*
M02*
